<svg xmlns="http://www.w3.org/2000/svg" viewBox="73 111 466 368.94">
<defs>
<linearGradient id="bs1" x1="0" y1="0" x2="0.25" y2="1">
<stop offset="0" stop-color="#2B2C38"/><stop offset="1" stop-color="#20212B"/>
</linearGradient>
<clipPath id="cs1"><path d="M 441.50 121.00 C 443.00 122.20 445.00 123.80 446.50 125.00 C 447.70 126.50 449.30 128.50 450.50 130.00 C 451.70 131.50 453.29 133.51 454.47 135.03 C 455.65 136.55 457.19 138.61 458.34 140.16 C 459.50 141.70 461.00 143.80 462.16 145.34 C 463.31 146.89 464.86 148.94 466.03 150.47 C 467.20 152.00 468.78 154.02 469.97 155.53 C 471.15 157.05 472.69 159.11 473.94 160.56 C 475.18 162.02 476.82 163.98 478.28 165.22 C 479.74 166.46 481.83 167.97 483.66 168.84 C 485.48 169.72 488.25 170.55 490.47 171.03 C 492.69 171.51 495.99 171.81 498.47 172.03 C 500.94 172.26 504.41 172.39 506.97 172.53 C 509.52 172.68 513.02 172.78 515.50 173.00 C 517.98 173.22 521.10 173.70 523.50 174.00 C 525.15 175.05 527.35 176.45 529.00 177.50 C 528.40 179.30 527.60 181.70 527.00 183.50 C 525.50 184.70 523.52 186.32 522.00 187.50 C 520.48 188.68 518.40 190.20 516.84 191.34 C 515.29 192.49 513.20 194.00 511.62 195.12 C 510.05 196.25 507.94 197.74 506.34 198.84 C 504.75 199.95 502.63 201.43 501.00 202.50 C 499.37 203.57 497.15 204.95 495.50 206.00 C 494.60 207.80 493.40 210.20 492.50 212.00 C 492.80 214.40 493.09 217.75 493.50 220.00 C 493.91 222.25 494.95 224.85 495.25 227.00 C 495.55 229.15 495.68 232.19 495.47 234.34 C 495.26 236.50 494.50 239.36 493.84 241.34 C 493.18 243.33 491.96 245.76 491.06 247.56 C 490.16 249.36 488.83 251.63 487.84 253.34 C 486.86 255.06 485.50 257.30 484.50 259.00 C 483.50 260.70 482.16 262.96 481.19 264.69 C 480.22 266.42 478.95 268.75 478.03 270.53 C 477.11 272.31 475.91 274.71 475.03 276.53 C 474.15 278.35 473.01 280.81 472.19 282.69 C 471.37 284.57 470.30 287.10 469.56 289.06 C 468.83 291.03 467.88 293.68 467.28 295.78 C 466.69 297.89 466.00 300.80 465.59 303.09 C 465.19 305.39 464.83 308.63 464.59 311.09 C 464.36 313.56 464.17 316.97 464.03 319.53 C 463.90 322.10 463.76 325.56 463.69 328.19 C 463.61 330.81 463.56 334.36 463.53 337.03 C 463.50 339.70 463.50 343.30 463.50 346.00 C 463.50 348.70 463.50 352.30 463.50 355.00 C 463.50 357.70 463.50 361.30 463.50 364.00 C 463.50 366.70 463.51 370.29 463.53 372.97 C 463.55 375.65 463.61 379.19 463.66 381.84 C 463.70 384.50 463.80 388.00 463.84 390.66 C 463.89 393.31 463.95 396.85 463.97 399.53 C 463.99 402.21 464.00 405.80 464.00 408.50 C 464.00 411.20 464.00 414.80 464.00 417.50 C 464.00 420.20 464.00 423.80 464.00 426.50 C 464.00 429.20 463.85 432.95 464.00 435.50 C 464.15 438.05 464.70 441.10 465.00 443.50 C 467.10 444.10 469.98 444.82 472.00 445.50 C 474.02 446.18 476.55 447.25 478.50 448.00 C 479.55 449.65 480.95 451.85 482.00 453.50 C 481.10 455.30 479.90 457.70 479.00 459.50 C 477.20 460.40 475.08 461.88 473.00 462.50 C 470.92 463.12 467.53 463.33 465.16 463.66 C 462.78 463.98 459.55 464.35 457.16 464.66 C 454.76 464.96 451.56 465.36 449.19 465.69 C 446.82 466.02 443.71 466.51 441.34 466.84 C 438.98 467.18 435.84 467.64 433.44 467.94 C 431.03 468.23 427.79 468.59 425.31 468.81 C 422.84 469.04 419.49 469.29 416.94 469.44 C 414.39 469.59 410.93 469.74 408.31 469.81 C 405.70 469.89 402.15 469.93 399.50 469.94 C 396.85 469.94 393.30 469.89 390.66 469.84 C 388.01 469.80 384.50 469.70 381.88 469.62 C 379.25 469.55 375.75 469.45 373.12 469.38 C 370.50 469.30 367.00 469.20 364.38 469.12 C 361.75 469.05 358.26 468.94 355.66 468.84 C 353.05 468.75 349.60 468.60 347.03 468.47 C 344.46 468.34 341.03 468.17 338.50 468.00 C 335.97 467.83 332.57 467.63 330.19 467.31 C 327.80 467.00 324.70 466.50 322.59 465.91 C 320.48 465.32 317.93 464.27 316.12 463.38 C 314.32 462.48 312.21 460.99 310.59 459.91 C 308.98 458.82 306.98 457.22 305.38 456.12 C 303.77 455.03 301.58 453.62 299.91 452.59 C 298.23 451.57 295.89 450.31 294.22 449.28 C 292.55 448.25 290.34 446.86 288.78 445.72 C 287.22 444.58 285.30 442.90 283.81 441.69 C 282.33 440.47 280.47 438.73 278.88 437.62 C 277.28 436.52 275.03 435.17 273.16 434.34 C 271.28 433.52 268.49 432.71 266.38 432.12 C 264.26 431.54 261.23 430.97 259.06 430.44 C 256.90 429.90 253.99 429.21 251.94 428.56 C 249.89 427.91 247.29 426.91 245.41 426.09 C 243.53 425.27 241.17 424.03 239.41 423.09 C 237.64 422.16 235.36 420.84 233.66 419.84 C 231.95 418.85 229.70 417.50 228.03 416.47 C 226.36 415.44 224.15 414.05 222.50 413.00 C 220.85 411.95 218.66 410.54 217.03 409.47 C 215.40 408.40 213.25 406.95 211.66 405.84 C 210.06 404.74 207.95 403.25 206.38 402.12 C 204.80 401.00 202.70 399.50 201.12 398.38 C 199.55 397.25 197.45 395.75 195.88 394.62 C 194.30 393.50 192.20 392.00 190.62 390.88 C 189.05 389.75 186.95 388.25 185.38 387.12 C 183.80 386.00 181.71 384.49 180.16 383.34 C 178.60 382.20 176.55 380.65 175.03 379.47 C 173.51 378.29 171.50 376.70 170.00 375.50 C 168.50 374.30 166.50 372.70 165.00 371.50 C 163.50 370.30 161.50 368.70 160.00 367.50 C 158.50 366.30 156.50 364.70 155.00 363.50 C 153.50 362.30 151.50 360.70 150.00 359.50 C 148.50 358.30 146.51 356.69 145.03 355.47 C 143.55 354.25 141.60 352.60 140.16 351.34 C 138.71 350.09 136.80 348.40 135.38 347.12 C 133.95 345.85 132.06 344.14 130.66 342.84 C 129.25 341.55 127.39 339.81 126.00 338.50 C 124.61 337.19 122.75 335.45 121.38 334.12 C 120.00 332.80 118.16 331.04 116.81 329.69 C 115.47 328.33 113.72 326.48 112.41 325.09 C 111.09 323.71 109.40 321.80 108.03 320.47 C 106.66 319.14 104.80 317.40 103.28 316.22 C 101.76 315.04 99.57 313.63 97.88 312.62 C 96.18 311.62 93.78 310.42 92.00 309.50 C 90.22 308.58 87.80 307.40 86.00 306.50 C 85.10 304.70 83.90 302.30 83.00 300.50 C 83.15 298.25 83.35 295.25 83.50 293.00 C 84.40 291.20 85.60 288.80 86.50 287.00 C 88.00 285.80 90.00 284.20 91.50 283.00 C 93.60 282.70 96.47 281.78 98.50 282.00 C 100.53 282.22 103.04 283.76 105.06 284.44 C 107.08 285.12 109.79 286.01 111.97 286.53 C 114.15 287.05 117.21 287.59 119.59 287.91 C 121.98 288.22 125.37 288.43 127.88 288.62 C 130.38 288.82 133.80 289.00 136.28 289.22 C 138.77 289.43 142.03 289.77 144.44 290.06 C 146.84 290.36 149.98 290.82 152.31 291.19 C 154.64 291.56 157.70 292.10 159.97 292.53 C 162.24 292.96 165.24 293.56 167.47 294.03 C 169.70 294.50 172.65 295.15 174.84 295.66 C 177.04 296.16 179.95 296.85 182.12 297.38 C 184.30 297.90 187.19 298.61 189.34 299.16 C 191.50 299.70 194.35 300.45 196.47 301.03 C 198.59 301.61 201.39 302.41 203.47 303.03 C 205.55 303.65 208.29 304.51 210.31 305.19 C 212.34 305.86 214.99 306.81 216.97 307.53 C 218.95 308.25 221.55 309.25 223.50 310.00 C 225.45 310.75 228.05 311.75 230.00 312.50 C 231.95 313.25 234.55 314.25 236.50 315.00 C 238.45 315.75 241.05 316.75 242.97 317.53 C 244.89 318.31 247.44 319.36 249.31 320.19 C 251.19 321.01 253.64 322.16 255.47 323.03 C 257.30 323.90 259.70 325.10 261.50 326.00 C 263.30 326.90 265.62 328.18 267.50 329.00 C 269.38 329.82 272.05 330.75 274.00 331.50 C 276.55 331.35 279.95 331.15 282.50 331.00 C 283.85 329.65 285.52 327.72 287.00 326.50 C 288.48 325.28 290.71 323.91 292.34 322.84 C 293.98 321.78 296.21 320.41 297.91 319.41 C 299.60 318.40 301.92 317.12 303.66 316.16 C 305.40 315.20 307.75 313.95 309.50 313.00 C 311.25 312.05 313.59 310.79 315.31 309.81 C 317.03 308.83 319.29 307.49 320.97 306.47 C 322.65 305.45 324.85 304.05 326.50 303.00 C 328.15 301.95 330.35 300.55 332.00 299.50 C 333.65 298.45 335.85 297.05 337.50 296.00 C 339.15 294.95 341.35 293.55 343.00 292.50 C 344.65 291.45 346.85 290.05 348.50 289.00 C 350.15 287.95 352.35 286.55 353.97 285.47 C 355.59 284.39 357.74 282.94 359.31 281.81 C 360.89 280.69 362.94 279.14 364.47 277.97 C 366.00 276.80 367.99 275.19 369.50 274.00 C 371.01 272.81 373.00 271.20 374.53 270.03 C 376.06 268.86 378.11 267.31 379.69 266.19 C 381.26 265.06 383.39 263.59 385.03 262.53 C 386.67 261.47 388.88 260.08 390.62 259.12 C 392.37 258.17 394.80 257.00 396.66 256.16 C 398.51 255.31 401.14 254.34 403.00 253.50 C 404.86 252.66 407.32 251.52 409.03 250.53 C 410.74 249.54 412.86 248.06 414.41 246.91 C 415.95 245.75 417.87 244.07 419.31 242.81 C 420.75 241.55 422.55 239.75 424.00 238.50 C 425.45 237.25 427.50 235.70 429.00 234.50 C 429.75 232.55 430.75 229.95 431.50 228.00 C 430.75 226.05 429.94 223.26 429.00 221.50 C 428.06 219.74 426.27 217.93 425.25 216.25 C 424.23 214.57 423.00 212.20 422.19 210.31 C 421.37 208.43 420.49 205.71 419.81 203.69 C 419.13 201.67 418.32 198.88 417.66 196.84 C 416.99 194.81 416.04 192.16 415.38 190.12 C 414.71 188.09 413.78 185.42 413.25 183.25 C 412.72 181.08 412.15 178.05 411.81 175.69 C 411.48 173.32 411.23 169.97 411.00 167.50 C 410.77 165.03 410.54 161.66 410.31 159.19 C 410.09 156.71 409.70 153.50 409.50 151.00 C 409.30 148.50 409.15 145.05 409.00 142.50 C 410.20 142.80 411.80 143.20 413.00 143.50 C 414.05 145.15 415.45 147.35 416.50 149.00 C 417.55 150.65 418.95 152.85 420.00 154.50 C 421.05 156.15 422.45 158.35 423.50 160.00 C 425.60 160.60 428.40 161.40 430.50 162.00 C 432.15 160.95 434.35 159.55 436.00 158.50 C 436.30 156.10 436.70 152.90 437.00 150.50 C 437.30 148.10 437.70 144.90 438.00 142.50 C 438.30 140.10 438.70 136.90 439.00 134.50 C 439.30 132.10 439.70 128.90 440.00 126.50 C 440.45 124.85 441.05 122.65 441.50 121.00 Z"/></clipPath>
</defs>
<path d="M 441.50 121.00 C 443.00 122.20 445.00 123.80 446.50 125.00 C 447.70 126.50 449.30 128.50 450.50 130.00 C 451.70 131.50 453.29 133.51 454.47 135.03 C 455.65 136.55 457.19 138.61 458.34 140.16 C 459.50 141.70 461.00 143.80 462.16 145.34 C 463.31 146.89 464.86 148.94 466.03 150.47 C 467.20 152.00 468.78 154.02 469.97 155.53 C 471.15 157.05 472.69 159.11 473.94 160.56 C 475.18 162.02 476.82 163.98 478.28 165.22 C 479.74 166.46 481.83 167.97 483.66 168.84 C 485.48 169.72 488.25 170.55 490.47 171.03 C 492.69 171.51 495.99 171.81 498.47 172.03 C 500.94 172.26 504.41 172.39 506.97 172.53 C 509.52 172.68 513.02 172.78 515.50 173.00 C 517.98 173.22 521.10 173.70 523.50 174.00 C 525.15 175.05 527.35 176.45 529.00 177.50 C 528.40 179.30 527.60 181.70 527.00 183.50 C 525.50 184.70 523.52 186.32 522.00 187.50 C 520.48 188.68 518.40 190.20 516.84 191.34 C 515.29 192.49 513.20 194.00 511.62 195.12 C 510.05 196.25 507.94 197.74 506.34 198.84 C 504.75 199.95 502.63 201.43 501.00 202.50 C 499.37 203.57 497.15 204.95 495.50 206.00 C 494.60 207.80 493.40 210.20 492.50 212.00 C 492.80 214.40 493.09 217.75 493.50 220.00 C 493.91 222.25 494.95 224.85 495.25 227.00 C 495.55 229.15 495.68 232.19 495.47 234.34 C 495.26 236.50 494.50 239.36 493.84 241.34 C 493.18 243.33 491.96 245.76 491.06 247.56 C 490.16 249.36 488.83 251.63 487.84 253.34 C 486.86 255.06 485.50 257.30 484.50 259.00 C 483.50 260.70 482.16 262.96 481.19 264.69 C 480.22 266.42 478.95 268.75 478.03 270.53 C 477.11 272.31 475.91 274.71 475.03 276.53 C 474.15 278.35 473.01 280.81 472.19 282.69 C 471.37 284.57 470.30 287.10 469.56 289.06 C 468.83 291.03 467.88 293.68 467.28 295.78 C 466.69 297.89 466.00 300.80 465.59 303.09 C 465.19 305.39 464.83 308.63 464.59 311.09 C 464.36 313.56 464.17 316.97 464.03 319.53 C 463.90 322.10 463.76 325.56 463.69 328.19 C 463.61 330.81 463.56 334.36 463.53 337.03 C 463.50 339.70 463.50 343.30 463.50 346.00 C 463.50 348.70 463.50 352.30 463.50 355.00 C 463.50 357.70 463.50 361.30 463.50 364.00 C 463.50 366.70 463.51 370.29 463.53 372.97 C 463.55 375.65 463.61 379.19 463.66 381.84 C 463.70 384.50 463.80 388.00 463.84 390.66 C 463.89 393.31 463.95 396.85 463.97 399.53 C 463.99 402.21 464.00 405.80 464.00 408.50 C 464.00 411.20 464.00 414.80 464.00 417.50 C 464.00 420.20 464.00 423.80 464.00 426.50 C 464.00 429.20 463.85 432.95 464.00 435.50 C 464.15 438.05 464.70 441.10 465.00 443.50 C 467.10 444.10 469.98 444.82 472.00 445.50 C 474.02 446.18 476.55 447.25 478.50 448.00 C 479.55 449.65 480.95 451.85 482.00 453.50 C 481.10 455.30 479.90 457.70 479.00 459.50 C 477.20 460.40 475.08 461.88 473.00 462.50 C 470.92 463.12 467.53 463.33 465.16 463.66 C 462.78 463.98 459.55 464.35 457.16 464.66 C 454.76 464.96 451.56 465.36 449.19 465.69 C 446.82 466.02 443.71 466.51 441.34 466.84 C 438.98 467.18 435.84 467.64 433.44 467.94 C 431.03 468.23 427.79 468.59 425.31 468.81 C 422.84 469.04 419.49 469.29 416.94 469.44 C 414.39 469.59 410.93 469.74 408.31 469.81 C 405.70 469.89 402.15 469.93 399.50 469.94 C 396.85 469.94 393.30 469.89 390.66 469.84 C 388.01 469.80 384.50 469.70 381.88 469.62 C 379.25 469.55 375.75 469.45 373.12 469.38 C 370.50 469.30 367.00 469.20 364.38 469.12 C 361.75 469.05 358.26 468.94 355.66 468.84 C 353.05 468.75 349.60 468.60 347.03 468.47 C 344.46 468.34 341.03 468.17 338.50 468.00 C 335.97 467.83 332.57 467.63 330.19 467.31 C 327.80 467.00 324.70 466.50 322.59 465.91 C 320.48 465.32 317.93 464.27 316.12 463.38 C 314.32 462.48 312.21 460.99 310.59 459.91 C 308.98 458.82 306.98 457.22 305.38 456.12 C 303.77 455.03 301.58 453.62 299.91 452.59 C 298.23 451.57 295.89 450.31 294.22 449.28 C 292.55 448.25 290.34 446.86 288.78 445.72 C 287.22 444.58 285.30 442.90 283.81 441.69 C 282.33 440.47 280.47 438.73 278.88 437.62 C 277.28 436.52 275.03 435.17 273.16 434.34 C 271.28 433.52 268.49 432.71 266.38 432.12 C 264.26 431.54 261.23 430.97 259.06 430.44 C 256.90 429.90 253.99 429.21 251.94 428.56 C 249.89 427.91 247.29 426.91 245.41 426.09 C 243.53 425.27 241.17 424.03 239.41 423.09 C 237.64 422.16 235.36 420.84 233.66 419.84 C 231.95 418.85 229.70 417.50 228.03 416.47 C 226.36 415.44 224.15 414.05 222.50 413.00 C 220.85 411.95 218.66 410.54 217.03 409.47 C 215.40 408.40 213.25 406.95 211.66 405.84 C 210.06 404.74 207.95 403.25 206.38 402.12 C 204.80 401.00 202.70 399.50 201.12 398.38 C 199.55 397.25 197.45 395.75 195.88 394.62 C 194.30 393.50 192.20 392.00 190.62 390.88 C 189.05 389.75 186.95 388.25 185.38 387.12 C 183.80 386.00 181.71 384.49 180.16 383.34 C 178.60 382.20 176.55 380.65 175.03 379.47 C 173.51 378.29 171.50 376.70 170.00 375.50 C 168.50 374.30 166.50 372.70 165.00 371.50 C 163.50 370.30 161.50 368.70 160.00 367.50 C 158.50 366.30 156.50 364.70 155.00 363.50 C 153.50 362.30 151.50 360.70 150.00 359.50 C 148.50 358.30 146.51 356.69 145.03 355.47 C 143.55 354.25 141.60 352.60 140.16 351.34 C 138.71 350.09 136.80 348.40 135.38 347.12 C 133.95 345.85 132.06 344.14 130.66 342.84 C 129.25 341.55 127.39 339.81 126.00 338.50 C 124.61 337.19 122.75 335.45 121.38 334.12 C 120.00 332.80 118.16 331.04 116.81 329.69 C 115.47 328.33 113.72 326.48 112.41 325.09 C 111.09 323.71 109.40 321.80 108.03 320.47 C 106.66 319.14 104.80 317.40 103.28 316.22 C 101.76 315.04 99.57 313.63 97.88 312.62 C 96.18 311.62 93.78 310.42 92.00 309.50 C 90.22 308.58 87.80 307.40 86.00 306.50 C 85.10 304.70 83.90 302.30 83.00 300.50 C 83.15 298.25 83.35 295.25 83.50 293.00 C 84.40 291.20 85.60 288.80 86.50 287.00 C 88.00 285.80 90.00 284.20 91.50 283.00 C 93.60 282.70 96.47 281.78 98.50 282.00 C 100.53 282.22 103.04 283.76 105.06 284.44 C 107.08 285.12 109.79 286.01 111.97 286.53 C 114.15 287.05 117.21 287.59 119.59 287.91 C 121.98 288.22 125.37 288.43 127.88 288.62 C 130.38 288.82 133.80 289.00 136.28 289.22 C 138.77 289.43 142.03 289.77 144.44 290.06 C 146.84 290.36 149.98 290.82 152.31 291.19 C 154.64 291.56 157.70 292.10 159.97 292.53 C 162.24 292.96 165.24 293.56 167.47 294.03 C 169.70 294.50 172.65 295.15 174.84 295.66 C 177.04 296.16 179.95 296.85 182.12 297.38 C 184.30 297.90 187.19 298.61 189.34 299.16 C 191.50 299.70 194.35 300.45 196.47 301.03 C 198.59 301.61 201.39 302.41 203.47 303.03 C 205.55 303.65 208.29 304.51 210.31 305.19 C 212.34 305.86 214.99 306.81 216.97 307.53 C 218.95 308.25 221.55 309.25 223.50 310.00 C 225.45 310.75 228.05 311.75 230.00 312.50 C 231.95 313.25 234.55 314.25 236.50 315.00 C 238.45 315.75 241.05 316.75 242.97 317.53 C 244.89 318.31 247.44 319.36 249.31 320.19 C 251.19 321.01 253.64 322.16 255.47 323.03 C 257.30 323.90 259.70 325.10 261.50 326.00 C 263.30 326.90 265.62 328.18 267.50 329.00 C 269.38 329.82 272.05 330.75 274.00 331.50 C 276.55 331.35 279.95 331.15 282.50 331.00 C 283.85 329.65 285.52 327.72 287.00 326.50 C 288.48 325.28 290.71 323.91 292.34 322.84 C 293.98 321.78 296.21 320.41 297.91 319.41 C 299.60 318.40 301.92 317.12 303.66 316.16 C 305.40 315.20 307.75 313.95 309.50 313.00 C 311.25 312.05 313.59 310.79 315.31 309.81 C 317.03 308.83 319.29 307.49 320.97 306.47 C 322.65 305.45 324.85 304.05 326.50 303.00 C 328.15 301.95 330.35 300.55 332.00 299.50 C 333.65 298.45 335.85 297.05 337.50 296.00 C 339.15 294.95 341.35 293.55 343.00 292.50 C 344.65 291.45 346.85 290.05 348.50 289.00 C 350.15 287.95 352.35 286.55 353.97 285.47 C 355.59 284.39 357.74 282.94 359.31 281.81 C 360.89 280.69 362.94 279.14 364.47 277.97 C 366.00 276.80 367.99 275.19 369.50 274.00 C 371.01 272.81 373.00 271.20 374.53 270.03 C 376.06 268.86 378.11 267.31 379.69 266.19 C 381.26 265.06 383.39 263.59 385.03 262.53 C 386.67 261.47 388.88 260.08 390.62 259.12 C 392.37 258.17 394.80 257.00 396.66 256.16 C 398.51 255.31 401.14 254.34 403.00 253.50 C 404.86 252.66 407.32 251.52 409.03 250.53 C 410.74 249.54 412.86 248.06 414.41 246.91 C 415.95 245.75 417.87 244.07 419.31 242.81 C 420.75 241.55 422.55 239.75 424.00 238.50 C 425.45 237.25 427.50 235.70 429.00 234.50 C 429.75 232.55 430.75 229.95 431.50 228.00 C 430.75 226.05 429.94 223.26 429.00 221.50 C 428.06 219.74 426.27 217.93 425.25 216.25 C 424.23 214.57 423.00 212.20 422.19 210.31 C 421.37 208.43 420.49 205.71 419.81 203.69 C 419.13 201.67 418.32 198.88 417.66 196.84 C 416.99 194.81 416.04 192.16 415.38 190.12 C 414.71 188.09 413.78 185.42 413.25 183.25 C 412.72 181.08 412.15 178.05 411.81 175.69 C 411.48 173.32 411.23 169.97 411.00 167.50 C 410.77 165.03 410.54 161.66 410.31 159.19 C 410.09 156.71 409.70 153.50 409.50 151.00 C 409.30 148.50 409.15 145.05 409.00 142.50 C 410.20 142.80 411.80 143.20 413.00 143.50 C 414.05 145.15 415.45 147.35 416.50 149.00 C 417.55 150.65 418.95 152.85 420.00 154.50 C 421.05 156.15 422.45 158.35 423.50 160.00 C 425.60 160.60 428.40 161.40 430.50 162.00 C 432.15 160.95 434.35 159.55 436.00 158.50 C 436.30 156.10 436.70 152.90 437.00 150.50 C 437.30 148.10 437.70 144.90 438.00 142.50 C 438.30 140.10 438.70 136.90 439.00 134.50 C 439.30 132.10 439.70 128.90 440.00 126.50 C 440.45 124.85 441.05 122.65 441.50 121.00 Z" fill="url(#bs1)"/>
<g clip-path="url(#cs1)" fill="none" stroke-width="7.5" stroke-linecap="round" stroke-linejoin="round">
<path d="M 441.5 121 L 442.5 121.8 L 443.5 122.6 L 444.5 123.4 L 445.5 124.2 L 446.5 125 L 447.3 126 L 448.1 127" stroke="#F2ECDC" stroke-opacity="0.58"/>
<path d="M 448.1 127 L 448.9 128 L 449.7 129 L 450.5 130 L 451.3 131 L 452.1 132 L 452.9 133 L 453.7 134.1" stroke="#F2ECDC" stroke-opacity="0.656"/>
<path d="M 453.7 134.1 L 454.5 135 L 455.2 136 L 456 137 L 456.8 138.1 L 457.6 139.2 L 458.3 140.2 L 459.1 141.1" stroke="#F2ECDC" stroke-opacity="0.641"/>
<path d="M 459.1 141.1 L 459.9 142.2 L 460.6 143.3 L 461.4 144.4 L 462.2 145.3 L 462.9 146.3 L 463.7 147.4 L 464.5 148.5" stroke="#F2ECDC" stroke-opacity="0.631"/>
<path d="M 464.5 148.5 L 465.3 149.5 L 466 150.5 L 466.8 151.4 L 467.6 152.5 L 468.4 153.5 L 469.2 154.6 L 470 155.5" stroke="#F2ECDC" stroke-opacity="0.628"/>
<path d="M 470 155.5 L 470.7 156.5 L 471.5 157.5 L 472.3 158.6 L 473.2 159.6 L 473.9 160.6 L 474.7 161.5 L 475.6 162.5" stroke="#F2ECDC" stroke-opacity="0.63"/>
<path d="M 475.6 162.5 L 476.5 163.5 L 477.4 164.4 L 478.3 165.2 L 479.2 166 L 480.3 166.8 L 481.4 167.5 L 482.5 168.3" stroke="#F2ECDC" stroke-opacity="0.64"/>
<path d="M 482.5 168.3 L 483.7 168.8 L 484.9 169.4 L 486.2 169.9 L 487.6 170.3 L 489.1 170.7 L 490.5 171 L 491.9 171.3" stroke="#F2ECDC" stroke-opacity="0.579"/>
<path d="M 491.9 171.3 L 493.5 171.5 L 495.2 171.7 L 496.9 171.9 L 498.5 172 L 500.1 172.2 L 501.8 172.3 L 503.6 172.4" stroke="#F2ECDC" stroke-opacity="0.494"/>
<path d="M 503.6 172.4 L 505.3 172.4 L 507 172.5 L 508.6 172.6 L 510.4 172.7 L 512.2 172.8 L 513.9 172.9 L 515.5 173" stroke="#F2ECDC" stroke-opacity="0.488"/>
<path d="M 515.5 173 L 517.1 173.2 L 518.7 173.4 L 520.4 173.6 L 522 173.8 L 523.5 174 L 524.5 174.7 L 525.7 175.4" stroke="#F2ECDC" stroke-opacity="0.588"/>
<path d="M 525.7 175.4 L 526.8 176.1 L 528 176.8 L 529 177.5 L 528.6 178.6 L 528.2 179.9 L 527.8 181.1 L 527.4 182.4" stroke="#F2ECDC" stroke-opacity="0.371"/>
<path d="M 493.1 210.9 L 492.5 212 L 492.7 213.5 L 492.9 215.2 L 493.1 216.9 L 493.3 218.5 L 493.5 220 L 493.8 221.4" stroke="#F2ECDC" stroke-opacity="0.256"/>
<path d="M 493.8 221.4 L 494.2 222.8 L 494.6 224.3 L 495 225.7 L 495.2 227 L 495.4 228.4 L 495.5 229.9 L 495.6 231.4" stroke="#F2ECDC" stroke-opacity="0.3"/>
<path d="M 495.6 231.4 L 495.6 233 L 495.5 234.3 L 495.3 235.7 L 495 237.2 L 494.6 238.6 L 494.2 240.1 L 493.8 241.3" stroke="#F1EBDB" stroke-opacity="0.14"/>
<path d="M 468.6 291.7 L 468.1 293.1 L 467.7 294.5 L 467.3 295.8 L 466.9 297.1 L 466.5 298.6 L 466.2 300.1 L 465.9 301.7" stroke="#ECE1D5" stroke-opacity="0.066"/>
<path d="M 465.9 301.7 L 465.6 303.1 L 465.4 304.6 L 465.1 306.2 L 464.9 307.9 L 464.7 309.5 L 464.6 311.1 L 464.5 312.7" stroke="#EBDFD4" stroke-opacity="0.099"/>
<path d="M 464.5 312.7 L 464.3 314.4 L 464.2 316.2 L 464.1 317.9 L 464 319.5 L 464 321.2 L 463.9 322.9 L 463.8 324.7" stroke="#EADED3" stroke-opacity="0.115"/>
<path d="M 463.8 324.7 L 463.7 326.5 L 463.7 328.2 L 463.6 329.9 L 463.6 331.7 L 463.6 333.5 L 463.6 335.3 L 463.5 337" stroke="#EADCD2" stroke-opacity="0.117"/>
<path d="M 463.5 337 L 463.5 338.7 L 463.5 340.6 L 463.5 342.4 L 463.5 344.3 L 463.5 346 L 463.5 347.7 L 463.5 349.6" stroke="#E9DBD1" stroke-opacity="0.114"/>
<path d="M 463.5 349.6 L 463.5 351.4 L 463.5 353.3 L 463.5 355 L 463.5 356.7 L 463.5 358.6 L 463.5 360.4 L 463.5 362.3" stroke="#E8D9D0" stroke-opacity="0.108"/>
<path d="M 463.5 362.3 L 463.5 364 L 463.5 365.7 L 463.5 367.6 L 463.5 369.4 L 463.5 371.3 L 463.5 373 L 463.5 374.7" stroke="#E7D8CF" stroke-opacity="0.102"/>
<path d="M 463.5 374.7 L 463.6 376.5 L 463.6 378.3 L 463.6 380.2 L 463.7 381.8 L 463.7 383.5 L 463.7 385.3 L 463.8 387.2" stroke="#E6D6CE" stroke-opacity="0.098"/>
<path d="M 463.8 387.2 L 463.8 389 L 463.8 390.7 L 463.9 392.3 L 463.9 394.2 L 463.9 396 L 464 397.8 L 464 399.5" stroke="#E6D5CD" stroke-opacity="0.091"/>
<path d="M 464 399.5 L 464 401.2 L 464 403.1 L 464 404.9 L 464 406.8 L 464 408.5 L 464 410.2 L 464 412.1" stroke="#E5D3CC" stroke-opacity="0.082"/>
<path d="M 464 412.1 L 464 413.9 L 464 415.8 L 464 417.5 L 464 419.2 L 464 421.1 L 464 422.9 L 464 424.8" stroke="#E4D1CB" stroke-opacity="0.076"/>
<path d="M 464 424.8 L 464 426.5 L 464 428.2 L 464 430.1 L 463.9 432 L 463.9 433.8 L 464 435.5 L 464.1 437.1" stroke="#E3D0CA" stroke-opacity="0.074"/>
<path d="M 464.1 437.1 L 464.3 438.7 L 464.6 440.4 L 464.8 442 L 465 443.5 L 466.3 443.9 L 467.8 444.3 L 469.3 444.7" stroke="#E2CFC9" stroke-opacity="0.111"/>
<path d="M 469.3 444.7 L 470.7 445.1 L 472 445.5 L 473.3 445.9 L 474.6 446.5 L 476 447 L 477.3 447.5 L 478.5 448" stroke="#E3CFCA" stroke-opacity="0.143"/>
<path d="M 478.5 448 L 479.2 449 L 479.9 450.2 L 480.6 451.3 L 481.3 452.5 L 482 453.5 L 481.4 454.6 L 480.8 455.9" stroke="#E3CFCA" stroke-opacity="0.1"/>
<path d="M 141.2 289.7 L 142.9 289.9 L 144.4 290.1 L 146 290.3 L 147.6 290.5 L 149.2 290.7 L 150.8 291 L 152.3 291.2" stroke="#DCC2C2" stroke-opacity="0.063"/>
<path d="M 152.3 291.2 L 153.8 291.4 L 155.4 291.7 L 157 292 L 158.5 292.3 L 160 292.5 L 161.4 292.8 L 162.9 293.1" stroke="#DDC3C2" stroke-opacity="0.069"/>
<path d="M 162.9 293.1 L 164.5 293.4 L 166.1 293.7 L 167.5 294 L 168.9 294.3 L 170.4 294.7 L 171.9 295 L 173.4 295.3" stroke="#DDC4C3" stroke-opacity="0.074"/>
<path d="M 173.4 295.3 L 174.8 295.7 L 176.2 296 L 177.7 296.3 L 179.3 296.7 L 180.7 297 L 182.1 297.4 L 183.5 297.7" stroke="#DDC5C3" stroke-opacity="0.079"/>
<path d="M 183.5 297.7 L 185 298.1 L 186.5 298.4 L 188 298.8 L 189.3 299.2 L 190.7 299.5 L 192.2 299.9 L 193.7 300.3" stroke="#DEC5C4" stroke-opacity="0.083"/>
<path d="M 193.7 300.3 L 195.1 300.7 L 196.5 301 L 197.8 301.4 L 199.2 301.8 L 200.7 302.2 L 202.1 302.6 L 203.5 303" stroke="#DEC6C4" stroke-opacity="0.087"/>
<path d="M 203.5 303 L 204.8 303.4 L 206.2 303.9 L 207.6 304.3 L 209 304.8 L 210.3 305.2 L 211.6 305.6 L 213 306.1" stroke="#DEC7C4" stroke-opacity="0.092"/>
<path d="M 213 306.1 L 214.4 306.6 L 215.7 307.1 L 217 307.5 L 218.2 308 L 219.6 308.5 L 220.9 309 L 222.3 309.5" stroke="#DFC7C5" stroke-opacity="0.097"/>
<path d="M 222.3 309.5 L 223.5 310 L 224.7 310.5 L 226.1 311 L 227.4 311.5 L 228.8 312 L 230 312.5 L 231.2 313" stroke="#DFC8C5" stroke-opacity="0.1"/>
<path d="M 231.2 313 L 232.6 313.5 L 233.9 314 L 235.3 314.5 L 236.5 315 L 237.7 315.5 L 239.1 316 L 240.4 316.5" stroke="#DFC8C5" stroke-opacity="0.103"/>
<path d="M 240.4 316.5 L 241.7 317 L 243 317.5 L 244.2 318 L 245.5 318.6 L 246.8 319.1 L 248.1 319.7 L 249.3 320.2" stroke="#DFC8C6" stroke-opacity="0.107"/>
<path d="M 249.3 320.2 L 250.5 320.7 L 251.8 321.3 L 253.1 321.9 L 254.3 322.5 L 255.5 323 L 256.6 323.6 L 257.9 324.2" stroke="#DFC9C6" stroke-opacity="0.111"/>
<path d="M 257.9 324.2 L 259.1 324.8 L 260.4 325.4 L 261.5 326 L 262.6 326.6 L 263.9 327.2 L 265.1 327.8 L 266.3 328.5" stroke="#E0C9C6" stroke-opacity="0.114"/>
<path d="M 266.3 328.5 L 267.5 329 L 268.7 329.5 L 270 330 L 271.4 330.5 L 272.8 331 L 274 331.5 L 275.6 331.4" stroke="#E0CAC6" stroke-opacity="0.103"/>
<path d="M 391.7 258.5 L 393 257.9 L 394.2 257.3 L 395.5 256.7 L 396.7 256.2 L 397.9 255.6 L 399.2 255.1 L 400.5 254.6" stroke="#EBDFD4" stroke-opacity="0.076"/>
<path d="M 400.5 254.6 L 401.8 254 L 403 253.5 L 404.2 253 L 405.4 252.4 L 406.7 251.8 L 407.9 251.1 L 409 250.5" stroke="#ECE0D5" stroke-opacity="0.076"/>
<path d="M 409.1 144.1 L 409 142.5 L 409.8 142.7 L 410.6 142.9 L 411.4 143.1 L 412.2 143.3 L 413 143.5 L 413.7 144.5" stroke="#F2ECDC" stroke-opacity="0.369"/>
<path d="M 413.7 144.5 L 414.4 145.7 L 415.1 146.8 L 415.8 148 L 416.5 149 L 417.2 150 L 417.9 151.2 L 418.6 152.3" stroke="#F2ECDC" stroke-opacity="0.517"/>
<path d="M 418.6 152.3 L 419.3 153.5 L 420 154.5 L 420.7 155.5 L 421.4 156.7 L 422.1 157.8 L 422.8 159 L 423.5 160" stroke="#F2ECDC" stroke-opacity="0.51"/>
<path d="M 423.5 160 L 424.8 160.4 L 426.3 160.8 L 427.7 161.2 L 429.2 161.6 L 430.5 162 L 431.5 161.3 L 432.7 160.6" stroke="#F2ECDC" stroke-opacity="0.364"/>
<path d="M 439.6 129.7 L 439.8 128 L 440 126.5 L 440.3 125.5 L 440.6 124.3 L 440.9 123.2 L 441.2 122 L 441.5 121" stroke="#F2ECDC" stroke-opacity="0.093"/>
</g>
</svg>
