<svg xmlns="http://www.w3.org/2000/svg" viewBox="-14 107.06 784 431.95">
<defs>
<linearGradient id="bp30" x1="0" y1="0" x2="0.25" y2="1"><stop offset="0" stop-color="#22232E"/><stop offset="1" stop-color="#1B1C25"/></linearGradient>
<clipPath id="cp30"><path d="M 668.50 121.06 C 670.00 122.26 672.00 123.86 673.50 125.06 C 674.70 126.56 676.30 128.56 677.50 130.06 C 678.70 131.57 680.29 133.57 681.47 135.09 C 682.65 136.62 684.19 138.67 685.34 140.22 C 686.50 141.77 688.00 143.86 689.16 145.41 C 690.31 146.95 691.86 149.00 693.03 150.53 C 694.20 152.06 695.78 154.08 696.97 155.59 C 698.15 157.11 699.69 159.17 700.94 160.62 C 702.18 162.08 703.82 164.04 705.28 165.28 C 706.74 166.52 708.83 168.03 710.66 168.91 C 712.48 169.78 715.25 170.62 717.47 171.09 C 719.69 171.57 722.99 171.87 725.47 172.09 C 727.94 172.32 731.41 172.45 733.97 172.59 C 736.52 172.74 740.02 172.84 742.50 173.06 C 744.98 173.28 748.10 173.76 750.50 174.06 C 752.15 175.11 754.35 176.51 756.00 177.56 C 755.40 179.36 754.60 181.76 754.00 183.56 C 752.50 184.76 750.52 186.39 749.00 187.56 C 747.48 188.74 745.40 190.26 743.84 191.41 C 742.29 192.55 740.20 194.06 738.62 195.19 C 737.05 196.31 734.94 197.80 733.34 198.91 C 731.75 200.01 729.63 201.49 728.00 202.56 C 726.37 203.64 724.15 205.01 722.50 206.06 C 721.60 207.86 720.40 210.26 719.50 212.06 C 719.80 214.46 720.09 217.81 720.50 220.06 C 720.91 222.31 721.95 224.91 722.25 227.06 C 722.55 229.21 722.68 232.25 722.47 234.41 C 722.26 236.56 721.50 239.42 720.84 241.41 C 720.18 243.39 718.96 245.82 718.06 247.62 C 717.16 249.43 715.83 251.69 714.84 253.41 C 713.86 255.12 712.50 257.36 711.50 259.06 C 710.50 260.76 709.16 263.02 708.19 264.75 C 707.22 266.48 705.95 268.82 705.03 270.59 C 704.11 272.37 702.91 274.77 702.03 276.59 C 701.15 278.42 700.01 280.87 699.19 282.75 C 698.37 284.63 697.30 287.16 696.56 289.12 C 695.83 291.09 694.88 293.74 694.28 295.84 C 693.69 297.95 693.00 300.86 692.59 303.16 C 692.19 305.45 691.83 308.69 691.59 311.16 C 691.36 313.62 691.17 317.03 691.03 319.59 C 690.90 322.16 690.76 325.62 690.69 328.25 C 690.61 330.88 690.56 334.42 690.53 337.09 C 690.50 339.77 690.50 343.37 690.50 346.06 C 690.50 348.76 690.50 352.36 690.50 355.06 C 690.50 357.76 690.50 361.37 690.50 364.06 C 690.50 366.76 690.51 370.35 690.53 373.03 C 690.55 375.71 690.61 379.25 690.66 381.91 C 690.70 384.56 690.80 388.07 690.84 390.72 C 690.89 393.37 690.95 396.92 690.97 399.59 C 690.99 402.27 691.00 405.87 691.00 408.56 C 691.00 411.26 691.00 414.86 691.00 417.56 C 691.00 420.26 691.00 423.86 691.00 426.56 C 691.00 429.26 690.85 433.01 691.00 435.56 C 691.15 438.11 691.70 441.16 692.00 443.56 C 694.10 444.16 696.98 444.89 699.00 445.56 C 701.02 446.24 703.55 447.31 705.50 448.06 C 706.55 449.71 707.95 451.91 709.00 453.56 C 708.10 455.36 706.90 457.76 706.00 459.56 C 704.20 460.46 702.08 461.94 700.00 462.56 C 697.92 463.19 694.53 463.40 692.16 463.72 C 689.78 464.04 686.55 464.41 684.16 464.72 C 681.76 465.02 678.56 465.42 676.19 465.75 C 673.82 466.08 670.71 466.57 668.34 466.91 C 665.98 467.24 662.84 467.70 660.44 468.00 C 658.03 468.30 654.79 468.65 652.31 468.88 C 649.84 469.10 646.49 469.35 643.94 469.50 C 641.39 469.65 637.93 469.80 635.31 469.88 C 632.70 469.95 629.15 470.00 626.50 470.00 C 623.85 470.00 620.30 469.95 617.66 469.91 C 615.01 469.86 611.50 469.76 608.88 469.69 C 606.25 469.62 602.75 469.51 600.12 469.44 C 597.50 469.36 594.00 469.27 591.38 469.19 C 588.75 469.11 585.26 469.00 582.66 468.91 C 580.05 468.81 576.60 468.66 574.03 468.53 C 571.46 468.40 568.03 468.24 565.50 468.06 C 562.97 467.89 559.57 467.69 557.19 467.38 C 554.80 467.06 551.70 466.56 549.59 465.97 C 547.48 465.38 544.92 464.34 543.12 463.44 C 541.33 462.54 539.21 461.06 537.59 459.97 C 535.98 458.88 533.98 457.28 532.38 456.19 C 530.77 455.09 528.58 453.68 526.91 452.66 C 525.23 451.63 522.89 450.38 521.22 449.34 C 519.55 448.31 517.34 446.92 515.78 445.78 C 514.22 444.64 512.30 442.96 510.81 441.75 C 509.33 440.54 507.47 438.79 505.88 437.69 C 504.28 436.59 502.03 435.23 500.16 434.41 C 498.28 433.58 495.49 432.77 493.38 432.19 C 491.26 431.60 488.23 431.03 486.06 430.50 C 483.90 429.97 480.99 429.28 478.94 428.62 C 476.89 427.97 474.29 426.98 472.41 426.16 C 470.53 425.34 468.17 424.09 466.41 423.16 C 464.64 422.22 462.36 420.90 460.66 419.91 C 458.95 418.91 456.70 417.56 455.03 416.53 C 453.36 415.50 451.15 414.11 449.50 413.06 C 447.85 412.01 445.66 410.60 444.03 409.53 C 442.40 408.46 440.25 407.01 438.66 405.91 C 437.06 404.80 434.95 403.31 433.38 402.19 C 431.80 401.07 429.70 399.56 428.12 398.44 C 426.55 397.31 424.45 395.81 422.88 394.69 C 421.30 393.56 419.20 392.06 417.62 390.94 C 416.05 389.81 413.95 388.32 412.38 387.19 C 410.80 386.06 408.71 384.55 407.16 383.41 C 405.60 382.26 403.55 380.71 402.03 379.53 C 400.51 378.35 398.50 376.76 397.00 375.56 C 395.50 374.37 393.50 372.76 392.00 371.56 C 390.50 370.36 388.50 368.76 387.00 367.56 C 385.50 366.36 383.50 364.76 382.00 363.56 C 380.50 362.36 378.50 360.77 377.00 359.56 C 375.50 358.36 373.51 356.75 372.03 355.53 C 370.55 354.31 368.60 352.66 367.16 351.41 C 365.71 350.15 363.80 348.46 362.38 347.19 C 360.95 345.91 359.06 344.20 357.66 342.91 C 356.25 341.61 354.39 339.87 353.00 338.56 C 351.61 337.25 349.75 335.51 348.38 334.19 C 347.00 332.87 345.16 331.10 343.81 329.75 C 342.47 328.40 340.72 326.54 339.41 325.16 C 338.09 323.77 336.40 321.86 335.03 320.53 C 333.66 319.20 331.80 317.46 330.28 316.28 C 328.76 315.10 326.57 313.70 324.88 312.69 C 323.18 311.68 320.78 310.48 319.00 309.56 C 317.22 308.64 314.80 307.46 313.00 306.56 C 312.10 304.76 310.90 302.36 310.00 300.56 C 310.15 298.31 310.35 295.31 310.50 293.06 C 311.40 291.26 312.60 288.86 313.50 287.06 C 315.00 285.86 317.00 284.26 318.50 283.06 C 320.60 282.76 323.47 281.85 325.50 282.06 C 327.53 282.28 330.04 283.82 332.06 284.50 C 334.08 285.18 336.79 286.07 338.97 286.59 C 341.15 287.11 344.21 287.65 346.59 287.97 C 348.98 288.28 352.37 288.49 354.88 288.69 C 357.38 288.88 360.80 289.07 363.28 289.28 C 365.77 289.50 369.03 289.83 371.44 290.12 C 373.84 290.42 376.98 290.88 379.31 291.25 C 381.64 291.62 384.70 292.17 386.97 292.59 C 389.24 293.02 392.24 293.62 394.47 294.09 C 396.70 294.56 399.65 295.22 401.84 295.72 C 404.04 296.22 406.95 296.91 409.12 297.44 C 411.30 297.96 414.19 298.67 416.34 299.22 C 418.50 299.77 421.35 300.51 423.47 301.09 C 425.59 301.68 428.39 302.47 430.47 303.09 C 432.55 303.72 435.29 304.57 437.31 305.25 C 439.34 305.93 441.99 306.87 443.97 307.59 C 445.95 308.32 448.55 309.32 450.50 310.06 C 452.45 310.81 455.05 311.81 457.00 312.56 C 458.95 313.31 461.55 314.31 463.50 315.06 C 465.45 315.82 468.05 316.82 469.97 317.59 C 471.89 318.37 474.44 319.43 476.31 320.25 C 478.19 321.07 480.64 322.22 482.47 323.09 C 484.30 323.97 486.70 325.17 488.50 326.06 C 490.30 326.96 492.62 328.24 494.50 329.06 C 496.38 329.89 499.05 330.81 501.00 331.56 C 503.55 331.41 506.95 331.21 509.50 331.06 C 510.85 329.71 512.52 327.79 514.00 326.56 C 515.48 325.34 517.71 323.97 519.34 322.91 C 520.98 321.84 523.21 320.47 524.91 319.47 C 526.60 318.47 528.92 317.18 530.66 316.22 C 532.40 315.26 534.75 314.01 536.50 313.06 C 538.25 312.11 540.59 310.85 542.31 309.88 C 544.03 308.90 546.29 307.55 547.97 306.53 C 549.65 305.51 551.85 304.11 553.50 303.06 C 555.15 302.02 557.35 300.61 559.00 299.56 C 560.65 298.51 562.85 297.11 564.50 296.06 C 566.15 295.01 568.35 293.61 570.00 292.56 C 571.65 291.51 573.85 290.12 575.50 289.06 C 577.15 288.01 579.35 286.61 580.97 285.53 C 582.59 284.45 584.74 283.00 586.31 281.88 C 587.89 280.75 589.94 279.20 591.47 278.03 C 593.00 276.86 594.99 275.25 596.50 274.06 C 598.01 272.87 600.00 271.27 601.53 270.09 C 603.06 268.92 605.11 267.38 606.69 266.25 C 608.26 265.12 610.39 263.65 612.03 262.59 C 613.67 261.53 615.88 260.14 617.62 259.19 C 619.37 258.23 621.80 257.06 623.66 256.22 C 625.51 255.38 628.14 254.41 630.00 253.56 C 631.86 252.72 634.32 251.58 636.03 250.59 C 637.74 249.60 639.86 248.13 641.41 246.97 C 642.95 245.81 644.87 244.14 646.31 242.88 C 647.75 241.61 649.55 239.81 651.00 238.56 C 652.45 237.32 654.50 235.76 656.00 234.56 C 656.75 232.61 657.75 230.01 658.50 228.06 C 657.75 226.11 656.94 223.32 656.00 221.56 C 655.06 219.80 653.27 217.99 652.25 216.31 C 651.23 214.63 650.00 212.26 649.19 210.38 C 648.37 208.49 647.49 205.77 646.81 203.75 C 646.13 201.73 645.32 198.94 644.66 196.91 C 643.99 194.87 643.04 192.23 642.38 190.19 C 641.71 188.15 640.78 185.48 640.25 183.31 C 639.72 181.15 639.15 178.11 638.81 175.75 C 638.48 173.39 638.23 170.04 638.00 167.56 C 637.77 165.09 637.54 161.72 637.31 159.25 C 637.09 156.78 636.70 153.57 636.50 151.06 C 636.30 148.56 636.15 145.11 636.00 142.56 C 637.20 142.86 638.80 143.26 640.00 143.56 C 641.05 145.21 642.45 147.41 643.50 149.06 C 644.55 150.71 645.95 152.91 647.00 154.56 C 648.05 156.21 649.45 158.41 650.50 160.06 C 652.60 160.66 655.40 161.46 657.50 162.06 C 659.15 161.01 661.35 159.61 663.00 158.56 C 663.30 156.16 663.70 152.96 664.00 150.56 C 664.30 148.16 664.70 144.96 665.00 142.56 C 665.30 140.16 665.70 136.96 666.00 134.56 C 666.30 132.16 666.70 128.96 667.00 126.56 C 667.45 124.91 668.05 122.71 668.50 121.06 Z"/></clipPath>
<linearGradient id="bp31" x1="0" y1="0" x2="0.25" y2="1"><stop offset="0" stop-color="#2B2C38"/><stop offset="1" stop-color="#20212B"/></linearGradient>
<clipPath id="cp31"><path d="M 236.88 296.11 C 239.16 296.02 242.33 295.96 244.74 295.96 C 247.16 295.96 250.52 296.02 252.97 296.11 C 255.41 296.20 258.66 296.40 261.04 296.58 C 263.42 296.77 266.52 297.09 268.82 297.36 C 271.12 297.62 274.16 298.00 276.39 298.34 C 278.62 298.67 281.55 299.16 283.69 299.58 C 285.84 300.01 288.60 300.66 290.67 301.16 C 292.74 301.65 295.45 302.36 297.47 302.91 C 299.49 303.45 302.18 304.18 304.15 304.78 C 306.12 305.37 308.69 306.22 310.59 306.89 C 312.49 307.55 314.97 308.50 316.80 309.23 C 318.63 309.97 321.04 310.97 322.79 311.78 C 324.55 312.59 326.83 313.73 328.49 314.63 C 330.16 315.53 332.30 316.81 333.90 317.78 C 335.49 318.75 337.58 320.08 339.15 321.08 C 340.72 322.07 342.81 323.40 344.35 324.43 C 345.88 325.46 347.92 326.84 349.39 327.93 C 350.86 329.03 352.76 330.55 354.14 331.73 C 355.53 332.91 357.30 334.56 358.62 335.80 C 359.95 337.04 361.71 338.71 362.99 339.99 C 364.27 341.27 365.97 342.99 367.17 344.35 C 368.38 345.71 369.92 347.59 371.03 349.04 C 372.15 350.49 373.57 352.49 374.60 354.03 C 375.62 355.57 376.94 357.68 377.86 359.31 C 378.79 360.95 379.94 363.22 380.77 364.95 C 381.60 366.69 382.66 369.05 383.41 370.86 C 384.17 372.67 385.16 375.10 385.82 377.01 C 386.48 378.91 387.30 381.53 387.81 383.57 C 388.32 385.61 388.90 388.45 389.20 390.60 C 389.51 392.76 389.78 395.70 389.86 397.91 C 389.93 400.11 389.85 403.08 389.71 405.30 C 389.57 407.52 389.23 410.51 388.91 412.69 C 388.58 414.87 388.03 417.75 387.54 419.82 C 387.05 421.88 386.26 424.52 385.64 426.47 C 385.02 428.41 384.12 430.93 383.41 432.79 C 382.71 434.65 381.73 437.09 380.92 438.85 C 380.11 440.61 378.91 442.82 378.04 444.52 C 377.17 446.21 375.87 448.34 375.10 450.13 C 374.33 451.91 373.37 454.39 372.90 456.42 C 372.44 458.46 372.13 461.45 371.98 463.70 C 371.84 465.94 372.00 469.14 371.95 471.38 C 371.91 473.63 371.91 476.60 371.66 478.69 C 371.40 480.78 370.83 483.41 370.26 485.31 C 369.69 487.20 368.69 489.62 367.86 491.33 C 367.02 493.04 365.75 495.22 364.68 496.71 C 363.61 498.20 362.00 500.02 360.70 501.28 C 359.40 502.54 357.52 504.08 356.01 505.14 C 354.51 506.20 352.41 507.52 350.67 508.35 C 348.93 509.17 346.44 510.13 344.43 510.66 C 342.43 511.20 339.48 511.70 337.31 511.91 C 335.14 512.11 332.08 512.18 329.95 512.03 C 327.81 511.87 325.05 511.37 323.09 510.87 C 321.13 510.37 318.71 509.34 316.85 508.67 C 315.00 508.00 312.61 506.91 310.71 506.39 C 308.81 505.86 306.16 505.29 304.18 505.20 C 302.20 505.10 299.46 505.39 297.50 505.76 C 295.53 506.13 292.99 507.03 291.09 507.66 C 289.18 508.29 286.72 509.28 284.82 509.95 C 282.92 510.62 280.39 511.50 278.44 512.12 C 276.49 512.73 273.87 513.53 271.85 514.08 C 269.83 514.62 267.08 515.29 264.96 515.74 C 262.85 516.19 259.95 516.71 257.75 517.07 C 255.54 517.43 252.55 517.86 250.27 518.14 C 247.98 518.42 244.89 518.76 242.52 518.94 C 240.15 519.13 236.91 519.32 234.47 519.39 C 232.03 519.46 228.70 519.47 226.25 519.42 C 223.79 519.37 220.51 519.22 218.11 519.06 C 215.72 518.90 212.58 518.61 210.28 518.35 C 207.97 518.09 204.97 517.67 202.74 517.34 C 200.50 517.01 197.56 516.53 195.40 516.12 C 193.24 515.72 190.40 515.14 188.34 514.64 C 186.27 514.14 183.60 513.39 181.63 512.80 C 179.66 512.21 177.11 511.32 175.19 510.69 C 173.26 510.06 170.75 509.11 168.80 508.58 C 166.86 508.05 164.22 507.35 162.21 507.16 C 160.21 506.96 157.44 507.01 155.44 507.28 C 153.45 507.54 150.85 508.36 148.91 508.94 C 146.98 509.51 144.51 510.52 142.53 511.11 C 140.55 511.69 137.80 512.36 135.70 512.83 C 133.60 513.30 130.64 513.75 128.55 514.22 C 126.46 514.70 123.72 515.39 121.78 516.00 C 119.83 516.62 117.41 517.62 115.57 518.35 C 113.73 519.08 111.39 520.15 109.52 520.84 C 107.65 521.54 105.14 522.45 103.10 522.98 C 101.07 523.52 98.22 524.10 95.98 524.41 C 93.74 524.71 90.55 524.95 88.20 525.00 C 85.85 525.05 82.62 524.95 80.30 524.76 C 77.99 524.58 74.98 524.15 72.79 523.78 C 70.61 523.41 67.81 522.78 65.73 522.30 C 63.65 521.81 60.95 521.09 58.93 520.55 C 56.91 520.00 54.24 519.25 52.25 518.68 C 50.26 518.11 47.60 517.34 45.63 516.75 C 43.66 516.15 41.05 515.34 39.13 514.70 C 37.21 514.05 34.69 513.15 32.83 512.44 C 30.98 511.73 28.56 510.74 26.75 509.98 C 24.94 509.22 22.56 508.18 20.78 507.40 C 19.00 506.61 16.64 505.55 14.87 504.75 C 13.11 503.95 10.76 502.88 9.03 502.05 C 7.29 501.22 5.04 500.06 3.32 499.20 C 2.33 497.63 1.00 495.54 0.00 493.98 C 1.14 492.55 2.66 490.65 3.80 489.23 C 5.65 488.51 8.10 487.54 9.97 486.85 C 11.85 486.17 14.40 485.29 16.33 484.65 C 18.26 484.02 20.86 483.20 22.83 482.61 C 24.80 482.01 27.47 481.26 29.45 480.68 C 31.43 480.09 34.10 479.34 36.01 478.69 C 37.92 478.03 40.46 477.15 42.19 476.31 C 43.91 475.48 46.10 474.25 47.53 473.11 C 48.95 471.97 50.59 470.19 51.69 468.71 C 52.78 467.24 53.93 464.97 54.80 463.28 C 55.68 461.59 56.70 459.19 57.50 457.43 C 58.31 455.67 59.37 453.32 60.18 451.55 C 60.98 449.79 62.04 447.43 62.85 445.68 C 63.65 443.92 64.74 441.58 65.55 439.83 C 66.36 438.07 67.45 435.74 68.25 433.98 C 69.06 432.22 70.11 429.85 70.92 428.10 C 71.73 426.35 72.82 424.01 73.65 422.28 C 74.49 420.55 75.70 418.34 76.47 416.55 C 77.25 414.77 78.14 412.23 78.85 410.38 C 80.13 409.95 81.84 409.38 83.12 408.95 C 83.84 410.80 84.79 413.27 85.50 415.13 C 86.21 416.98 87.16 419.45 87.85 421.33 C 88.53 423.21 89.43 425.74 90.07 427.65 C 90.72 429.57 91.48 432.23 92.15 434.13 C 92.82 436.02 93.81 438.45 94.52 440.30 C 95.52 441.87 96.85 443.96 97.85 445.53 C 99.99 445.38 102.84 445.19 104.97 445.05 C 106.26 443.77 108.00 442.09 109.25 440.78 C 110.50 439.46 112.15 437.69 113.29 436.26 C 114.43 434.84 115.96 432.95 116.85 431.28 C 117.74 429.60 118.51 426.95 119.22 425.10 C 120.22 423.82 121.55 422.11 122.55 420.83 C 124.40 421.54 126.93 423.26 128.72 423.20 C 130.52 423.15 132.84 421.33 134.54 420.47 C 136.25 419.61 138.45 418.39 140.10 417.47 C 141.74 416.55 143.88 415.27 145.53 414.35 C 147.18 413.44 149.39 412.23 151.08 411.36 C 152.77 410.48 155.05 409.34 156.78 408.51 C 158.51 407.67 160.84 406.58 162.60 405.77 C 164.36 404.97 166.72 403.91 168.51 403.13 C 170.30 402.36 172.68 401.32 174.53 400.61 C 176.39 399.90 178.92 399.01 180.89 398.41 C 182.85 397.82 185.59 397.13 187.65 396.63 C 189.72 396.13 192.53 395.52 194.66 395.09 C 196.79 394.66 199.67 394.11 201.88 393.75 C 204.08 393.40 207.10 392.99 209.39 392.71 C 211.67 392.43 214.76 392.10 217.10 391.88 C 219.45 391.66 222.61 391.39 225.03 391.26 C 227.45 391.13 230.77 391.02 233.22 391.02 C 235.68 391.02 239.00 391.13 241.42 391.26 C 243.84 391.39 247.00 391.66 249.35 391.88 C 251.69 392.10 254.78 392.43 257.06 392.71 C 259.34 393.00 262.35 393.41 264.55 393.78 C 266.74 394.15 269.56 394.75 271.70 395.18 C 273.84 395.60 276.69 396.17 278.82 396.60 C 281.25 396.74 284.48 396.93 286.90 397.08 C 287.33 394.94 287.90 392.09 288.32 389.95 C 287.04 388.67 285.40 386.89 284.05 385.68 C 282.70 384.47 280.73 383.01 279.30 381.88 C 277.87 380.75 275.96 379.23 274.49 378.14 C 273.02 377.04 271.02 375.62 269.47 374.60 C 267.93 373.58 265.80 372.29 264.19 371.34 C 262.58 370.38 260.38 369.16 258.73 368.25 C 257.07 367.34 254.84 366.15 253.15 365.28 C 251.45 364.41 249.17 363.27 247.45 362.43 C 245.72 361.59 243.39 360.51 241.63 359.70 C 239.87 358.89 237.50 357.84 235.72 357.06 C 233.94 356.27 231.56 355.24 229.75 354.48 C 227.95 353.71 225.53 352.71 223.70 351.98 C 221.86 351.25 219.39 350.30 217.52 349.61 C 215.65 348.91 213.13 348.01 211.23 347.35 C 209.33 346.69 206.77 345.82 204.84 345.18 C 202.92 344.54 200.35 343.69 198.40 343.08 C 196.46 342.46 193.85 341.64 191.87 341.06 C 189.89 340.47 187.25 339.69 185.22 339.16 C 183.19 338.63 180.47 337.91 178.36 337.52 C 176.25 337.14 173.35 336.72 171.15 336.60 C 168.95 336.49 165.93 336.59 163.70 336.75 C 161.47 336.92 158.46 337.63 156.28 337.70 C 154.09 337.77 151.29 337.37 149.15 337.23 C 147.72 336.09 145.83 334.57 144.40 333.43 C 143.54 331.72 142.41 329.44 141.55 327.73 C 141.83 325.45 142.22 322.41 142.50 320.13 C 143.64 318.70 145.16 316.80 146.30 315.38 C 148.44 314.95 151.23 314.32 153.42 313.95 C 155.62 313.58 158.74 313.28 160.94 312.91 C 163.13 312.54 166.02 312.01 168.06 311.49 C 170.10 310.97 172.67 310.11 174.56 309.44 C 176.46 308.77 178.83 307.72 180.68 307.00 C 182.53 306.29 184.99 305.33 186.91 304.69 C 188.84 304.05 191.49 303.28 193.50 302.73 C 195.52 302.18 198.27 301.51 200.36 301.04 C 202.45 300.56 205.27 299.96 207.43 299.55 C 209.59 299.15 212.54 298.67 214.76 298.34 C 216.98 298.01 220.00 297.62 222.21 297.36 C 224.42 297.09 227.31 296.77 229.51 296.58 C 231.71 296.40 234.59 296.20 236.88 296.11 Z"/></clipPath>
</defs>
<path d="M 668.50 121.06 C 670.00 122.26 672.00 123.86 673.50 125.06 C 674.70 126.56 676.30 128.56 677.50 130.06 C 678.70 131.57 680.29 133.57 681.47 135.09 C 682.65 136.62 684.19 138.67 685.34 140.22 C 686.50 141.77 688.00 143.86 689.16 145.41 C 690.31 146.95 691.86 149.00 693.03 150.53 C 694.20 152.06 695.78 154.08 696.97 155.59 C 698.15 157.11 699.69 159.17 700.94 160.62 C 702.18 162.08 703.82 164.04 705.28 165.28 C 706.74 166.52 708.83 168.03 710.66 168.91 C 712.48 169.78 715.25 170.62 717.47 171.09 C 719.69 171.57 722.99 171.87 725.47 172.09 C 727.94 172.32 731.41 172.45 733.97 172.59 C 736.52 172.74 740.02 172.84 742.50 173.06 C 744.98 173.28 748.10 173.76 750.50 174.06 C 752.15 175.11 754.35 176.51 756.00 177.56 C 755.40 179.36 754.60 181.76 754.00 183.56 C 752.50 184.76 750.52 186.39 749.00 187.56 C 747.48 188.74 745.40 190.26 743.84 191.41 C 742.29 192.55 740.20 194.06 738.62 195.19 C 737.05 196.31 734.94 197.80 733.34 198.91 C 731.75 200.01 729.63 201.49 728.00 202.56 C 726.37 203.64 724.15 205.01 722.50 206.06 C 721.60 207.86 720.40 210.26 719.50 212.06 C 719.80 214.46 720.09 217.81 720.50 220.06 C 720.91 222.31 721.95 224.91 722.25 227.06 C 722.55 229.21 722.68 232.25 722.47 234.41 C 722.26 236.56 721.50 239.42 720.84 241.41 C 720.18 243.39 718.96 245.82 718.06 247.62 C 717.16 249.43 715.83 251.69 714.84 253.41 C 713.86 255.12 712.50 257.36 711.50 259.06 C 710.50 260.76 709.16 263.02 708.19 264.75 C 707.22 266.48 705.95 268.82 705.03 270.59 C 704.11 272.37 702.91 274.77 702.03 276.59 C 701.15 278.42 700.01 280.87 699.19 282.75 C 698.37 284.63 697.30 287.16 696.56 289.12 C 695.83 291.09 694.88 293.74 694.28 295.84 C 693.69 297.95 693.00 300.86 692.59 303.16 C 692.19 305.45 691.83 308.69 691.59 311.16 C 691.36 313.62 691.17 317.03 691.03 319.59 C 690.90 322.16 690.76 325.62 690.69 328.25 C 690.61 330.88 690.56 334.42 690.53 337.09 C 690.50 339.77 690.50 343.37 690.50 346.06 C 690.50 348.76 690.50 352.36 690.50 355.06 C 690.50 357.76 690.50 361.37 690.50 364.06 C 690.50 366.76 690.51 370.35 690.53 373.03 C 690.55 375.71 690.61 379.25 690.66 381.91 C 690.70 384.56 690.80 388.07 690.84 390.72 C 690.89 393.37 690.95 396.92 690.97 399.59 C 690.99 402.27 691.00 405.87 691.00 408.56 C 691.00 411.26 691.00 414.86 691.00 417.56 C 691.00 420.26 691.00 423.86 691.00 426.56 C 691.00 429.26 690.85 433.01 691.00 435.56 C 691.15 438.11 691.70 441.16 692.00 443.56 C 694.10 444.16 696.98 444.89 699.00 445.56 C 701.02 446.24 703.55 447.31 705.50 448.06 C 706.55 449.71 707.95 451.91 709.00 453.56 C 708.10 455.36 706.90 457.76 706.00 459.56 C 704.20 460.46 702.08 461.94 700.00 462.56 C 697.92 463.19 694.53 463.40 692.16 463.72 C 689.78 464.04 686.55 464.41 684.16 464.72 C 681.76 465.02 678.56 465.42 676.19 465.75 C 673.82 466.08 670.71 466.57 668.34 466.91 C 665.98 467.24 662.84 467.70 660.44 468.00 C 658.03 468.30 654.79 468.65 652.31 468.88 C 649.84 469.10 646.49 469.35 643.94 469.50 C 641.39 469.65 637.93 469.80 635.31 469.88 C 632.70 469.95 629.15 470.00 626.50 470.00 C 623.85 470.00 620.30 469.95 617.66 469.91 C 615.01 469.86 611.50 469.76 608.88 469.69 C 606.25 469.62 602.75 469.51 600.12 469.44 C 597.50 469.36 594.00 469.27 591.38 469.19 C 588.75 469.11 585.26 469.00 582.66 468.91 C 580.05 468.81 576.60 468.66 574.03 468.53 C 571.46 468.40 568.03 468.24 565.50 468.06 C 562.97 467.89 559.57 467.69 557.19 467.38 C 554.80 467.06 551.70 466.56 549.59 465.97 C 547.48 465.38 544.92 464.34 543.12 463.44 C 541.33 462.54 539.21 461.06 537.59 459.97 C 535.98 458.88 533.98 457.28 532.38 456.19 C 530.77 455.09 528.58 453.68 526.91 452.66 C 525.23 451.63 522.89 450.38 521.22 449.34 C 519.55 448.31 517.34 446.92 515.78 445.78 C 514.22 444.64 512.30 442.96 510.81 441.75 C 509.33 440.54 507.47 438.79 505.88 437.69 C 504.28 436.59 502.03 435.23 500.16 434.41 C 498.28 433.58 495.49 432.77 493.38 432.19 C 491.26 431.60 488.23 431.03 486.06 430.50 C 483.90 429.97 480.99 429.28 478.94 428.62 C 476.89 427.97 474.29 426.98 472.41 426.16 C 470.53 425.34 468.17 424.09 466.41 423.16 C 464.64 422.22 462.36 420.90 460.66 419.91 C 458.95 418.91 456.70 417.56 455.03 416.53 C 453.36 415.50 451.15 414.11 449.50 413.06 C 447.85 412.01 445.66 410.60 444.03 409.53 C 442.40 408.46 440.25 407.01 438.66 405.91 C 437.06 404.80 434.95 403.31 433.38 402.19 C 431.80 401.07 429.70 399.56 428.12 398.44 C 426.55 397.31 424.45 395.81 422.88 394.69 C 421.30 393.56 419.20 392.06 417.62 390.94 C 416.05 389.81 413.95 388.32 412.38 387.19 C 410.80 386.06 408.71 384.55 407.16 383.41 C 405.60 382.26 403.55 380.71 402.03 379.53 C 400.51 378.35 398.50 376.76 397.00 375.56 C 395.50 374.37 393.50 372.76 392.00 371.56 C 390.50 370.36 388.50 368.76 387.00 367.56 C 385.50 366.36 383.50 364.76 382.00 363.56 C 380.50 362.36 378.50 360.77 377.00 359.56 C 375.50 358.36 373.51 356.75 372.03 355.53 C 370.55 354.31 368.60 352.66 367.16 351.41 C 365.71 350.15 363.80 348.46 362.38 347.19 C 360.95 345.91 359.06 344.20 357.66 342.91 C 356.25 341.61 354.39 339.87 353.00 338.56 C 351.61 337.25 349.75 335.51 348.38 334.19 C 347.00 332.87 345.16 331.10 343.81 329.75 C 342.47 328.40 340.72 326.54 339.41 325.16 C 338.09 323.77 336.40 321.86 335.03 320.53 C 333.66 319.20 331.80 317.46 330.28 316.28 C 328.76 315.10 326.57 313.70 324.88 312.69 C 323.18 311.68 320.78 310.48 319.00 309.56 C 317.22 308.64 314.80 307.46 313.00 306.56 C 312.10 304.76 310.90 302.36 310.00 300.56 C 310.15 298.31 310.35 295.31 310.50 293.06 C 311.40 291.26 312.60 288.86 313.50 287.06 C 315.00 285.86 317.00 284.26 318.50 283.06 C 320.60 282.76 323.47 281.85 325.50 282.06 C 327.53 282.28 330.04 283.82 332.06 284.50 C 334.08 285.18 336.79 286.07 338.97 286.59 C 341.15 287.11 344.21 287.65 346.59 287.97 C 348.98 288.28 352.37 288.49 354.88 288.69 C 357.38 288.88 360.80 289.07 363.28 289.28 C 365.77 289.50 369.03 289.83 371.44 290.12 C 373.84 290.42 376.98 290.88 379.31 291.25 C 381.64 291.62 384.70 292.17 386.97 292.59 C 389.24 293.02 392.24 293.62 394.47 294.09 C 396.70 294.56 399.65 295.22 401.84 295.72 C 404.04 296.22 406.95 296.91 409.12 297.44 C 411.30 297.96 414.19 298.67 416.34 299.22 C 418.50 299.77 421.35 300.51 423.47 301.09 C 425.59 301.68 428.39 302.47 430.47 303.09 C 432.55 303.72 435.29 304.57 437.31 305.25 C 439.34 305.93 441.99 306.87 443.97 307.59 C 445.95 308.32 448.55 309.32 450.50 310.06 C 452.45 310.81 455.05 311.81 457.00 312.56 C 458.95 313.31 461.55 314.31 463.50 315.06 C 465.45 315.82 468.05 316.82 469.97 317.59 C 471.89 318.37 474.44 319.43 476.31 320.25 C 478.19 321.07 480.64 322.22 482.47 323.09 C 484.30 323.97 486.70 325.17 488.50 326.06 C 490.30 326.96 492.62 328.24 494.50 329.06 C 496.38 329.89 499.05 330.81 501.00 331.56 C 503.55 331.41 506.95 331.21 509.50 331.06 C 510.85 329.71 512.52 327.79 514.00 326.56 C 515.48 325.34 517.71 323.97 519.34 322.91 C 520.98 321.84 523.21 320.47 524.91 319.47 C 526.60 318.47 528.92 317.18 530.66 316.22 C 532.40 315.26 534.75 314.01 536.50 313.06 C 538.25 312.11 540.59 310.85 542.31 309.88 C 544.03 308.90 546.29 307.55 547.97 306.53 C 549.65 305.51 551.85 304.11 553.50 303.06 C 555.15 302.02 557.35 300.61 559.00 299.56 C 560.65 298.51 562.85 297.11 564.50 296.06 C 566.15 295.01 568.35 293.61 570.00 292.56 C 571.65 291.51 573.85 290.12 575.50 289.06 C 577.15 288.01 579.35 286.61 580.97 285.53 C 582.59 284.45 584.74 283.00 586.31 281.88 C 587.89 280.75 589.94 279.20 591.47 278.03 C 593.00 276.86 594.99 275.25 596.50 274.06 C 598.01 272.87 600.00 271.27 601.53 270.09 C 603.06 268.92 605.11 267.38 606.69 266.25 C 608.26 265.12 610.39 263.65 612.03 262.59 C 613.67 261.53 615.88 260.14 617.62 259.19 C 619.37 258.23 621.80 257.06 623.66 256.22 C 625.51 255.38 628.14 254.41 630.00 253.56 C 631.86 252.72 634.32 251.58 636.03 250.59 C 637.74 249.60 639.86 248.13 641.41 246.97 C 642.95 245.81 644.87 244.14 646.31 242.88 C 647.75 241.61 649.55 239.81 651.00 238.56 C 652.45 237.32 654.50 235.76 656.00 234.56 C 656.75 232.61 657.75 230.01 658.50 228.06 C 657.75 226.11 656.94 223.32 656.00 221.56 C 655.06 219.80 653.27 217.99 652.25 216.31 C 651.23 214.63 650.00 212.26 649.19 210.38 C 648.37 208.49 647.49 205.77 646.81 203.75 C 646.13 201.73 645.32 198.94 644.66 196.91 C 643.99 194.87 643.04 192.23 642.38 190.19 C 641.71 188.15 640.78 185.48 640.25 183.31 C 639.72 181.15 639.15 178.11 638.81 175.75 C 638.48 173.39 638.23 170.04 638.00 167.56 C 637.77 165.09 637.54 161.72 637.31 159.25 C 637.09 156.78 636.70 153.57 636.50 151.06 C 636.30 148.56 636.15 145.11 636.00 142.56 C 637.20 142.86 638.80 143.26 640.00 143.56 C 641.05 145.21 642.45 147.41 643.50 149.06 C 644.55 150.71 645.95 152.91 647.00 154.56 C 648.05 156.21 649.45 158.41 650.50 160.06 C 652.60 160.66 655.40 161.46 657.50 162.06 C 659.15 161.01 661.35 159.61 663.00 158.56 C 663.30 156.16 663.70 152.96 664.00 150.56 C 664.30 148.16 664.70 144.96 665.00 142.56 C 665.30 140.16 665.70 136.96 666.00 134.56 C 666.30 132.16 666.70 128.96 667.00 126.56 C 667.45 124.91 668.05 122.71 668.50 121.06 Z" fill="url(#bp30)"/>
<path d="M 236.88 296.11 C 239.16 296.02 242.33 295.96 244.74 295.96 C 247.16 295.96 250.52 296.02 252.97 296.11 C 255.41 296.20 258.66 296.40 261.04 296.58 C 263.42 296.77 266.52 297.09 268.82 297.36 C 271.12 297.62 274.16 298.00 276.39 298.34 C 278.62 298.67 281.55 299.16 283.69 299.58 C 285.84 300.01 288.60 300.66 290.67 301.16 C 292.74 301.65 295.45 302.36 297.47 302.91 C 299.49 303.45 302.18 304.18 304.15 304.78 C 306.12 305.37 308.69 306.22 310.59 306.89 C 312.49 307.55 314.97 308.50 316.80 309.23 C 318.63 309.97 321.04 310.97 322.79 311.78 C 324.55 312.59 326.83 313.73 328.49 314.63 C 330.16 315.53 332.30 316.81 333.90 317.78 C 335.49 318.75 337.58 320.08 339.15 321.08 C 340.72 322.07 342.81 323.40 344.35 324.43 C 345.88 325.46 347.92 326.84 349.39 327.93 C 350.86 329.03 352.76 330.55 354.14 331.73 C 355.53 332.91 357.30 334.56 358.62 335.80 C 359.95 337.04 361.71 338.71 362.99 339.99 C 364.27 341.27 365.97 342.99 367.17 344.35 C 368.38 345.71 369.92 347.59 371.03 349.04 C 372.15 350.49 373.57 352.49 374.60 354.03 C 375.62 355.57 376.94 357.68 377.86 359.31 C 378.79 360.95 379.94 363.22 380.77 364.95 C 381.60 366.69 382.66 369.05 383.41 370.86 C 384.17 372.67 385.16 375.10 385.82 377.01 C 386.48 378.91 387.30 381.53 387.81 383.57 C 388.32 385.61 388.90 388.45 389.20 390.60 C 389.51 392.76 389.78 395.70 389.86 397.91 C 389.93 400.11 389.85 403.08 389.71 405.30 C 389.57 407.52 389.23 410.51 388.91 412.69 C 388.58 414.87 388.03 417.75 387.54 419.82 C 387.05 421.88 386.26 424.52 385.64 426.47 C 385.02 428.41 384.12 430.93 383.41 432.79 C 382.71 434.65 381.73 437.09 380.92 438.85 C 380.11 440.61 378.91 442.82 378.04 444.52 C 377.17 446.21 375.87 448.34 375.10 450.13 C 374.33 451.91 373.37 454.39 372.90 456.42 C 372.44 458.46 372.13 461.45 371.98 463.70 C 371.84 465.94 372.00 469.14 371.95 471.38 C 371.91 473.63 371.91 476.60 371.66 478.69 C 371.40 480.78 370.83 483.41 370.26 485.31 C 369.69 487.20 368.69 489.62 367.86 491.33 C 367.02 493.04 365.75 495.22 364.68 496.71 C 363.61 498.20 362.00 500.02 360.70 501.28 C 359.40 502.54 357.52 504.08 356.01 505.14 C 354.51 506.20 352.41 507.52 350.67 508.35 C 348.93 509.17 346.44 510.13 344.43 510.66 C 342.43 511.20 339.48 511.70 337.31 511.91 C 335.14 512.11 332.08 512.18 329.95 512.03 C 327.81 511.87 325.05 511.37 323.09 510.87 C 321.13 510.37 318.71 509.34 316.85 508.67 C 315.00 508.00 312.61 506.91 310.71 506.39 C 308.81 505.86 306.16 505.29 304.18 505.20 C 302.20 505.10 299.46 505.39 297.50 505.76 C 295.53 506.13 292.99 507.03 291.09 507.66 C 289.18 508.29 286.72 509.28 284.82 509.95 C 282.92 510.62 280.39 511.50 278.44 512.12 C 276.49 512.73 273.87 513.53 271.85 514.08 C 269.83 514.62 267.08 515.29 264.96 515.74 C 262.85 516.19 259.95 516.71 257.75 517.07 C 255.54 517.43 252.55 517.86 250.27 518.14 C 247.98 518.42 244.89 518.76 242.52 518.94 C 240.15 519.13 236.91 519.32 234.47 519.39 C 232.03 519.46 228.70 519.47 226.25 519.42 C 223.79 519.37 220.51 519.22 218.11 519.06 C 215.72 518.90 212.58 518.61 210.28 518.35 C 207.97 518.09 204.97 517.67 202.74 517.34 C 200.50 517.01 197.56 516.53 195.40 516.12 C 193.24 515.72 190.40 515.14 188.34 514.64 C 186.27 514.14 183.60 513.39 181.63 512.80 C 179.66 512.21 177.11 511.32 175.19 510.69 C 173.26 510.06 170.75 509.11 168.80 508.58 C 166.86 508.05 164.22 507.35 162.21 507.16 C 160.21 506.96 157.44 507.01 155.44 507.28 C 153.45 507.54 150.85 508.36 148.91 508.94 C 146.98 509.51 144.51 510.52 142.53 511.11 C 140.55 511.69 137.80 512.36 135.70 512.83 C 133.60 513.30 130.64 513.75 128.55 514.22 C 126.46 514.70 123.72 515.39 121.78 516.00 C 119.83 516.62 117.41 517.62 115.57 518.35 C 113.73 519.08 111.39 520.15 109.52 520.84 C 107.65 521.54 105.14 522.45 103.10 522.98 C 101.07 523.52 98.22 524.10 95.98 524.41 C 93.74 524.71 90.55 524.95 88.20 525.00 C 85.85 525.05 82.62 524.95 80.30 524.76 C 77.99 524.58 74.98 524.15 72.79 523.78 C 70.61 523.41 67.81 522.78 65.73 522.30 C 63.65 521.81 60.95 521.09 58.93 520.55 C 56.91 520.00 54.24 519.25 52.25 518.68 C 50.26 518.11 47.60 517.34 45.63 516.75 C 43.66 516.15 41.05 515.34 39.13 514.70 C 37.21 514.05 34.69 513.15 32.83 512.44 C 30.98 511.73 28.56 510.74 26.75 509.98 C 24.94 509.22 22.56 508.18 20.78 507.40 C 19.00 506.61 16.64 505.55 14.87 504.75 C 13.11 503.95 10.76 502.88 9.03 502.05 C 7.29 501.22 5.04 500.06 3.32 499.20 C 2.33 497.63 1.00 495.54 0.00 493.98 C 1.14 492.55 2.66 490.65 3.80 489.23 C 5.65 488.51 8.10 487.54 9.97 486.85 C 11.85 486.17 14.40 485.29 16.33 484.65 C 18.26 484.02 20.86 483.20 22.83 482.61 C 24.80 482.01 27.47 481.26 29.45 480.68 C 31.43 480.09 34.10 479.34 36.01 478.69 C 37.92 478.03 40.46 477.15 42.19 476.31 C 43.91 475.48 46.10 474.25 47.53 473.11 C 48.95 471.97 50.59 470.19 51.69 468.71 C 52.78 467.24 53.93 464.97 54.80 463.28 C 55.68 461.59 56.70 459.19 57.50 457.43 C 58.31 455.67 59.37 453.32 60.18 451.55 C 60.98 449.79 62.04 447.43 62.85 445.68 C 63.65 443.92 64.74 441.58 65.55 439.83 C 66.36 438.07 67.45 435.74 68.25 433.98 C 69.06 432.22 70.11 429.85 70.92 428.10 C 71.73 426.35 72.82 424.01 73.65 422.28 C 74.49 420.55 75.70 418.34 76.47 416.55 C 77.25 414.77 78.14 412.23 78.85 410.38 C 80.13 409.95 81.84 409.38 83.12 408.95 C 83.84 410.80 84.79 413.27 85.50 415.13 C 86.21 416.98 87.16 419.45 87.85 421.33 C 88.53 423.21 89.43 425.74 90.07 427.65 C 90.72 429.57 91.48 432.23 92.15 434.13 C 92.82 436.02 93.81 438.45 94.52 440.30 C 95.52 441.87 96.85 443.96 97.85 445.53 C 99.99 445.38 102.84 445.19 104.97 445.05 C 106.26 443.77 108.00 442.09 109.25 440.78 C 110.50 439.46 112.15 437.69 113.29 436.26 C 114.43 434.84 115.96 432.95 116.85 431.28 C 117.74 429.60 118.51 426.95 119.22 425.10 C 120.22 423.82 121.55 422.11 122.55 420.83 C 124.40 421.54 126.93 423.26 128.72 423.20 C 130.52 423.15 132.84 421.33 134.54 420.47 C 136.25 419.61 138.45 418.39 140.10 417.47 C 141.74 416.55 143.88 415.27 145.53 414.35 C 147.18 413.44 149.39 412.23 151.08 411.36 C 152.77 410.48 155.05 409.34 156.78 408.51 C 158.51 407.67 160.84 406.58 162.60 405.77 C 164.36 404.97 166.72 403.91 168.51 403.13 C 170.30 402.36 172.68 401.32 174.53 400.61 C 176.39 399.90 178.92 399.01 180.89 398.41 C 182.85 397.82 185.59 397.13 187.65 396.63 C 189.72 396.13 192.53 395.52 194.66 395.09 C 196.79 394.66 199.67 394.11 201.88 393.75 C 204.08 393.40 207.10 392.99 209.39 392.71 C 211.67 392.43 214.76 392.10 217.10 391.88 C 219.45 391.66 222.61 391.39 225.03 391.26 C 227.45 391.13 230.77 391.02 233.22 391.02 C 235.68 391.02 239.00 391.13 241.42 391.26 C 243.84 391.39 247.00 391.66 249.35 391.88 C 251.69 392.10 254.78 392.43 257.06 392.71 C 259.34 393.00 262.35 393.41 264.55 393.78 C 266.74 394.15 269.56 394.75 271.70 395.18 C 273.84 395.60 276.69 396.17 278.82 396.60 C 281.25 396.74 284.48 396.93 286.90 397.08 C 287.33 394.94 287.90 392.09 288.32 389.95 C 287.04 388.67 285.40 386.89 284.05 385.68 C 282.70 384.47 280.73 383.01 279.30 381.88 C 277.87 380.75 275.96 379.23 274.49 378.14 C 273.02 377.04 271.02 375.62 269.47 374.60 C 267.93 373.58 265.80 372.29 264.19 371.34 C 262.58 370.38 260.38 369.16 258.73 368.25 C 257.07 367.34 254.84 366.15 253.15 365.28 C 251.45 364.41 249.17 363.27 247.45 362.43 C 245.72 361.59 243.39 360.51 241.63 359.70 C 239.87 358.89 237.50 357.84 235.72 357.06 C 233.94 356.27 231.56 355.24 229.75 354.48 C 227.95 353.71 225.53 352.71 223.70 351.98 C 221.86 351.25 219.39 350.30 217.52 349.61 C 215.65 348.91 213.13 348.01 211.23 347.35 C 209.33 346.69 206.77 345.82 204.84 345.18 C 202.92 344.54 200.35 343.69 198.40 343.08 C 196.46 342.46 193.85 341.64 191.87 341.06 C 189.89 340.47 187.25 339.69 185.22 339.16 C 183.19 338.63 180.47 337.91 178.36 337.52 C 176.25 337.14 173.35 336.72 171.15 336.60 C 168.95 336.49 165.93 336.59 163.70 336.75 C 161.47 336.92 158.46 337.63 156.28 337.70 C 154.09 337.77 151.29 337.37 149.15 337.23 C 147.72 336.09 145.83 334.57 144.40 333.43 C 143.54 331.72 142.41 329.44 141.55 327.73 C 141.83 325.45 142.22 322.41 142.50 320.13 C 143.64 318.70 145.16 316.80 146.30 315.38 C 148.44 314.95 151.23 314.32 153.42 313.95 C 155.62 313.58 158.74 313.28 160.94 312.91 C 163.13 312.54 166.02 312.01 168.06 311.49 C 170.10 310.97 172.67 310.11 174.56 309.44 C 176.46 308.77 178.83 307.72 180.68 307.00 C 182.53 306.29 184.99 305.33 186.91 304.69 C 188.84 304.05 191.49 303.28 193.50 302.73 C 195.52 302.18 198.27 301.51 200.36 301.04 C 202.45 300.56 205.27 299.96 207.43 299.55 C 209.59 299.15 212.54 298.67 214.76 298.34 C 216.98 298.01 220.00 297.62 222.21 297.36 C 224.42 297.09 227.31 296.77 229.51 296.58 C 231.71 296.40 234.59 296.20 236.88 296.11 Z" fill="url(#bp31)"/>
<g clip-path="url(#cp30)" fill="none" stroke-width="7.5" stroke-linecap="round" stroke-linejoin="round">
<path d="M 668.5 121.1 L 669.5 121.8 L 670.5 122.6 L 671.5 123.5 L 672.5 124.3 L 673.5 125.1 L 674.3 126 L 675.1 127" stroke="#F2ECDC" stroke-opacity="0.461"/>
<path d="M 675.1 127 L 675.9 128.1 L 676.7 129.1 L 677.5 130.1 L 678.3 131 L 679.1 132 L 679.9 133.1 L 680.7 134.1" stroke="#F2ECDC" stroke-opacity="0.52"/>
<path d="M 680.7 134.1 L 681.5 135.1 L 682.2 136.1 L 683 137.1 L 683.8 138.2 L 684.6 139.2 L 685.3 140.2 L 686.1 141.2" stroke="#F2ECDC" stroke-opacity="0.508"/>
<path d="M 686.1 141.2 L 686.9 142.3 L 687.6 143.4 L 688.4 144.4 L 689.2 145.4 L 689.9 146.4 L 690.7 147.4 L 691.5 148.5" stroke="#F2ECDC" stroke-opacity="0.498"/>
<path d="M 691.5 148.5 L 692.3 149.6 L 693 150.5 L 693.8 151.5 L 694.6 152.5 L 695.4 153.6 L 696.2 154.6 L 697 155.6" stroke="#F2ECDC" stroke-opacity="0.496"/>
<path d="M 697 155.6 L 697.7 156.6 L 698.5 157.6 L 699.3 158.7 L 700.2 159.7 L 700.9 160.6 L 701.7 161.5 L 702.6 162.5" stroke="#F2ECDC" stroke-opacity="0.496"/>
<path d="M 702.6 162.5 L 703.5 163.5 L 704.4 164.5 L 705.3 165.3 L 706.2 166.1 L 707.3 166.8 L 708.4 167.6 L 709.5 168.3" stroke="#F2ECDC" stroke-opacity="0.503"/>
<path d="M 709.5 168.3 L 710.7 168.9 L 711.9 169.4 L 713.2 169.9 L 714.6 170.4 L 716.1 170.8 L 717.5 171.1 L 718.9 171.4" stroke="#F2ECDC" stroke-opacity="0.451"/>
<path d="M 718.9 171.4 L 720.5 171.6 L 722.2 171.8 L 723.9 171.9 L 725.5 172.1 L 727.1 172.2 L 728.8 172.3 L 730.6 172.4" stroke="#F2ECDC" stroke-opacity="0.38"/>
<path d="M 730.6 172.4 L 732.3 172.5 L 734 172.6 L 735.6 172.7 L 737.4 172.8 L 739.2 172.8 L 740.9 172.9 L 742.5 173.1" stroke="#F2ECDC" stroke-opacity="0.37"/>
<path d="M 742.5 173.1 L 744.1 173.2 L 745.7 173.4 L 747.4 173.6 L 749 173.9 L 750.5 174.1 L 751.5 174.7 L 752.7 175.4" stroke="#F2ECDC" stroke-opacity="0.44"/>
<path d="M 752.7 175.4 L 753.8 176.2 L 755 176.9 L 756 177.6 L 755.6 178.7 L 755.2 179.9 L 754.8 181.2 L 754.4 182.4" stroke="#F2ECDC" stroke-opacity="0.276"/>
<path d="M 720.1 210.9 L 719.5 212.1 L 719.7 213.6 L 719.9 215.3 L 720.1 217 L 720.3 218.6 L 720.5 220.1 L 720.8 221.4" stroke="#F2ECDC" stroke-opacity="0.205"/>
<path d="M 720.8 221.4 L 721.2 222.9 L 721.6 224.3 L 722 225.7 L 722.2 227.1 L 722.4 228.4 L 722.5 230 L 722.6 231.5" stroke="#F2ECDC" stroke-opacity="0.242"/>
<path d="M 722.6 231.5 L 722.6 233 L 722.5 234.4 L 722.3 235.8 L 722 237.2 L 721.6 238.7 L 721.2 240.1 L 720.8 241.4" stroke="#F2ECDC" stroke-opacity="0.114"/>
<path d="M 695.6 291.7 L 695.1 293.1 L 694.7 294.5 L 694.3 295.8 L 693.9 297.2 L 693.5 298.7 L 693.2 300.2 L 692.9 301.7" stroke="#EEE6D8" stroke-opacity="0.06"/>
<path d="M 692.9 301.7 L 692.6 303.2 L 692.4 304.6 L 692.1 306.3 L 691.9 307.9 L 691.7 309.6 L 691.6 311.2 L 691.5 312.7" stroke="#EEE4D7" stroke-opacity="0.092"/>
<path d="M 691.5 312.7 L 691.3 314.5 L 691.2 316.2 L 691.1 318 L 691 319.6 L 691 321.2 L 690.9 323 L 690.8 324.8" stroke="#EDE3D6" stroke-opacity="0.108"/>
<path d="M 690.8 324.8 L 690.7 326.6 L 690.7 328.2 L 690.6 329.9 L 690.6 331.7 L 690.6 333.6 L 690.6 335.4 L 690.5 337.1" stroke="#EDE2D6" stroke-opacity="0.112"/>
<path d="M 690.5 337.1 L 690.5 338.8 L 690.5 340.6 L 690.5 342.5 L 690.5 344.4 L 690.5 346.1 L 690.5 347.8 L 690.5 349.6" stroke="#ECE1D5" stroke-opacity="0.111"/>
<path d="M 690.5 349.6 L 690.5 351.5 L 690.5 353.3 L 690.5 355.1 L 690.5 356.8 L 690.5 358.6 L 690.5 360.5 L 690.5 362.4" stroke="#EBDFD4" stroke-opacity="0.106"/>
<path d="M 690.5 362.4 L 690.5 364.1 L 690.5 365.8 L 690.5 367.6 L 690.5 369.5 L 690.5 371.3 L 690.5 373 L 690.5 374.7" stroke="#EBDED3" stroke-opacity="0.102"/>
<path d="M 690.5 374.7 L 690.6 376.5 L 690.6 378.4 L 690.6 380.2 L 690.7 381.9 L 690.7 383.6 L 690.7 385.4 L 690.8 387.2" stroke="#EADDD2" stroke-opacity="0.099"/>
<path d="M 690.8 387.2 L 690.8 389 L 690.8 390.7 L 690.9 392.4 L 690.9 394.2 L 690.9 396.1 L 691 397.9 L 691 399.6" stroke="#E9DCD2" stroke-opacity="0.094"/>
<path d="M 691 399.6 L 691 401.3 L 691 403.1 L 691 405 L 691 406.9 L 691 408.6 L 691 410.3 L 691 412.1" stroke="#E9DAD1" stroke-opacity="0.087"/>
<path d="M 691 412.1 L 691 414 L 691 415.8 L 691 417.6 L 691 419.3 L 691 421.1 L 691 423 L 691 424.8" stroke="#E8D9D0" stroke-opacity="0.082"/>
<path d="M 691 424.8 L 691 426.6 L 691 428.3 L 691 430.2 L 690.9 432.1 L 690.9 433.9 L 691 435.6 L 691.1 437.1" stroke="#E7D8CF" stroke-opacity="0.082"/>
<path d="M 691.1 437.1 L 691.3 438.8 L 691.6 440.4 L 691.8 442.1 L 692 443.6 L 693.3 443.9 L 694.8 444.3 L 696.3 444.7" stroke="#E7D7CF" stroke-opacity="0.124"/>
<path d="M 696.3 444.7 L 697.7 445.2 L 699 445.6 L 700.3 446 L 701.6 446.5 L 703 447.1 L 704.3 447.6 L 705.5 448.1" stroke="#E7D7CF" stroke-opacity="0.158"/>
<path d="M 705.5 448.1 L 706.2 449.1 L 706.9 450.2 L 707.6 451.4 L 708.3 452.5 L 709 453.6 L 708.4 454.7 L 707.8 455.9" stroke="#E7D7CE" stroke-opacity="0.11"/>
<path d="M 316.5 284.6 L 317.5 283.8 L 318.5 283.1 L 319.8 282.8 L 321.3 282.5 L 322.8 282.2 L 324.2 282.1 L 325.5 282.1" stroke="#E4D2CC" stroke-opacity="0.058"/>
<path d="M 325.5 282.1 L 326.8 282.3 L 328.1 282.8 L 329.5 283.4 L 330.8 284 L 332.1 284.5 L 333.3 284.9 L 334.7 285.4" stroke="#E5D3CC" stroke-opacity="0.123"/>
<path d="M 334.7 285.4 L 336.2 285.8 L 337.6 286.2 L 339 286.6 L 340.4 286.9 L 341.9 287.2 L 343.5 287.5 L 345.1 287.8" stroke="#E5D3CC" stroke-opacity="0.12"/>
<path d="M 345.1 287.8 L 346.6 288 L 348.1 288.1 L 349.8 288.3 L 351.6 288.4 L 353.3 288.6 L 354.9 288.7 L 356.5 288.8" stroke="#E5D3CC" stroke-opacity="0.109"/>
<path d="M 356.5 288.8 L 358.2 288.9 L 360 289 L 361.7 289.2 L 363.3 289.3 L 364.9 289.4 L 366.5 289.6 L 368.2 289.8" stroke="#E5D4CD" stroke-opacity="0.109"/>
<path d="M 368.2 289.8 L 369.9 289.9 L 371.4 290.1 L 373 290.3 L 374.6 290.5 L 376.2 290.8 L 377.8 291 L 379.3 291.2" stroke="#E5D4CD" stroke-opacity="0.119"/>
<path d="M 379.3 291.2 L 380.8 291.5 L 382.4 291.8 L 384 292 L 385.5 292.3 L 387 292.6 L 388.4 292.9 L 389.9 293.2" stroke="#E6D5CD" stroke-opacity="0.126"/>
<path d="M 389.9 293.2 L 391.5 293.5 L 393.1 293.8 L 394.5 294.1 L 395.9 294.4 L 397.4 294.7 L 398.9 295.1 L 400.4 295.4" stroke="#E6D5CE" stroke-opacity="0.132"/>
<path d="M 400.4 295.4 L 401.8 295.7 L 403.2 296 L 404.7 296.4 L 406.3 296.8 L 407.7 297.1 L 409.1 297.4 L 410.5 297.8" stroke="#E6D6CE" stroke-opacity="0.137"/>
<path d="M 410.5 297.8 L 412 298.1 L 413.5 298.5 L 415 298.9 L 416.3 299.2 L 417.7 299.6 L 419.2 299.9 L 420.7 300.3" stroke="#E6D6CE" stroke-opacity="0.141"/>
<path d="M 420.7 300.3 L 422.1 300.7 L 423.5 301.1 L 424.8 301.5 L 426.2 301.9 L 427.7 302.3 L 429.1 302.7 L 430.5 303.1" stroke="#E6D6CE" stroke-opacity="0.145"/>
<path d="M 430.5 303.1 L 431.8 303.5 L 433.2 303.9 L 434.6 304.4 L 436 304.8 L 437.3 305.2 L 438.6 305.7 L 440 306.2" stroke="#E6D6CE" stroke-opacity="0.151"/>
<path d="M 440 306.2 L 441.4 306.7 L 442.7 307.1 L 444 307.6 L 445.2 308.1 L 446.6 308.6 L 447.9 309.1 L 449.3 309.6" stroke="#E7D7CE" stroke-opacity="0.156"/>
<path d="M 449.3 309.6 L 450.5 310.1 L 451.7 310.5 L 453.1 311 L 454.4 311.6 L 455.8 312.1 L 457 312.6 L 458.2 313" stroke="#E7D7CF" stroke-opacity="0.159"/>
<path d="M 458.2 313 L 459.6 313.5 L 460.9 314.1 L 462.3 314.6 L 463.5 315.1 L 464.7 315.5 L 466.1 316.1 L 467.4 316.6" stroke="#E7D7CF" stroke-opacity="0.16"/>
<path d="M 467.4 316.6 L 468.7 317.1 L 470 317.6 L 471.2 318.1 L 472.5 318.6 L 473.8 319.2 L 475.1 319.7 L 476.3 320.2" stroke="#E7D7CF" stroke-opacity="0.164"/>
<path d="M 476.3 320.2 L 477.5 320.8 L 478.8 321.4 L 480.1 322 L 481.3 322.5 L 482.5 323.1 L 483.6 323.7 L 484.9 324.3" stroke="#E7D7CF" stroke-opacity="0.168"/>
<path d="M 484.9 324.3 L 486.1 324.9 L 487.4 325.5 L 488.5 326.1 L 489.6 326.6 L 490.9 327.3 L 492.1 327.9 L 493.3 328.5" stroke="#E7D7CF" stroke-opacity="0.17"/>
<path d="M 493.3 328.5 L 494.5 329.1 L 495.7 329.6 L 497 330.1 L 498.4 330.6 L 499.8 331.1 L 501 331.6 L 502.6 331.5" stroke="#E7D7CF" stroke-opacity="0.151"/>
<path d="M 502.6 331.5 L 504.4 331.4 L 506.1 331.3 L 507.9 331.2 L 509.5 331.1 L 510.3 330.2 L 511.2 329.2 L 512.2 328.3" stroke="#E7D8CF" stroke-opacity="0.067"/>
<path d="M 618.7 258.6 L 620 258 L 621.2 257.4 L 622.5 256.8 L 623.7 256.2 L 624.9 255.7 L 626.2 255.2 L 627.5 254.6" stroke="#EEE6D8" stroke-opacity="0.075"/>
<path d="M 627.5 254.6 L 628.8 254.1 L 630 253.6 L 631.2 253 L 632.4 252.4 L 633.7 251.8 L 634.9 251.2 L 636 250.6" stroke="#EFE7D8" stroke-opacity="0.073"/>
<path d="M 636.1 144.2 L 636 142.6 L 636.8 142.8 L 637.6 143 L 638.4 143.2 L 639.2 143.4 L 640 143.6 L 640.7 144.6" stroke="#F2ECDC" stroke-opacity="0.313"/>
<path d="M 640.7 144.6 L 641.4 145.7 L 642.1 146.9 L 642.8 148 L 643.5 149.1 L 644.2 150.1 L 644.9 151.2 L 645.6 152.4" stroke="#F2ECDC" stroke-opacity="0.438"/>
<path d="M 645.6 152.4 L 646.3 153.5 L 647 154.6 L 647.7 155.6 L 648.4 156.7 L 649.1 157.9 L 649.8 159 L 650.5 160.1" stroke="#F2ECDC" stroke-opacity="0.431"/>
<path d="M 650.5 160.1 L 651.8 160.4 L 653.3 160.9 L 654.7 161.3 L 656.2 161.7 L 657.5 162.1 L 658.5 161.4 L 659.7 160.7" stroke="#F2ECDC" stroke-opacity="0.306"/>
<path d="M 666.6 129.7 L 666.8 128.1 L 667 126.6 L 667.3 125.5 L 667.6 124.4 L 667.9 123.2 L 668.2 122.1 L 668.5 121.1" stroke="#F2ECDC" stroke-opacity="0.075"/>
</g>
<g clip-path="url(#cp31)" fill="none" stroke-width="7.12" stroke-linecap="round" stroke-linejoin="round">
<path d="M 236.9 296.1 L 238.3 296.1 L 239.9 296 L 241.6 296 L 243.2 296 L 244.7 296 L 246.3 296 L 248 296" stroke="#E1CDC8" stroke-opacity="0.089"/>
<path d="M 248 296 L 249.7 296 L 251.4 296.1 L 253 296.1 L 254.5 296.2 L 256.2 296.3 L 257.9 296.4 L 259.5 296.5" stroke="#E2CDC9" stroke-opacity="0.099"/>
<path d="M 259.5 296.5 L 261 296.6 L 262.5 296.7 L 264.1 296.9 L 265.8 297 L 267.4 297.2 L 268.8 297.4 L 270.3 297.5" stroke="#E2CEC9" stroke-opacity="0.108"/>
<path d="M 270.3 297.5 L 271.8 297.7 L 273.4 297.9 L 275 298.1 L 276.4 298.3 L 277.8 298.6 L 279.3 298.8 L 280.8 299.1" stroke="#E2CEC9" stroke-opacity="0.117"/>
<path d="M 280.8 299.1 L 282.3 299.3 L 283.7 299.6 L 285 299.9 L 286.5 300.2 L 287.9 300.5 L 289.4 300.8 L 290.7 301.2" stroke="#E2CFC9" stroke-opacity="0.127"/>
<path d="M 290.7 301.2 L 292 301.5 L 293.4 301.8 L 294.8 302.2 L 296.2 302.6 L 297.5 302.9 L 298.8 303.3 L 300.1 303.6" stroke="#E3CFCA" stroke-opacity="0.134"/>
<path d="M 300.1 303.6 L 301.5 304 L 302.9 304.4 L 304.1 304.8 L 305.4 305.2 L 306.7 305.6 L 308.1 306 L 309.4 306.5" stroke="#E3CFCA" stroke-opacity="0.14"/>
<path d="M 309.4 306.5 L 310.6 306.9 L 311.8 307.3 L 313.1 307.8 L 314.4 308.3 L 315.6 308.8 L 316.8 309.2 L 318 309.7" stroke="#E3CFCA" stroke-opacity="0.147"/>
<path d="M 318 309.7 L 319.2 310.2 L 320.5 310.7 L 321.7 311.3 L 322.8 311.8 L 323.9 312.3 L 325.1 312.9 L 326.3 313.5" stroke="#E3CFCA" stroke-opacity="0.153"/>
<path d="M 326.3 313.5 L 327.4 314.1 L 328.5 314.6 L 329.5 315.2 L 330.7 315.9 L 331.8 316.5 L 332.9 317.2 L 333.9 317.8" stroke="#E3CFCA" stroke-opacity="0.158"/>
<path d="M 333.9 317.8 L 334.9 318.4 L 336 319.1 L 337.1 319.8 L 338.2 320.4 L 339.1 321.1 L 340.1 321.7 L 341.2 322.4" stroke="#E3CFCA" stroke-opacity="0.16"/>
<path d="M 341.2 322.4 L 342.3 323.1 L 343.4 323.8 L 344.3 324.4 L 345.3 325.1 L 346.4 325.8 L 347.4 326.5 L 348.5 327.2" stroke="#E3CFCA" stroke-opacity="0.16"/>
<path d="M 348.5 327.2 L 349.4 327.9 L 350.3 328.6 L 351.3 329.4 L 352.3 330.2 L 353.3 331 L 354.1 331.7 L 355 332.5" stroke="#E3CFCA" stroke-opacity="0.16"/>
<path d="M 355 332.5 L 355.9 333.3 L 356.9 334.2 L 357.8 335 L 358.6 335.8 L 359.5 336.6 L 360.4 337.4 L 361.3 338.3" stroke="#E3CFCA" stroke-opacity="0.157"/>
<path d="M 361.3 338.3 L 362.2 339.2 L 363 340 L 363.8 340.8 L 364.7 341.7 L 365.5 342.6 L 366.4 343.5 L 367.2 344.4" stroke="#E3CFCA" stroke-opacity="0.154"/>
<path d="M 367.2 344.4 L 367.9 345.2 L 368.7 346.2 L 369.5 347.2 L 370.3 348.1 L 371 349 L 371.7 350 L 372.5 351" stroke="#E2CEC9" stroke-opacity="0.147"/>
<path d="M 372.5 351 L 373.2 352 L 373.9 353.1 L 374.6 354 L 375.2 355 L 375.9 356.1 L 376.6 357.2 L 377.3 358.3" stroke="#E2CEC9" stroke-opacity="0.137"/>
<path d="M 377.3 358.3 L 377.9 359.3 L 378.4 360.4 L 379 361.5 L 379.7 362.7 L 380.2 363.9 L 380.8 365 L 381.3 366.1" stroke="#E2CDC9" stroke-opacity="0.125"/>
<path d="M 381.3 366.1 L 381.8 367.3 L 382.4 368.5 L 382.9 369.7 L 383.4 370.9 L 383.9 372 L 384.4 373.3 L 384.9 374.5" stroke="#E2CDC8" stroke-opacity="0.113"/>
<path d="M 384.9 374.5 L 385.4 375.8 L 385.8 377 L 386.2 378.2 L 386.7 379.6 L 387.1 380.9 L 387.5 382.3 L 387.8 383.6" stroke="#E1CCC8" stroke-opacity="0.098"/>
<path d="M 387.8 383.6 L 388.1 384.9 L 388.4 386.3 L 388.7 387.8 L 389 389.2 L 389.2 390.6 L 389.4 392 L 389.5 393.5" stroke="#E1CBC7" stroke-opacity="0.078"/>
<path d="M 239.9 391.2 L 241.4 391.3 L 242.9 391.4 L 244.6 391.5 L 246.2 391.6 L 247.9 391.7 L 249.3 391.9 L 250.8 392" stroke="#DCC3C2" stroke-opacity="0.061"/>
<path d="M 250.8 392 L 252.4 392.2 L 254 392.4 L 255.6 392.5 L 257.1 392.7 L 258.5 392.9 L 260.1 393.1 L 261.6 393.3" stroke="#DDC4C3" stroke-opacity="0.066"/>
<path d="M 261.6 393.3 L 263.1 393.6 L 264.5 393.8 L 265.9 394 L 267.4 394.3 L 268.9 394.6 L 270.3 394.9 L 271.7 395.2" stroke="#DDC4C3" stroke-opacity="0.072"/>
<path d="M 271.7 395.2 L 273.1 395.4 L 274.5 395.7 L 276 396 L 277.5 396.3 L 278.8 396.6 L 280.4 396.7 L 282 396.8" stroke="#DDC4C3" stroke-opacity="0.07"/>
<path d="M 208.8 299.3 L 210.3 299 L 211.8 298.8 L 213.4 298.6 L 214.8 298.3 L 216.2 298.1 L 217.7 297.9 L 219.3 297.7" stroke="#E0CBC7" stroke-opacity="0.064"/>
<path d="M 219.3 297.7 L 220.8 297.5 L 222.2 297.4 L 223.6 297.2 L 225.1 297 L 226.6 296.9 L 228.1 296.7 L 229.5 296.6" stroke="#E1CBC7" stroke-opacity="0.072"/>
<path d="M 229.5 296.6 L 230.9 296.5 L 232.4 296.4 L 233.9 296.3 L 235.4 296.2 L 236.9 296.1 L 238.3 296.1 L 239.9 296" stroke="#E1CCC8" stroke-opacity="0.081"/>
</g>
</svg>
