<svg xmlns="http://www.w3.org/2000/svg" viewBox="-14.03 129.06 766.03 432.95">
<defs>
<linearGradient id="bp10" x1="0" y1="0" x2="0.25" y2="1"><stop offset="0" stop-color="#2B2C38"/><stop offset="1" stop-color="#20212B"/></linearGradient>
<linearGradient id="bp11" x1="0" y1="0" x2="0.25" y2="1"><stop offset="0" stop-color="#2B2C38"/><stop offset="1" stop-color="#20212B"/></linearGradient>
<filter id="fur" x="-35%" y="-35%" width="170%" height="170%" color-interpolation-filters="sRGB"><feGaussianBlur stdDeviation="9"/></filter>
<filter id="furW" x="-45%" y="-45%" width="190%" height="190%" color-interpolation-filters="sRGB"><feGaussianBlur stdDeviation="20"/></filter>
<filter id="rimB" x="-25%" y="-25%" width="150%" height="150%" color-interpolation-filters="sRGB"><feGaussianBlur stdDeviation="2.5"/></filter>
<radialGradient id="lume" gradientUnits="userSpaceOnUse" cx="775.0" cy="135.0" r="560.0"><stop offset="0" stop-color="#fff" stop-opacity="1.0"/><stop offset="0.35" stop-color="#fff" stop-opacity="0.48"/><stop offset="0.7" stop-color="#fff" stop-opacity="0.05"/><stop offset="1" stop-color="#fff" stop-opacity="0"/></radialGradient>
<mask id="lumeM" maskUnits="userSpaceOnUse" x="-14.03" y="129.06" width="766.03" height="432.95"><rect x="-14.03" y="129.06" width="766.03" height="432.95" fill="url(#lume)"/></mask>
<radialGradient id="rimL" gradientUnits="userSpaceOnUse" cx="760.0" cy="150.0" r="830.0"><stop offset="0" stop-color="#fff" stop-opacity="1.0"/><stop offset="0.3" stop-color="#fff" stop-opacity="0.72"/><stop offset="0.55" stop-color="#fff" stop-opacity="0.46"/><stop offset="0.78" stop-color="#fff" stop-opacity="0.3"/><stop offset="0.95" stop-color="#fff" stop-opacity="0.15"/><stop offset="1" stop-color="#fff" stop-opacity="0"/></radialGradient>
<mask id="rimLM" maskUnits="userSpaceOnUse" x="-14.03" y="129.06" width="766.03" height="432.95"><rect x="-14.03" y="129.06" width="766.03" height="432.95" fill="url(#rimL)"/></mask>
</defs>
<g mask="url(#lumeM)" fill="#E3BBB4">
  <g filter="url(#furW)" opacity="0.42"><path d="M 151.90 331.61 C 153.99 331.78 156.73 332.09 158.82 332.34 C 160.92 332.59 163.78 332.95 165.88 333.27 C 167.98 333.58 170.78 334.03 172.83 334.42 C 174.87 334.80 177.54 335.37 179.52 335.82 C 181.50 336.28 184.11 336.91 186.02 337.43 C 187.93 337.95 190.44 338.68 192.26 339.28 C 194.09 339.89 196.41 340.80 198.17 341.48 C 199.92 342.15 202.17 343.15 203.96 343.78 C 205.76 344.42 208.19 345.23 210.12 345.73 C 212.06 346.22 214.79 346.72 216.87 347.07 C 218.95 347.43 221.91 347.71 223.99 348.06 C 226.07 348.41 228.71 349.00 230.74 349.41 C 231.82 350.76 233.26 352.56 234.34 353.91 C 234.61 356.07 234.97 358.95 235.24 361.11 C 234.43 362.73 233.35 364.89 232.54 366.51 C 231.19 367.59 229.39 369.03 228.04 370.11 C 226.01 370.24 223.35 370.63 221.29 370.56 C 219.22 370.49 216.37 369.82 214.26 369.66 C 212.14 369.50 209.28 369.41 207.20 369.52 C 205.11 369.63 202.36 370.03 200.36 370.39 C 198.36 370.75 195.79 371.44 193.87 371.94 C 191.95 372.44 189.44 373.18 187.57 373.74 C 185.69 374.29 183.22 375.06 181.38 375.65 C 179.53 376.24 177.10 377.04 175.28 377.65 C 173.45 378.25 171.03 379.07 169.23 379.70 C 167.43 380.33 165.04 381.18 163.27 381.84 C 161.49 382.50 159.15 383.40 157.42 384.09 C 155.68 384.78 153.39 385.73 151.68 386.45 C 149.97 387.17 147.71 388.15 146.03 388.90 C 144.34 389.64 142.09 390.64 140.43 391.40 C 138.76 392.16 136.55 393.19 134.92 393.99 C 133.28 394.78 131.12 395.86 129.52 396.69 C 127.91 397.51 125.80 398.64 124.23 399.50 C 122.66 400.36 120.58 401.52 119.05 402.42 C 117.53 403.33 115.51 404.55 114.05 405.52 C 112.58 406.48 110.69 407.83 109.29 408.87 C 107.90 409.90 106.10 411.34 104.74 412.41 C 103.38 413.48 101.52 414.86 100.24 416.01 C 98.95 417.16 97.40 418.84 96.19 420.06 C 96.59 422.08 97.13 424.78 97.54 426.81 C 99.83 426.67 102.89 426.49 105.19 426.36 C 107.21 425.95 109.91 425.41 111.94 425.01 C 113.97 424.61 116.64 424.04 118.72 423.69 C 120.80 423.34 123.64 422.94 125.80 422.68 C 127.96 422.41 130.89 422.09 133.12 421.89 C 135.34 421.68 138.33 421.42 140.62 421.30 C 142.92 421.17 146.06 421.07 148.39 421.07 C 150.72 421.07 153.86 421.17 156.15 421.30 C 158.44 421.42 161.44 421.68 163.66 421.89 C 165.88 422.09 168.81 422.41 170.97 422.68 C 173.14 422.94 176.00 423.32 178.09 423.66 C 180.18 424.00 182.90 424.52 184.92 424.93 C 186.94 425.33 189.60 425.91 191.56 426.39 C 193.52 426.86 196.11 427.51 197.97 428.07 C 199.84 428.64 202.23 429.49 203.99 430.16 C 205.75 430.83 208.00 431.81 209.70 432.55 C 211.40 433.28 213.63 434.29 215.30 435.05 C 216.96 435.81 219.17 436.84 220.81 437.64 C 222.45 438.43 224.61 439.51 226.21 440.34 C 227.81 441.17 229.91 442.31 231.47 443.18 C 233.03 444.05 235.05 445.26 236.62 446.13 C 238.18 447.00 240.26 448.16 241.88 448.97 C 243.49 449.79 245.68 451.51 247.39 451.56 C 249.09 451.61 251.48 449.98 253.24 449.31 C 254.18 450.52 255.44 452.14 256.39 453.36 C 257.06 455.11 257.79 457.62 258.64 459.21 C 259.48 460.80 260.93 462.58 262.01 463.93 C 263.09 465.28 264.66 466.96 265.84 468.21 C 267.02 469.46 268.67 471.04 269.89 472.26 C 271.91 472.39 274.61 472.57 276.64 472.71 C 277.58 471.22 278.84 469.24 279.79 467.76 C 280.46 466.00 281.40 463.71 282.04 461.91 C 282.67 460.11 283.39 457.60 284.01 455.78 C 284.62 453.96 285.47 451.57 286.12 449.79 C 286.77 448.01 287.67 445.67 288.34 443.91 C 289.01 442.15 289.91 439.81 290.59 438.06 C 291.80 438.46 293.42 439.00 294.64 439.41 C 295.31 441.16 296.15 443.57 296.89 445.26 C 297.63 446.95 298.77 449.05 299.56 450.69 C 300.35 452.33 301.38 454.54 302.15 456.20 C 302.91 457.86 303.91 460.10 304.68 461.77 C 305.44 463.44 306.47 465.65 307.24 467.31 C 308.01 468.97 309.03 471.18 309.80 472.85 C 310.56 474.52 311.57 476.75 312.33 478.42 C 313.09 480.09 314.10 482.32 314.86 483.99 C 315.62 485.65 316.59 487.93 317.42 489.53 C 318.25 491.13 319.34 493.28 320.37 494.68 C 321.41 496.07 322.96 497.76 324.31 498.84 C 325.66 499.92 327.74 501.08 329.37 501.88 C 331.01 502.67 333.41 503.50 335.22 504.12 C 337.03 504.75 339.56 505.45 341.44 506.01 C 343.31 506.57 345.84 507.27 347.71 507.84 C 349.57 508.40 352.04 509.17 353.87 509.78 C 355.70 510.38 358.11 511.21 359.89 511.86 C 361.67 512.51 363.98 513.43 365.74 514.11 C 366.82 515.46 368.26 517.26 369.34 518.61 C 368.39 520.09 367.13 522.07 366.19 523.56 C 364.57 524.37 362.43 525.47 360.79 526.26 C 359.15 527.05 356.92 528.06 355.25 528.82 C 353.58 529.58 351.34 530.58 349.65 531.32 C 347.96 532.06 345.71 533.05 344.00 533.77 C 342.28 534.49 339.99 535.43 338.23 536.10 C 336.47 536.77 334.09 537.63 332.27 538.24 C 330.45 538.85 327.97 539.62 326.11 540.18 C 324.24 540.75 321.73 541.47 319.84 542.01 C 317.95 542.55 315.42 543.27 313.51 543.78 C 311.59 544.30 309.04 544.98 307.07 545.44 C 305.10 545.90 302.45 546.50 300.38 546.85 C 298.30 547.20 295.45 547.60 293.26 547.77 C 291.07 547.95 288.01 548.05 285.78 548.00 C 283.55 547.95 280.53 547.72 278.41 547.44 C 276.29 547.15 273.58 546.59 271.66 546.09 C 269.74 545.58 267.36 544.72 265.58 544.06 C 263.81 543.40 261.59 542.39 259.85 541.70 C 258.10 541.01 255.81 540.06 253.97 539.48 C 252.13 538.89 249.53 538.24 247.56 537.79 C 245.58 537.34 242.77 536.91 240.78 536.47 C 238.79 536.03 236.19 535.39 234.31 534.84 C 232.43 534.28 230.10 533.33 228.26 532.78 C 226.43 532.24 223.97 531.46 222.08 531.21 C 220.19 530.96 217.56 530.91 215.66 531.10 C 213.76 531.28 211.26 531.94 209.42 532.45 C 207.58 532.95 205.19 533.84 203.37 534.44 C 201.55 535.04 199.14 535.88 197.27 536.44 C 195.40 537.00 192.87 537.71 190.91 538.18 C 188.95 538.66 186.26 539.21 184.22 539.59 C 182.17 539.97 179.39 540.43 177.27 540.74 C 175.16 541.06 172.31 541.46 170.13 541.70 C 167.94 541.94 164.97 542.22 162.70 542.38 C 160.43 542.53 157.32 542.67 155.00 542.71 C 152.67 542.76 149.52 542.75 147.21 542.68 C 144.89 542.62 141.83 542.44 139.58 542.26 C 137.34 542.09 134.41 541.77 132.24 541.50 C 130.08 541.24 127.24 540.83 125.16 540.49 C 123.07 540.15 120.33 539.65 118.32 539.23 C 116.32 538.80 113.71 538.16 111.80 537.65 C 109.88 537.14 107.40 536.38 105.55 535.79 C 103.71 535.21 101.30 534.37 99.51 533.74 C 97.71 533.11 95.37 532.17 93.57 531.58 C 91.77 530.98 89.36 530.13 87.50 529.77 C 85.64 529.42 83.05 529.15 81.17 529.24 C 79.29 529.33 76.78 529.87 74.98 530.37 C 73.18 530.86 70.92 531.89 69.16 532.53 C 67.40 533.17 65.11 534.14 63.25 534.61 C 61.39 535.09 58.78 535.56 56.76 535.71 C 54.74 535.86 51.84 535.79 49.78 535.60 C 47.72 535.40 44.93 534.92 43.03 534.42 C 41.13 533.91 38.77 533.01 37.12 532.22 C 35.48 531.44 33.49 530.19 32.06 529.18 C 30.64 528.18 28.85 526.73 27.62 525.53 C 26.39 524.33 24.87 522.61 23.85 521.20 C 22.83 519.78 21.63 517.73 20.84 516.11 C 20.05 514.49 19.10 512.19 18.56 510.40 C 18.02 508.60 17.48 506.10 17.24 504.12 C 17.00 502.15 17.01 499.34 16.96 497.21 C 16.91 495.08 17.07 492.05 16.93 489.92 C 16.80 487.80 16.50 484.96 16.06 483.03 C 15.62 481.10 14.71 478.76 13.98 477.07 C 13.25 475.38 12.02 473.36 11.19 471.75 C 10.37 470.15 9.23 468.05 8.47 466.38 C 7.70 464.71 6.77 462.40 6.10 460.64 C 5.43 458.88 4.58 456.50 3.99 454.65 C 3.41 452.81 2.66 450.31 2.19 448.35 C 1.73 446.40 1.21 443.67 0.90 441.60 C 0.59 439.54 0.28 436.70 0.14 434.60 C 0.01 432.50 -0.07 429.69 0.00 427.60 C 0.07 425.51 0.33 422.72 0.62 420.68 C 0.91 418.64 1.46 415.94 1.94 414.01 C 2.42 412.08 3.20 409.60 3.83 407.80 C 4.45 405.99 5.39 403.69 6.10 401.98 C 6.82 400.26 7.82 398.02 8.61 396.38 C 9.40 394.74 10.49 392.59 11.36 391.03 C 12.24 389.48 13.49 387.49 14.46 386.03 C 15.43 384.57 16.78 382.68 17.83 381.30 C 18.89 379.93 20.34 378.15 21.49 376.86 C 22.63 375.57 24.24 373.94 25.45 372.73 C 26.67 371.51 28.33 369.93 29.59 368.76 C 30.84 367.59 32.52 366.02 33.83 364.91 C 35.15 363.79 36.94 362.34 38.33 361.31 C 39.73 360.27 41.66 358.96 43.12 357.99 C 44.57 357.01 46.55 355.75 48.04 354.81 C 49.52 353.86 51.50 352.60 53.02 351.69 C 54.53 350.77 56.56 349.56 58.13 348.71 C 59.71 347.85 61.87 346.77 63.53 346.01 C 65.20 345.24 67.48 344.28 69.22 343.59 C 70.95 342.89 73.30 342.00 75.09 341.37 C 76.89 340.73 79.33 339.93 81.20 339.37 C 83.06 338.80 85.61 338.11 87.53 337.60 C 89.44 337.08 92.01 336.41 93.97 335.94 C 95.92 335.47 98.55 334.85 100.58 334.45 C 102.60 334.05 105.38 333.58 107.49 333.27 C 109.61 332.95 112.48 332.59 114.67 332.34 C 116.85 332.09 119.78 331.78 122.03 331.61 C 124.29 331.43 127.37 331.24 129.68 331.16 C 132.00 331.07 135.19 331.02 137.47 331.02 C 139.76 331.02 142.76 331.07 144.93 331.16 C 147.09 331.24 149.82 331.43 151.90 331.61 Z"/><path d="M 650.50 143.06 C 652.00 144.26 654.00 145.86 655.50 147.06 C 656.70 148.56 658.30 150.56 659.50 152.06 C 660.70 153.57 662.29 155.57 663.47 157.09 C 664.65 158.62 666.19 160.67 667.34 162.22 C 668.50 163.77 670.00 165.86 671.16 167.41 C 672.31 168.95 673.86 171.00 675.03 172.53 C 676.20 174.06 677.78 176.08 678.97 177.59 C 680.15 179.11 681.69 181.17 682.94 182.62 C 684.18 184.08 685.82 186.04 687.28 187.28 C 688.74 188.52 690.83 190.03 692.66 190.91 C 694.48 191.78 697.25 192.62 699.47 193.09 C 701.69 193.57 704.99 193.87 707.47 194.09 C 709.94 194.32 713.41 194.45 715.97 194.59 C 718.52 194.74 722.02 194.84 724.50 195.06 C 726.98 195.28 730.10 195.76 732.50 196.06 C 734.15 197.11 736.35 198.51 738.00 199.56 C 737.40 201.36 736.60 203.76 736.00 205.56 C 734.50 206.76 732.52 208.39 731.00 209.56 C 729.48 210.74 727.40 212.26 725.84 213.41 C 724.29 214.55 722.20 216.06 720.62 217.19 C 719.05 218.31 716.94 219.80 715.34 220.91 C 713.75 222.01 711.63 223.49 710.00 224.56 C 708.37 225.64 706.15 227.01 704.50 228.06 C 703.60 229.86 702.40 232.26 701.50 234.06 C 701.80 236.46 702.09 239.81 702.50 242.06 C 702.91 244.31 703.95 246.91 704.25 249.06 C 704.55 251.21 704.68 254.25 704.47 256.41 C 704.26 258.56 703.50 261.42 702.84 263.41 C 702.18 265.39 700.96 267.82 700.06 269.62 C 699.16 271.43 697.83 273.69 696.84 275.41 C 695.86 277.12 694.50 279.36 693.50 281.06 C 692.50 282.76 691.16 285.02 690.19 286.75 C 689.22 288.48 687.95 290.82 687.03 292.59 C 686.11 294.37 684.91 296.77 684.03 298.59 C 683.15 300.42 682.01 302.87 681.19 304.75 C 680.37 306.63 679.30 309.16 678.56 311.12 C 677.83 313.09 676.88 315.74 676.28 317.84 C 675.69 319.95 675.00 322.86 674.59 325.16 C 674.19 327.45 673.83 330.69 673.59 333.16 C 673.36 335.62 673.17 339.03 673.03 341.59 C 672.90 344.16 672.76 347.62 672.69 350.25 C 672.61 352.88 672.56 356.42 672.53 359.09 C 672.50 361.77 672.50 365.37 672.50 368.06 C 672.50 370.76 672.50 374.36 672.50 377.06 C 672.50 379.76 672.50 383.37 672.50 386.06 C 672.50 388.76 672.51 392.35 672.53 395.03 C 672.55 397.71 672.61 401.25 672.66 403.91 C 672.70 406.56 672.80 410.07 672.84 412.72 C 672.89 415.37 672.95 418.92 672.97 421.59 C 672.99 424.27 673.00 427.87 673.00 430.56 C 673.00 433.26 673.00 436.86 673.00 439.56 C 673.00 442.26 673.00 445.86 673.00 448.56 C 673.00 451.26 672.85 455.01 673.00 457.56 C 673.15 460.11 673.70 463.16 674.00 465.56 C 676.10 466.16 678.98 466.89 681.00 467.56 C 683.02 468.24 685.55 469.31 687.50 470.06 C 688.55 471.71 689.95 473.91 691.00 475.56 C 690.10 477.36 688.90 479.76 688.00 481.56 C 686.20 482.46 684.08 483.94 682.00 484.56 C 679.92 485.19 676.53 485.40 674.16 485.72 C 671.78 486.04 668.55 486.41 666.16 486.72 C 663.76 487.02 660.56 487.42 658.19 487.75 C 655.82 488.08 652.71 488.57 650.34 488.91 C 647.98 489.24 644.84 489.70 642.44 490.00 C 640.03 490.30 636.79 490.65 634.31 490.88 C 631.84 491.10 628.49 491.35 625.94 491.50 C 623.39 491.65 619.93 491.80 617.31 491.88 C 614.70 491.95 611.15 492.00 608.50 492.00 C 605.85 492.00 602.30 491.95 599.66 491.91 C 597.01 491.86 593.50 491.76 590.88 491.69 C 588.25 491.62 584.75 491.51 582.12 491.44 C 579.50 491.36 576.00 491.27 573.38 491.19 C 570.75 491.11 567.26 491.00 564.66 490.91 C 562.05 490.81 558.60 490.66 556.03 490.53 C 553.46 490.40 550.03 490.24 547.50 490.06 C 544.97 489.89 541.57 489.69 539.19 489.38 C 536.80 489.06 533.70 488.56 531.59 487.97 C 529.48 487.38 526.92 486.34 525.12 485.44 C 523.33 484.54 521.21 483.06 519.59 481.97 C 517.98 480.88 515.98 479.28 514.38 478.19 C 512.77 477.09 510.58 475.68 508.91 474.66 C 507.23 473.63 504.89 472.38 503.22 471.34 C 501.55 470.31 499.34 468.92 497.78 467.78 C 496.22 466.64 494.30 464.96 492.81 463.75 C 491.33 462.54 489.47 460.79 487.88 459.69 C 486.28 458.59 484.03 457.23 482.16 456.41 C 480.28 455.58 477.49 454.77 475.38 454.19 C 473.26 453.60 470.23 453.03 468.06 452.50 C 465.90 451.97 462.99 451.28 460.94 450.62 C 458.89 449.97 456.29 448.98 454.41 448.16 C 452.53 447.34 450.17 446.09 448.41 445.16 C 446.64 444.22 444.36 442.90 442.66 441.91 C 440.95 440.91 438.70 439.56 437.03 438.53 C 435.36 437.50 433.15 436.11 431.50 435.06 C 429.85 434.01 427.66 432.60 426.03 431.53 C 424.40 430.46 422.25 429.01 420.66 427.91 C 419.06 426.80 416.95 425.31 415.38 424.19 C 413.80 423.07 411.70 421.56 410.12 420.44 C 408.55 419.31 406.45 417.81 404.88 416.69 C 403.30 415.56 401.20 414.06 399.62 412.94 C 398.05 411.81 395.95 410.32 394.38 409.19 C 392.80 408.06 390.71 406.55 389.16 405.41 C 387.60 404.26 385.55 402.71 384.03 401.53 C 382.51 400.35 380.50 398.76 379.00 397.56 C 377.50 396.37 375.50 394.76 374.00 393.56 C 372.50 392.36 370.50 390.76 369.00 389.56 C 367.50 388.36 365.50 386.76 364.00 385.56 C 362.50 384.36 360.50 382.77 359.00 381.56 C 357.50 380.36 355.51 378.75 354.03 377.53 C 352.55 376.31 350.60 374.66 349.16 373.41 C 347.71 372.15 345.80 370.46 344.38 369.19 C 342.95 367.91 341.06 366.20 339.66 364.91 C 338.25 363.61 336.39 361.87 335.00 360.56 C 333.61 359.25 331.75 357.51 330.38 356.19 C 329.00 354.87 327.16 353.10 325.81 351.75 C 324.47 350.40 322.72 348.54 321.41 347.16 C 320.09 345.77 318.40 343.86 317.03 342.53 C 315.66 341.20 313.80 339.46 312.28 338.28 C 310.76 337.10 308.57 335.70 306.88 334.69 C 305.18 333.68 302.78 332.48 301.00 331.56 C 299.22 330.64 296.80 329.46 295.00 328.56 C 294.10 326.76 292.90 324.36 292.00 322.56 C 292.15 320.31 292.35 317.31 292.50 315.06 C 293.40 313.26 294.60 310.86 295.50 309.06 C 297.00 307.86 299.00 306.26 300.50 305.06 C 302.60 304.76 305.47 303.85 307.50 304.06 C 309.53 304.28 312.04 305.82 314.06 306.50 C 316.08 307.18 318.79 308.07 320.97 308.59 C 323.15 309.11 326.21 309.65 328.59 309.97 C 330.98 310.28 334.37 310.49 336.88 310.69 C 339.38 310.88 342.80 311.07 345.28 311.28 C 347.77 311.50 351.03 311.83 353.44 312.12 C 355.84 312.42 358.98 312.88 361.31 313.25 C 363.64 313.62 366.70 314.17 368.97 314.59 C 371.24 315.02 374.24 315.62 376.47 316.09 C 378.70 316.56 381.65 317.22 383.84 317.72 C 386.04 318.22 388.95 318.91 391.12 319.44 C 393.30 319.96 396.19 320.67 398.34 321.22 C 400.50 321.77 403.35 322.51 405.47 323.09 C 407.59 323.68 410.39 324.47 412.47 325.09 C 414.55 325.72 417.29 326.57 419.31 327.25 C 421.34 327.93 423.99 328.87 425.97 329.59 C 427.95 330.32 430.55 331.32 432.50 332.06 C 434.45 332.81 437.05 333.81 439.00 334.56 C 440.95 335.31 443.55 336.31 445.50 337.06 C 447.45 337.82 450.05 338.82 451.97 339.59 C 453.89 340.37 456.44 341.43 458.31 342.25 C 460.19 343.07 462.64 344.22 464.47 345.09 C 466.30 345.97 468.70 347.17 470.50 348.06 C 472.30 348.96 474.62 350.24 476.50 351.06 C 478.38 351.89 481.05 352.81 483.00 353.56 C 485.55 353.41 488.95 353.21 491.50 353.06 C 492.85 351.71 494.52 349.79 496.00 348.56 C 497.48 347.34 499.71 345.97 501.34 344.91 C 502.98 343.84 505.21 342.47 506.91 341.47 C 508.60 340.47 510.92 339.18 512.66 338.22 C 514.40 337.26 516.75 336.01 518.50 335.06 C 520.25 334.11 522.59 332.85 524.31 331.88 C 526.03 330.90 528.29 329.55 529.97 328.53 C 531.65 327.51 533.85 326.11 535.50 325.06 C 537.15 324.02 539.35 322.61 541.00 321.56 C 542.65 320.51 544.85 319.11 546.50 318.06 C 548.15 317.01 550.35 315.61 552.00 314.56 C 553.65 313.51 555.85 312.12 557.50 311.06 C 559.15 310.01 561.35 308.61 562.97 307.53 C 564.59 306.45 566.74 305.00 568.31 303.88 C 569.89 302.75 571.94 301.20 573.47 300.03 C 575.00 298.86 576.99 297.25 578.50 296.06 C 580.01 294.87 582.00 293.27 583.53 292.09 C 585.06 290.92 587.11 289.38 588.69 288.25 C 590.26 287.12 592.39 285.65 594.03 284.59 C 595.67 283.53 597.88 282.14 599.62 281.19 C 601.37 280.23 603.80 279.06 605.66 278.22 C 607.51 277.38 610.14 276.41 612.00 275.56 C 613.86 274.72 616.32 273.58 618.03 272.59 C 619.74 271.60 621.86 270.13 623.41 268.97 C 624.95 267.81 626.87 266.14 628.31 264.88 C 629.75 263.61 631.55 261.81 633.00 260.56 C 634.45 259.32 636.50 257.76 638.00 256.56 C 638.75 254.61 639.75 252.01 640.50 250.06 C 639.75 248.11 638.94 245.32 638.00 243.56 C 637.06 241.80 635.27 239.99 634.25 238.31 C 633.23 236.63 632.00 234.26 631.19 232.38 C 630.37 230.49 629.49 227.77 628.81 225.75 C 628.13 223.73 627.32 220.94 626.66 218.91 C 625.99 216.87 625.04 214.23 624.38 212.19 C 623.71 210.15 622.78 207.48 622.25 205.31 C 621.72 203.15 621.15 200.11 620.81 197.75 C 620.48 195.39 620.23 192.04 620.00 189.56 C 619.77 187.09 619.54 183.72 619.31 181.25 C 619.09 178.78 618.70 175.57 618.50 173.06 C 618.30 170.56 618.15 167.11 618.00 164.56 C 619.20 164.86 620.80 165.26 622.00 165.56 C 623.05 167.21 624.45 169.41 625.50 171.06 C 626.55 172.71 627.95 174.91 629.00 176.56 C 630.05 178.21 631.45 180.41 632.50 182.06 C 634.60 182.66 637.40 183.46 639.50 184.06 C 641.15 183.01 643.35 181.61 645.00 180.56 C 645.30 178.16 645.70 174.96 646.00 172.56 C 646.30 170.16 646.70 166.96 647.00 164.56 C 647.30 162.16 647.70 158.96 648.00 156.56 C 648.30 154.16 648.70 150.96 649.00 148.56 C 649.45 146.91 650.05 144.71 650.50 143.06 Z"/></g>
  <g filter="url(#fur)" opacity="1.0"><path d="M 151.90 331.61 C 153.99 331.78 156.73 332.09 158.82 332.34 C 160.92 332.59 163.78 332.95 165.88 333.27 C 167.98 333.58 170.78 334.03 172.83 334.42 C 174.87 334.80 177.54 335.37 179.52 335.82 C 181.50 336.28 184.11 336.91 186.02 337.43 C 187.93 337.95 190.44 338.68 192.26 339.28 C 194.09 339.89 196.41 340.80 198.17 341.48 C 199.92 342.15 202.17 343.15 203.96 343.78 C 205.76 344.42 208.19 345.23 210.12 345.73 C 212.06 346.22 214.79 346.72 216.87 347.07 C 218.95 347.43 221.91 347.71 223.99 348.06 C 226.07 348.41 228.71 349.00 230.74 349.41 C 231.82 350.76 233.26 352.56 234.34 353.91 C 234.61 356.07 234.97 358.95 235.24 361.11 C 234.43 362.73 233.35 364.89 232.54 366.51 C 231.19 367.59 229.39 369.03 228.04 370.11 C 226.01 370.24 223.35 370.63 221.29 370.56 C 219.22 370.49 216.37 369.82 214.26 369.66 C 212.14 369.50 209.28 369.41 207.20 369.52 C 205.11 369.63 202.36 370.03 200.36 370.39 C 198.36 370.75 195.79 371.44 193.87 371.94 C 191.95 372.44 189.44 373.18 187.57 373.74 C 185.69 374.29 183.22 375.06 181.38 375.65 C 179.53 376.24 177.10 377.04 175.28 377.65 C 173.45 378.25 171.03 379.07 169.23 379.70 C 167.43 380.33 165.04 381.18 163.27 381.84 C 161.49 382.50 159.15 383.40 157.42 384.09 C 155.68 384.78 153.39 385.73 151.68 386.45 C 149.97 387.17 147.71 388.15 146.03 388.90 C 144.34 389.64 142.09 390.64 140.43 391.40 C 138.76 392.16 136.55 393.19 134.92 393.99 C 133.28 394.78 131.12 395.86 129.52 396.69 C 127.91 397.51 125.80 398.64 124.23 399.50 C 122.66 400.36 120.58 401.52 119.05 402.42 C 117.53 403.33 115.51 404.55 114.05 405.52 C 112.58 406.48 110.69 407.83 109.29 408.87 C 107.90 409.90 106.10 411.34 104.74 412.41 C 103.38 413.48 101.52 414.86 100.24 416.01 C 98.95 417.16 97.40 418.84 96.19 420.06 C 96.59 422.08 97.13 424.78 97.54 426.81 C 99.83 426.67 102.89 426.49 105.19 426.36 C 107.21 425.95 109.91 425.41 111.94 425.01 C 113.97 424.61 116.64 424.04 118.72 423.69 C 120.80 423.34 123.64 422.94 125.80 422.68 C 127.96 422.41 130.89 422.09 133.12 421.89 C 135.34 421.68 138.33 421.42 140.62 421.30 C 142.92 421.17 146.06 421.07 148.39 421.07 C 150.72 421.07 153.86 421.17 156.15 421.30 C 158.44 421.42 161.44 421.68 163.66 421.89 C 165.88 422.09 168.81 422.41 170.97 422.68 C 173.14 422.94 176.00 423.32 178.09 423.66 C 180.18 424.00 182.90 424.52 184.92 424.93 C 186.94 425.33 189.60 425.91 191.56 426.39 C 193.52 426.86 196.11 427.51 197.97 428.07 C 199.84 428.64 202.23 429.49 203.99 430.16 C 205.75 430.83 208.00 431.81 209.70 432.55 C 211.40 433.28 213.63 434.29 215.30 435.05 C 216.96 435.81 219.17 436.84 220.81 437.64 C 222.45 438.43 224.61 439.51 226.21 440.34 C 227.81 441.17 229.91 442.31 231.47 443.18 C 233.03 444.05 235.05 445.26 236.62 446.13 C 238.18 447.00 240.26 448.16 241.88 448.97 C 243.49 449.79 245.68 451.51 247.39 451.56 C 249.09 451.61 251.48 449.98 253.24 449.31 C 254.18 450.52 255.44 452.14 256.39 453.36 C 257.06 455.11 257.79 457.62 258.64 459.21 C 259.48 460.80 260.93 462.58 262.01 463.93 C 263.09 465.28 264.66 466.96 265.84 468.21 C 267.02 469.46 268.67 471.04 269.89 472.26 C 271.91 472.39 274.61 472.57 276.64 472.71 C 277.58 471.22 278.84 469.24 279.79 467.76 C 280.46 466.00 281.40 463.71 282.04 461.91 C 282.67 460.11 283.39 457.60 284.01 455.78 C 284.62 453.96 285.47 451.57 286.12 449.79 C 286.77 448.01 287.67 445.67 288.34 443.91 C 289.01 442.15 289.91 439.81 290.59 438.06 C 291.80 438.46 293.42 439.00 294.64 439.41 C 295.31 441.16 296.15 443.57 296.89 445.26 C 297.63 446.95 298.77 449.05 299.56 450.69 C 300.35 452.33 301.38 454.54 302.15 456.20 C 302.91 457.86 303.91 460.10 304.68 461.77 C 305.44 463.44 306.47 465.65 307.24 467.31 C 308.01 468.97 309.03 471.18 309.80 472.85 C 310.56 474.52 311.57 476.75 312.33 478.42 C 313.09 480.09 314.10 482.32 314.86 483.99 C 315.62 485.65 316.59 487.93 317.42 489.53 C 318.25 491.13 319.34 493.28 320.37 494.68 C 321.41 496.07 322.96 497.76 324.31 498.84 C 325.66 499.92 327.74 501.08 329.37 501.88 C 331.01 502.67 333.41 503.50 335.22 504.12 C 337.03 504.75 339.56 505.45 341.44 506.01 C 343.31 506.57 345.84 507.27 347.71 507.84 C 349.57 508.40 352.04 509.17 353.87 509.78 C 355.70 510.38 358.11 511.21 359.89 511.86 C 361.67 512.51 363.98 513.43 365.74 514.11 C 366.82 515.46 368.26 517.26 369.34 518.61 C 368.39 520.09 367.13 522.07 366.19 523.56 C 364.57 524.37 362.43 525.47 360.79 526.26 C 359.15 527.05 356.92 528.06 355.25 528.82 C 353.58 529.58 351.34 530.58 349.65 531.32 C 347.96 532.06 345.71 533.05 344.00 533.77 C 342.28 534.49 339.99 535.43 338.23 536.10 C 336.47 536.77 334.09 537.63 332.27 538.24 C 330.45 538.85 327.97 539.62 326.11 540.18 C 324.24 540.75 321.73 541.47 319.84 542.01 C 317.95 542.55 315.42 543.27 313.51 543.78 C 311.59 544.30 309.04 544.98 307.07 545.44 C 305.10 545.90 302.45 546.50 300.38 546.85 C 298.30 547.20 295.45 547.60 293.26 547.77 C 291.07 547.95 288.01 548.05 285.78 548.00 C 283.55 547.95 280.53 547.72 278.41 547.44 C 276.29 547.15 273.58 546.59 271.66 546.09 C 269.74 545.58 267.36 544.72 265.58 544.06 C 263.81 543.40 261.59 542.39 259.85 541.70 C 258.10 541.01 255.81 540.06 253.97 539.48 C 252.13 538.89 249.53 538.24 247.56 537.79 C 245.58 537.34 242.77 536.91 240.78 536.47 C 238.79 536.03 236.19 535.39 234.31 534.84 C 232.43 534.28 230.10 533.33 228.26 532.78 C 226.43 532.24 223.97 531.46 222.08 531.21 C 220.19 530.96 217.56 530.91 215.66 531.10 C 213.76 531.28 211.26 531.94 209.42 532.45 C 207.58 532.95 205.19 533.84 203.37 534.44 C 201.55 535.04 199.14 535.88 197.27 536.44 C 195.40 537.00 192.87 537.71 190.91 538.18 C 188.95 538.66 186.26 539.21 184.22 539.59 C 182.17 539.97 179.39 540.43 177.27 540.74 C 175.16 541.06 172.31 541.46 170.13 541.70 C 167.94 541.94 164.97 542.22 162.70 542.38 C 160.43 542.53 157.32 542.67 155.00 542.71 C 152.67 542.76 149.52 542.75 147.21 542.68 C 144.89 542.62 141.83 542.44 139.58 542.26 C 137.34 542.09 134.41 541.77 132.24 541.50 C 130.08 541.24 127.24 540.83 125.16 540.49 C 123.07 540.15 120.33 539.65 118.32 539.23 C 116.32 538.80 113.71 538.16 111.80 537.65 C 109.88 537.14 107.40 536.38 105.55 535.79 C 103.71 535.21 101.30 534.37 99.51 533.74 C 97.71 533.11 95.37 532.17 93.57 531.58 C 91.77 530.98 89.36 530.13 87.50 529.77 C 85.64 529.42 83.05 529.15 81.17 529.24 C 79.29 529.33 76.78 529.87 74.98 530.37 C 73.18 530.86 70.92 531.89 69.16 532.53 C 67.40 533.17 65.11 534.14 63.25 534.61 C 61.39 535.09 58.78 535.56 56.76 535.71 C 54.74 535.86 51.84 535.79 49.78 535.60 C 47.72 535.40 44.93 534.92 43.03 534.42 C 41.13 533.91 38.77 533.01 37.12 532.22 C 35.48 531.44 33.49 530.19 32.06 529.18 C 30.64 528.18 28.85 526.73 27.62 525.53 C 26.39 524.33 24.87 522.61 23.85 521.20 C 22.83 519.78 21.63 517.73 20.84 516.11 C 20.05 514.49 19.10 512.19 18.56 510.40 C 18.02 508.60 17.48 506.10 17.24 504.12 C 17.00 502.15 17.01 499.34 16.96 497.21 C 16.91 495.08 17.07 492.05 16.93 489.92 C 16.80 487.80 16.50 484.96 16.06 483.03 C 15.62 481.10 14.71 478.76 13.98 477.07 C 13.25 475.38 12.02 473.36 11.19 471.75 C 10.37 470.15 9.23 468.05 8.47 466.38 C 7.70 464.71 6.77 462.40 6.10 460.64 C 5.43 458.88 4.58 456.50 3.99 454.65 C 3.41 452.81 2.66 450.31 2.19 448.35 C 1.73 446.40 1.21 443.67 0.90 441.60 C 0.59 439.54 0.28 436.70 0.14 434.60 C 0.01 432.50 -0.07 429.69 0.00 427.60 C 0.07 425.51 0.33 422.72 0.62 420.68 C 0.91 418.64 1.46 415.94 1.94 414.01 C 2.42 412.08 3.20 409.60 3.83 407.80 C 4.45 405.99 5.39 403.69 6.10 401.98 C 6.82 400.26 7.82 398.02 8.61 396.38 C 9.40 394.74 10.49 392.59 11.36 391.03 C 12.24 389.48 13.49 387.49 14.46 386.03 C 15.43 384.57 16.78 382.68 17.83 381.30 C 18.89 379.93 20.34 378.15 21.49 376.86 C 22.63 375.57 24.24 373.94 25.45 372.73 C 26.67 371.51 28.33 369.93 29.59 368.76 C 30.84 367.59 32.52 366.02 33.83 364.91 C 35.15 363.79 36.94 362.34 38.33 361.31 C 39.73 360.27 41.66 358.96 43.12 357.99 C 44.57 357.01 46.55 355.75 48.04 354.81 C 49.52 353.86 51.50 352.60 53.02 351.69 C 54.53 350.77 56.56 349.56 58.13 348.71 C 59.71 347.85 61.87 346.77 63.53 346.01 C 65.20 345.24 67.48 344.28 69.22 343.59 C 70.95 342.89 73.30 342.00 75.09 341.37 C 76.89 340.73 79.33 339.93 81.20 339.37 C 83.06 338.80 85.61 338.11 87.53 337.60 C 89.44 337.08 92.01 336.41 93.97 335.94 C 95.92 335.47 98.55 334.85 100.58 334.45 C 102.60 334.05 105.38 333.58 107.49 333.27 C 109.61 332.95 112.48 332.59 114.67 332.34 C 116.85 332.09 119.78 331.78 122.03 331.61 C 124.29 331.43 127.37 331.24 129.68 331.16 C 132.00 331.07 135.19 331.02 137.47 331.02 C 139.76 331.02 142.76 331.07 144.93 331.16 C 147.09 331.24 149.82 331.43 151.90 331.61 Z"/><path d="M 650.50 143.06 C 652.00 144.26 654.00 145.86 655.50 147.06 C 656.70 148.56 658.30 150.56 659.50 152.06 C 660.70 153.57 662.29 155.57 663.47 157.09 C 664.65 158.62 666.19 160.67 667.34 162.22 C 668.50 163.77 670.00 165.86 671.16 167.41 C 672.31 168.95 673.86 171.00 675.03 172.53 C 676.20 174.06 677.78 176.08 678.97 177.59 C 680.15 179.11 681.69 181.17 682.94 182.62 C 684.18 184.08 685.82 186.04 687.28 187.28 C 688.74 188.52 690.83 190.03 692.66 190.91 C 694.48 191.78 697.25 192.62 699.47 193.09 C 701.69 193.57 704.99 193.87 707.47 194.09 C 709.94 194.32 713.41 194.45 715.97 194.59 C 718.52 194.74 722.02 194.84 724.50 195.06 C 726.98 195.28 730.10 195.76 732.50 196.06 C 734.15 197.11 736.35 198.51 738.00 199.56 C 737.40 201.36 736.60 203.76 736.00 205.56 C 734.50 206.76 732.52 208.39 731.00 209.56 C 729.48 210.74 727.40 212.26 725.84 213.41 C 724.29 214.55 722.20 216.06 720.62 217.19 C 719.05 218.31 716.94 219.80 715.34 220.91 C 713.75 222.01 711.63 223.49 710.00 224.56 C 708.37 225.64 706.15 227.01 704.50 228.06 C 703.60 229.86 702.40 232.26 701.50 234.06 C 701.80 236.46 702.09 239.81 702.50 242.06 C 702.91 244.31 703.95 246.91 704.25 249.06 C 704.55 251.21 704.68 254.25 704.47 256.41 C 704.26 258.56 703.50 261.42 702.84 263.41 C 702.18 265.39 700.96 267.82 700.06 269.62 C 699.16 271.43 697.83 273.69 696.84 275.41 C 695.86 277.12 694.50 279.36 693.50 281.06 C 692.50 282.76 691.16 285.02 690.19 286.75 C 689.22 288.48 687.95 290.82 687.03 292.59 C 686.11 294.37 684.91 296.77 684.03 298.59 C 683.15 300.42 682.01 302.87 681.19 304.75 C 680.37 306.63 679.30 309.16 678.56 311.12 C 677.83 313.09 676.88 315.74 676.28 317.84 C 675.69 319.95 675.00 322.86 674.59 325.16 C 674.19 327.45 673.83 330.69 673.59 333.16 C 673.36 335.62 673.17 339.03 673.03 341.59 C 672.90 344.16 672.76 347.62 672.69 350.25 C 672.61 352.88 672.56 356.42 672.53 359.09 C 672.50 361.77 672.50 365.37 672.50 368.06 C 672.50 370.76 672.50 374.36 672.50 377.06 C 672.50 379.76 672.50 383.37 672.50 386.06 C 672.50 388.76 672.51 392.35 672.53 395.03 C 672.55 397.71 672.61 401.25 672.66 403.91 C 672.70 406.56 672.80 410.07 672.84 412.72 C 672.89 415.37 672.95 418.92 672.97 421.59 C 672.99 424.27 673.00 427.87 673.00 430.56 C 673.00 433.26 673.00 436.86 673.00 439.56 C 673.00 442.26 673.00 445.86 673.00 448.56 C 673.00 451.26 672.85 455.01 673.00 457.56 C 673.15 460.11 673.70 463.16 674.00 465.56 C 676.10 466.16 678.98 466.89 681.00 467.56 C 683.02 468.24 685.55 469.31 687.50 470.06 C 688.55 471.71 689.95 473.91 691.00 475.56 C 690.10 477.36 688.90 479.76 688.00 481.56 C 686.20 482.46 684.08 483.94 682.00 484.56 C 679.92 485.19 676.53 485.40 674.16 485.72 C 671.78 486.04 668.55 486.41 666.16 486.72 C 663.76 487.02 660.56 487.42 658.19 487.75 C 655.82 488.08 652.71 488.57 650.34 488.91 C 647.98 489.24 644.84 489.70 642.44 490.00 C 640.03 490.30 636.79 490.65 634.31 490.88 C 631.84 491.10 628.49 491.35 625.94 491.50 C 623.39 491.65 619.93 491.80 617.31 491.88 C 614.70 491.95 611.15 492.00 608.50 492.00 C 605.85 492.00 602.30 491.95 599.66 491.91 C 597.01 491.86 593.50 491.76 590.88 491.69 C 588.25 491.62 584.75 491.51 582.12 491.44 C 579.50 491.36 576.00 491.27 573.38 491.19 C 570.75 491.11 567.26 491.00 564.66 490.91 C 562.05 490.81 558.60 490.66 556.03 490.53 C 553.46 490.40 550.03 490.24 547.50 490.06 C 544.97 489.89 541.57 489.69 539.19 489.38 C 536.80 489.06 533.70 488.56 531.59 487.97 C 529.48 487.38 526.92 486.34 525.12 485.44 C 523.33 484.54 521.21 483.06 519.59 481.97 C 517.98 480.88 515.98 479.28 514.38 478.19 C 512.77 477.09 510.58 475.68 508.91 474.66 C 507.23 473.63 504.89 472.38 503.22 471.34 C 501.55 470.31 499.34 468.92 497.78 467.78 C 496.22 466.64 494.30 464.96 492.81 463.75 C 491.33 462.54 489.47 460.79 487.88 459.69 C 486.28 458.59 484.03 457.23 482.16 456.41 C 480.28 455.58 477.49 454.77 475.38 454.19 C 473.26 453.60 470.23 453.03 468.06 452.50 C 465.90 451.97 462.99 451.28 460.94 450.62 C 458.89 449.97 456.29 448.98 454.41 448.16 C 452.53 447.34 450.17 446.09 448.41 445.16 C 446.64 444.22 444.36 442.90 442.66 441.91 C 440.95 440.91 438.70 439.56 437.03 438.53 C 435.36 437.50 433.15 436.11 431.50 435.06 C 429.85 434.01 427.66 432.60 426.03 431.53 C 424.40 430.46 422.25 429.01 420.66 427.91 C 419.06 426.80 416.95 425.31 415.38 424.19 C 413.80 423.07 411.70 421.56 410.12 420.44 C 408.55 419.31 406.45 417.81 404.88 416.69 C 403.30 415.56 401.20 414.06 399.62 412.94 C 398.05 411.81 395.95 410.32 394.38 409.19 C 392.80 408.06 390.71 406.55 389.16 405.41 C 387.60 404.26 385.55 402.71 384.03 401.53 C 382.51 400.35 380.50 398.76 379.00 397.56 C 377.50 396.37 375.50 394.76 374.00 393.56 C 372.50 392.36 370.50 390.76 369.00 389.56 C 367.50 388.36 365.50 386.76 364.00 385.56 C 362.50 384.36 360.50 382.77 359.00 381.56 C 357.50 380.36 355.51 378.75 354.03 377.53 C 352.55 376.31 350.60 374.66 349.16 373.41 C 347.71 372.15 345.80 370.46 344.38 369.19 C 342.95 367.91 341.06 366.20 339.66 364.91 C 338.25 363.61 336.39 361.87 335.00 360.56 C 333.61 359.25 331.75 357.51 330.38 356.19 C 329.00 354.87 327.16 353.10 325.81 351.75 C 324.47 350.40 322.72 348.54 321.41 347.16 C 320.09 345.77 318.40 343.86 317.03 342.53 C 315.66 341.20 313.80 339.46 312.28 338.28 C 310.76 337.10 308.57 335.70 306.88 334.69 C 305.18 333.68 302.78 332.48 301.00 331.56 C 299.22 330.64 296.80 329.46 295.00 328.56 C 294.10 326.76 292.90 324.36 292.00 322.56 C 292.15 320.31 292.35 317.31 292.50 315.06 C 293.40 313.26 294.60 310.86 295.50 309.06 C 297.00 307.86 299.00 306.26 300.50 305.06 C 302.60 304.76 305.47 303.85 307.50 304.06 C 309.53 304.28 312.04 305.82 314.06 306.50 C 316.08 307.18 318.79 308.07 320.97 308.59 C 323.15 309.11 326.21 309.65 328.59 309.97 C 330.98 310.28 334.37 310.49 336.88 310.69 C 339.38 310.88 342.80 311.07 345.28 311.28 C 347.77 311.50 351.03 311.83 353.44 312.12 C 355.84 312.42 358.98 312.88 361.31 313.25 C 363.64 313.62 366.70 314.17 368.97 314.59 C 371.24 315.02 374.24 315.62 376.47 316.09 C 378.70 316.56 381.65 317.22 383.84 317.72 C 386.04 318.22 388.95 318.91 391.12 319.44 C 393.30 319.96 396.19 320.67 398.34 321.22 C 400.50 321.77 403.35 322.51 405.47 323.09 C 407.59 323.68 410.39 324.47 412.47 325.09 C 414.55 325.72 417.29 326.57 419.31 327.25 C 421.34 327.93 423.99 328.87 425.97 329.59 C 427.95 330.32 430.55 331.32 432.50 332.06 C 434.45 332.81 437.05 333.81 439.00 334.56 C 440.95 335.31 443.55 336.31 445.50 337.06 C 447.45 337.82 450.05 338.82 451.97 339.59 C 453.89 340.37 456.44 341.43 458.31 342.25 C 460.19 343.07 462.64 344.22 464.47 345.09 C 466.30 345.97 468.70 347.17 470.50 348.06 C 472.30 348.96 474.62 350.24 476.50 351.06 C 478.38 351.89 481.05 352.81 483.00 353.56 C 485.55 353.41 488.95 353.21 491.50 353.06 C 492.85 351.71 494.52 349.79 496.00 348.56 C 497.48 347.34 499.71 345.97 501.34 344.91 C 502.98 343.84 505.21 342.47 506.91 341.47 C 508.60 340.47 510.92 339.18 512.66 338.22 C 514.40 337.26 516.75 336.01 518.50 335.06 C 520.25 334.11 522.59 332.85 524.31 331.88 C 526.03 330.90 528.29 329.55 529.97 328.53 C 531.65 327.51 533.85 326.11 535.50 325.06 C 537.15 324.02 539.35 322.61 541.00 321.56 C 542.65 320.51 544.85 319.11 546.50 318.06 C 548.15 317.01 550.35 315.61 552.00 314.56 C 553.65 313.51 555.85 312.12 557.50 311.06 C 559.15 310.01 561.35 308.61 562.97 307.53 C 564.59 306.45 566.74 305.00 568.31 303.88 C 569.89 302.75 571.94 301.20 573.47 300.03 C 575.00 298.86 576.99 297.25 578.50 296.06 C 580.01 294.87 582.00 293.27 583.53 292.09 C 585.06 290.92 587.11 289.38 588.69 288.25 C 590.26 287.12 592.39 285.65 594.03 284.59 C 595.67 283.53 597.88 282.14 599.62 281.19 C 601.37 280.23 603.80 279.06 605.66 278.22 C 607.51 277.38 610.14 276.41 612.00 275.56 C 613.86 274.72 616.32 273.58 618.03 272.59 C 619.74 271.60 621.86 270.13 623.41 268.97 C 624.95 267.81 626.87 266.14 628.31 264.88 C 629.75 263.61 631.55 261.81 633.00 260.56 C 634.45 259.32 636.50 257.76 638.00 256.56 C 638.75 254.61 639.75 252.01 640.50 250.06 C 639.75 248.11 638.94 245.32 638.00 243.56 C 637.06 241.80 635.27 239.99 634.25 238.31 C 633.23 236.63 632.00 234.26 631.19 232.38 C 630.37 230.49 629.49 227.77 628.81 225.75 C 628.13 223.73 627.32 220.94 626.66 218.91 C 625.99 216.87 625.04 214.23 624.38 212.19 C 623.71 210.15 622.78 207.48 622.25 205.31 C 621.72 203.15 621.15 200.11 620.81 197.75 C 620.48 195.39 620.23 192.04 620.00 189.56 C 619.77 187.09 619.54 183.72 619.31 181.25 C 619.09 178.78 618.70 175.57 618.50 173.06 C 618.30 170.56 618.15 167.11 618.00 164.56 C 619.20 164.86 620.80 165.26 622.00 165.56 C 623.05 167.21 624.45 169.41 625.50 171.06 C 626.55 172.71 627.95 174.91 629.00 176.56 C 630.05 178.21 631.45 180.41 632.50 182.06 C 634.60 182.66 637.40 183.46 639.50 184.06 C 641.15 183.01 643.35 181.61 645.00 180.56 C 645.30 178.16 645.70 174.96 646.00 172.56 C 646.30 170.16 646.70 166.96 647.00 164.56 C 647.30 162.16 647.70 158.96 648.00 156.56 C 648.30 154.16 648.70 150.96 649.00 148.56 C 649.45 146.91 650.05 144.71 650.50 143.06 Z"/></g>
</g>
<g mask="url(#rimLM)" fill="#F3EDDE">
  <g filter="url(#rimB)"><path d="M 151.90 331.61 C 153.99 331.78 156.73 332.09 158.82 332.34 C 160.92 332.59 163.78 332.95 165.88 333.27 C 167.98 333.58 170.78 334.03 172.83 334.42 C 174.87 334.80 177.54 335.37 179.52 335.82 C 181.50 336.28 184.11 336.91 186.02 337.43 C 187.93 337.95 190.44 338.68 192.26 339.28 C 194.09 339.89 196.41 340.80 198.17 341.48 C 199.92 342.15 202.17 343.15 203.96 343.78 C 205.76 344.42 208.19 345.23 210.12 345.73 C 212.06 346.22 214.79 346.72 216.87 347.07 C 218.95 347.43 221.91 347.71 223.99 348.06 C 226.07 348.41 228.71 349.00 230.74 349.41 C 231.82 350.76 233.26 352.56 234.34 353.91 C 234.61 356.07 234.97 358.95 235.24 361.11 C 234.43 362.73 233.35 364.89 232.54 366.51 C 231.19 367.59 229.39 369.03 228.04 370.11 C 226.01 370.24 223.35 370.63 221.29 370.56 C 219.22 370.49 216.37 369.82 214.26 369.66 C 212.14 369.50 209.28 369.41 207.20 369.52 C 205.11 369.63 202.36 370.03 200.36 370.39 C 198.36 370.75 195.79 371.44 193.87 371.94 C 191.95 372.44 189.44 373.18 187.57 373.74 C 185.69 374.29 183.22 375.06 181.38 375.65 C 179.53 376.24 177.10 377.04 175.28 377.65 C 173.45 378.25 171.03 379.07 169.23 379.70 C 167.43 380.33 165.04 381.18 163.27 381.84 C 161.49 382.50 159.15 383.40 157.42 384.09 C 155.68 384.78 153.39 385.73 151.68 386.45 C 149.97 387.17 147.71 388.15 146.03 388.90 C 144.34 389.64 142.09 390.64 140.43 391.40 C 138.76 392.16 136.55 393.19 134.92 393.99 C 133.28 394.78 131.12 395.86 129.52 396.69 C 127.91 397.51 125.80 398.64 124.23 399.50 C 122.66 400.36 120.58 401.52 119.05 402.42 C 117.53 403.33 115.51 404.55 114.05 405.52 C 112.58 406.48 110.69 407.83 109.29 408.87 C 107.90 409.90 106.10 411.34 104.74 412.41 C 103.38 413.48 101.52 414.86 100.24 416.01 C 98.95 417.16 97.40 418.84 96.19 420.06 C 96.59 422.08 97.13 424.78 97.54 426.81 C 99.83 426.67 102.89 426.49 105.19 426.36 C 107.21 425.95 109.91 425.41 111.94 425.01 C 113.97 424.61 116.64 424.04 118.72 423.69 C 120.80 423.34 123.64 422.94 125.80 422.68 C 127.96 422.41 130.89 422.09 133.12 421.89 C 135.34 421.68 138.33 421.42 140.62 421.30 C 142.92 421.17 146.06 421.07 148.39 421.07 C 150.72 421.07 153.86 421.17 156.15 421.30 C 158.44 421.42 161.44 421.68 163.66 421.89 C 165.88 422.09 168.81 422.41 170.97 422.68 C 173.14 422.94 176.00 423.32 178.09 423.66 C 180.18 424.00 182.90 424.52 184.92 424.93 C 186.94 425.33 189.60 425.91 191.56 426.39 C 193.52 426.86 196.11 427.51 197.97 428.07 C 199.84 428.64 202.23 429.49 203.99 430.16 C 205.75 430.83 208.00 431.81 209.70 432.55 C 211.40 433.28 213.63 434.29 215.30 435.05 C 216.96 435.81 219.17 436.84 220.81 437.64 C 222.45 438.43 224.61 439.51 226.21 440.34 C 227.81 441.17 229.91 442.31 231.47 443.18 C 233.03 444.05 235.05 445.26 236.62 446.13 C 238.18 447.00 240.26 448.16 241.88 448.97 C 243.49 449.79 245.68 451.51 247.39 451.56 C 249.09 451.61 251.48 449.98 253.24 449.31 C 254.18 450.52 255.44 452.14 256.39 453.36 C 257.06 455.11 257.79 457.62 258.64 459.21 C 259.48 460.80 260.93 462.58 262.01 463.93 C 263.09 465.28 264.66 466.96 265.84 468.21 C 267.02 469.46 268.67 471.04 269.89 472.26 C 271.91 472.39 274.61 472.57 276.64 472.71 C 277.58 471.22 278.84 469.24 279.79 467.76 C 280.46 466.00 281.40 463.71 282.04 461.91 C 282.67 460.11 283.39 457.60 284.01 455.78 C 284.62 453.96 285.47 451.57 286.12 449.79 C 286.77 448.01 287.67 445.67 288.34 443.91 C 289.01 442.15 289.91 439.81 290.59 438.06 C 291.80 438.46 293.42 439.00 294.64 439.41 C 295.31 441.16 296.15 443.57 296.89 445.26 C 297.63 446.95 298.77 449.05 299.56 450.69 C 300.35 452.33 301.38 454.54 302.15 456.20 C 302.91 457.86 303.91 460.10 304.68 461.77 C 305.44 463.44 306.47 465.65 307.24 467.31 C 308.01 468.97 309.03 471.18 309.80 472.85 C 310.56 474.52 311.57 476.75 312.33 478.42 C 313.09 480.09 314.10 482.32 314.86 483.99 C 315.62 485.65 316.59 487.93 317.42 489.53 C 318.25 491.13 319.34 493.28 320.37 494.68 C 321.41 496.07 322.96 497.76 324.31 498.84 C 325.66 499.92 327.74 501.08 329.37 501.88 C 331.01 502.67 333.41 503.50 335.22 504.12 C 337.03 504.75 339.56 505.45 341.44 506.01 C 343.31 506.57 345.84 507.27 347.71 507.84 C 349.57 508.40 352.04 509.17 353.87 509.78 C 355.70 510.38 358.11 511.21 359.89 511.86 C 361.67 512.51 363.98 513.43 365.74 514.11 C 366.82 515.46 368.26 517.26 369.34 518.61 C 368.39 520.09 367.13 522.07 366.19 523.56 C 364.57 524.37 362.43 525.47 360.79 526.26 C 359.15 527.05 356.92 528.06 355.25 528.82 C 353.58 529.58 351.34 530.58 349.65 531.32 C 347.96 532.06 345.71 533.05 344.00 533.77 C 342.28 534.49 339.99 535.43 338.23 536.10 C 336.47 536.77 334.09 537.63 332.27 538.24 C 330.45 538.85 327.97 539.62 326.11 540.18 C 324.24 540.75 321.73 541.47 319.84 542.01 C 317.95 542.55 315.42 543.27 313.51 543.78 C 311.59 544.30 309.04 544.98 307.07 545.44 C 305.10 545.90 302.45 546.50 300.38 546.85 C 298.30 547.20 295.45 547.60 293.26 547.77 C 291.07 547.95 288.01 548.05 285.78 548.00 C 283.55 547.95 280.53 547.72 278.41 547.44 C 276.29 547.15 273.58 546.59 271.66 546.09 C 269.74 545.58 267.36 544.72 265.58 544.06 C 263.81 543.40 261.59 542.39 259.85 541.70 C 258.10 541.01 255.81 540.06 253.97 539.48 C 252.13 538.89 249.53 538.24 247.56 537.79 C 245.58 537.34 242.77 536.91 240.78 536.47 C 238.79 536.03 236.19 535.39 234.31 534.84 C 232.43 534.28 230.10 533.33 228.26 532.78 C 226.43 532.24 223.97 531.46 222.08 531.21 C 220.19 530.96 217.56 530.91 215.66 531.10 C 213.76 531.28 211.26 531.94 209.42 532.45 C 207.58 532.95 205.19 533.84 203.37 534.44 C 201.55 535.04 199.14 535.88 197.27 536.44 C 195.40 537.00 192.87 537.71 190.91 538.18 C 188.95 538.66 186.26 539.21 184.22 539.59 C 182.17 539.97 179.39 540.43 177.27 540.74 C 175.16 541.06 172.31 541.46 170.13 541.70 C 167.94 541.94 164.97 542.22 162.70 542.38 C 160.43 542.53 157.32 542.67 155.00 542.71 C 152.67 542.76 149.52 542.75 147.21 542.68 C 144.89 542.62 141.83 542.44 139.58 542.26 C 137.34 542.09 134.41 541.77 132.24 541.50 C 130.08 541.24 127.24 540.83 125.16 540.49 C 123.07 540.15 120.33 539.65 118.32 539.23 C 116.32 538.80 113.71 538.16 111.80 537.65 C 109.88 537.14 107.40 536.38 105.55 535.79 C 103.71 535.21 101.30 534.37 99.51 533.74 C 97.71 533.11 95.37 532.17 93.57 531.58 C 91.77 530.98 89.36 530.13 87.50 529.77 C 85.64 529.42 83.05 529.15 81.17 529.24 C 79.29 529.33 76.78 529.87 74.98 530.37 C 73.18 530.86 70.92 531.89 69.16 532.53 C 67.40 533.17 65.11 534.14 63.25 534.61 C 61.39 535.09 58.78 535.56 56.76 535.71 C 54.74 535.86 51.84 535.79 49.78 535.60 C 47.72 535.40 44.93 534.92 43.03 534.42 C 41.13 533.91 38.77 533.01 37.12 532.22 C 35.48 531.44 33.49 530.19 32.06 529.18 C 30.64 528.18 28.85 526.73 27.62 525.53 C 26.39 524.33 24.87 522.61 23.85 521.20 C 22.83 519.78 21.63 517.73 20.84 516.11 C 20.05 514.49 19.10 512.19 18.56 510.40 C 18.02 508.60 17.48 506.10 17.24 504.12 C 17.00 502.15 17.01 499.34 16.96 497.21 C 16.91 495.08 17.07 492.05 16.93 489.92 C 16.80 487.80 16.50 484.96 16.06 483.03 C 15.62 481.10 14.71 478.76 13.98 477.07 C 13.25 475.38 12.02 473.36 11.19 471.75 C 10.37 470.15 9.23 468.05 8.47 466.38 C 7.70 464.71 6.77 462.40 6.10 460.64 C 5.43 458.88 4.58 456.50 3.99 454.65 C 3.41 452.81 2.66 450.31 2.19 448.35 C 1.73 446.40 1.21 443.67 0.90 441.60 C 0.59 439.54 0.28 436.70 0.14 434.60 C 0.01 432.50 -0.07 429.69 0.00 427.60 C 0.07 425.51 0.33 422.72 0.62 420.68 C 0.91 418.64 1.46 415.94 1.94 414.01 C 2.42 412.08 3.20 409.60 3.83 407.80 C 4.45 405.99 5.39 403.69 6.10 401.98 C 6.82 400.26 7.82 398.02 8.61 396.38 C 9.40 394.74 10.49 392.59 11.36 391.03 C 12.24 389.48 13.49 387.49 14.46 386.03 C 15.43 384.57 16.78 382.68 17.83 381.30 C 18.89 379.93 20.34 378.15 21.49 376.86 C 22.63 375.57 24.24 373.94 25.45 372.73 C 26.67 371.51 28.33 369.93 29.59 368.76 C 30.84 367.59 32.52 366.02 33.83 364.91 C 35.15 363.79 36.94 362.34 38.33 361.31 C 39.73 360.27 41.66 358.96 43.12 357.99 C 44.57 357.01 46.55 355.75 48.04 354.81 C 49.52 353.86 51.50 352.60 53.02 351.69 C 54.53 350.77 56.56 349.56 58.13 348.71 C 59.71 347.85 61.87 346.77 63.53 346.01 C 65.20 345.24 67.48 344.28 69.22 343.59 C 70.95 342.89 73.30 342.00 75.09 341.37 C 76.89 340.73 79.33 339.93 81.20 339.37 C 83.06 338.80 85.61 338.11 87.53 337.60 C 89.44 337.08 92.01 336.41 93.97 335.94 C 95.92 335.47 98.55 334.85 100.58 334.45 C 102.60 334.05 105.38 333.58 107.49 333.27 C 109.61 332.95 112.48 332.59 114.67 332.34 C 116.85 332.09 119.78 331.78 122.03 331.61 C 124.29 331.43 127.37 331.24 129.68 331.16 C 132.00 331.07 135.19 331.02 137.47 331.02 C 139.76 331.02 142.76 331.07 144.93 331.16 C 147.09 331.24 149.82 331.43 151.90 331.61 Z"/><path d="M 650.50 143.06 C 652.00 144.26 654.00 145.86 655.50 147.06 C 656.70 148.56 658.30 150.56 659.50 152.06 C 660.70 153.57 662.29 155.57 663.47 157.09 C 664.65 158.62 666.19 160.67 667.34 162.22 C 668.50 163.77 670.00 165.86 671.16 167.41 C 672.31 168.95 673.86 171.00 675.03 172.53 C 676.20 174.06 677.78 176.08 678.97 177.59 C 680.15 179.11 681.69 181.17 682.94 182.62 C 684.18 184.08 685.82 186.04 687.28 187.28 C 688.74 188.52 690.83 190.03 692.66 190.91 C 694.48 191.78 697.25 192.62 699.47 193.09 C 701.69 193.57 704.99 193.87 707.47 194.09 C 709.94 194.32 713.41 194.45 715.97 194.59 C 718.52 194.74 722.02 194.84 724.50 195.06 C 726.98 195.28 730.10 195.76 732.50 196.06 C 734.15 197.11 736.35 198.51 738.00 199.56 C 737.40 201.36 736.60 203.76 736.00 205.56 C 734.50 206.76 732.52 208.39 731.00 209.56 C 729.48 210.74 727.40 212.26 725.84 213.41 C 724.29 214.55 722.20 216.06 720.62 217.19 C 719.05 218.31 716.94 219.80 715.34 220.91 C 713.75 222.01 711.63 223.49 710.00 224.56 C 708.37 225.64 706.15 227.01 704.50 228.06 C 703.60 229.86 702.40 232.26 701.50 234.06 C 701.80 236.46 702.09 239.81 702.50 242.06 C 702.91 244.31 703.95 246.91 704.25 249.06 C 704.55 251.21 704.68 254.25 704.47 256.41 C 704.26 258.56 703.50 261.42 702.84 263.41 C 702.18 265.39 700.96 267.82 700.06 269.62 C 699.16 271.43 697.83 273.69 696.84 275.41 C 695.86 277.12 694.50 279.36 693.50 281.06 C 692.50 282.76 691.16 285.02 690.19 286.75 C 689.22 288.48 687.95 290.82 687.03 292.59 C 686.11 294.37 684.91 296.77 684.03 298.59 C 683.15 300.42 682.01 302.87 681.19 304.75 C 680.37 306.63 679.30 309.16 678.56 311.12 C 677.83 313.09 676.88 315.74 676.28 317.84 C 675.69 319.95 675.00 322.86 674.59 325.16 C 674.19 327.45 673.83 330.69 673.59 333.16 C 673.36 335.62 673.17 339.03 673.03 341.59 C 672.90 344.16 672.76 347.62 672.69 350.25 C 672.61 352.88 672.56 356.42 672.53 359.09 C 672.50 361.77 672.50 365.37 672.50 368.06 C 672.50 370.76 672.50 374.36 672.50 377.06 C 672.50 379.76 672.50 383.37 672.50 386.06 C 672.50 388.76 672.51 392.35 672.53 395.03 C 672.55 397.71 672.61 401.25 672.66 403.91 C 672.70 406.56 672.80 410.07 672.84 412.72 C 672.89 415.37 672.95 418.92 672.97 421.59 C 672.99 424.27 673.00 427.87 673.00 430.56 C 673.00 433.26 673.00 436.86 673.00 439.56 C 673.00 442.26 673.00 445.86 673.00 448.56 C 673.00 451.26 672.85 455.01 673.00 457.56 C 673.15 460.11 673.70 463.16 674.00 465.56 C 676.10 466.16 678.98 466.89 681.00 467.56 C 683.02 468.24 685.55 469.31 687.50 470.06 C 688.55 471.71 689.95 473.91 691.00 475.56 C 690.10 477.36 688.90 479.76 688.00 481.56 C 686.20 482.46 684.08 483.94 682.00 484.56 C 679.92 485.19 676.53 485.40 674.16 485.72 C 671.78 486.04 668.55 486.41 666.16 486.72 C 663.76 487.02 660.56 487.42 658.19 487.75 C 655.82 488.08 652.71 488.57 650.34 488.91 C 647.98 489.24 644.84 489.70 642.44 490.00 C 640.03 490.30 636.79 490.65 634.31 490.88 C 631.84 491.10 628.49 491.35 625.94 491.50 C 623.39 491.65 619.93 491.80 617.31 491.88 C 614.70 491.95 611.15 492.00 608.50 492.00 C 605.85 492.00 602.30 491.95 599.66 491.91 C 597.01 491.86 593.50 491.76 590.88 491.69 C 588.25 491.62 584.75 491.51 582.12 491.44 C 579.50 491.36 576.00 491.27 573.38 491.19 C 570.75 491.11 567.26 491.00 564.66 490.91 C 562.05 490.81 558.60 490.66 556.03 490.53 C 553.46 490.40 550.03 490.24 547.50 490.06 C 544.97 489.89 541.57 489.69 539.19 489.38 C 536.80 489.06 533.70 488.56 531.59 487.97 C 529.48 487.38 526.92 486.34 525.12 485.44 C 523.33 484.54 521.21 483.06 519.59 481.97 C 517.98 480.88 515.98 479.28 514.38 478.19 C 512.77 477.09 510.58 475.68 508.91 474.66 C 507.23 473.63 504.89 472.38 503.22 471.34 C 501.55 470.31 499.34 468.92 497.78 467.78 C 496.22 466.64 494.30 464.96 492.81 463.75 C 491.33 462.54 489.47 460.79 487.88 459.69 C 486.28 458.59 484.03 457.23 482.16 456.41 C 480.28 455.58 477.49 454.77 475.38 454.19 C 473.26 453.60 470.23 453.03 468.06 452.50 C 465.90 451.97 462.99 451.28 460.94 450.62 C 458.89 449.97 456.29 448.98 454.41 448.16 C 452.53 447.34 450.17 446.09 448.41 445.16 C 446.64 444.22 444.36 442.90 442.66 441.91 C 440.95 440.91 438.70 439.56 437.03 438.53 C 435.36 437.50 433.15 436.11 431.50 435.06 C 429.85 434.01 427.66 432.60 426.03 431.53 C 424.40 430.46 422.25 429.01 420.66 427.91 C 419.06 426.80 416.95 425.31 415.38 424.19 C 413.80 423.07 411.70 421.56 410.12 420.44 C 408.55 419.31 406.45 417.81 404.88 416.69 C 403.30 415.56 401.20 414.06 399.62 412.94 C 398.05 411.81 395.95 410.32 394.38 409.19 C 392.80 408.06 390.71 406.55 389.16 405.41 C 387.60 404.26 385.55 402.71 384.03 401.53 C 382.51 400.35 380.50 398.76 379.00 397.56 C 377.50 396.37 375.50 394.76 374.00 393.56 C 372.50 392.36 370.50 390.76 369.00 389.56 C 367.50 388.36 365.50 386.76 364.00 385.56 C 362.50 384.36 360.50 382.77 359.00 381.56 C 357.50 380.36 355.51 378.75 354.03 377.53 C 352.55 376.31 350.60 374.66 349.16 373.41 C 347.71 372.15 345.80 370.46 344.38 369.19 C 342.95 367.91 341.06 366.20 339.66 364.91 C 338.25 363.61 336.39 361.87 335.00 360.56 C 333.61 359.25 331.75 357.51 330.38 356.19 C 329.00 354.87 327.16 353.10 325.81 351.75 C 324.47 350.40 322.72 348.54 321.41 347.16 C 320.09 345.77 318.40 343.86 317.03 342.53 C 315.66 341.20 313.80 339.46 312.28 338.28 C 310.76 337.10 308.57 335.70 306.88 334.69 C 305.18 333.68 302.78 332.48 301.00 331.56 C 299.22 330.64 296.80 329.46 295.00 328.56 C 294.10 326.76 292.90 324.36 292.00 322.56 C 292.15 320.31 292.35 317.31 292.50 315.06 C 293.40 313.26 294.60 310.86 295.50 309.06 C 297.00 307.86 299.00 306.26 300.50 305.06 C 302.60 304.76 305.47 303.85 307.50 304.06 C 309.53 304.28 312.04 305.82 314.06 306.50 C 316.08 307.18 318.79 308.07 320.97 308.59 C 323.15 309.11 326.21 309.65 328.59 309.97 C 330.98 310.28 334.37 310.49 336.88 310.69 C 339.38 310.88 342.80 311.07 345.28 311.28 C 347.77 311.50 351.03 311.83 353.44 312.12 C 355.84 312.42 358.98 312.88 361.31 313.25 C 363.64 313.62 366.70 314.17 368.97 314.59 C 371.24 315.02 374.24 315.62 376.47 316.09 C 378.70 316.56 381.65 317.22 383.84 317.72 C 386.04 318.22 388.95 318.91 391.12 319.44 C 393.30 319.96 396.19 320.67 398.34 321.22 C 400.50 321.77 403.35 322.51 405.47 323.09 C 407.59 323.68 410.39 324.47 412.47 325.09 C 414.55 325.72 417.29 326.57 419.31 327.25 C 421.34 327.93 423.99 328.87 425.97 329.59 C 427.95 330.32 430.55 331.32 432.50 332.06 C 434.45 332.81 437.05 333.81 439.00 334.56 C 440.95 335.31 443.55 336.31 445.50 337.06 C 447.45 337.82 450.05 338.82 451.97 339.59 C 453.89 340.37 456.44 341.43 458.31 342.25 C 460.19 343.07 462.64 344.22 464.47 345.09 C 466.30 345.97 468.70 347.17 470.50 348.06 C 472.30 348.96 474.62 350.24 476.50 351.06 C 478.38 351.89 481.05 352.81 483.00 353.56 C 485.55 353.41 488.95 353.21 491.50 353.06 C 492.85 351.71 494.52 349.79 496.00 348.56 C 497.48 347.34 499.71 345.97 501.34 344.91 C 502.98 343.84 505.21 342.47 506.91 341.47 C 508.60 340.47 510.92 339.18 512.66 338.22 C 514.40 337.26 516.75 336.01 518.50 335.06 C 520.25 334.11 522.59 332.85 524.31 331.88 C 526.03 330.90 528.29 329.55 529.97 328.53 C 531.65 327.51 533.85 326.11 535.50 325.06 C 537.15 324.02 539.35 322.61 541.00 321.56 C 542.65 320.51 544.85 319.11 546.50 318.06 C 548.15 317.01 550.35 315.61 552.00 314.56 C 553.65 313.51 555.85 312.12 557.50 311.06 C 559.15 310.01 561.35 308.61 562.97 307.53 C 564.59 306.45 566.74 305.00 568.31 303.88 C 569.89 302.75 571.94 301.20 573.47 300.03 C 575.00 298.86 576.99 297.25 578.50 296.06 C 580.01 294.87 582.00 293.27 583.53 292.09 C 585.06 290.92 587.11 289.38 588.69 288.25 C 590.26 287.12 592.39 285.65 594.03 284.59 C 595.67 283.53 597.88 282.14 599.62 281.19 C 601.37 280.23 603.80 279.06 605.66 278.22 C 607.51 277.38 610.14 276.41 612.00 275.56 C 613.86 274.72 616.32 273.58 618.03 272.59 C 619.74 271.60 621.86 270.13 623.41 268.97 C 624.95 267.81 626.87 266.14 628.31 264.88 C 629.75 263.61 631.55 261.81 633.00 260.56 C 634.45 259.32 636.50 257.76 638.00 256.56 C 638.75 254.61 639.75 252.01 640.50 250.06 C 639.75 248.11 638.94 245.32 638.00 243.56 C 637.06 241.80 635.27 239.99 634.25 238.31 C 633.23 236.63 632.00 234.26 631.19 232.38 C 630.37 230.49 629.49 227.77 628.81 225.75 C 628.13 223.73 627.32 220.94 626.66 218.91 C 625.99 216.87 625.04 214.23 624.38 212.19 C 623.71 210.15 622.78 207.48 622.25 205.31 C 621.72 203.15 621.15 200.11 620.81 197.75 C 620.48 195.39 620.23 192.04 620.00 189.56 C 619.77 187.09 619.54 183.72 619.31 181.25 C 619.09 178.78 618.70 175.57 618.50 173.06 C 618.30 170.56 618.15 167.11 618.00 164.56 C 619.20 164.86 620.80 165.26 622.00 165.56 C 623.05 167.21 624.45 169.41 625.50 171.06 C 626.55 172.71 627.95 174.91 629.00 176.56 C 630.05 178.21 631.45 180.41 632.50 182.06 C 634.60 182.66 637.40 183.46 639.50 184.06 C 641.15 183.01 643.35 181.61 645.00 180.56 C 645.30 178.16 645.70 174.96 646.00 172.56 C 646.30 170.16 646.70 166.96 647.00 164.56 C 647.30 162.16 647.70 158.96 648.00 156.56 C 648.30 154.16 648.70 150.96 649.00 148.56 C 649.45 146.91 650.05 144.71 650.50 143.06 Z"/></g>
</g>
<path d="M 151.90 331.61 C 153.99 331.78 156.73 332.09 158.82 332.34 C 160.92 332.59 163.78 332.95 165.88 333.27 C 167.98 333.58 170.78 334.03 172.83 334.42 C 174.87 334.80 177.54 335.37 179.52 335.82 C 181.50 336.28 184.11 336.91 186.02 337.43 C 187.93 337.95 190.44 338.68 192.26 339.28 C 194.09 339.89 196.41 340.80 198.17 341.48 C 199.92 342.15 202.17 343.15 203.96 343.78 C 205.76 344.42 208.19 345.23 210.12 345.73 C 212.06 346.22 214.79 346.72 216.87 347.07 C 218.95 347.43 221.91 347.71 223.99 348.06 C 226.07 348.41 228.71 349.00 230.74 349.41 C 231.82 350.76 233.26 352.56 234.34 353.91 C 234.61 356.07 234.97 358.95 235.24 361.11 C 234.43 362.73 233.35 364.89 232.54 366.51 C 231.19 367.59 229.39 369.03 228.04 370.11 C 226.01 370.24 223.35 370.63 221.29 370.56 C 219.22 370.49 216.37 369.82 214.26 369.66 C 212.14 369.50 209.28 369.41 207.20 369.52 C 205.11 369.63 202.36 370.03 200.36 370.39 C 198.36 370.75 195.79 371.44 193.87 371.94 C 191.95 372.44 189.44 373.18 187.57 373.74 C 185.69 374.29 183.22 375.06 181.38 375.65 C 179.53 376.24 177.10 377.04 175.28 377.65 C 173.45 378.25 171.03 379.07 169.23 379.70 C 167.43 380.33 165.04 381.18 163.27 381.84 C 161.49 382.50 159.15 383.40 157.42 384.09 C 155.68 384.78 153.39 385.73 151.68 386.45 C 149.97 387.17 147.71 388.15 146.03 388.90 C 144.34 389.64 142.09 390.64 140.43 391.40 C 138.76 392.16 136.55 393.19 134.92 393.99 C 133.28 394.78 131.12 395.86 129.52 396.69 C 127.91 397.51 125.80 398.64 124.23 399.50 C 122.66 400.36 120.58 401.52 119.05 402.42 C 117.53 403.33 115.51 404.55 114.05 405.52 C 112.58 406.48 110.69 407.83 109.29 408.87 C 107.90 409.90 106.10 411.34 104.74 412.41 C 103.38 413.48 101.52 414.86 100.24 416.01 C 98.95 417.16 97.40 418.84 96.19 420.06 C 96.59 422.08 97.13 424.78 97.54 426.81 C 99.83 426.67 102.89 426.49 105.19 426.36 C 107.21 425.95 109.91 425.41 111.94 425.01 C 113.97 424.61 116.64 424.04 118.72 423.69 C 120.80 423.34 123.64 422.94 125.80 422.68 C 127.96 422.41 130.89 422.09 133.12 421.89 C 135.34 421.68 138.33 421.42 140.62 421.30 C 142.92 421.17 146.06 421.07 148.39 421.07 C 150.72 421.07 153.86 421.17 156.15 421.30 C 158.44 421.42 161.44 421.68 163.66 421.89 C 165.88 422.09 168.81 422.41 170.97 422.68 C 173.14 422.94 176.00 423.32 178.09 423.66 C 180.18 424.00 182.90 424.52 184.92 424.93 C 186.94 425.33 189.60 425.91 191.56 426.39 C 193.52 426.86 196.11 427.51 197.97 428.07 C 199.84 428.64 202.23 429.49 203.99 430.16 C 205.75 430.83 208.00 431.81 209.70 432.55 C 211.40 433.28 213.63 434.29 215.30 435.05 C 216.96 435.81 219.17 436.84 220.81 437.64 C 222.45 438.43 224.61 439.51 226.21 440.34 C 227.81 441.17 229.91 442.31 231.47 443.18 C 233.03 444.05 235.05 445.26 236.62 446.13 C 238.18 447.00 240.26 448.16 241.88 448.97 C 243.49 449.79 245.68 451.51 247.39 451.56 C 249.09 451.61 251.48 449.98 253.24 449.31 C 254.18 450.52 255.44 452.14 256.39 453.36 C 257.06 455.11 257.79 457.62 258.64 459.21 C 259.48 460.80 260.93 462.58 262.01 463.93 C 263.09 465.28 264.66 466.96 265.84 468.21 C 267.02 469.46 268.67 471.04 269.89 472.26 C 271.91 472.39 274.61 472.57 276.64 472.71 C 277.58 471.22 278.84 469.24 279.79 467.76 C 280.46 466.00 281.40 463.71 282.04 461.91 C 282.67 460.11 283.39 457.60 284.01 455.78 C 284.62 453.96 285.47 451.57 286.12 449.79 C 286.77 448.01 287.67 445.67 288.34 443.91 C 289.01 442.15 289.91 439.81 290.59 438.06 C 291.80 438.46 293.42 439.00 294.64 439.41 C 295.31 441.16 296.15 443.57 296.89 445.26 C 297.63 446.95 298.77 449.05 299.56 450.69 C 300.35 452.33 301.38 454.54 302.15 456.20 C 302.91 457.86 303.91 460.10 304.68 461.77 C 305.44 463.44 306.47 465.65 307.24 467.31 C 308.01 468.97 309.03 471.18 309.80 472.85 C 310.56 474.52 311.57 476.75 312.33 478.42 C 313.09 480.09 314.10 482.32 314.86 483.99 C 315.62 485.65 316.59 487.93 317.42 489.53 C 318.25 491.13 319.34 493.28 320.37 494.68 C 321.41 496.07 322.96 497.76 324.31 498.84 C 325.66 499.92 327.74 501.08 329.37 501.88 C 331.01 502.67 333.41 503.50 335.22 504.12 C 337.03 504.75 339.56 505.45 341.44 506.01 C 343.31 506.57 345.84 507.27 347.71 507.84 C 349.57 508.40 352.04 509.17 353.87 509.78 C 355.70 510.38 358.11 511.21 359.89 511.86 C 361.67 512.51 363.98 513.43 365.74 514.11 C 366.82 515.46 368.26 517.26 369.34 518.61 C 368.39 520.09 367.13 522.07 366.19 523.56 C 364.57 524.37 362.43 525.47 360.79 526.26 C 359.15 527.05 356.92 528.06 355.25 528.82 C 353.58 529.58 351.34 530.58 349.65 531.32 C 347.96 532.06 345.71 533.05 344.00 533.77 C 342.28 534.49 339.99 535.43 338.23 536.10 C 336.47 536.77 334.09 537.63 332.27 538.24 C 330.45 538.85 327.97 539.62 326.11 540.18 C 324.24 540.75 321.73 541.47 319.84 542.01 C 317.95 542.55 315.42 543.27 313.51 543.78 C 311.59 544.30 309.04 544.98 307.07 545.44 C 305.10 545.90 302.45 546.50 300.38 546.85 C 298.30 547.20 295.45 547.60 293.26 547.77 C 291.07 547.95 288.01 548.05 285.78 548.00 C 283.55 547.95 280.53 547.72 278.41 547.44 C 276.29 547.15 273.58 546.59 271.66 546.09 C 269.74 545.58 267.36 544.72 265.58 544.06 C 263.81 543.40 261.59 542.39 259.85 541.70 C 258.10 541.01 255.81 540.06 253.97 539.48 C 252.13 538.89 249.53 538.24 247.56 537.79 C 245.58 537.34 242.77 536.91 240.78 536.47 C 238.79 536.03 236.19 535.39 234.31 534.84 C 232.43 534.28 230.10 533.33 228.26 532.78 C 226.43 532.24 223.97 531.46 222.08 531.21 C 220.19 530.96 217.56 530.91 215.66 531.10 C 213.76 531.28 211.26 531.94 209.42 532.45 C 207.58 532.95 205.19 533.84 203.37 534.44 C 201.55 535.04 199.14 535.88 197.27 536.44 C 195.40 537.00 192.87 537.71 190.91 538.18 C 188.95 538.66 186.26 539.21 184.22 539.59 C 182.17 539.97 179.39 540.43 177.27 540.74 C 175.16 541.06 172.31 541.46 170.13 541.70 C 167.94 541.94 164.97 542.22 162.70 542.38 C 160.43 542.53 157.32 542.67 155.00 542.71 C 152.67 542.76 149.52 542.75 147.21 542.68 C 144.89 542.62 141.83 542.44 139.58 542.26 C 137.34 542.09 134.41 541.77 132.24 541.50 C 130.08 541.24 127.24 540.83 125.16 540.49 C 123.07 540.15 120.33 539.65 118.32 539.23 C 116.32 538.80 113.71 538.16 111.80 537.65 C 109.88 537.14 107.40 536.38 105.55 535.79 C 103.71 535.21 101.30 534.37 99.51 533.74 C 97.71 533.11 95.37 532.17 93.57 531.58 C 91.77 530.98 89.36 530.13 87.50 529.77 C 85.64 529.42 83.05 529.15 81.17 529.24 C 79.29 529.33 76.78 529.87 74.98 530.37 C 73.18 530.86 70.92 531.89 69.16 532.53 C 67.40 533.17 65.11 534.14 63.25 534.61 C 61.39 535.09 58.78 535.56 56.76 535.71 C 54.74 535.86 51.84 535.79 49.78 535.60 C 47.72 535.40 44.93 534.92 43.03 534.42 C 41.13 533.91 38.77 533.01 37.12 532.22 C 35.48 531.44 33.49 530.19 32.06 529.18 C 30.64 528.18 28.85 526.73 27.62 525.53 C 26.39 524.33 24.87 522.61 23.85 521.20 C 22.83 519.78 21.63 517.73 20.84 516.11 C 20.05 514.49 19.10 512.19 18.56 510.40 C 18.02 508.60 17.48 506.10 17.24 504.12 C 17.00 502.15 17.01 499.34 16.96 497.21 C 16.91 495.08 17.07 492.05 16.93 489.92 C 16.80 487.80 16.50 484.96 16.06 483.03 C 15.62 481.10 14.71 478.76 13.98 477.07 C 13.25 475.38 12.02 473.36 11.19 471.75 C 10.37 470.15 9.23 468.05 8.47 466.38 C 7.70 464.71 6.77 462.40 6.10 460.64 C 5.43 458.88 4.58 456.50 3.99 454.65 C 3.41 452.81 2.66 450.31 2.19 448.35 C 1.73 446.40 1.21 443.67 0.90 441.60 C 0.59 439.54 0.28 436.70 0.14 434.60 C 0.01 432.50 -0.07 429.69 0.00 427.60 C 0.07 425.51 0.33 422.72 0.62 420.68 C 0.91 418.64 1.46 415.94 1.94 414.01 C 2.42 412.08 3.20 409.60 3.83 407.80 C 4.45 405.99 5.39 403.69 6.10 401.98 C 6.82 400.26 7.82 398.02 8.61 396.38 C 9.40 394.74 10.49 392.59 11.36 391.03 C 12.24 389.48 13.49 387.49 14.46 386.03 C 15.43 384.57 16.78 382.68 17.83 381.30 C 18.89 379.93 20.34 378.15 21.49 376.86 C 22.63 375.57 24.24 373.94 25.45 372.73 C 26.67 371.51 28.33 369.93 29.59 368.76 C 30.84 367.59 32.52 366.02 33.83 364.91 C 35.15 363.79 36.94 362.34 38.33 361.31 C 39.73 360.27 41.66 358.96 43.12 357.99 C 44.57 357.01 46.55 355.75 48.04 354.81 C 49.52 353.86 51.50 352.60 53.02 351.69 C 54.53 350.77 56.56 349.56 58.13 348.71 C 59.71 347.85 61.87 346.77 63.53 346.01 C 65.20 345.24 67.48 344.28 69.22 343.59 C 70.95 342.89 73.30 342.00 75.09 341.37 C 76.89 340.73 79.33 339.93 81.20 339.37 C 83.06 338.80 85.61 338.11 87.53 337.60 C 89.44 337.08 92.01 336.41 93.97 335.94 C 95.92 335.47 98.55 334.85 100.58 334.45 C 102.60 334.05 105.38 333.58 107.49 333.27 C 109.61 332.95 112.48 332.59 114.67 332.34 C 116.85 332.09 119.78 331.78 122.03 331.61 C 124.29 331.43 127.37 331.24 129.68 331.16 C 132.00 331.07 135.19 331.02 137.47 331.02 C 139.76 331.02 142.76 331.07 144.93 331.16 C 147.09 331.24 149.82 331.43 151.90 331.61 Z" fill="url(#bp10)"/>
<path d="M 650.50 143.06 C 652.00 144.26 654.00 145.86 655.50 147.06 C 656.70 148.56 658.30 150.56 659.50 152.06 C 660.70 153.57 662.29 155.57 663.47 157.09 C 664.65 158.62 666.19 160.67 667.34 162.22 C 668.50 163.77 670.00 165.86 671.16 167.41 C 672.31 168.95 673.86 171.00 675.03 172.53 C 676.20 174.06 677.78 176.08 678.97 177.59 C 680.15 179.11 681.69 181.17 682.94 182.62 C 684.18 184.08 685.82 186.04 687.28 187.28 C 688.74 188.52 690.83 190.03 692.66 190.91 C 694.48 191.78 697.25 192.62 699.47 193.09 C 701.69 193.57 704.99 193.87 707.47 194.09 C 709.94 194.32 713.41 194.45 715.97 194.59 C 718.52 194.74 722.02 194.84 724.50 195.06 C 726.98 195.28 730.10 195.76 732.50 196.06 C 734.15 197.11 736.35 198.51 738.00 199.56 C 737.40 201.36 736.60 203.76 736.00 205.56 C 734.50 206.76 732.52 208.39 731.00 209.56 C 729.48 210.74 727.40 212.26 725.84 213.41 C 724.29 214.55 722.20 216.06 720.62 217.19 C 719.05 218.31 716.94 219.80 715.34 220.91 C 713.75 222.01 711.63 223.49 710.00 224.56 C 708.37 225.64 706.15 227.01 704.50 228.06 C 703.60 229.86 702.40 232.26 701.50 234.06 C 701.80 236.46 702.09 239.81 702.50 242.06 C 702.91 244.31 703.95 246.91 704.25 249.06 C 704.55 251.21 704.68 254.25 704.47 256.41 C 704.26 258.56 703.50 261.42 702.84 263.41 C 702.18 265.39 700.96 267.82 700.06 269.62 C 699.16 271.43 697.83 273.69 696.84 275.41 C 695.86 277.12 694.50 279.36 693.50 281.06 C 692.50 282.76 691.16 285.02 690.19 286.75 C 689.22 288.48 687.95 290.82 687.03 292.59 C 686.11 294.37 684.91 296.77 684.03 298.59 C 683.15 300.42 682.01 302.87 681.19 304.75 C 680.37 306.63 679.30 309.16 678.56 311.12 C 677.83 313.09 676.88 315.74 676.28 317.84 C 675.69 319.95 675.00 322.86 674.59 325.16 C 674.19 327.45 673.83 330.69 673.59 333.16 C 673.36 335.62 673.17 339.03 673.03 341.59 C 672.90 344.16 672.76 347.62 672.69 350.25 C 672.61 352.88 672.56 356.42 672.53 359.09 C 672.50 361.77 672.50 365.37 672.50 368.06 C 672.50 370.76 672.50 374.36 672.50 377.06 C 672.50 379.76 672.50 383.37 672.50 386.06 C 672.50 388.76 672.51 392.35 672.53 395.03 C 672.55 397.71 672.61 401.25 672.66 403.91 C 672.70 406.56 672.80 410.07 672.84 412.72 C 672.89 415.37 672.95 418.92 672.97 421.59 C 672.99 424.27 673.00 427.87 673.00 430.56 C 673.00 433.26 673.00 436.86 673.00 439.56 C 673.00 442.26 673.00 445.86 673.00 448.56 C 673.00 451.26 672.85 455.01 673.00 457.56 C 673.15 460.11 673.70 463.16 674.00 465.56 C 676.10 466.16 678.98 466.89 681.00 467.56 C 683.02 468.24 685.55 469.31 687.50 470.06 C 688.55 471.71 689.95 473.91 691.00 475.56 C 690.10 477.36 688.90 479.76 688.00 481.56 C 686.20 482.46 684.08 483.94 682.00 484.56 C 679.92 485.19 676.53 485.40 674.16 485.72 C 671.78 486.04 668.55 486.41 666.16 486.72 C 663.76 487.02 660.56 487.42 658.19 487.75 C 655.82 488.08 652.71 488.57 650.34 488.91 C 647.98 489.24 644.84 489.70 642.44 490.00 C 640.03 490.30 636.79 490.65 634.31 490.88 C 631.84 491.10 628.49 491.35 625.94 491.50 C 623.39 491.65 619.93 491.80 617.31 491.88 C 614.70 491.95 611.15 492.00 608.50 492.00 C 605.85 492.00 602.30 491.95 599.66 491.91 C 597.01 491.86 593.50 491.76 590.88 491.69 C 588.25 491.62 584.75 491.51 582.12 491.44 C 579.50 491.36 576.00 491.27 573.38 491.19 C 570.75 491.11 567.26 491.00 564.66 490.91 C 562.05 490.81 558.60 490.66 556.03 490.53 C 553.46 490.40 550.03 490.24 547.50 490.06 C 544.97 489.89 541.57 489.69 539.19 489.38 C 536.80 489.06 533.70 488.56 531.59 487.97 C 529.48 487.38 526.92 486.34 525.12 485.44 C 523.33 484.54 521.21 483.06 519.59 481.97 C 517.98 480.88 515.98 479.28 514.38 478.19 C 512.77 477.09 510.58 475.68 508.91 474.66 C 507.23 473.63 504.89 472.38 503.22 471.34 C 501.55 470.31 499.34 468.92 497.78 467.78 C 496.22 466.64 494.30 464.96 492.81 463.75 C 491.33 462.54 489.47 460.79 487.88 459.69 C 486.28 458.59 484.03 457.23 482.16 456.41 C 480.28 455.58 477.49 454.77 475.38 454.19 C 473.26 453.60 470.23 453.03 468.06 452.50 C 465.90 451.97 462.99 451.28 460.94 450.62 C 458.89 449.97 456.29 448.98 454.41 448.16 C 452.53 447.34 450.17 446.09 448.41 445.16 C 446.64 444.22 444.36 442.90 442.66 441.91 C 440.95 440.91 438.70 439.56 437.03 438.53 C 435.36 437.50 433.15 436.11 431.50 435.06 C 429.85 434.01 427.66 432.60 426.03 431.53 C 424.40 430.46 422.25 429.01 420.66 427.91 C 419.06 426.80 416.95 425.31 415.38 424.19 C 413.80 423.07 411.70 421.56 410.12 420.44 C 408.55 419.31 406.45 417.81 404.88 416.69 C 403.30 415.56 401.20 414.06 399.62 412.94 C 398.05 411.81 395.95 410.32 394.38 409.19 C 392.80 408.06 390.71 406.55 389.16 405.41 C 387.60 404.26 385.55 402.71 384.03 401.53 C 382.51 400.35 380.50 398.76 379.00 397.56 C 377.50 396.37 375.50 394.76 374.00 393.56 C 372.50 392.36 370.50 390.76 369.00 389.56 C 367.50 388.36 365.50 386.76 364.00 385.56 C 362.50 384.36 360.50 382.77 359.00 381.56 C 357.50 380.36 355.51 378.75 354.03 377.53 C 352.55 376.31 350.60 374.66 349.16 373.41 C 347.71 372.15 345.80 370.46 344.38 369.19 C 342.95 367.91 341.06 366.20 339.66 364.91 C 338.25 363.61 336.39 361.87 335.00 360.56 C 333.61 359.25 331.75 357.51 330.38 356.19 C 329.00 354.87 327.16 353.10 325.81 351.75 C 324.47 350.40 322.72 348.54 321.41 347.16 C 320.09 345.77 318.40 343.86 317.03 342.53 C 315.66 341.20 313.80 339.46 312.28 338.28 C 310.76 337.10 308.57 335.70 306.88 334.69 C 305.18 333.68 302.78 332.48 301.00 331.56 C 299.22 330.64 296.80 329.46 295.00 328.56 C 294.10 326.76 292.90 324.36 292.00 322.56 C 292.15 320.31 292.35 317.31 292.50 315.06 C 293.40 313.26 294.60 310.86 295.50 309.06 C 297.00 307.86 299.00 306.26 300.50 305.06 C 302.60 304.76 305.47 303.85 307.50 304.06 C 309.53 304.28 312.04 305.82 314.06 306.50 C 316.08 307.18 318.79 308.07 320.97 308.59 C 323.15 309.11 326.21 309.65 328.59 309.97 C 330.98 310.28 334.37 310.49 336.88 310.69 C 339.38 310.88 342.80 311.07 345.28 311.28 C 347.77 311.50 351.03 311.83 353.44 312.12 C 355.84 312.42 358.98 312.88 361.31 313.25 C 363.64 313.62 366.70 314.17 368.97 314.59 C 371.24 315.02 374.24 315.62 376.47 316.09 C 378.70 316.56 381.65 317.22 383.84 317.72 C 386.04 318.22 388.95 318.91 391.12 319.44 C 393.30 319.96 396.19 320.67 398.34 321.22 C 400.50 321.77 403.35 322.51 405.47 323.09 C 407.59 323.68 410.39 324.47 412.47 325.09 C 414.55 325.72 417.29 326.57 419.31 327.25 C 421.34 327.93 423.99 328.87 425.97 329.59 C 427.95 330.32 430.55 331.32 432.50 332.06 C 434.45 332.81 437.05 333.81 439.00 334.56 C 440.95 335.31 443.55 336.31 445.50 337.06 C 447.45 337.82 450.05 338.82 451.97 339.59 C 453.89 340.37 456.44 341.43 458.31 342.25 C 460.19 343.07 462.64 344.22 464.47 345.09 C 466.30 345.97 468.70 347.17 470.50 348.06 C 472.30 348.96 474.62 350.24 476.50 351.06 C 478.38 351.89 481.05 352.81 483.00 353.56 C 485.55 353.41 488.95 353.21 491.50 353.06 C 492.85 351.71 494.52 349.79 496.00 348.56 C 497.48 347.34 499.71 345.97 501.34 344.91 C 502.98 343.84 505.21 342.47 506.91 341.47 C 508.60 340.47 510.92 339.18 512.66 338.22 C 514.40 337.26 516.75 336.01 518.50 335.06 C 520.25 334.11 522.59 332.85 524.31 331.88 C 526.03 330.90 528.29 329.55 529.97 328.53 C 531.65 327.51 533.85 326.11 535.50 325.06 C 537.15 324.02 539.35 322.61 541.00 321.56 C 542.65 320.51 544.85 319.11 546.50 318.06 C 548.15 317.01 550.35 315.61 552.00 314.56 C 553.65 313.51 555.85 312.12 557.50 311.06 C 559.15 310.01 561.35 308.61 562.97 307.53 C 564.59 306.45 566.74 305.00 568.31 303.88 C 569.89 302.75 571.94 301.20 573.47 300.03 C 575.00 298.86 576.99 297.25 578.50 296.06 C 580.01 294.87 582.00 293.27 583.53 292.09 C 585.06 290.92 587.11 289.38 588.69 288.25 C 590.26 287.12 592.39 285.65 594.03 284.59 C 595.67 283.53 597.88 282.14 599.62 281.19 C 601.37 280.23 603.80 279.06 605.66 278.22 C 607.51 277.38 610.14 276.41 612.00 275.56 C 613.86 274.72 616.32 273.58 618.03 272.59 C 619.74 271.60 621.86 270.13 623.41 268.97 C 624.95 267.81 626.87 266.14 628.31 264.88 C 629.75 263.61 631.55 261.81 633.00 260.56 C 634.45 259.32 636.50 257.76 638.00 256.56 C 638.75 254.61 639.75 252.01 640.50 250.06 C 639.75 248.11 638.94 245.32 638.00 243.56 C 637.06 241.80 635.27 239.99 634.25 238.31 C 633.23 236.63 632.00 234.26 631.19 232.38 C 630.37 230.49 629.49 227.77 628.81 225.75 C 628.13 223.73 627.32 220.94 626.66 218.91 C 625.99 216.87 625.04 214.23 624.38 212.19 C 623.71 210.15 622.78 207.48 622.25 205.31 C 621.72 203.15 621.15 200.11 620.81 197.75 C 620.48 195.39 620.23 192.04 620.00 189.56 C 619.77 187.09 619.54 183.72 619.31 181.25 C 619.09 178.78 618.70 175.57 618.50 173.06 C 618.30 170.56 618.15 167.11 618.00 164.56 C 619.20 164.86 620.80 165.26 622.00 165.56 C 623.05 167.21 624.45 169.41 625.50 171.06 C 626.55 172.71 627.95 174.91 629.00 176.56 C 630.05 178.21 631.45 180.41 632.50 182.06 C 634.60 182.66 637.40 183.46 639.50 184.06 C 641.15 183.01 643.35 181.61 645.00 180.56 C 645.30 178.16 645.70 174.96 646.00 172.56 C 646.30 170.16 646.70 166.96 647.00 164.56 C 647.30 162.16 647.70 158.96 648.00 156.56 C 648.30 154.16 648.70 150.96 649.00 148.56 C 649.45 146.91 650.05 144.71 650.50 143.06 Z" fill="url(#bp11)"/>
</svg>
