<svg xmlns="http://www.w3.org/2000/svg" viewBox="151 148.56 430.4 261.11">
<defs>
<linearGradient id="bs3" x1="0" y1="0" x2="0.25" y2="1">
<stop offset="0" stop-color="#2B2C38"/><stop offset="1" stop-color="#20212B"/>
</linearGradient>
<clipPath id="cs3"><path d="M 410.34 158.72 C 412.75 158.62 416.08 158.56 418.62 158.56 C 421.17 158.56 424.71 158.62 427.28 158.72 C 429.85 158.82 433.28 159.02 435.78 159.22 C 438.28 159.42 441.55 159.75 443.97 160.03 C 446.39 160.31 449.59 160.71 451.94 161.06 C 454.29 161.41 457.37 161.93 459.62 162.38 C 461.88 162.82 464.79 163.51 466.97 164.03 C 469.14 164.56 472.00 165.30 474.12 165.88 C 476.25 166.45 479.08 167.22 481.16 167.84 C 483.23 168.47 485.94 169.36 487.94 170.06 C 489.93 170.77 492.54 171.76 494.47 172.53 C 496.40 173.30 498.93 174.37 500.78 175.22 C 502.63 176.07 505.03 177.27 506.78 178.22 C 508.53 179.17 510.79 180.51 512.47 181.53 C 514.15 182.55 516.35 183.95 518.00 185.00 C 519.65 186.05 521.85 187.45 523.47 188.53 C 525.09 189.61 527.23 191.07 528.78 192.22 C 530.33 193.37 532.32 194.98 533.78 196.22 C 535.24 197.46 537.10 199.20 538.50 200.50 C 539.90 201.80 541.74 203.56 543.09 204.91 C 544.44 206.26 546.23 208.07 547.50 209.50 C 548.77 210.93 550.39 212.91 551.56 214.44 C 552.73 215.97 554.23 218.07 555.31 219.69 C 556.39 221.31 557.77 223.53 558.75 225.25 C 559.73 226.97 560.94 229.36 561.81 231.19 C 562.69 233.01 563.80 235.50 564.59 237.41 C 565.39 239.31 566.43 241.87 567.12 243.88 C 567.82 245.88 568.68 248.63 569.22 250.78 C 569.75 252.93 570.36 255.92 570.69 258.19 C 571.01 260.45 571.30 263.55 571.38 265.88 C 571.45 268.20 571.37 271.32 571.22 273.66 C 571.07 275.99 570.72 279.15 570.38 281.44 C 570.03 283.73 569.45 286.76 568.94 288.94 C 568.42 291.11 567.59 293.89 566.94 295.94 C 566.29 297.99 565.34 300.64 564.59 302.59 C 563.85 304.55 562.82 307.12 561.97 308.97 C 561.12 310.82 559.86 313.16 558.94 314.94 C 558.02 316.72 556.65 318.96 555.84 320.84 C 555.03 322.72 554.02 325.33 553.53 327.47 C 553.04 329.61 552.71 332.76 552.56 335.12 C 552.41 337.49 552.58 340.85 552.53 343.22 C 552.48 345.59 552.49 348.71 552.22 350.91 C 551.95 353.10 551.35 355.88 550.75 357.88 C 550.15 359.87 549.10 362.42 548.22 364.22 C 547.34 366.02 546.00 368.30 544.88 369.88 C 543.75 371.45 542.06 373.36 540.69 374.69 C 539.32 376.02 537.33 377.63 535.75 378.75 C 534.17 379.87 531.95 381.25 530.12 382.12 C 528.30 383.00 525.67 384.00 523.56 384.56 C 521.45 385.12 518.35 385.66 516.06 385.88 C 513.77 386.09 510.56 386.16 508.31 386.00 C 506.07 385.84 503.16 385.31 501.09 384.78 C 499.03 384.25 496.49 383.18 494.53 382.47 C 492.58 381.76 490.06 380.61 488.06 380.06 C 486.06 379.51 483.27 378.91 481.19 378.81 C 479.10 378.71 476.22 379.02 474.16 379.41 C 472.09 379.80 469.41 380.75 467.41 381.41 C 465.40 382.07 462.81 383.11 460.81 383.81 C 458.82 384.52 456.14 385.44 454.09 386.09 C 452.05 386.75 449.28 387.58 447.16 388.16 C 445.03 388.73 442.13 389.43 439.91 389.91 C 437.68 390.38 434.63 390.93 432.31 391.31 C 429.99 391.69 426.84 392.14 424.44 392.44 C 422.03 392.73 418.77 393.08 416.28 393.28 C 413.79 393.48 410.38 393.68 407.81 393.75 C 405.24 393.82 401.74 393.83 399.16 393.78 C 396.57 393.73 393.12 393.57 390.59 393.41 C 388.07 393.24 384.77 392.93 382.34 392.66 C 379.92 392.38 376.75 391.95 374.41 391.59 C 372.06 391.24 368.96 390.74 366.69 390.31 C 364.41 389.89 361.43 389.27 359.25 388.75 C 357.07 388.23 354.26 387.44 352.19 386.81 C 350.11 386.19 347.43 385.26 345.41 384.59 C 343.38 383.93 340.74 382.93 338.69 382.38 C 336.64 381.82 333.86 381.08 331.75 380.88 C 329.64 380.67 326.73 380.72 324.62 381.00 C 322.52 381.28 319.79 382.15 317.75 382.75 C 315.71 383.35 313.12 384.42 311.03 385.03 C 308.95 385.65 306.05 386.35 303.84 386.84 C 301.64 387.34 298.51 387.81 296.31 388.31 C 294.11 388.81 291.24 389.54 289.19 390.19 C 287.14 390.84 284.59 391.89 282.66 392.66 C 280.72 393.42 278.25 394.55 276.28 395.28 C 274.31 396.01 271.67 396.97 269.53 397.53 C 267.39 398.09 264.38 398.71 262.03 399.03 C 259.68 399.35 256.32 399.60 253.84 399.66 C 251.37 399.71 247.96 399.60 245.53 399.41 C 243.10 399.21 239.93 398.76 237.62 398.38 C 235.32 397.99 232.38 397.32 230.19 396.81 C 228.00 396.30 225.16 395.54 223.03 394.97 C 220.90 394.40 218.10 393.60 216.00 393.00 C 213.90 392.40 211.10 391.60 209.03 390.97 C 206.96 390.34 204.21 389.49 202.19 388.81 C 200.17 388.13 197.52 387.18 195.56 386.44 C 193.61 385.69 191.06 384.64 189.16 383.84 C 187.25 383.05 184.75 381.95 182.88 381.12 C 181.00 380.30 178.51 379.19 176.66 378.34 C 174.80 377.50 172.32 376.38 170.50 375.50 C 168.68 374.62 166.30 373.40 164.50 372.50 C 163.45 370.85 162.05 368.65 161.00 367.00 C 162.20 365.50 163.80 363.50 165.00 362.00 C 166.95 361.25 169.52 360.22 171.50 359.50 C 173.48 358.78 176.16 357.86 178.19 357.19 C 180.22 356.52 182.96 355.66 185.03 355.03 C 187.10 354.40 189.92 353.62 192.00 353.00 C 194.08 352.38 196.90 351.60 198.91 350.91 C 200.92 350.22 203.59 349.29 205.41 348.41 C 207.22 347.52 209.53 346.23 211.03 345.03 C 212.53 343.83 214.26 341.96 215.41 340.41 C 216.55 338.85 217.77 336.47 218.69 334.69 C 219.61 332.91 220.68 330.38 221.53 328.53 C 222.38 326.68 223.50 324.20 224.34 322.34 C 225.19 320.49 226.31 318.01 227.16 316.16 C 228.00 314.30 229.15 311.85 230.00 310.00 C 230.85 308.15 232.00 305.70 232.84 303.84 C 233.69 301.99 234.80 299.50 235.66 297.66 C 236.51 295.81 237.65 293.35 238.53 291.53 C 239.41 289.71 240.68 287.38 241.50 285.50 C 242.32 283.62 243.25 280.95 244.00 279.00 C 245.35 278.55 247.15 277.95 248.50 277.50 C 249.25 279.45 250.25 282.05 251.00 284.00 C 251.75 285.95 252.75 288.55 253.47 290.53 C 254.19 292.51 255.13 295.17 255.81 297.19 C 256.49 299.21 257.30 302.00 258.00 304.00 C 258.70 306.00 259.75 308.55 260.50 310.50 C 261.55 312.15 262.95 314.35 264.00 316.00 C 266.25 315.85 269.25 315.65 271.50 315.50 C 272.85 314.15 274.69 312.39 276.00 311.00 C 277.31 309.61 279.05 307.75 280.25 306.25 C 281.45 304.75 283.06 302.76 284.00 301.00 C 284.94 299.24 285.75 296.45 286.50 294.50 C 287.55 293.15 288.95 291.35 290.00 290.00 C 291.95 290.75 294.61 292.56 296.50 292.50 C 298.39 292.44 300.83 290.53 302.62 289.62 C 304.42 288.72 306.73 287.43 308.47 286.47 C 310.20 285.50 312.45 284.15 314.19 283.19 C 315.92 282.22 318.25 280.95 320.03 280.03 C 321.81 279.11 324.21 277.91 326.03 277.03 C 327.85 276.15 330.30 275.00 332.16 274.16 C 334.01 273.31 336.49 272.19 338.38 271.38 C 340.26 270.56 342.76 269.46 344.72 268.72 C 346.67 267.97 349.33 267.03 351.41 266.41 C 353.48 265.78 356.36 265.06 358.53 264.53 C 360.71 264.01 363.66 263.36 365.91 262.91 C 368.15 262.45 371.18 261.88 373.50 261.50 C 375.82 261.12 379.00 260.70 381.41 260.41 C 383.81 260.11 387.06 259.76 389.53 259.53 C 392.00 259.30 395.33 259.01 397.88 258.88 C 400.42 258.74 403.91 258.62 406.50 258.62 C 409.09 258.62 412.58 258.74 415.12 258.88 C 417.67 259.01 421.00 259.30 423.47 259.53 C 425.94 259.76 429.19 260.11 431.59 260.41 C 433.99 260.71 437.16 261.14 439.47 261.53 C 441.78 261.92 444.75 262.55 447.00 263.00 C 449.25 263.45 452.25 264.05 454.50 264.50 C 457.05 264.65 460.45 264.85 463.00 265.00 C 463.45 262.75 464.05 259.75 464.50 257.50 C 463.15 256.15 461.43 254.28 460.00 253.00 C 458.57 251.72 456.51 250.19 455.00 249.00 C 453.49 247.81 451.49 246.21 449.94 245.06 C 448.39 243.91 446.28 242.42 444.66 241.34 C 443.03 240.27 440.79 238.91 439.09 237.91 C 437.40 236.90 435.09 235.61 433.34 234.66 C 431.60 233.70 429.25 232.45 427.47 231.53 C 425.69 230.61 423.29 229.41 421.47 228.53 C 419.65 227.65 417.20 226.50 415.34 225.66 C 413.49 224.81 411.00 223.70 409.12 222.88 C 407.25 222.05 404.74 220.96 402.84 220.16 C 400.95 219.35 398.40 218.30 396.47 217.53 C 394.54 216.76 391.94 215.76 389.97 215.03 C 388.00 214.30 385.35 213.35 383.34 212.66 C 381.34 211.96 378.65 211.05 376.62 210.38 C 374.60 209.70 371.89 208.81 369.84 208.16 C 367.80 207.50 365.05 206.65 362.97 206.03 C 360.89 205.41 358.10 204.59 355.97 204.03 C 353.84 203.47 350.97 202.72 348.75 202.31 C 346.53 201.91 343.47 201.47 341.16 201.34 C 338.84 201.22 335.66 201.33 333.31 201.50 C 330.96 201.67 327.80 202.43 325.50 202.50 C 323.20 202.57 320.25 202.15 318.00 202.00 C 316.50 200.80 314.50 199.20 313.00 198.00 C 312.10 196.20 310.90 193.80 310.00 192.00 C 310.30 189.60 310.70 186.40 311.00 184.00 C 312.20 182.50 313.80 180.50 315.00 179.00 C 317.25 178.55 320.19 177.89 322.50 177.50 C 324.81 177.11 328.10 176.80 330.41 176.41 C 332.72 176.02 335.75 175.45 337.91 174.91 C 340.06 174.36 342.76 173.46 344.75 172.75 C 346.74 172.04 349.24 170.94 351.19 170.19 C 353.14 169.44 355.73 168.43 357.75 167.75 C 359.77 167.07 362.56 166.26 364.69 165.69 C 366.81 165.11 369.71 164.41 371.91 163.91 C 374.10 163.40 377.07 162.77 379.34 162.34 C 381.62 161.92 384.73 161.41 387.06 161.06 C 389.40 160.72 392.58 160.31 394.91 160.03 C 397.24 159.75 400.28 159.42 402.59 159.22 C 404.91 159.02 407.94 158.82 410.34 158.72 Z"/></clipPath>
</defs>
<path d="M 410.34 158.72 C 412.75 158.62 416.08 158.56 418.62 158.56 C 421.17 158.56 424.71 158.62 427.28 158.72 C 429.85 158.82 433.28 159.02 435.78 159.22 C 438.28 159.42 441.55 159.75 443.97 160.03 C 446.39 160.31 449.59 160.71 451.94 161.06 C 454.29 161.41 457.37 161.93 459.62 162.38 C 461.88 162.82 464.79 163.51 466.97 164.03 C 469.14 164.56 472.00 165.30 474.12 165.88 C 476.25 166.45 479.08 167.22 481.16 167.84 C 483.23 168.47 485.94 169.36 487.94 170.06 C 489.93 170.77 492.54 171.76 494.47 172.53 C 496.40 173.30 498.93 174.37 500.78 175.22 C 502.63 176.07 505.03 177.27 506.78 178.22 C 508.53 179.17 510.79 180.51 512.47 181.53 C 514.15 182.55 516.35 183.95 518.00 185.00 C 519.65 186.05 521.85 187.45 523.47 188.53 C 525.09 189.61 527.23 191.07 528.78 192.22 C 530.33 193.37 532.32 194.98 533.78 196.22 C 535.24 197.46 537.10 199.20 538.50 200.50 C 539.90 201.80 541.74 203.56 543.09 204.91 C 544.44 206.26 546.23 208.07 547.50 209.50 C 548.77 210.93 550.39 212.91 551.56 214.44 C 552.73 215.97 554.23 218.07 555.31 219.69 C 556.39 221.31 557.77 223.53 558.75 225.25 C 559.73 226.97 560.94 229.36 561.81 231.19 C 562.69 233.01 563.80 235.50 564.59 237.41 C 565.39 239.31 566.43 241.87 567.12 243.88 C 567.82 245.88 568.68 248.63 569.22 250.78 C 569.75 252.93 570.36 255.92 570.69 258.19 C 571.01 260.45 571.30 263.55 571.38 265.88 C 571.45 268.20 571.37 271.32 571.22 273.66 C 571.07 275.99 570.72 279.15 570.38 281.44 C 570.03 283.73 569.45 286.76 568.94 288.94 C 568.42 291.11 567.59 293.89 566.94 295.94 C 566.29 297.99 565.34 300.64 564.59 302.59 C 563.85 304.55 562.82 307.12 561.97 308.97 C 561.12 310.82 559.86 313.16 558.94 314.94 C 558.02 316.72 556.65 318.96 555.84 320.84 C 555.03 322.72 554.02 325.33 553.53 327.47 C 553.04 329.61 552.71 332.76 552.56 335.12 C 552.41 337.49 552.58 340.85 552.53 343.22 C 552.48 345.59 552.49 348.71 552.22 350.91 C 551.95 353.10 551.35 355.88 550.75 357.88 C 550.15 359.87 549.10 362.42 548.22 364.22 C 547.34 366.02 546.00 368.30 544.88 369.88 C 543.75 371.45 542.06 373.36 540.69 374.69 C 539.32 376.02 537.33 377.63 535.75 378.75 C 534.17 379.87 531.95 381.25 530.12 382.12 C 528.30 383.00 525.67 384.00 523.56 384.56 C 521.45 385.12 518.35 385.66 516.06 385.88 C 513.77 386.09 510.56 386.16 508.31 386.00 C 506.07 385.84 503.16 385.31 501.09 384.78 C 499.03 384.25 496.49 383.18 494.53 382.47 C 492.58 381.76 490.06 380.61 488.06 380.06 C 486.06 379.51 483.27 378.91 481.19 378.81 C 479.10 378.71 476.22 379.02 474.16 379.41 C 472.09 379.80 469.41 380.75 467.41 381.41 C 465.40 382.07 462.81 383.11 460.81 383.81 C 458.82 384.52 456.14 385.44 454.09 386.09 C 452.05 386.75 449.28 387.58 447.16 388.16 C 445.03 388.73 442.13 389.43 439.91 389.91 C 437.68 390.38 434.63 390.93 432.31 391.31 C 429.99 391.69 426.84 392.14 424.44 392.44 C 422.03 392.73 418.77 393.08 416.28 393.28 C 413.79 393.48 410.38 393.68 407.81 393.75 C 405.24 393.82 401.74 393.83 399.16 393.78 C 396.57 393.73 393.12 393.57 390.59 393.41 C 388.07 393.24 384.77 392.93 382.34 392.66 C 379.92 392.38 376.75 391.95 374.41 391.59 C 372.06 391.24 368.96 390.74 366.69 390.31 C 364.41 389.89 361.43 389.27 359.25 388.75 C 357.07 388.23 354.26 387.44 352.19 386.81 C 350.11 386.19 347.43 385.26 345.41 384.59 C 343.38 383.93 340.74 382.93 338.69 382.38 C 336.64 381.82 333.86 381.08 331.75 380.88 C 329.64 380.67 326.73 380.72 324.62 381.00 C 322.52 381.28 319.79 382.15 317.75 382.75 C 315.71 383.35 313.12 384.42 311.03 385.03 C 308.95 385.65 306.05 386.35 303.84 386.84 C 301.64 387.34 298.51 387.81 296.31 388.31 C 294.11 388.81 291.24 389.54 289.19 390.19 C 287.14 390.84 284.59 391.89 282.66 392.66 C 280.72 393.42 278.25 394.55 276.28 395.28 C 274.31 396.01 271.67 396.97 269.53 397.53 C 267.39 398.09 264.38 398.71 262.03 399.03 C 259.68 399.35 256.32 399.60 253.84 399.66 C 251.37 399.71 247.96 399.60 245.53 399.41 C 243.10 399.21 239.93 398.76 237.62 398.38 C 235.32 397.99 232.38 397.32 230.19 396.81 C 228.00 396.30 225.16 395.54 223.03 394.97 C 220.90 394.40 218.10 393.60 216.00 393.00 C 213.90 392.40 211.10 391.60 209.03 390.97 C 206.96 390.34 204.21 389.49 202.19 388.81 C 200.17 388.13 197.52 387.18 195.56 386.44 C 193.61 385.69 191.06 384.64 189.16 383.84 C 187.25 383.05 184.75 381.95 182.88 381.12 C 181.00 380.30 178.51 379.19 176.66 378.34 C 174.80 377.50 172.32 376.38 170.50 375.50 C 168.68 374.62 166.30 373.40 164.50 372.50 C 163.45 370.85 162.05 368.65 161.00 367.00 C 162.20 365.50 163.80 363.50 165.00 362.00 C 166.95 361.25 169.52 360.22 171.50 359.50 C 173.48 358.78 176.16 357.86 178.19 357.19 C 180.22 356.52 182.96 355.66 185.03 355.03 C 187.10 354.40 189.92 353.62 192.00 353.00 C 194.08 352.38 196.90 351.60 198.91 350.91 C 200.92 350.22 203.59 349.29 205.41 348.41 C 207.22 347.52 209.53 346.23 211.03 345.03 C 212.53 343.83 214.26 341.96 215.41 340.41 C 216.55 338.85 217.77 336.47 218.69 334.69 C 219.61 332.91 220.68 330.38 221.53 328.53 C 222.38 326.68 223.50 324.20 224.34 322.34 C 225.19 320.49 226.31 318.01 227.16 316.16 C 228.00 314.30 229.15 311.85 230.00 310.00 C 230.85 308.15 232.00 305.70 232.84 303.84 C 233.69 301.99 234.80 299.50 235.66 297.66 C 236.51 295.81 237.65 293.35 238.53 291.53 C 239.41 289.71 240.68 287.38 241.50 285.50 C 242.32 283.62 243.25 280.95 244.00 279.00 C 245.35 278.55 247.15 277.95 248.50 277.50 C 249.25 279.45 250.25 282.05 251.00 284.00 C 251.75 285.95 252.75 288.55 253.47 290.53 C 254.19 292.51 255.13 295.17 255.81 297.19 C 256.49 299.21 257.30 302.00 258.00 304.00 C 258.70 306.00 259.75 308.55 260.50 310.50 C 261.55 312.15 262.95 314.35 264.00 316.00 C 266.25 315.85 269.25 315.65 271.50 315.50 C 272.85 314.15 274.69 312.39 276.00 311.00 C 277.31 309.61 279.05 307.75 280.25 306.25 C 281.45 304.75 283.06 302.76 284.00 301.00 C 284.94 299.24 285.75 296.45 286.50 294.50 C 287.55 293.15 288.95 291.35 290.00 290.00 C 291.95 290.75 294.61 292.56 296.50 292.50 C 298.39 292.44 300.83 290.53 302.62 289.62 C 304.42 288.72 306.73 287.43 308.47 286.47 C 310.20 285.50 312.45 284.15 314.19 283.19 C 315.92 282.22 318.25 280.95 320.03 280.03 C 321.81 279.11 324.21 277.91 326.03 277.03 C 327.85 276.15 330.30 275.00 332.16 274.16 C 334.01 273.31 336.49 272.19 338.38 271.38 C 340.26 270.56 342.76 269.46 344.72 268.72 C 346.67 267.97 349.33 267.03 351.41 266.41 C 353.48 265.78 356.36 265.06 358.53 264.53 C 360.71 264.01 363.66 263.36 365.91 262.91 C 368.15 262.45 371.18 261.88 373.50 261.50 C 375.82 261.12 379.00 260.70 381.41 260.41 C 383.81 260.11 387.06 259.76 389.53 259.53 C 392.00 259.30 395.33 259.01 397.88 258.88 C 400.42 258.74 403.91 258.62 406.50 258.62 C 409.09 258.62 412.58 258.74 415.12 258.88 C 417.67 259.01 421.00 259.30 423.47 259.53 C 425.94 259.76 429.19 260.11 431.59 260.41 C 433.99 260.71 437.16 261.14 439.47 261.53 C 441.78 261.92 444.75 262.55 447.00 263.00 C 449.25 263.45 452.25 264.05 454.50 264.50 C 457.05 264.65 460.45 264.85 463.00 265.00 C 463.45 262.75 464.05 259.75 464.50 257.50 C 463.15 256.15 461.43 254.28 460.00 253.00 C 458.57 251.72 456.51 250.19 455.00 249.00 C 453.49 247.81 451.49 246.21 449.94 245.06 C 448.39 243.91 446.28 242.42 444.66 241.34 C 443.03 240.27 440.79 238.91 439.09 237.91 C 437.40 236.90 435.09 235.61 433.34 234.66 C 431.60 233.70 429.25 232.45 427.47 231.53 C 425.69 230.61 423.29 229.41 421.47 228.53 C 419.65 227.65 417.20 226.50 415.34 225.66 C 413.49 224.81 411.00 223.70 409.12 222.88 C 407.25 222.05 404.74 220.96 402.84 220.16 C 400.95 219.35 398.40 218.30 396.47 217.53 C 394.54 216.76 391.94 215.76 389.97 215.03 C 388.00 214.30 385.35 213.35 383.34 212.66 C 381.34 211.96 378.65 211.05 376.62 210.38 C 374.60 209.70 371.89 208.81 369.84 208.16 C 367.80 207.50 365.05 206.65 362.97 206.03 C 360.89 205.41 358.10 204.59 355.97 204.03 C 353.84 203.47 350.97 202.72 348.75 202.31 C 346.53 201.91 343.47 201.47 341.16 201.34 C 338.84 201.22 335.66 201.33 333.31 201.50 C 330.96 201.67 327.80 202.43 325.50 202.50 C 323.20 202.57 320.25 202.15 318.00 202.00 C 316.50 200.80 314.50 199.20 313.00 198.00 C 312.10 196.20 310.90 193.80 310.00 192.00 C 310.30 189.60 310.70 186.40 311.00 184.00 C 312.20 182.50 313.80 180.50 315.00 179.00 C 317.25 178.55 320.19 177.89 322.50 177.50 C 324.81 177.11 328.10 176.80 330.41 176.41 C 332.72 176.02 335.75 175.45 337.91 174.91 C 340.06 174.36 342.76 173.46 344.75 172.75 C 346.74 172.04 349.24 170.94 351.19 170.19 C 353.14 169.44 355.73 168.43 357.75 167.75 C 359.77 167.07 362.56 166.26 364.69 165.69 C 366.81 165.11 369.71 164.41 371.91 163.91 C 374.10 163.40 377.07 162.77 379.34 162.34 C 381.62 161.92 384.73 161.41 387.06 161.06 C 389.40 160.72 392.58 160.31 394.91 160.03 C 397.24 159.75 400.28 159.42 402.59 159.22 C 404.91 159.02 407.94 158.82 410.34 158.72 Z" fill="url(#bs3)"/>
<g clip-path="url(#cs3)" fill="none" stroke-width="7.5" stroke-linecap="round" stroke-linejoin="round">
<path d="M 410.3 158.7 L 411.9 158.7 L 413.6 158.6 L 415.3 158.6 L 417 158.6 L 418.6 158.6 L 420.3 158.6 L 422 158.6" stroke="#F2ECDC" stroke-opacity="0.337"/>
<path d="M 422 158.6 L 423.9 158.6 L 425.6 158.7 L 427.3 158.7 L 428.9 158.8 L 430.7 158.9 L 432.4 159 L 434.2 159.1" stroke="#F2ECDC" stroke-opacity="0.379"/>
<path d="M 434.2 159.1 L 435.8 159.2 L 437.4 159.4 L 439 159.5 L 440.8 159.7 L 442.4 159.9 L 444 160 L 445.5 160.2" stroke="#F2ECDC" stroke-opacity="0.421"/>
<path d="M 445.5 160.2 L 447.1 160.4 L 448.8 160.6 L 450.4 160.8 L 451.9 161.1 L 453.4 161.3 L 455 161.5 L 456.6 161.8" stroke="#F2ECDC" stroke-opacity="0.458"/>
<path d="M 456.6 161.8 L 458.2 162.1 L 459.6 162.4 L 461 162.7 L 462.6 163 L 464.1 163.3 L 465.6 163.7 L 467 164" stroke="#F2ECDC" stroke-opacity="0.5"/>
<path d="M 467 164 L 468.3 164.4 L 469.8 164.7 L 471.3 165.1 L 472.8 165.5 L 474.1 165.9 L 475.5 166.2 L 476.9 166.6" stroke="#F2ECDC" stroke-opacity="0.532"/>
<path d="M 476.9 166.6 L 478.4 167 L 479.8 167.5 L 481.2 167.8 L 482.5 168.2 L 483.9 168.7 L 485.3 169.2 L 486.7 169.6" stroke="#F2ECDC" stroke-opacity="0.559"/>
<path d="M 486.7 169.6 L 487.9 170.1 L 489.2 170.5 L 490.5 171 L 491.9 171.5 L 493.2 172 L 494.5 172.5 L 495.7 173" stroke="#F2ECDC" stroke-opacity="0.589"/>
<path d="M 495.7 173 L 497 173.6 L 498.3 174.1 L 499.6 174.7 L 500.8 175.2 L 501.9 175.8 L 503.2 176.4 L 504.4 177" stroke="#F2ECDC" stroke-opacity="0.615"/>
<path d="M 504.4 177 L 505.7 177.6 L 506.8 178.2 L 507.9 178.8 L 509.1 179.5 L 510.2 180.2 L 511.4 180.9 L 512.5 181.5" stroke="#F2ECDC" stroke-opacity="0.637"/>
<path d="M 512.5 181.5 L 513.5 182.2 L 514.7 182.9 L 515.8 183.6 L 517 184.3 L 518 185 L 519 185.7 L 520.2 186.4" stroke="#F2ECDC" stroke-opacity="0.645"/>
<path d="M 520.2 186.4 L 521.3 187.1 L 522.4 187.8 L 523.5 188.5 L 524.5 189.2 L 525.6 190 L 526.7 190.7 L 527.8 191.5" stroke="#F2ECDC" stroke-opacity="0.646"/>
<path d="M 527.8 191.5 L 528.8 192.2 L 529.8 193 L 530.8 193.8 L 531.8 194.6 L 532.8 195.4 L 533.8 196.2 L 534.7 197" stroke="#F2ECDC" stroke-opacity="0.645"/>
<path d="M 534.7 197 L 535.7 197.9 L 536.7 198.8 L 537.6 199.7 L 538.5 200.5 L 539.4 201.3 L 540.3 202.2 L 541.3 203.1" stroke="#F2ECDC" stroke-opacity="0.636"/>
<path d="M 541.3 203.1 L 542.2 204.1 L 543.1 204.9 L 543.9 205.8 L 544.9 206.7 L 545.8 207.7 L 546.7 208.6 L 547.5 209.5" stroke="#F2ECDC" stroke-opacity="0.62"/>
<path d="M 547.5 209.5 L 548.3 210.4 L 549.1 211.4 L 550 212.5 L 550.8 213.5 L 551.6 214.4 L 552.3 215.4 L 553.1 216.5" stroke="#F2ECDC" stroke-opacity="0.59"/>
<path d="M 553.1 216.5 L 553.9 217.6 L 554.6 218.7 L 555.3 219.7 L 556 220.7 L 556.7 221.8 L 557.4 223 L 558.1 224.2" stroke="#F2ECDC" stroke-opacity="0.549"/>
<path d="M 558.1 224.2 L 558.8 225.2 L 559.4 226.4 L 560 227.6 L 560.6 228.8 L 561.3 230 L 561.8 231.2 L 562.4 232.4" stroke="#F2ECDC" stroke-opacity="0.496"/>
<path d="M 562.4 232.4 L 562.9 233.6 L 563.5 234.9 L 564.1 236.2 L 564.6 237.4 L 565.1 238.6 L 565.6 239.9 L 566.2 241.3" stroke="#F2ECDC" stroke-opacity="0.446"/>
<path d="M 566.2 241.3 L 566.7 242.6 L 567.1 243.9 L 567.6 245.2 L 568 246.6 L 568.5 248 L 568.9 249.4 L 569.2 250.8" stroke="#F2ECDC" stroke-opacity="0.385"/>
<path d="M 569.2 250.8 L 569.5 252.2 L 569.9 253.7 L 570.2 255.2 L 570.5 256.8 L 570.7 258.2 L 570.9 259.6 L 571 261.2" stroke="#F1EBDB" stroke-opacity="0.303"/>
<path d="M 571 261.2 L 571.2 262.8 L 571.3 264.4 L 571.4 265.9 L 571.4 267.4 L 571.4 268.9 L 571.4 270.6 L 571.3 272.2" stroke="#F0E9DA" stroke-opacity="0.215"/>
<path d="M 571.3 272.2 L 571.2 273.7 L 571.1 275.1 L 571 276.7 L 570.8 278.4 L 570.6 280 L 570.4 281.4 L 570.1 282.9" stroke="#EFE7D9" stroke-opacity="0.145"/>
<path d="M 570.1 282.9 L 569.9 284.4 L 569.6 286 L 569.3 287.5 L 568.9 288.9 L 568.6 290.3 L 568.2 291.8 L 567.8 293.2" stroke="#EEE5D8" stroke-opacity="0.091"/>
<path d="M 553.3 328.9 L 553 330.4 L 552.8 332 L 552.7 333.6 L 552.6 335.1 L 552.5 336.6 L 552.5 338.3 L 552.5 340" stroke="#E9DBD1" stroke-opacity="0.096"/>
<path d="M 552.5 340 L 552.5 341.7 L 552.5 343.2 L 552.5 344.7 L 552.5 346.3 L 552.4 347.9 L 552.3 349.5 L 552.2 350.9" stroke="#E8D9D0" stroke-opacity="0.097"/>
<path d="M 249.5 280.1 L 250 281.4 L 250.5 282.8 L 251 284 L 251.5 285.2 L 252 286.6 L 252.5 287.9 L 253 289.3" stroke="#DDC4C3" stroke-opacity="0.069"/>
<path d="M 253 289.3 L 253.5 290.5 L 253.9 291.8 L 254.4 293.1 L 254.9 294.5 L 255.4 295.9 L 255.8 297.2 L 256.2 298.5" stroke="#DCC3C2" stroke-opacity="0.063"/>
<path d="M 259.5 307.9 L 260 309.3 L 260.5 310.5 L 261.2 311.5 L 261.9 312.7 L 262.6 313.8 L 263.3 315 L 264 316" stroke="#DBC0C0" stroke-opacity="0.062"/>
<path d="M 347.3 267.8 L 348.7 267.3 L 350.1 266.8 L 351.4 266.4 L 352.7 266 L 354.2 265.6 L 355.7 265.2 L 357.2 264.9" stroke="#E4D2CC" stroke-opacity="0.068"/>
<path d="M 357.2 264.9 L 358.5 264.5 L 359.9 264.2 L 361.4 263.9 L 363 263.5 L 364.5 263.2 L 365.9 262.9 L 367.3 262.6" stroke="#E5D4CD" stroke-opacity="0.086"/>
<path d="M 367.3 262.6 L 368.9 262.3 L 370.5 262 L 372 261.7 L 373.5 261.5 L 375 261.3 L 376.6 261 L 378.3 260.8" stroke="#E6D5CE" stroke-opacity="0.103"/>
<path d="M 378.3 260.8 L 379.9 260.6 L 381.4 260.4 L 382.9 260.2 L 384.6 260 L 386.3 259.9 L 388 259.7 L 389.5 259.5" stroke="#E7D7CE" stroke-opacity="0.121"/>
<path d="M 389.5 259.5 L 391.1 259.4 L 392.8 259.2 L 394.5 259.1 L 396.3 259 L 397.9 258.9 L 399.5 258.8 L 401.3 258.7" stroke="#E7D8CF" stroke-opacity="0.14"/>
<path d="M 401.3 258.7 L 403.1 258.7 L 404.9 258.6 L 406.5 258.6 L 408.1 258.6 L 409.9 258.7 L 411.7 258.7 L 413.5 258.8" stroke="#E8D9D0" stroke-opacity="0.166"/>
<path d="M 413.5 258.8 L 415.1 258.9 L 416.7 259 L 418.5 259.1 L 420.2 259.2 L 421.9 259.4 L 423.5 259.5 L 425 259.7" stroke="#E9DBD1" stroke-opacity="0.191"/>
<path d="M 425 259.7 L 426.7 259.9 L 428.4 260 L 430.1 260.2 L 431.6 260.4 L 433.1 260.6 L 434.7 260.8 L 436.4 261.1" stroke="#E9DCD2" stroke-opacity="0.211"/>
<path d="M 436.4 261.1 L 438 261.3 L 439.5 261.5 L 440.9 261.8 L 442.5 262.1 L 444 262.4 L 445.6 262.7 L 447 263" stroke="#EADCD2" stroke-opacity="0.232"/>
<path d="M 447 263 L 448.4 263.3 L 450 263.6 L 451.5 263.9 L 453.1 264.2 L 454.5 264.5 L 456.1 264.6 L 457.9 264.7" stroke="#EADDD3" stroke-opacity="0.23"/>
<path d="M 457.9 264.7 L 459.6 264.8 L 461.4 264.9 L 463 265 L 463.3 263.6 L 463.6 262 L 463.9 260.5 L 464.2 258.9" stroke="#EBDED3" stroke-opacity="0.088"/>
<path d="M 312.6 182 L 313.4 181 L 314.2 180 L 315 179 L 316.4 178.7 L 317.9 178.4 L 319.5 178.1 L 321 177.8" stroke="#EBDED3" stroke-opacity="0.079"/>
<path d="M 321 177.8 L 322.5 177.5 L 324 177.3 L 325.6 177.1 L 327.3 176.8 L 328.9 176.6 L 330.4 176.4 L 331.9 176.2" stroke="#EBE0D4" stroke-opacity="0.163"/>
<path d="M 331.9 176.2 L 333.4 175.9 L 335 175.6 L 336.5 175.2 L 337.9 174.9 L 339.3 174.5 L 340.7 174.1 L 342.1 173.7" stroke="#ECE1D5" stroke-opacity="0.145"/>
<path d="M 342.1 173.7 L 343.5 173.2 L 344.8 172.8 L 346 172.3 L 347.3 171.8 L 348.7 171.2 L 350 170.7 L 351.2 170.2" stroke="#EDE3D6" stroke-opacity="0.114"/>
<path d="M 351.2 170.2 L 352.4 169.7 L 353.8 169.2 L 355.1 168.7 L 356.5 168.2 L 357.8 167.8 L 359 167.3 L 360.5 166.9" stroke="#EEE4D7" stroke-opacity="0.127"/>
<path d="M 360.5 166.9 L 361.9 166.5 L 363.3 166.1 L 364.7 165.7 L 366 165.3 L 367.5 165 L 369 164.6 L 370.5 164.2" stroke="#EFE6D8" stroke-opacity="0.165"/>
<path d="M 370.5 164.2 L 371.9 163.9 L 373.3 163.6 L 374.8 163.3 L 376.4 162.9 L 377.9 162.6 L 379.3 162.3 L 380.8 162.1" stroke="#EFE7D9" stroke-opacity="0.199"/>
<path d="M 380.8 162.1 L 382.4 161.8 L 384 161.5 L 385.6 161.3 L 387.1 161.1 L 388.6 160.8 L 390.2 160.6 L 391.8 160.4" stroke="#F0E9DA" stroke-opacity="0.234"/>
<path d="M 391.8 160.4 L 393.4 160.2 L 394.9 160 L 396.4 159.9 L 398 159.7 L 399.6 159.5 L 401.1 159.4 L 402.6 159.2" stroke="#F1EADB" stroke-opacity="0.267"/>
<path d="M 402.6 159.2 L 404.1 159.1 L 405.6 159 L 407.2 158.9 L 408.8 158.8 L 410.3 158.7 L 411.9 158.7 L 413.6 158.6" stroke="#F2ECDC" stroke-opacity="0.306"/>
</g>
</svg>
