<svg xmlns="http://www.w3.org/2000/svg" viewBox="-14 109.66 824.52 384.35">
<defs>
<linearGradient id="bp20" x1="0" y1="0" x2="0.25" y2="1"><stop offset="0" stop-color="#1F202A"/><stop offset="1" stop-color="#191A23"/></linearGradient>
<clipPath id="cp20"><path d="M 742.27 123.66 C 743.20 124.40 744.44 125.39 745.37 126.14 C 746.11 127.07 747.11 128.31 747.85 129.24 C 748.59 130.17 749.58 131.41 750.31 132.36 C 751.04 133.30 752.00 134.58 752.71 135.54 C 753.43 136.49 754.36 137.79 755.08 138.75 C 755.79 139.71 756.75 140.98 757.48 141.93 C 758.21 142.88 759.19 144.13 759.92 145.07 C 760.66 146.01 761.61 147.29 762.38 148.19 C 763.15 149.09 764.17 150.30 765.07 151.07 C 765.98 151.84 767.27 152.78 768.41 153.32 C 769.54 153.86 771.25 154.38 772.63 154.68 C 774.01 154.97 776.06 155.16 777.59 155.30 C 779.13 155.44 781.28 155.52 782.86 155.61 C 784.44 155.70 786.61 155.76 788.15 155.90 C 789.69 156.04 791.62 156.33 793.11 156.52 C 794.13 157.17 795.50 158.04 796.52 158.69 C 796.15 159.80 795.65 161.29 795.28 162.41 C 794.35 163.15 793.12 164.16 792.18 164.89 C 791.24 165.62 789.95 166.56 788.98 167.27 C 788.02 167.98 786.72 168.92 785.75 169.62 C 784.77 170.31 783.46 171.24 782.47 171.92 C 781.49 172.61 780.17 173.52 779.16 174.19 C 778.15 174.85 776.77 175.71 775.75 176.36 C 775.19 177.47 774.45 178.96 773.89 180.08 C 774.08 181.57 774.25 183.64 774.51 185.04 C 774.77 186.43 775.41 188.04 775.60 189.38 C 775.78 190.71 775.86 192.60 775.73 193.93 C 775.60 195.27 775.13 197.04 774.72 198.27 C 774.31 199.50 773.56 201.01 773.00 202.13 C 772.44 203.24 771.61 204.65 771.00 205.71 C 770.39 206.78 769.55 208.16 768.93 209.22 C 768.31 210.27 767.48 211.67 766.88 212.75 C 766.27 213.82 765.49 215.27 764.92 216.37 C 764.35 217.47 763.60 218.96 763.06 220.09 C 762.52 221.22 761.80 222.74 761.30 223.91 C 760.79 225.07 760.13 226.64 759.67 227.86 C 759.21 229.08 758.62 230.72 758.25 232.02 C 757.89 233.33 757.46 235.13 757.21 236.56 C 756.96 237.98 756.73 239.99 756.59 241.52 C 756.44 243.05 756.32 245.16 756.24 246.75 C 756.16 248.34 756.07 250.49 756.03 252.12 C 755.98 253.74 755.95 255.94 755.93 257.60 C 755.91 259.25 755.91 261.49 755.91 263.16 C 755.91 264.83 755.91 267.06 755.91 268.74 C 755.91 270.41 755.91 272.65 755.91 274.32 C 755.91 275.99 755.91 278.22 755.93 279.88 C 755.94 281.54 755.98 283.74 756.01 285.38 C 756.04 287.03 756.09 289.20 756.12 290.85 C 756.15 292.49 756.19 294.69 756.20 296.35 C 756.22 298.01 756.22 300.24 756.22 301.91 C 756.22 303.58 756.22 305.81 756.22 307.49 C 756.22 309.16 756.22 311.39 756.22 313.07 C 756.22 314.74 756.13 317.07 756.22 318.65 C 756.31 320.23 756.65 322.12 756.84 323.61 C 758.14 323.98 759.92 324.43 761.18 324.85 C 762.44 325.27 764.00 325.93 765.21 326.40 C 765.86 327.42 766.73 328.79 767.38 329.81 C 766.82 330.92 766.08 332.41 765.52 333.53 C 764.40 334.09 763.09 335.00 761.80 335.39 C 760.51 335.78 758.41 335.91 756.94 336.11 C 755.46 336.31 753.46 336.54 751.98 336.73 C 750.49 336.91 748.51 337.16 747.04 337.37 C 745.57 337.57 743.64 337.87 742.17 338.08 C 740.71 338.29 738.76 338.58 737.27 338.76 C 735.78 338.94 733.77 339.16 732.23 339.30 C 730.70 339.44 728.62 339.60 727.04 339.69 C 725.46 339.78 723.32 339.88 721.69 339.92 C 720.07 339.97 717.87 340.00 716.23 340.00 C 714.59 340.00 712.39 339.97 710.75 339.94 C 709.11 339.91 706.93 339.85 705.30 339.81 C 703.67 339.76 701.51 339.70 699.88 339.65 C 698.25 339.60 696.08 339.55 694.45 339.50 C 692.83 339.45 690.66 339.38 689.05 339.32 C 687.43 339.26 685.29 339.17 683.70 339.09 C 682.10 339.01 679.98 338.91 678.41 338.80 C 676.84 338.69 674.74 338.57 673.26 338.37 C 671.78 338.18 669.86 337.87 668.55 337.50 C 667.24 337.13 665.65 336.49 664.54 335.93 C 663.42 335.37 662.11 334.45 661.11 333.78 C 660.11 333.11 658.87 332.12 657.87 331.44 C 656.88 330.76 655.52 329.88 654.48 329.25 C 653.44 328.61 651.99 327.83 650.96 327.19 C 649.92 326.55 648.55 325.69 647.58 324.98 C 646.62 324.28 645.43 323.24 644.50 322.49 C 643.58 321.73 642.43 320.65 641.44 319.97 C 640.45 319.28 639.06 318.44 637.90 317.93 C 636.73 317.42 635.00 316.92 633.69 316.56 C 632.38 316.19 630.50 315.84 629.16 315.51 C 627.82 315.18 626.01 314.75 624.74 314.35 C 623.47 313.94 621.86 313.33 620.69 312.82 C 619.53 312.31 618.06 311.54 616.97 310.96 C 615.88 310.38 614.46 309.56 613.41 308.94 C 612.35 308.33 610.96 307.49 609.92 306.85 C 608.88 306.21 607.51 305.35 606.49 304.70 C 605.47 304.05 604.11 303.17 603.10 302.51 C 602.09 301.84 600.76 300.94 599.77 300.26 C 598.78 299.58 597.47 298.65 596.49 297.96 C 595.51 297.26 594.21 296.33 593.24 295.63 C 592.26 294.93 590.96 294.00 589.98 293.31 C 589.01 292.61 587.70 291.68 586.73 290.98 C 585.75 290.28 584.45 289.36 583.47 288.66 C 582.50 287.96 581.20 287.02 580.24 286.31 C 579.27 285.60 578.00 284.64 577.06 283.91 C 576.11 283.18 574.87 282.19 573.94 281.45 C 573.01 280.71 571.77 279.71 570.84 278.97 C 569.91 278.22 568.67 277.23 567.74 276.49 C 566.81 275.74 565.57 274.75 564.64 274.01 C 563.71 273.26 562.47 272.28 561.54 271.53 C 560.61 270.78 559.37 269.79 558.46 269.03 C 557.54 268.27 556.33 267.25 555.44 266.47 C 554.54 265.70 553.36 264.65 552.47 263.86 C 551.59 263.07 550.42 262.00 549.55 261.20 C 548.67 260.40 547.52 259.32 546.66 258.51 C 545.80 257.70 544.65 256.62 543.79 255.80 C 542.94 254.98 541.80 253.88 540.96 253.05 C 540.13 252.21 539.05 251.05 538.23 250.20 C 537.42 249.34 536.37 248.15 535.52 247.33 C 534.67 246.50 533.52 245.42 532.57 244.69 C 531.63 243.96 530.27 243.09 529.22 242.47 C 528.17 241.84 526.68 241.10 525.58 240.53 C 524.48 239.96 522.98 239.23 521.86 238.67 C 521.30 237.55 520.56 236.06 520.00 234.95 C 520.09 233.55 520.22 231.69 520.31 230.30 C 520.87 229.18 521.61 227.69 522.17 226.58 C 523.10 225.83 524.34 224.84 525.27 224.10 C 526.57 223.91 528.35 223.35 529.61 223.48 C 530.87 223.61 532.43 224.57 533.68 224.99 C 534.93 225.41 536.61 225.97 537.96 226.29 C 539.31 226.61 541.21 226.95 542.69 227.14 C 544.17 227.34 546.27 227.46 547.82 227.59 C 549.37 227.71 551.49 227.82 553.03 227.95 C 554.57 228.09 556.60 228.29 558.09 228.48 C 559.58 228.66 561.53 228.95 562.97 229.18 C 564.42 229.40 566.31 229.74 567.72 230.01 C 569.13 230.27 570.99 230.65 572.37 230.94 C 573.75 231.23 575.58 231.63 576.94 231.95 C 578.31 232.26 580.11 232.69 581.46 233.01 C 582.81 233.34 584.60 233.78 585.93 234.12 C 587.27 234.46 589.04 234.92 590.35 235.28 C 591.66 235.64 593.40 236.13 594.69 236.52 C 595.98 236.90 597.68 237.44 598.93 237.86 C 600.19 238.27 601.83 238.86 603.06 239.31 C 604.29 239.76 605.90 240.38 607.11 240.84 C 608.32 241.30 609.93 241.92 611.14 242.39 C 612.35 242.85 613.96 243.47 615.17 243.94 C 616.38 244.41 617.99 245.03 619.18 245.51 C 620.37 245.99 621.95 246.64 623.11 247.16 C 624.28 247.67 625.80 248.38 626.93 248.92 C 628.06 249.46 629.55 250.20 630.67 250.76 C 631.79 251.31 633.23 252.11 634.39 252.62 C 635.55 253.13 637.21 253.70 638.42 254.17 C 640.00 254.08 642.11 253.95 643.69 253.86 C 644.53 253.02 645.56 251.83 646.48 251.07 C 647.40 250.31 648.78 249.46 649.79 248.80 C 650.81 248.14 652.19 247.29 653.24 246.67 C 654.29 246.05 655.73 245.25 656.81 244.66 C 657.89 244.06 659.35 243.29 660.43 242.70 C 661.51 242.11 662.97 241.33 664.03 240.72 C 665.10 240.12 666.50 239.28 667.54 238.65 C 668.58 238.02 669.94 237.15 670.97 236.50 C 672.00 235.85 673.36 234.98 674.38 234.33 C 675.40 233.68 676.77 232.81 677.79 232.16 C 678.81 231.51 680.18 230.64 681.20 229.99 C 682.22 229.34 683.59 228.47 684.61 227.82 C 685.63 227.16 687.00 226.30 688.00 225.63 C 689.01 224.96 690.34 224.06 691.31 223.36 C 692.29 222.67 693.56 221.71 694.51 220.98 C 695.46 220.25 696.69 219.26 697.63 218.52 C 698.57 217.78 699.80 216.78 700.75 216.06 C 701.70 215.33 702.97 214.37 703.95 213.68 C 704.92 212.98 706.24 212.06 707.26 211.41 C 708.28 210.75 709.65 209.89 710.73 209.30 C 711.81 208.70 713.32 207.98 714.47 207.46 C 715.62 206.93 717.25 206.33 718.40 205.81 C 719.55 205.29 721.08 204.58 722.14 203.97 C 723.20 203.35 724.52 202.44 725.47 201.72 C 726.43 201.00 727.62 199.96 728.51 199.18 C 729.41 198.40 730.52 197.28 731.42 196.51 C 732.32 195.74 733.59 194.77 734.52 194.03 C 734.99 192.82 735.60 191.21 736.07 190.00 C 735.60 188.79 735.10 187.06 734.52 185.97 C 733.94 184.88 732.83 183.75 732.19 182.71 C 731.56 181.67 730.80 180.20 730.30 179.03 C 729.79 177.86 729.25 176.18 728.82 174.93 C 728.40 173.67 727.90 171.94 727.49 170.68 C 727.07 169.42 726.48 167.78 726.07 166.52 C 725.66 165.25 725.09 163.60 724.75 162.25 C 724.42 160.91 724.07 159.03 723.86 157.56 C 723.65 156.10 723.50 154.02 723.36 152.49 C 723.22 150.95 723.07 148.87 722.93 147.34 C 722.79 145.80 722.55 143.81 722.43 142.26 C 722.31 140.71 722.21 138.57 722.12 136.99 C 722.86 137.17 723.86 137.42 724.60 137.61 C 725.25 138.63 726.12 140.00 726.77 141.02 C 727.42 142.04 728.29 143.41 728.94 144.43 C 729.59 145.45 730.46 146.82 731.11 147.84 C 732.41 148.21 734.15 148.71 735.45 149.08 C 736.47 148.43 737.84 147.56 738.86 146.91 C 739.05 145.42 739.29 143.44 739.48 141.95 C 739.67 140.46 739.91 138.48 740.10 136.99 C 740.29 135.50 740.53 133.52 740.72 132.03 C 740.91 130.54 741.15 128.56 741.34 127.07 C 741.62 126.05 741.99 124.68 742.27 123.66 Z"/></clipPath>
<linearGradient id="bp21" x1="0" y1="0" x2="0.25" y2="1"><stop offset="0" stop-color="#2B2C38"/><stop offset="1" stop-color="#20212B"/></linearGradient>
<clipPath id="cp21"><path d="M 234.38 253.52 C 236.64 253.43 239.78 253.37 242.17 253.37 C 244.56 253.37 247.89 253.43 250.30 253.52 C 252.72 253.61 255.94 253.80 258.29 253.99 C 260.65 254.17 263.71 254.49 265.99 254.75 C 268.27 255.01 271.27 255.39 273.48 255.72 C 275.69 256.05 278.59 256.54 280.71 256.96 C 282.83 257.37 285.57 258.02 287.61 258.51 C 289.66 259.01 292.34 259.71 294.34 260.25 C 296.34 260.78 299.00 261.51 300.95 262.10 C 302.89 262.69 305.44 263.52 307.32 264.18 C 309.20 264.84 311.65 265.78 313.46 266.50 C 315.27 267.23 317.66 268.23 319.39 269.03 C 321.13 269.83 323.39 270.96 325.03 271.85 C 326.68 272.74 328.80 274.01 330.38 274.96 C 331.96 275.92 334.03 277.24 335.58 278.22 C 337.13 279.21 339.20 280.52 340.72 281.54 C 342.24 282.56 344.26 283.92 345.71 285.01 C 347.17 286.09 349.04 287.60 350.41 288.77 C 351.78 289.94 353.54 291.57 354.85 292.79 C 356.16 294.02 357.90 295.67 359.17 296.94 C 360.44 298.20 362.12 299.91 363.31 301.25 C 364.50 302.60 366.03 304.46 367.13 305.89 C 368.23 307.33 369.64 309.30 370.65 310.83 C 371.67 312.35 372.97 314.44 373.88 316.06 C 374.80 317.68 375.94 319.93 376.76 321.64 C 377.59 323.35 378.63 325.70 379.38 327.49 C 380.13 329.27 381.11 331.68 381.76 333.57 C 382.41 335.45 383.22 338.04 383.73 340.06 C 384.23 342.08 384.80 344.89 385.11 347.02 C 385.41 349.15 385.68 352.06 385.75 354.25 C 385.83 356.43 385.75 359.37 385.61 361.56 C 385.46 363.75 385.13 366.72 384.81 368.87 C 384.49 371.03 383.95 373.88 383.46 375.92 C 382.98 377.97 382.19 380.58 381.58 382.50 C 380.97 384.43 380.08 386.92 379.38 388.76 C 378.68 390.60 377.71 393.01 376.91 394.75 C 376.11 396.49 374.92 398.69 374.06 400.36 C 373.20 402.04 371.92 404.15 371.15 405.92 C 370.39 407.68 369.44 410.13 368.98 412.14 C 368.52 414.16 368.21 417.12 368.07 419.34 C 367.93 421.56 368.09 424.72 368.04 426.95 C 367.99 429.17 368.00 432.11 367.75 434.18 C 367.49 436.24 366.93 438.85 366.36 440.73 C 365.80 442.60 364.81 445.00 363.99 446.69 C 363.16 448.38 361.90 450.53 360.84 452.01 C 359.78 453.48 358.19 455.28 356.91 456.53 C 355.62 457.78 353.75 459.30 352.26 460.35 C 350.78 461.40 348.70 462.70 346.98 463.52 C 345.26 464.34 342.79 465.28 340.81 465.81 C 338.83 466.34 335.91 466.84 333.76 467.05 C 331.61 467.25 328.58 467.32 326.47 467.16 C 324.36 467.01 321.63 466.52 319.69 466.02 C 317.74 465.52 315.36 464.51 313.52 463.84 C 311.68 463.18 309.32 462.10 307.44 461.58 C 305.56 461.07 302.94 460.50 300.98 460.41 C 299.02 460.31 296.31 460.60 294.37 460.96 C 292.42 461.33 289.90 462.22 288.02 462.85 C 286.14 463.47 283.70 464.45 281.82 465.11 C 279.95 465.77 277.43 466.64 275.51 467.25 C 273.58 467.86 270.99 468.65 268.99 469.19 C 266.99 469.73 264.26 470.39 262.17 470.83 C 260.08 471.28 257.21 471.80 255.03 472.16 C 252.85 472.51 249.89 472.94 247.63 473.21 C 245.37 473.49 242.31 473.82 239.96 474.01 C 237.62 474.19 234.42 474.38 232.00 474.45 C 229.59 474.52 226.29 474.53 223.87 474.48 C 221.44 474.43 218.19 474.28 215.82 474.12 C 213.45 473.97 210.35 473.68 208.06 473.42 C 205.78 473.16 202.81 472.75 200.60 472.42 C 198.39 472.09 195.48 471.62 193.35 471.22 C 191.21 470.82 188.40 470.24 186.35 469.75 C 184.31 469.25 181.67 468.51 179.72 467.93 C 177.76 467.34 175.25 466.47 173.34 465.84 C 171.44 465.22 168.95 464.28 167.03 463.76 C 165.10 463.23 162.49 462.54 160.50 462.35 C 158.52 462.15 155.78 462.20 153.81 462.46 C 151.83 462.73 149.26 463.54 147.34 464.11 C 145.43 464.68 142.99 465.68 141.03 466.25 C 139.07 466.83 136.35 467.49 134.27 467.96 C 132.20 468.42 129.26 468.87 127.19 469.34 C 125.13 469.81 122.42 470.49 120.50 471.10 C 118.57 471.71 116.18 472.70 114.36 473.42 C 112.54 474.14 110.21 475.20 108.36 475.89 C 106.51 476.57 104.03 477.47 102.02 478.00 C 100.01 478.53 97.18 479.11 94.97 479.41 C 92.76 479.71 89.60 479.95 87.27 480.00 C 84.95 480.05 81.75 479.95 79.46 479.76 C 77.17 479.58 74.19 479.16 72.03 478.80 C 69.86 478.43 67.09 477.81 65.04 477.33 C 62.98 476.85 60.31 476.13 58.31 475.59 C 56.31 475.06 53.67 474.31 51.70 473.74 C 49.73 473.18 47.10 472.42 45.15 471.83 C 43.20 471.24 40.62 470.45 38.72 469.81 C 36.82 469.17 34.33 468.27 32.49 467.57 C 30.65 466.87 28.26 465.89 26.47 465.14 C 24.68 464.39 22.32 463.36 20.56 462.58 C 18.80 461.81 16.46 460.76 14.72 459.97 C 12.97 459.17 10.64 458.12 8.93 457.29 C 7.22 456.47 4.98 455.32 3.29 454.47 C 2.30 452.92 0.99 450.85 0.00 449.30 C 1.13 447.89 2.63 446.01 3.76 444.60 C 5.59 443.90 8.01 442.93 9.87 442.25 C 11.73 441.57 14.25 440.71 16.16 440.08 C 18.06 439.45 20.64 438.64 22.59 438.05 C 24.54 437.46 27.18 436.72 29.14 436.14 C 31.10 435.56 33.74 434.82 35.63 434.18 C 37.52 433.53 40.03 432.65 41.74 431.82 C 43.45 431.00 45.62 429.78 47.03 428.65 C 48.44 427.52 50.06 425.76 51.14 424.31 C 52.22 422.85 53.36 420.60 54.23 418.93 C 55.09 417.25 56.10 414.88 56.90 413.14 C 57.70 411.40 58.75 409.07 59.54 407.33 C 60.34 405.58 61.39 403.25 62.19 401.51 C 62.98 399.77 64.06 397.46 64.86 395.72 C 65.66 393.99 66.74 391.68 67.53 389.94 C 68.33 388.20 69.37 385.86 70.18 384.12 C 70.98 382.38 72.06 380.08 72.88 378.36 C 73.70 376.65 74.90 374.46 75.67 372.69 C 76.44 370.93 77.31 368.42 78.02 366.58 C 79.29 366.16 80.98 365.60 82.25 365.17 C 82.95 367.01 83.90 369.45 84.60 371.28 C 85.30 373.12 86.24 375.56 86.92 377.42 C 87.60 379.28 88.48 381.78 89.12 383.68 C 89.76 385.58 90.52 388.21 91.18 390.08 C 91.84 391.96 92.83 394.36 93.53 396.19 C 94.52 397.74 95.83 399.81 96.82 401.36 C 98.93 401.22 101.75 401.03 103.87 400.89 C 105.14 399.62 106.87 397.97 108.10 396.66 C 109.33 395.36 110.97 393.61 112.09 392.20 C 113.22 390.79 114.74 388.92 115.62 387.26 C 116.50 385.61 117.27 382.99 117.97 381.15 C 118.96 379.88 120.27 378.19 121.26 376.92 C 123.09 377.63 125.59 379.33 127.37 379.27 C 129.15 379.22 131.44 377.42 133.13 376.57 C 134.82 375.72 136.99 374.51 138.62 373.60 C 140.25 372.70 142.37 371.43 144.00 370.52 C 145.63 369.61 147.82 368.42 149.49 367.55 C 151.16 366.68 153.42 365.56 155.13 364.73 C 156.84 363.90 159.15 362.83 160.89 362.03 C 162.63 361.23 164.96 360.18 166.73 359.42 C 168.50 358.65 170.86 357.62 172.70 356.92 C 174.53 356.22 177.03 355.34 178.98 354.75 C 180.93 354.15 183.63 353.48 185.68 352.98 C 187.72 352.49 190.50 351.88 192.61 351.46 C 194.72 351.03 197.56 350.49 199.75 350.13 C 201.94 349.78 204.92 349.38 207.18 349.11 C 209.44 348.83 212.50 348.50 214.82 348.28 C 217.14 348.07 220.27 347.79 222.66 347.67 C 225.06 347.54 228.34 347.43 230.77 347.43 C 233.20 347.43 236.48 347.54 238.88 347.67 C 241.27 347.79 244.40 348.07 246.72 348.28 C 249.04 348.50 252.10 348.82 254.36 349.11 C 256.61 349.39 259.59 349.80 261.76 350.16 C 263.93 350.53 266.72 351.12 268.84 351.54 C 270.96 351.96 273.77 352.53 275.89 352.95 C 278.29 353.09 281.48 353.28 283.88 353.42 C 284.30 351.31 284.87 348.49 285.29 346.37 C 284.02 345.10 282.40 343.34 281.06 342.14 C 279.72 340.94 277.78 339.50 276.36 338.38 C 274.94 337.26 273.06 335.76 271.60 334.68 C 270.14 333.60 268.17 332.20 266.64 331.19 C 265.11 330.18 263.00 328.90 261.41 327.96 C 259.81 327.01 257.64 325.80 256.00 324.90 C 254.36 324.00 252.15 322.83 250.48 321.96 C 248.81 321.10 246.55 319.97 244.84 319.14 C 243.13 318.31 240.82 317.24 239.08 316.44 C 237.34 315.64 235.00 314.60 233.24 313.83 C 231.47 313.05 229.12 312.02 227.33 311.27 C 225.55 310.52 223.16 309.53 221.34 308.80 C 219.53 308.08 217.08 307.14 215.23 306.45 C 213.38 305.77 210.88 304.88 209.00 304.22 C 207.12 303.56 204.59 302.71 202.69 302.08 C 200.78 301.44 198.24 300.60 196.31 299.99 C 194.39 299.38 191.81 298.57 189.85 297.99 C 187.89 297.41 185.28 296.64 183.27 296.11 C 181.27 295.59 178.57 294.88 176.48 294.50 C 174.40 294.12 171.52 293.70 169.35 293.59 C 167.17 293.47 164.18 293.57 161.97 293.73 C 159.77 293.90 156.79 294.60 154.63 294.67 C 152.47 294.74 149.69 294.34 147.58 294.20 C 146.17 293.08 144.29 291.57 142.88 290.44 C 142.03 288.75 140.91 286.50 140.06 284.80 C 140.34 282.55 140.72 279.54 141.00 277.28 C 142.13 275.87 143.63 273.99 144.76 272.58 C 146.88 272.16 149.64 271.54 151.81 271.17 C 153.98 270.81 157.07 270.51 159.24 270.14 C 161.41 269.78 164.27 269.25 166.29 268.74 C 168.31 268.22 170.85 267.37 172.72 266.71 C 174.60 266.04 176.94 265.00 178.78 264.30 C 180.61 263.59 183.04 262.64 184.94 262.01 C 186.85 261.37 189.47 260.61 191.47 260.07 C 193.46 259.53 196.19 258.87 198.25 258.39 C 200.32 257.92 203.11 257.33 205.24 256.93 C 207.38 256.53 210.30 256.05 212.50 255.72 C 214.69 255.40 217.68 255.01 219.87 254.75 C 222.06 254.49 224.92 254.17 227.10 253.99 C 229.27 253.80 232.12 253.61 234.38 253.52 Z"/></clipPath>
</defs>
<path d="M 742.27 123.66 C 743.20 124.40 744.44 125.39 745.37 126.14 C 746.11 127.07 747.11 128.31 747.85 129.24 C 748.59 130.17 749.58 131.41 750.31 132.36 C 751.04 133.30 752.00 134.58 752.71 135.54 C 753.43 136.49 754.36 137.79 755.08 138.75 C 755.79 139.71 756.75 140.98 757.48 141.93 C 758.21 142.88 759.19 144.13 759.92 145.07 C 760.66 146.01 761.61 147.29 762.38 148.19 C 763.15 149.09 764.17 150.30 765.07 151.07 C 765.98 151.84 767.27 152.78 768.41 153.32 C 769.54 153.86 771.25 154.38 772.63 154.68 C 774.01 154.97 776.06 155.16 777.59 155.30 C 779.13 155.44 781.28 155.52 782.86 155.61 C 784.44 155.70 786.61 155.76 788.15 155.90 C 789.69 156.04 791.62 156.33 793.11 156.52 C 794.13 157.17 795.50 158.04 796.52 158.69 C 796.15 159.80 795.65 161.29 795.28 162.41 C 794.35 163.15 793.12 164.16 792.18 164.89 C 791.24 165.62 789.95 166.56 788.98 167.27 C 788.02 167.98 786.72 168.92 785.75 169.62 C 784.77 170.31 783.46 171.24 782.47 171.92 C 781.49 172.61 780.17 173.52 779.16 174.19 C 778.15 174.85 776.77 175.71 775.75 176.36 C 775.19 177.47 774.45 178.96 773.89 180.08 C 774.08 181.57 774.25 183.64 774.51 185.04 C 774.77 186.43 775.41 188.04 775.60 189.38 C 775.78 190.71 775.86 192.60 775.73 193.93 C 775.60 195.27 775.13 197.04 774.72 198.27 C 774.31 199.50 773.56 201.01 773.00 202.13 C 772.44 203.24 771.61 204.65 771.00 205.71 C 770.39 206.78 769.55 208.16 768.93 209.22 C 768.31 210.27 767.48 211.67 766.88 212.75 C 766.27 213.82 765.49 215.27 764.92 216.37 C 764.35 217.47 763.60 218.96 763.06 220.09 C 762.52 221.22 761.80 222.74 761.30 223.91 C 760.79 225.07 760.13 226.64 759.67 227.86 C 759.21 229.08 758.62 230.72 758.25 232.02 C 757.89 233.33 757.46 235.13 757.21 236.56 C 756.96 237.98 756.73 239.99 756.59 241.52 C 756.44 243.05 756.32 245.16 756.24 246.75 C 756.16 248.34 756.07 250.49 756.03 252.12 C 755.98 253.74 755.95 255.94 755.93 257.60 C 755.91 259.25 755.91 261.49 755.91 263.16 C 755.91 264.83 755.91 267.06 755.91 268.74 C 755.91 270.41 755.91 272.65 755.91 274.32 C 755.91 275.99 755.91 278.22 755.93 279.88 C 755.94 281.54 755.98 283.74 756.01 285.38 C 756.04 287.03 756.09 289.20 756.12 290.85 C 756.15 292.49 756.19 294.69 756.20 296.35 C 756.22 298.01 756.22 300.24 756.22 301.91 C 756.22 303.58 756.22 305.81 756.22 307.49 C 756.22 309.16 756.22 311.39 756.22 313.07 C 756.22 314.74 756.13 317.07 756.22 318.65 C 756.31 320.23 756.65 322.12 756.84 323.61 C 758.14 323.98 759.92 324.43 761.18 324.85 C 762.44 325.27 764.00 325.93 765.21 326.40 C 765.86 327.42 766.73 328.79 767.38 329.81 C 766.82 330.92 766.08 332.41 765.52 333.53 C 764.40 334.09 763.09 335.00 761.80 335.39 C 760.51 335.78 758.41 335.91 756.94 336.11 C 755.46 336.31 753.46 336.54 751.98 336.73 C 750.49 336.91 748.51 337.16 747.04 337.37 C 745.57 337.57 743.64 337.87 742.17 338.08 C 740.71 338.29 738.76 338.58 737.27 338.76 C 735.78 338.94 733.77 339.16 732.23 339.30 C 730.70 339.44 728.62 339.60 727.04 339.69 C 725.46 339.78 723.32 339.88 721.69 339.92 C 720.07 339.97 717.87 340.00 716.23 340.00 C 714.59 340.00 712.39 339.97 710.75 339.94 C 709.11 339.91 706.93 339.85 705.30 339.81 C 703.67 339.76 701.51 339.70 699.88 339.65 C 698.25 339.60 696.08 339.55 694.45 339.50 C 692.83 339.45 690.66 339.38 689.05 339.32 C 687.43 339.26 685.29 339.17 683.70 339.09 C 682.10 339.01 679.98 338.91 678.41 338.80 C 676.84 338.69 674.74 338.57 673.26 338.37 C 671.78 338.18 669.86 337.87 668.55 337.50 C 667.24 337.13 665.65 336.49 664.54 335.93 C 663.42 335.37 662.11 334.45 661.11 333.78 C 660.11 333.11 658.87 332.12 657.87 331.44 C 656.88 330.76 655.52 329.88 654.48 329.25 C 653.44 328.61 651.99 327.83 650.96 327.19 C 649.92 326.55 648.55 325.69 647.58 324.98 C 646.62 324.28 645.43 323.24 644.50 322.49 C 643.58 321.73 642.43 320.65 641.44 319.97 C 640.45 319.28 639.06 318.44 637.90 317.93 C 636.73 317.42 635.00 316.92 633.69 316.56 C 632.38 316.19 630.50 315.84 629.16 315.51 C 627.82 315.18 626.01 314.75 624.74 314.35 C 623.47 313.94 621.86 313.33 620.69 312.82 C 619.53 312.31 618.06 311.54 616.97 310.96 C 615.88 310.38 614.46 309.56 613.41 308.94 C 612.35 308.33 610.96 307.49 609.92 306.85 C 608.88 306.21 607.51 305.35 606.49 304.70 C 605.47 304.05 604.11 303.17 603.10 302.51 C 602.09 301.84 600.76 300.94 599.77 300.26 C 598.78 299.58 597.47 298.65 596.49 297.96 C 595.51 297.26 594.21 296.33 593.24 295.63 C 592.26 294.93 590.96 294.00 589.98 293.31 C 589.01 292.61 587.70 291.68 586.73 290.98 C 585.75 290.28 584.45 289.36 583.47 288.66 C 582.50 287.96 581.20 287.02 580.24 286.31 C 579.27 285.60 578.00 284.64 577.06 283.91 C 576.11 283.18 574.87 282.19 573.94 281.45 C 573.01 280.71 571.77 279.71 570.84 278.97 C 569.91 278.22 568.67 277.23 567.74 276.49 C 566.81 275.74 565.57 274.75 564.64 274.01 C 563.71 273.26 562.47 272.28 561.54 271.53 C 560.61 270.78 559.37 269.79 558.46 269.03 C 557.54 268.27 556.33 267.25 555.44 266.47 C 554.54 265.70 553.36 264.65 552.47 263.86 C 551.59 263.07 550.42 262.00 549.55 261.20 C 548.67 260.40 547.52 259.32 546.66 258.51 C 545.80 257.70 544.65 256.62 543.79 255.80 C 542.94 254.98 541.80 253.88 540.96 253.05 C 540.13 252.21 539.05 251.05 538.23 250.20 C 537.42 249.34 536.37 248.15 535.52 247.33 C 534.67 246.50 533.52 245.42 532.57 244.69 C 531.63 243.96 530.27 243.09 529.22 242.47 C 528.17 241.84 526.68 241.10 525.58 240.53 C 524.48 239.96 522.98 239.23 521.86 238.67 C 521.30 237.55 520.56 236.06 520.00 234.95 C 520.09 233.55 520.22 231.69 520.31 230.30 C 520.87 229.18 521.61 227.69 522.17 226.58 C 523.10 225.83 524.34 224.84 525.27 224.10 C 526.57 223.91 528.35 223.35 529.61 223.48 C 530.87 223.61 532.43 224.57 533.68 224.99 C 534.93 225.41 536.61 225.97 537.96 226.29 C 539.31 226.61 541.21 226.95 542.69 227.14 C 544.17 227.34 546.27 227.46 547.82 227.59 C 549.37 227.71 551.49 227.82 553.03 227.95 C 554.57 228.09 556.60 228.29 558.09 228.48 C 559.58 228.66 561.53 228.95 562.97 229.18 C 564.42 229.40 566.31 229.74 567.72 230.01 C 569.13 230.27 570.99 230.65 572.37 230.94 C 573.75 231.23 575.58 231.63 576.94 231.95 C 578.31 232.26 580.11 232.69 581.46 233.01 C 582.81 233.34 584.60 233.78 585.93 234.12 C 587.27 234.46 589.04 234.92 590.35 235.28 C 591.66 235.64 593.40 236.13 594.69 236.52 C 595.98 236.90 597.68 237.44 598.93 237.86 C 600.19 238.27 601.83 238.86 603.06 239.31 C 604.29 239.76 605.90 240.38 607.11 240.84 C 608.32 241.30 609.93 241.92 611.14 242.39 C 612.35 242.85 613.96 243.47 615.17 243.94 C 616.38 244.41 617.99 245.03 619.18 245.51 C 620.37 245.99 621.95 246.64 623.11 247.16 C 624.28 247.67 625.80 248.38 626.93 248.92 C 628.06 249.46 629.55 250.20 630.67 250.76 C 631.79 251.31 633.23 252.11 634.39 252.62 C 635.55 253.13 637.21 253.70 638.42 254.17 C 640.00 254.08 642.11 253.95 643.69 253.86 C 644.53 253.02 645.56 251.83 646.48 251.07 C 647.40 250.31 648.78 249.46 649.79 248.80 C 650.81 248.14 652.19 247.29 653.24 246.67 C 654.29 246.05 655.73 245.25 656.81 244.66 C 657.89 244.06 659.35 243.29 660.43 242.70 C 661.51 242.11 662.97 241.33 664.03 240.72 C 665.10 240.12 666.50 239.28 667.54 238.65 C 668.58 238.02 669.94 237.15 670.97 236.50 C 672.00 235.85 673.36 234.98 674.38 234.33 C 675.40 233.68 676.77 232.81 677.79 232.16 C 678.81 231.51 680.18 230.64 681.20 229.99 C 682.22 229.34 683.59 228.47 684.61 227.82 C 685.63 227.16 687.00 226.30 688.00 225.63 C 689.01 224.96 690.34 224.06 691.31 223.36 C 692.29 222.67 693.56 221.71 694.51 220.98 C 695.46 220.25 696.69 219.26 697.63 218.52 C 698.57 217.78 699.80 216.78 700.75 216.06 C 701.70 215.33 702.97 214.37 703.95 213.68 C 704.92 212.98 706.24 212.06 707.26 211.41 C 708.28 210.75 709.65 209.89 710.73 209.30 C 711.81 208.70 713.32 207.98 714.47 207.46 C 715.62 206.93 717.25 206.33 718.40 205.81 C 719.55 205.29 721.08 204.58 722.14 203.97 C 723.20 203.35 724.52 202.44 725.47 201.72 C 726.43 201.00 727.62 199.96 728.51 199.18 C 729.41 198.40 730.52 197.28 731.42 196.51 C 732.32 195.74 733.59 194.77 734.52 194.03 C 734.99 192.82 735.60 191.21 736.07 190.00 C 735.60 188.79 735.10 187.06 734.52 185.97 C 733.94 184.88 732.83 183.75 732.19 182.71 C 731.56 181.67 730.80 180.20 730.30 179.03 C 729.79 177.86 729.25 176.18 728.82 174.93 C 728.40 173.67 727.90 171.94 727.49 170.68 C 727.07 169.42 726.48 167.78 726.07 166.52 C 725.66 165.25 725.09 163.60 724.75 162.25 C 724.42 160.91 724.07 159.03 723.86 157.56 C 723.65 156.10 723.50 154.02 723.36 152.49 C 723.22 150.95 723.07 148.87 722.93 147.34 C 722.79 145.80 722.55 143.81 722.43 142.26 C 722.31 140.71 722.21 138.57 722.12 136.99 C 722.86 137.17 723.86 137.42 724.60 137.61 C 725.25 138.63 726.12 140.00 726.77 141.02 C 727.42 142.04 728.29 143.41 728.94 144.43 C 729.59 145.45 730.46 146.82 731.11 147.84 C 732.41 148.21 734.15 148.71 735.45 149.08 C 736.47 148.43 737.84 147.56 738.86 146.91 C 739.05 145.42 739.29 143.44 739.48 141.95 C 739.67 140.46 739.91 138.48 740.10 136.99 C 740.29 135.50 740.53 133.52 740.72 132.03 C 740.91 130.54 741.15 128.56 741.34 127.07 C 741.62 126.05 741.99 124.68 742.27 123.66 Z" fill="url(#bp20)"/>
<path d="M 234.38 253.52 C 236.64 253.43 239.78 253.37 242.17 253.37 C 244.56 253.37 247.89 253.43 250.30 253.52 C 252.72 253.61 255.94 253.80 258.29 253.99 C 260.65 254.17 263.71 254.49 265.99 254.75 C 268.27 255.01 271.27 255.39 273.48 255.72 C 275.69 256.05 278.59 256.54 280.71 256.96 C 282.83 257.37 285.57 258.02 287.61 258.51 C 289.66 259.01 292.34 259.71 294.34 260.25 C 296.34 260.78 299.00 261.51 300.95 262.10 C 302.89 262.69 305.44 263.52 307.32 264.18 C 309.20 264.84 311.65 265.78 313.46 266.50 C 315.27 267.23 317.66 268.23 319.39 269.03 C 321.13 269.83 323.39 270.96 325.03 271.85 C 326.68 272.74 328.80 274.01 330.38 274.96 C 331.96 275.92 334.03 277.24 335.58 278.22 C 337.13 279.21 339.20 280.52 340.72 281.54 C 342.24 282.56 344.26 283.92 345.71 285.01 C 347.17 286.09 349.04 287.60 350.41 288.77 C 351.78 289.94 353.54 291.57 354.85 292.79 C 356.16 294.02 357.90 295.67 359.17 296.94 C 360.44 298.20 362.12 299.91 363.31 301.25 C 364.50 302.60 366.03 304.46 367.13 305.89 C 368.23 307.33 369.64 309.30 370.65 310.83 C 371.67 312.35 372.97 314.44 373.88 316.06 C 374.80 317.68 375.94 319.93 376.76 321.64 C 377.59 323.35 378.63 325.70 379.38 327.49 C 380.13 329.27 381.11 331.68 381.76 333.57 C 382.41 335.45 383.22 338.04 383.73 340.06 C 384.23 342.08 384.80 344.89 385.11 347.02 C 385.41 349.15 385.68 352.06 385.75 354.25 C 385.83 356.43 385.75 359.37 385.61 361.56 C 385.46 363.75 385.13 366.72 384.81 368.87 C 384.49 371.03 383.95 373.88 383.46 375.92 C 382.98 377.97 382.19 380.58 381.58 382.50 C 380.97 384.43 380.08 386.92 379.38 388.76 C 378.68 390.60 377.71 393.01 376.91 394.75 C 376.11 396.49 374.92 398.69 374.06 400.36 C 373.20 402.04 371.92 404.15 371.15 405.92 C 370.39 407.68 369.44 410.13 368.98 412.14 C 368.52 414.16 368.21 417.12 368.07 419.34 C 367.93 421.56 368.09 424.72 368.04 426.95 C 367.99 429.17 368.00 432.11 367.75 434.18 C 367.49 436.24 366.93 438.85 366.36 440.73 C 365.80 442.60 364.81 445.00 363.99 446.69 C 363.16 448.38 361.90 450.53 360.84 452.01 C 359.78 453.48 358.19 455.28 356.91 456.53 C 355.62 457.78 353.75 459.30 352.26 460.35 C 350.78 461.40 348.70 462.70 346.98 463.52 C 345.26 464.34 342.79 465.28 340.81 465.81 C 338.83 466.34 335.91 466.84 333.76 467.05 C 331.61 467.25 328.58 467.32 326.47 467.16 C 324.36 467.01 321.63 466.52 319.69 466.02 C 317.74 465.52 315.36 464.51 313.52 463.84 C 311.68 463.18 309.32 462.10 307.44 461.58 C 305.56 461.07 302.94 460.50 300.98 460.41 C 299.02 460.31 296.31 460.60 294.37 460.96 C 292.42 461.33 289.90 462.22 288.02 462.85 C 286.14 463.47 283.70 464.45 281.82 465.11 C 279.95 465.77 277.43 466.64 275.51 467.25 C 273.58 467.86 270.99 468.65 268.99 469.19 C 266.99 469.73 264.26 470.39 262.17 470.83 C 260.08 471.28 257.21 471.80 255.03 472.16 C 252.85 472.51 249.89 472.94 247.63 473.21 C 245.37 473.49 242.31 473.82 239.96 474.01 C 237.62 474.19 234.42 474.38 232.00 474.45 C 229.59 474.52 226.29 474.53 223.87 474.48 C 221.44 474.43 218.19 474.28 215.82 474.12 C 213.45 473.97 210.35 473.68 208.06 473.42 C 205.78 473.16 202.81 472.75 200.60 472.42 C 198.39 472.09 195.48 471.62 193.35 471.22 C 191.21 470.82 188.40 470.24 186.35 469.75 C 184.31 469.25 181.67 468.51 179.72 467.93 C 177.76 467.34 175.25 466.47 173.34 465.84 C 171.44 465.22 168.95 464.28 167.03 463.76 C 165.10 463.23 162.49 462.54 160.50 462.35 C 158.52 462.15 155.78 462.20 153.81 462.46 C 151.83 462.73 149.26 463.54 147.34 464.11 C 145.43 464.68 142.99 465.68 141.03 466.25 C 139.07 466.83 136.35 467.49 134.27 467.96 C 132.20 468.42 129.26 468.87 127.19 469.34 C 125.13 469.81 122.42 470.49 120.50 471.10 C 118.57 471.71 116.18 472.70 114.36 473.42 C 112.54 474.14 110.21 475.20 108.36 475.89 C 106.51 476.57 104.03 477.47 102.02 478.00 C 100.01 478.53 97.18 479.11 94.97 479.41 C 92.76 479.71 89.60 479.95 87.27 480.00 C 84.95 480.05 81.75 479.95 79.46 479.76 C 77.17 479.58 74.19 479.16 72.03 478.80 C 69.86 478.43 67.09 477.81 65.04 477.33 C 62.98 476.85 60.31 476.13 58.31 475.59 C 56.31 475.06 53.67 474.31 51.70 473.74 C 49.73 473.18 47.10 472.42 45.15 471.83 C 43.20 471.24 40.62 470.45 38.72 469.81 C 36.82 469.17 34.33 468.27 32.49 467.57 C 30.65 466.87 28.26 465.89 26.47 465.14 C 24.68 464.39 22.32 463.36 20.56 462.58 C 18.80 461.81 16.46 460.76 14.72 459.97 C 12.97 459.17 10.64 458.12 8.93 457.29 C 7.22 456.47 4.98 455.32 3.29 454.47 C 2.30 452.92 0.99 450.85 0.00 449.30 C 1.13 447.89 2.63 446.01 3.76 444.60 C 5.59 443.90 8.01 442.93 9.87 442.25 C 11.73 441.57 14.25 440.71 16.16 440.08 C 18.06 439.45 20.64 438.64 22.59 438.05 C 24.54 437.46 27.18 436.72 29.14 436.14 C 31.10 435.56 33.74 434.82 35.63 434.18 C 37.52 433.53 40.03 432.65 41.74 431.82 C 43.45 431.00 45.62 429.78 47.03 428.65 C 48.44 427.52 50.06 425.76 51.14 424.31 C 52.22 422.85 53.36 420.60 54.23 418.93 C 55.09 417.25 56.10 414.88 56.90 413.14 C 57.70 411.40 58.75 409.07 59.54 407.33 C 60.34 405.58 61.39 403.25 62.19 401.51 C 62.98 399.77 64.06 397.46 64.86 395.72 C 65.66 393.99 66.74 391.68 67.53 389.94 C 68.33 388.20 69.37 385.86 70.18 384.12 C 70.98 382.38 72.06 380.08 72.88 378.36 C 73.70 376.65 74.90 374.46 75.67 372.69 C 76.44 370.93 77.31 368.42 78.02 366.58 C 79.29 366.16 80.98 365.60 82.25 365.17 C 82.95 367.01 83.90 369.45 84.60 371.28 C 85.30 373.12 86.24 375.56 86.92 377.42 C 87.60 379.28 88.48 381.78 89.12 383.68 C 89.76 385.58 90.52 388.21 91.18 390.08 C 91.84 391.96 92.83 394.36 93.53 396.19 C 94.52 397.74 95.83 399.81 96.82 401.36 C 98.93 401.22 101.75 401.03 103.87 400.89 C 105.14 399.62 106.87 397.97 108.10 396.66 C 109.33 395.36 110.97 393.61 112.09 392.20 C 113.22 390.79 114.74 388.92 115.62 387.26 C 116.50 385.61 117.27 382.99 117.97 381.15 C 118.96 379.88 120.27 378.19 121.26 376.92 C 123.09 377.63 125.59 379.33 127.37 379.27 C 129.15 379.22 131.44 377.42 133.13 376.57 C 134.82 375.72 136.99 374.51 138.62 373.60 C 140.25 372.70 142.37 371.43 144.00 370.52 C 145.63 369.61 147.82 368.42 149.49 367.55 C 151.16 366.68 153.42 365.56 155.13 364.73 C 156.84 363.90 159.15 362.83 160.89 362.03 C 162.63 361.23 164.96 360.18 166.73 359.42 C 168.50 358.65 170.86 357.62 172.70 356.92 C 174.53 356.22 177.03 355.34 178.98 354.75 C 180.93 354.15 183.63 353.48 185.68 352.98 C 187.72 352.49 190.50 351.88 192.61 351.46 C 194.72 351.03 197.56 350.49 199.75 350.13 C 201.94 349.78 204.92 349.38 207.18 349.11 C 209.44 348.83 212.50 348.50 214.82 348.28 C 217.14 348.07 220.27 347.79 222.66 347.67 C 225.06 347.54 228.34 347.43 230.77 347.43 C 233.20 347.43 236.48 347.54 238.88 347.67 C 241.27 347.79 244.40 348.07 246.72 348.28 C 249.04 348.50 252.10 348.82 254.36 349.11 C 256.61 349.39 259.59 349.80 261.76 350.16 C 263.93 350.53 266.72 351.12 268.84 351.54 C 270.96 351.96 273.77 352.53 275.89 352.95 C 278.29 353.09 281.48 353.28 283.88 353.42 C 284.30 351.31 284.87 348.49 285.29 346.37 C 284.02 345.10 282.40 343.34 281.06 342.14 C 279.72 340.94 277.78 339.50 276.36 338.38 C 274.94 337.26 273.06 335.76 271.60 334.68 C 270.14 333.60 268.17 332.20 266.64 331.19 C 265.11 330.18 263.00 328.90 261.41 327.96 C 259.81 327.01 257.64 325.80 256.00 324.90 C 254.36 324.00 252.15 322.83 250.48 321.96 C 248.81 321.10 246.55 319.97 244.84 319.14 C 243.13 318.31 240.82 317.24 239.08 316.44 C 237.34 315.64 235.00 314.60 233.24 313.83 C 231.47 313.05 229.12 312.02 227.33 311.27 C 225.55 310.52 223.16 309.53 221.34 308.80 C 219.53 308.08 217.08 307.14 215.23 306.45 C 213.38 305.77 210.88 304.88 209.00 304.22 C 207.12 303.56 204.59 302.71 202.69 302.08 C 200.78 301.44 198.24 300.60 196.31 299.99 C 194.39 299.38 191.81 298.57 189.85 297.99 C 187.89 297.41 185.28 296.64 183.27 296.11 C 181.27 295.59 178.57 294.88 176.48 294.50 C 174.40 294.12 171.52 293.70 169.35 293.59 C 167.17 293.47 164.18 293.57 161.97 293.73 C 159.77 293.90 156.79 294.60 154.63 294.67 C 152.47 294.74 149.69 294.34 147.58 294.20 C 146.17 293.08 144.29 291.57 142.88 290.44 C 142.03 288.75 140.91 286.50 140.06 284.80 C 140.34 282.55 140.72 279.54 141.00 277.28 C 142.13 275.87 143.63 273.99 144.76 272.58 C 146.88 272.16 149.64 271.54 151.81 271.17 C 153.98 270.81 157.07 270.51 159.24 270.14 C 161.41 269.78 164.27 269.25 166.29 268.74 C 168.31 268.22 170.85 267.37 172.72 266.71 C 174.60 266.04 176.94 265.00 178.78 264.30 C 180.61 263.59 183.04 262.64 184.94 262.01 C 186.85 261.37 189.47 260.61 191.47 260.07 C 193.46 259.53 196.19 258.87 198.25 258.39 C 200.32 257.92 203.11 257.33 205.24 256.93 C 207.38 256.53 210.30 256.05 212.50 255.72 C 214.69 255.40 217.68 255.01 219.87 254.75 C 222.06 254.49 224.92 254.17 227.10 253.99 C 229.27 253.80 232.12 253.61 234.38 253.52 Z" fill="url(#bp21)"/>
<g clip-path="url(#cp20)" fill="none" stroke-width="4.65" stroke-linecap="round" stroke-linejoin="round">
<path d="M 742.3 123.7 L 742.9 124.1 L 743.5 124.6 L 744.1 125.2 L 744.8 125.7 L 745.4 126.1 L 745.8 126.7 L 746.4 127.4" stroke="#F2ECDC" stroke-opacity="0.406"/>
<path d="M 746.4 127.4 L 746.9 128 L 747.4 128.6 L 747.9 129.2 L 748.3 129.8 L 748.8 130.5 L 749.3 131.1 L 749.8 131.8" stroke="#F2ECDC" stroke-opacity="0.458"/>
<path d="M 749.8 131.8 L 750.3 132.4 L 750.8 133 L 751.3 133.6 L 751.8 134.3 L 752.3 134.9 L 752.7 135.5 L 753.2 136.1" stroke="#F2ECDC" stroke-opacity="0.449"/>
<path d="M 753.2 136.1 L 753.6 136.8 L 754.1 137.5 L 754.6 138.1 L 755.1 138.8 L 755.5 139.4 L 756 140 L 756.5 140.7" stroke="#F2ECDC" stroke-opacity="0.443"/>
<path d="M 756.5 140.7 L 757 141.3 L 757.5 141.9 L 757.9 142.5 L 758.4 143.2 L 759 143.8 L 759.5 144.5 L 759.9 145.1" stroke="#F2ECDC" stroke-opacity="0.441"/>
<path d="M 759.9 145.1 L 760.4 145.7 L 760.9 146.3 L 761.4 147 L 761.9 147.6 L 762.4 148.2 L 762.9 148.8 L 763.4 149.4" stroke="#F2ECDC" stroke-opacity="0.443"/>
<path d="M 763.4 149.4 L 764 150 L 764.5 150.6 L 765.1 151.1 L 765.7 151.6 L 766.3 152 L 767 152.5 L 767.7 153" stroke="#F2ECDC" stroke-opacity="0.45"/>
<path d="M 767.7 153 L 768.4 153.3 L 769.1 153.6 L 770 153.9 L 770.9 154.2 L 771.8 154.5 L 772.6 154.7 L 773.5 154.8" stroke="#F2ECDC" stroke-opacity="0.403"/>
<path d="M 773.5 154.8 L 774.5 155 L 775.6 155.1 L 776.6 155.2 L 777.6 155.3 L 778.6 155.4 L 779.7 155.4 L 780.8 155.5" stroke="#F2ECDC" stroke-opacity="0.338"/>
<path d="M 780.8 155.5 L 781.9 155.6 L 782.9 155.6 L 783.9 155.7 L 785 155.7 L 786.1 155.8 L 787.2 155.8 L 788.1 155.9" stroke="#F2ECDC" stroke-opacity="0.326"/>
<path d="M 788.1 155.9 L 789.1 156 L 790.1 156.1 L 791.2 156.3 L 792.2 156.4 L 793.1 156.5 L 793.8 156.9 L 794.5 157.4" stroke="#F2ECDC" stroke-opacity="0.385"/>
<path d="M 794.5 157.4 L 795.2 157.8 L 795.9 158.3 L 796.5 158.7 L 796.3 159.4 L 796 160.2 L 795.8 160.9 L 795.5 161.7" stroke="#F2ECDC" stroke-opacity="0.241"/>
<path d="M 774.2 179.4 L 773.9 180.1 L 774 181 L 774.1 182.1 L 774.2 183.1 L 774.4 184.1 L 774.5 185 L 774.7 185.9" stroke="#F2ECDC" stroke-opacity="0.192"/>
<path d="M 774.7 185.9 L 774.9 186.8 L 775.2 187.7 L 775.4 188.5 L 775.6 189.4 L 775.7 190.2 L 775.8 191.2 L 775.8 192.1" stroke="#F2ECDC" stroke-opacity="0.228"/>
<path d="M 775.8 192.1 L 775.8 193.1 L 775.7 193.9 L 775.6 194.8 L 775.4 195.7 L 775.2 196.6 L 775 197.5 L 774.7 198.3" stroke="#F2ECDC" stroke-opacity="0.109"/>
<path d="M 759.1 229.5 L 758.8 230.3 L 758.5 231.2 L 758.3 232 L 758 232.9 L 757.8 233.8 L 757.6 234.7 L 757.4 235.7" stroke="#F2ECDC" stroke-opacity="0.063"/>
<path d="M 757.4 235.7 L 757.2 236.6 L 757.1 237.5 L 756.9 238.5 L 756.8 239.5 L 756.7 240.6 L 756.6 241.5 L 756.5 242.5" stroke="#F1EBDB" stroke-opacity="0.098"/>
<path d="M 756.5 242.5 L 756.4 243.6 L 756.4 244.7 L 756.3 245.7 L 756.2 246.7 L 756.2 247.8 L 756.1 248.9 L 756.1 250" stroke="#F1EBDB" stroke-opacity="0.118"/>
<path d="M 756.1 250 L 756.1 251.1 L 756 252.1 L 756 253.2 L 756 254.3 L 756 255.4 L 755.9 256.5 L 755.9 257.6" stroke="#F1EADA" stroke-opacity="0.124"/>
<path d="M 755.9 257.6 L 755.9 258.7 L 755.9 259.8 L 755.9 261 L 755.9 262.1 L 755.9 263.2 L 755.9 264.2 L 755.9 265.4" stroke="#F0E9DA" stroke-opacity="0.125"/>
<path d="M 755.9 265.4 L 755.9 266.5 L 755.9 267.7 L 755.9 268.7 L 755.9 269.8 L 755.9 270.9 L 755.9 272.1 L 755.9 273.3" stroke="#F0E8D9" stroke-opacity="0.122"/>
<path d="M 755.9 273.3 L 755.9 274.3 L 755.9 275.4 L 755.9 276.5 L 755.9 277.7 L 755.9 278.8 L 755.9 279.9 L 755.9 280.9" stroke="#EFE7D9" stroke-opacity="0.12"/>
<path d="M 755.9 280.9 L 756 282.1 L 756 283.2 L 756 284.3 L 756 285.4 L 756 286.4 L 756.1 287.5 L 756.1 288.7" stroke="#EFE6D8" stroke-opacity="0.119"/>
<path d="M 756.1 288.7 L 756.1 289.8 L 756.1 290.8 L 756.1 291.9 L 756.2 293 L 756.2 294.2 L 756.2 295.3 L 756.2 296.3" stroke="#EEE5D8" stroke-opacity="0.115"/>
<path d="M 756.2 296.3 L 756.2 297.4 L 756.2 298.5 L 756.2 299.7 L 756.2 300.8 L 756.2 301.9 L 756.2 303 L 756.2 304.1" stroke="#EEE4D7" stroke-opacity="0.108"/>
<path d="M 756.2 304.1 L 756.2 305.3 L 756.2 306.4 L 756.2 307.5 L 756.2 308.6 L 756.2 309.7 L 756.2 310.9 L 756.2 312" stroke="#EDE4D7" stroke-opacity="0.104"/>
<path d="M 756.2 312 L 756.2 313.1 L 756.2 314.1 L 756.2 315.3 L 756.2 316.5 L 756.2 317.6 L 756.2 318.6 L 756.3 319.6" stroke="#EDE3D6" stroke-opacity="0.106"/>
<path d="M 756.3 319.6 L 756.4 320.6 L 756.6 321.7 L 756.7 322.7 L 756.8 323.6 L 757.7 323.8 L 758.6 324.1 L 759.5 324.3" stroke="#EDE2D6" stroke-opacity="0.164"/>
<path d="M 759.5 324.3 L 760.4 324.6 L 761.2 324.8 L 762 325.1 L 762.8 325.4 L 763.6 325.8 L 764.4 326.1 L 765.2 326.4" stroke="#EDE2D6" stroke-opacity="0.208"/>
<path d="M 765.2 326.4 L 765.6 327 L 766.1 327.7 L 766.5 328.5 L 767 329.2 L 767.4 329.8 L 767 330.5 L 766.6 331.3" stroke="#ECE2D5" stroke-opacity="0.145"/>
<path d="M 524 225.1 L 524.7 224.6 L 525.3 224.1 L 526.1 224 L 527 223.8 L 527.9 223.6 L 528.8 223.5 L 529.6 223.5" stroke="#ECE1D5" stroke-opacity="0.092"/>
<path d="M 529.6 223.5 L 530.4 223.6 L 531.2 223.9 L 532.1 224.3 L 532.9 224.7 L 533.7 225 L 534.5 225.3 L 535.3 225.5" stroke="#ECE1D5" stroke-opacity="0.191"/>
<path d="M 535.3 225.5 L 536.2 225.8 L 537.1 226.1 L 538 226.3 L 538.8 226.5 L 539.8 226.7 L 540.8 226.8 L 541.8 227" stroke="#ECE1D5" stroke-opacity="0.186"/>
<path d="M 541.8 227 L 542.7 227.1 L 543.6 227.3 L 544.7 227.3 L 545.8 227.4 L 546.8 227.5 L 547.8 227.6 L 548.8 227.7" stroke="#ECE2D5" stroke-opacity="0.165"/>
<path d="M 548.8 227.7 L 549.9 227.7 L 551 227.8 L 552 227.9 L 553 228 L 554 228 L 555.1 228.1 L 556.1 228.3" stroke="#ECE2D5" stroke-opacity="0.165"/>
<path d="M 556.1 228.3 L 557.1 228.4 L 558.1 228.5 L 559 228.6 L 560 228.7 L 561.1 228.9 L 562.1 229 L 563 229.2" stroke="#EDE2D6" stroke-opacity="0.176"/>
<path d="M 563 229.2 L 563.9 229.3 L 564.9 229.5 L 565.9 229.7 L 566.8 229.8 L 567.7 230 L 568.6 230.2 L 569.6 230.4" stroke="#EDE2D6" stroke-opacity="0.186"/>
<path d="M 569.6 230.4 L 570.5 230.6 L 571.5 230.8 L 572.4 230.9 L 573.2 231.1 L 574.2 231.3 L 575.1 231.5 L 576.1 231.7" stroke="#EDE3D6" stroke-opacity="0.193"/>
<path d="M 576.1 231.7 L 576.9 231.9 L 577.8 232.1 L 578.7 232.4 L 579.7 232.6 L 580.6 232.8 L 581.5 233 L 582.3 233.2" stroke="#EDE3D6" stroke-opacity="0.198"/>
<path d="M 582.3 233.2 L 583.2 233.4 L 584.2 233.7 L 585.1 233.9 L 585.9 234.1 L 586.8 234.3 L 587.7 234.6 L 588.6 234.8" stroke="#EDE3D6" stroke-opacity="0.202"/>
<path d="M 588.6 234.8 L 589.5 235.1 L 590.4 235.3 L 591.2 235.5 L 592.1 235.8 L 593 236 L 593.9 236.3 L 594.7 236.5" stroke="#EDE3D6" stroke-opacity="0.208"/>
<path d="M 594.7 236.5 L 595.5 236.8 L 596.4 237 L 597.3 237.3 L 598.1 237.6 L 598.9 237.9 L 599.7 238.1 L 600.6 238.4" stroke="#EDE3D6" stroke-opacity="0.214"/>
<path d="M 600.6 238.4 L 601.4 238.7 L 602.3 239 L 603.1 239.3 L 603.8 239.6 L 604.7 239.9 L 605.5 240.2 L 606.3 240.5" stroke="#EDE3D6" stroke-opacity="0.22"/>
<path d="M 606.3 240.5 L 607.1 240.8 L 607.9 241.1 L 608.7 241.5 L 609.5 241.8 L 610.4 242.1 L 611.1 242.4 L 611.9 242.7" stroke="#EDE3D6" stroke-opacity="0.222"/>
<path d="M 611.9 242.7 L 612.7 243 L 613.6 243.3 L 614.4 243.6 L 615.2 243.9 L 615.9 244.2 L 616.8 244.6 L 617.6 244.9" stroke="#EDE3D6" stroke-opacity="0.224"/>
<path d="M 617.6 244.9 L 618.4 245.2 L 619.2 245.5 L 619.9 245.8 L 620.7 246.1 L 621.6 246.5 L 622.4 246.8 L 623.1 247.2" stroke="#EDE3D6" stroke-opacity="0.227"/>
<path d="M 623.1 247.2 L 623.8 247.5 L 624.6 247.8 L 625.4 248.2 L 626.2 248.6 L 626.9 248.9 L 627.6 249.3 L 628.4 249.6" stroke="#EDE3D6" stroke-opacity="0.231"/>
<path d="M 628.4 249.6 L 629.2 250 L 630 250.4 L 630.7 250.8 L 631.4 251.1 L 632.1 251.5 L 632.9 251.9 L 633.7 252.3" stroke="#EDE3D6" stroke-opacity="0.233"/>
<path d="M 633.7 252.3 L 634.4 252.6 L 635.1 252.9 L 636 253.3 L 636.8 253.6 L 637.6 253.9 L 638.4 254.2 L 639.4 254.1" stroke="#EDE3D6" stroke-opacity="0.208"/>
<path d="M 639.4 254.1 L 640.5 254 L 641.6 254 L 642.7 253.9 L 643.7 253.9 L 644.2 253.3 L 644.8 252.7 L 645.3 252.1" stroke="#EDE4D7" stroke-opacity="0.09"/>
<path d="M 706.6 211.8 L 707.3 211.4 L 707.9 211 L 708.6 210.6 L 709.3 210.1 L 710 209.7 L 710.7 209.3 L 711.4 208.9" stroke="#F2ECDC" stroke-opacity="0.052"/>
<path d="M 711.4 208.9 L 712.2 208.5 L 713 208.2 L 713.7 207.8 L 714.5 207.5 L 715.2 207.1 L 716 206.8 L 716.8 206.5" stroke="#F2ECDC" stroke-opacity="0.08"/>
<path d="M 716.8 206.5 L 717.7 206.1 L 718.4 205.8 L 719.1 205.5 L 719.9 205.1 L 720.7 204.7 L 721.5 204.3 L 722.1 204" stroke="#F2ECDC" stroke-opacity="0.077"/>
<path d="M 722.2 138 L 722.1 137 L 722.6 137.1 L 723.1 137.2 L 723.6 137.4 L 724.1 137.5 L 724.6 137.6 L 725 138.3" stroke="#F2ECDC" stroke-opacity="0.288"/>
<path d="M 725 138.3 L 725.5 139 L 725.9 139.7 L 726.4 140.4 L 726.8 141 L 727.2 141.7 L 727.6 142.4 L 728.1 143.1" stroke="#F2ECDC" stroke-opacity="0.404"/>
<path d="M 728.1 143.1 L 728.5 143.8 L 728.9 144.4 L 729.4 145.1 L 729.8 145.8 L 730.3 146.5 L 730.7 147.2 L 731.1 147.8" stroke="#F2ECDC" stroke-opacity="0.399"/>
<path d="M 731.1 147.8 L 731.9 148.1 L 732.8 148.3 L 733.7 148.6 L 734.6 148.8 L 735.5 149.1 L 736.1 148.7 L 736.8 148.2" stroke="#F2ECDC" stroke-opacity="0.283"/>
<path d="M 741.1 129 L 741.2 128 L 741.3 127.1 L 741.5 126.4 L 741.7 125.7 L 741.9 125 L 742.1 124.3 L 742.3 123.7" stroke="#F2ECDC" stroke-opacity="0.066"/>
</g>
<g clip-path="url(#cp21)" fill="none" stroke-width="7.05" stroke-linecap="round" stroke-linejoin="round">
<path d="M 234.4 253.5 L 235.8 253.5 L 237.4 253.4 L 239 253.4 L 240.7 253.4 L 242.2 253.4 L 243.7 253.4 L 245.4 253.4" stroke="#E2CEC9" stroke-opacity="0.097"/>
<path d="M 245.4 253.4 L 247.1 253.4 L 248.8 253.5 L 250.3 253.5 L 251.8 253.6 L 253.5 253.7 L 255.2 253.8 L 256.8 253.9" stroke="#E3CFCA" stroke-opacity="0.108"/>
<path d="M 256.8 253.9 L 258.3 254 L 259.8 254.1 L 261.4 254.3 L 263 254.4 L 264.5 254.6 L 266 254.8 L 267.4 254.9" stroke="#E3D0CA" stroke-opacity="0.119"/>
<path d="M 267.4 254.9 L 269 255.1 L 270.5 255.3 L 272.1 255.5 L 273.5 255.7 L 274.9 255.9 L 276.4 256.2 L 277.9 256.4" stroke="#E3D0CA" stroke-opacity="0.128"/>
<path d="M 277.9 256.4 L 279.4 256.7 L 280.7 257 L 282 257.2 L 283.5 257.5 L 284.9 257.9 L 286.3 258.2 L 287.6 258.5" stroke="#E3D0CA" stroke-opacity="0.138"/>
<path d="M 287.6 258.5 L 288.9 258.8 L 290.3 259.2 L 291.7 259.5 L 293.1 259.9 L 294.3 260.2 L 295.6 260.6 L 297 261" stroke="#E3D0CB" stroke-opacity="0.145"/>
<path d="M 297 261 L 298.4 261.3 L 299.7 261.7 L 300.9 262.1 L 302.2 262.5 L 303.5 262.9 L 304.8 263.3 L 306.1 263.8" stroke="#E4D1CB" stroke-opacity="0.151"/>
<path d="M 306.1 263.8 L 307.3 264.2 L 308.5 264.6 L 309.8 265.1 L 311.1 265.6 L 312.3 266 L 313.5 266.5 L 314.6 267" stroke="#E4D1CB" stroke-opacity="0.158"/>
<path d="M 314.6 267 L 315.8 267.5 L 317.1 268 L 318.3 268.5 L 319.4 269 L 320.5 269.5 L 321.7 270.1 L 322.8 270.7" stroke="#E4D1CB" stroke-opacity="0.164"/>
<path d="M 322.8 270.7 L 324 271.3 L 325 271.8 L 326.1 272.4 L 327.2 273.1 L 328.3 273.7 L 329.4 274.4 L 330.4 275" stroke="#E4D1CB" stroke-opacity="0.169"/>
<path d="M 330.4 275 L 331.4 275.6 L 332.4 276.2 L 333.5 276.9 L 334.6 277.6 L 335.6 278.2 L 336.6 278.8 L 337.6 279.5" stroke="#E4D1CB" stroke-opacity="0.17"/>
<path d="M 337.6 279.5 L 338.7 280.2 L 339.8 280.9 L 340.7 281.5 L 341.7 282.2 L 342.7 282.9 L 343.8 283.6 L 344.8 284.3" stroke="#E3D1CB" stroke-opacity="0.17"/>
<path d="M 344.8 284.3 L 345.7 285 L 346.6 285.7 L 347.6 286.5 L 348.6 287.3 L 349.5 288 L 350.4 288.8 L 351.3 289.5" stroke="#E3D0CB" stroke-opacity="0.169"/>
<path d="M 351.3 289.5 L 352.2 290.3 L 353.1 291.2 L 354 292 L 354.8 292.8 L 355.7 293.6 L 356.6 294.4 L 357.5 295.3" stroke="#E3D0CA" stroke-opacity="0.166"/>
<path d="M 357.5 295.3 L 358.4 296.1 L 359.2 296.9 L 360 297.7 L 360.8 298.6 L 361.7 299.5 L 362.5 300.4 L 363.3 301.3" stroke="#E3D0CA" stroke-opacity="0.162"/>
<path d="M 363.3 301.3 L 364.1 302.1 L 364.9 303.1 L 365.7 304 L 366.4 305 L 367.1 305.9 L 367.8 306.8 L 368.6 307.8" stroke="#E3CFCA" stroke-opacity="0.154"/>
<path d="M 368.6 307.8 L 369.3 308.8 L 370 309.9 L 370.7 310.8 L 371.3 311.8 L 372 312.9 L 372.6 314 L 373.3 315" stroke="#E3CFCA" stroke-opacity="0.143"/>
<path d="M 373.3 315 L 373.9 316.1 L 374.5 317.1 L 375.1 318.2 L 375.7 319.4 L 376.2 320.6 L 376.8 321.6 L 377.3 322.7" stroke="#E2CEC9" stroke-opacity="0.129"/>
<path d="M 377.3 322.7 L 377.8 323.9 L 378.4 325.1 L 378.9 326.4 L 379.4 327.5 L 379.9 328.6 L 380.4 329.9 L 380.9 331.1" stroke="#E2CDC9" stroke-opacity="0.116"/>
<path d="M 380.9 331.1 L 381.3 332.4 L 381.8 333.6 L 382.2 334.8 L 382.6 336.1 L 383 337.4 L 383.4 338.8 L 383.7 340.1" stroke="#E1CDC8" stroke-opacity="0.101"/>
<path d="M 383.7 340.1 L 384 341.4 L 384.3 342.8 L 384.6 344.2 L 384.9 345.7 L 385.1 347 L 385.3 348.4 L 385.4 349.9" stroke="#E1CCC8" stroke-opacity="0.08"/>
<path d="M 237.3 347.6 L 238.9 347.7 L 240.4 347.8 L 242 347.9 L 243.6 348 L 245.2 348.1 L 246.7 348.3 L 248.2 348.4" stroke="#DDC4C3" stroke-opacity="0.064"/>
<path d="M 248.2 348.4 L 249.8 348.6 L 251.4 348.8 L 252.9 348.9 L 254.4 349.1 L 255.8 349.3 L 257.3 349.5 L 258.9 349.7" stroke="#DDC4C3" stroke-opacity="0.069"/>
<path d="M 258.9 349.7 L 260.4 349.9 L 261.8 350.2 L 263.1 350.4 L 264.6 350.7 L 266.1 351 L 267.5 351.3 L 268.8 351.5" stroke="#DDC5C3" stroke-opacity="0.075"/>
<path d="M 268.8 351.5 L 270.2 351.8 L 271.6 352.1 L 273.1 352.4 L 274.5 352.7 L 275.9 353 L 277.4 353 L 279 353.1" stroke="#DDC5C3" stroke-opacity="0.073"/>
<path d="M 196.9 258.7 L 198.3 258.4 L 199.6 258.1 L 201 257.8 L 202.5 257.5 L 203.9 257.2 L 205.2 256.9 L 206.6 256.7" stroke="#E1CCC8" stroke-opacity="0.061"/>
<path d="M 206.6 256.7 L 208.1 256.4 L 209.6 256.2 L 211.1 255.9 L 212.5 255.7 L 213.9 255.5 L 215.4 255.3 L 217 255.1" stroke="#E1CDC8" stroke-opacity="0.071"/>
<path d="M 217 255.1 L 218.5 254.9 L 219.9 254.8 L 221.3 254.6 L 222.7 254.4 L 224.2 254.3 L 225.7 254.1 L 227.1 254" stroke="#E2CDC9" stroke-opacity="0.079"/>
<path d="M 227.1 254 L 228.5 253.9 L 230 253.8 L 231.5 253.7 L 233 253.6 L 234.4 253.5 L 235.8 253.5 L 237.4 253.4" stroke="#E2CEC9" stroke-opacity="0.089"/>
</g>
</svg>
