<svg xmlns="http://www.w3.org/2000/svg" viewBox="216.5 94.5 597 375.16">
<defs>
<linearGradient id="bs2" x1="0" y1="0" x2="0.25" y2="1">
<stop offset="0" stop-color="#2B2C38"/><stop offset="1" stop-color="#20212B"/>
</linearGradient>
<clipPath id="cs2"><path d="M 288.00 104.50 C 289.35 105.85 291.15 107.65 292.50 109.00 C 293.40 110.80 294.65 113.15 295.50 115.00 C 296.35 116.85 297.36 119.44 298.19 121.31 C 299.01 123.19 300.13 125.67 301.00 127.50 C 301.87 129.33 303.10 131.70 304.00 133.50 C 305.65 134.55 307.85 135.95 309.50 137.00 C 311.60 136.40 314.40 135.60 316.50 135.00 C 317.10 132.90 317.98 130.18 318.50 128.00 C 319.02 125.83 319.48 122.67 320.00 120.50 C 320.52 118.33 321.40 115.60 322.00 113.50 C 323.05 114.25 324.45 115.25 325.50 116.00 C 326.10 118.10 326.92 120.88 327.50 123.00 C 328.08 125.12 328.80 128.00 329.34 130.16 C 329.89 132.31 330.62 135.20 331.12 137.38 C 331.63 139.55 332.33 142.46 332.69 144.69 C 333.05 146.91 333.41 149.92 333.53 152.22 C 333.65 154.52 333.50 157.48 333.50 160.00 C 333.50 162.52 333.50 166.30 333.50 169.00 C 333.80 171.40 334.20 174.60 334.50 177.00 C 336.75 177.45 339.75 178.05 342.00 178.50 C 344.25 178.05 347.21 177.14 349.50 177.00 C 351.79 176.86 354.99 177.33 357.28 177.59 C 359.57 177.86 362.58 178.34 364.78 178.78 C 366.98 179.22 369.84 179.97 371.97 180.53 C 374.10 181.09 376.90 181.90 379.00 182.50 C 381.10 183.10 383.90 183.90 386.00 184.50 C 388.10 185.10 390.90 185.90 392.97 186.53 C 395.04 187.16 397.79 188.01 399.81 188.69 C 401.83 189.37 404.49 190.31 406.44 191.06 C 408.39 191.81 410.93 192.87 412.81 193.69 C 414.70 194.50 417.15 195.65 419.00 196.50 C 420.85 197.35 423.30 198.50 425.16 199.34 C 427.01 200.19 429.47 201.33 431.34 202.16 C 433.22 202.98 435.66 204.14 437.66 204.84 C 439.65 205.55 442.37 206.43 444.62 206.88 C 446.88 207.32 450.16 207.64 452.69 207.81 C 455.21 207.99 458.82 207.98 461.47 208.03 C 464.12 208.08 467.70 208.10 470.34 208.16 C 472.99 208.21 476.50 208.30 479.12 208.38 C 481.75 208.45 485.25 208.55 487.84 208.66 C 490.44 208.76 493.89 208.91 496.44 209.06 C 498.99 209.21 502.34 209.46 504.84 209.66 C 507.35 209.85 510.65 210.15 513.12 210.38 C 515.60 210.60 518.89 210.91 521.34 211.16 C 523.80 211.40 527.04 211.76 529.47 212.03 C 531.90 212.30 535.11 212.69 537.53 212.97 C 539.95 213.25 543.21 213.59 545.62 213.88 C 548.04 214.16 551.28 214.52 553.66 214.84 C 556.03 215.17 559.14 215.66 561.44 216.06 C 563.74 216.46 566.74 217.06 569.00 217.50 C 571.26 217.94 574.25 218.55 576.50 219.00 C 578.75 219.45 581.75 220.05 583.97 220.53 C 586.19 221.01 589.14 221.66 591.28 222.22 C 593.42 222.78 596.23 223.57 598.25 224.25 C 600.27 224.93 602.87 225.93 604.75 226.75 C 606.63 227.57 609.02 228.78 610.78 229.72 C 612.54 230.66 614.97 231.83 616.50 233.00 C 618.03 234.17 619.65 236.15 621.00 237.50 C 623.55 237.65 627.17 238.22 629.50 238.00 C 631.83 237.78 634.40 236.60 636.53 236.03 C 638.66 235.46 641.50 234.70 643.69 234.19 C 645.87 233.67 648.82 233.02 651.09 232.59 C 653.37 232.17 656.48 231.68 658.88 231.38 C 661.27 231.07 664.58 230.77 667.09 230.59 C 669.61 230.42 673.07 230.28 675.66 230.22 C 678.24 230.16 681.75 230.17 684.34 230.22 C 686.94 230.27 690.39 230.42 692.97 230.53 C 695.55 230.64 698.95 230.85 701.53 230.97 C 704.11 231.09 707.56 231.24 710.19 231.31 C 712.81 231.39 716.37 231.45 719.03 231.47 C 721.69 231.49 725.30 231.49 727.94 231.44 C 730.58 231.39 734.08 231.28 736.62 231.12 C 739.17 230.97 742.48 230.68 744.91 230.41 C 747.33 230.13 750.48 229.68 752.78 229.28 C 755.09 228.89 758.09 228.29 760.28 227.78 C 762.48 227.28 765.33 226.53 767.41 225.91 C 769.48 225.28 772.18 224.38 774.12 223.62 C 776.07 222.87 778.58 221.78 780.38 220.88 C 782.17 219.97 784.46 218.66 786.06 217.56 C 787.67 216.47 789.65 214.85 791.06 213.56 C 792.48 212.28 794.16 210.36 795.50 209.00 C 796.84 207.64 798.65 205.85 800.00 204.50 C 801.05 205.55 802.45 206.95 803.50 208.00 C 802.15 209.35 800.25 211.05 799.00 212.50 C 797.75 213.95 796.31 216.11 795.19 217.69 C 794.07 219.27 792.60 221.40 791.53 223.03 C 790.46 224.66 789.06 226.86 788.03 228.53 C 787.00 230.20 785.66 232.46 784.69 234.19 C 783.71 235.91 782.46 238.26 781.53 240.03 C 780.60 241.80 779.40 244.20 778.47 245.97 C 777.54 247.74 776.29 250.09 775.31 251.81 C 774.34 253.54 773.00 255.80 771.97 257.47 C 770.94 259.14 769.54 261.34 768.47 262.97 C 767.40 264.60 765.93 266.73 764.81 268.31 C 763.69 269.89 762.15 271.95 761.00 273.50 C 759.85 275.05 758.30 277.10 757.16 278.66 C 756.01 280.21 754.51 282.31 753.34 283.84 C 752.18 285.38 750.63 287.43 749.41 288.91 C 748.18 290.38 746.48 292.28 745.16 293.66 C 743.83 295.03 741.99 296.79 740.59 298.09 C 739.20 299.40 737.29 301.09 735.84 302.34 C 734.40 303.60 732.45 305.25 730.97 306.47 C 729.49 307.69 727.49 309.29 725.97 310.47 C 724.45 311.65 722.39 313.19 720.81 314.31 C 719.23 315.43 717.09 316.89 715.44 317.94 C 713.79 318.99 711.54 320.34 709.81 321.31 C 708.09 322.29 705.74 323.54 703.94 324.44 C 702.14 325.34 699.69 326.49 697.81 327.31 C 695.94 328.14 693.39 329.19 691.44 329.94 C 689.48 330.68 686.83 331.63 684.78 332.28 C 682.73 332.93 679.93 333.73 677.75 334.25 C 675.57 334.77 672.58 335.38 670.25 335.75 C 667.92 336.12 664.72 336.52 662.25 336.75 C 659.78 336.98 656.37 337.18 653.81 337.25 C 651.25 337.32 647.75 337.32 645.19 337.25 C 642.63 337.18 639.22 336.97 636.75 336.75 C 634.28 336.53 631.08 336.12 628.72 335.78 C 626.36 335.44 623.43 334.77 621.00 334.50 C 618.57 334.23 615.05 334.15 612.50 334.00 C 610.85 335.05 608.46 336.26 607.00 337.50 C 605.54 338.74 604.09 340.89 602.78 342.28 C 601.47 343.67 599.65 345.45 598.28 346.78 C 596.91 348.11 594.95 349.75 593.62 351.12 C 592.30 352.50 590.56 354.36 589.44 355.94 C 588.31 357.51 587.04 359.84 586.12 361.62 C 585.21 363.41 584.16 365.96 583.31 367.81 C 582.46 369.66 581.34 372.14 580.47 373.97 C 579.60 375.80 578.40 378.20 577.50 380.00 C 576.60 381.80 575.40 384.20 574.50 386.00 C 573.60 387.80 572.39 390.19 571.47 391.97 C 570.55 393.75 569.30 396.10 568.34 397.84 C 567.39 399.59 566.10 401.90 565.12 403.62 C 564.15 405.35 562.84 407.64 561.84 409.34 C 560.85 411.05 559.49 413.29 558.47 414.97 C 557.45 416.65 556.05 418.85 555.03 420.53 C 554.01 422.21 552.63 424.43 551.66 426.16 C 550.68 427.88 549.37 430.17 548.53 432.03 C 547.70 433.90 546.70 436.50 546.09 438.59 C 545.49 440.69 544.96 443.76 544.50 446.00 C 544.04 448.24 543.45 451.25 543.00 453.50 C 541.35 454.55 539.15 455.95 537.50 457.00 C 535.55 457.75 533.23 459.13 531.00 459.50 C 528.77 459.87 525.15 459.52 522.66 459.47 C 520.16 459.42 516.85 459.24 514.34 459.16 C 511.84 459.07 508.50 458.93 505.97 458.91 C 503.44 458.88 499.90 459.21 497.50 459.00 C 495.10 458.79 492.25 457.95 490.00 457.50 C 488.20 456.60 485.80 455.40 484.00 454.50 C 483.55 452.55 482.95 449.95 482.50 448.00 C 483.85 446.65 485.65 444.85 487.00 443.50 C 489.10 442.90 492.27 442.47 494.00 441.50 C 495.73 440.53 497.31 438.51 498.56 437.06 C 499.81 435.61 501.30 433.50 502.34 431.84 C 503.39 430.19 504.58 427.78 505.53 426.03 C 506.48 424.28 507.71 421.91 508.66 420.16 C 509.60 418.40 510.90 416.10 511.84 414.34 C 512.79 412.59 514.05 410.25 514.97 408.47 C 515.89 406.69 517.10 404.30 518.00 402.50 C 518.90 400.70 520.11 398.31 520.97 396.47 C 521.83 394.63 522.98 392.18 523.75 390.25 C 524.52 388.32 525.47 385.67 526.09 383.59 C 526.72 381.52 527.43 378.63 527.91 376.41 C 528.38 374.18 528.92 371.12 529.28 368.78 C 529.64 366.44 530.03 363.23 530.31 360.81 C 530.59 358.39 530.92 355.09 531.16 352.66 C 531.39 350.22 531.74 346.95 531.88 344.56 C 532.01 342.17 532.14 339.02 532.03 336.72 C 531.92 334.42 531.54 331.43 531.16 329.22 C 530.78 327.01 530.05 324.13 529.50 322.00 C 528.95 319.87 528.10 317.10 527.50 315.00 C 525.10 314.70 521.95 314.05 519.50 314.00 C 517.05 313.95 513.66 314.46 511.19 314.69 C 508.72 314.92 505.46 315.26 503.03 315.53 C 500.60 315.80 497.40 316.20 495.00 316.50 C 492.60 316.80 489.40 317.20 487.00 317.50 C 484.60 317.80 481.40 318.20 479.00 318.50 C 476.60 318.80 473.40 319.20 471.00 319.50 C 468.60 319.80 465.40 320.20 463.00 320.50 C 460.60 320.80 457.40 321.20 455.00 321.50 C 453.95 323.15 452.65 325.45 451.50 327.00 C 450.35 328.55 448.47 330.27 447.34 331.84 C 446.21 333.41 444.82 335.62 443.97 337.47 C 443.12 339.32 442.25 342.05 441.66 344.16 C 441.07 346.27 440.48 349.28 440.03 351.53 C 439.58 353.78 439.05 356.85 438.66 359.16 C 438.26 361.46 437.75 364.55 437.38 366.88 C 437.00 369.20 436.51 372.31 436.16 374.66 C 435.80 377.00 435.35 380.15 435.00 382.50 C 434.65 384.85 434.20 388.00 433.84 390.34 C 433.49 392.69 433.00 395.80 432.66 398.16 C 432.31 400.51 431.85 403.65 431.53 406.03 C 431.21 408.41 430.80 411.60 430.50 414.00 C 430.20 416.40 429.78 419.60 429.50 422.00 C 429.22 424.40 428.81 427.60 428.62 430.00 C 428.44 432.40 428.27 435.60 428.25 438.00 C 428.23 440.40 428.39 443.82 428.50 446.00 C 428.61 448.18 428.85 450.55 429.00 452.50 C 427.65 453.85 425.85 455.65 424.50 457.00 C 422.55 457.75 420.22 459.13 418.00 459.50 C 415.78 459.87 412.16 459.51 409.69 459.44 C 407.21 459.36 403.96 459.13 401.50 459.00 C 399.04 458.87 395.79 458.62 393.31 458.56 C 390.83 458.50 387.49 458.53 384.97 458.59 C 382.45 458.66 378.82 459.24 376.50 459.00 C 374.18 458.76 371.60 457.60 369.50 457.00 C 367.85 455.95 365.65 454.55 364.00 453.50 C 364.00 451.40 364.00 448.60 364.00 446.50 C 365.65 445.45 367.62 443.82 369.50 443.00 C 371.38 442.18 374.40 441.60 376.50 441.00 C 376.95 438.75 377.70 435.90 378.00 433.50 C 378.30 431.10 378.35 427.55 378.50 425.00 C 378.65 422.45 378.85 419.05 378.97 416.47 C 379.09 413.89 379.23 410.43 379.31 407.81 C 379.39 405.19 379.45 401.65 379.50 399.00 C 379.55 396.35 379.60 392.80 379.66 390.16 C 379.71 387.51 379.79 383.99 379.84 381.34 C 379.90 378.70 379.95 375.15 380.00 372.50 C 380.05 369.85 380.10 366.30 380.16 363.66 C 380.21 361.01 380.30 357.50 380.34 354.84 C 380.39 352.19 380.47 348.62 380.47 345.97 C 380.47 343.32 380.49 339.70 380.34 337.16 C 380.19 334.62 379.93 331.27 379.47 329.03 C 379.00 326.80 378.12 324.08 377.25 322.25 C 376.38 320.42 374.88 318.32 373.69 316.81 C 372.49 315.31 370.65 313.55 369.28 312.22 C 367.91 310.89 365.93 309.27 364.53 307.97 C 363.13 306.67 361.23 304.97 359.97 303.53 C 358.71 302.09 357.15 300.05 356.12 298.38 C 355.10 296.70 353.94 294.26 353.12 292.38 C 352.31 290.49 351.35 287.83 350.69 285.81 C 350.03 283.79 349.17 281.03 348.72 278.91 C 348.26 276.78 347.79 273.88 347.66 271.66 C 347.52 269.43 347.67 266.39 347.84 264.09 C 348.02 261.80 348.52 258.68 348.84 256.34 C 349.17 254.00 349.83 251.03 350.00 248.50 C 350.17 245.97 350.00 242.20 350.00 239.50 C 348.95 237.85 347.75 235.45 346.50 234.00 C 345.25 232.55 343.10 231.10 341.69 229.81 C 340.28 228.52 338.40 226.80 337.09 225.41 C 335.79 224.01 334.09 222.11 332.97 220.53 C 331.85 218.95 330.52 216.68 329.62 214.88 C 328.73 213.07 327.54 210.66 327.00 208.50 C 326.46 206.34 326.30 202.90 326.00 200.50 C 323.90 199.90 321.10 199.10 319.00 198.50 C 316.90 199.10 314.27 200.09 312.00 200.50 C 309.73 200.91 306.30 201.08 303.84 201.22 C 301.39 201.35 298.10 201.46 295.66 201.41 C 293.21 201.35 289.96 201.11 287.56 200.88 C 285.17 200.64 282.01 200.18 279.69 199.81 C 277.36 199.45 274.31 198.89 272.06 198.44 C 269.81 197.99 266.87 197.33 264.69 196.81 C 262.51 196.29 259.65 195.55 257.53 194.97 C 255.41 194.39 252.61 193.59 250.53 192.97 C 248.45 192.35 245.72 191.48 243.69 190.81 C 241.66 190.14 238.98 189.22 237.00 188.50 C 235.02 187.78 232.45 186.75 230.50 186.00 C 229.30 184.50 227.70 182.50 226.50 181.00 C 227.85 179.65 229.65 177.85 231.00 176.50 C 232.80 175.60 235.12 174.32 237.00 173.50 C 238.88 172.68 241.55 171.75 243.50 171.00 C 245.45 170.25 248.06 169.26 249.97 168.47 C 251.88 167.68 254.45 166.65 256.25 165.75 C 258.05 164.85 260.41 163.61 261.97 162.47 C 263.52 161.32 265.42 159.62 266.62 158.12 C 267.83 156.63 269.13 154.33 270.03 152.53 C 270.93 150.73 271.88 148.07 272.62 146.12 C 273.38 144.18 274.30 141.50 275.03 139.53 C 275.76 137.56 276.75 134.95 277.47 132.97 C 278.19 130.99 279.13 128.33 279.81 126.31 C 280.49 124.29 281.30 121.50 282.00 119.50 C 282.70 117.50 283.75 114.95 284.50 113.00 C 285.55 110.45 286.95 107.05 288.00 104.50 Z"/></clipPath>
</defs>
<path d="M 288.00 104.50 C 289.35 105.85 291.15 107.65 292.50 109.00 C 293.40 110.80 294.65 113.15 295.50 115.00 C 296.35 116.85 297.36 119.44 298.19 121.31 C 299.01 123.19 300.13 125.67 301.00 127.50 C 301.87 129.33 303.10 131.70 304.00 133.50 C 305.65 134.55 307.85 135.95 309.50 137.00 C 311.60 136.40 314.40 135.60 316.50 135.00 C 317.10 132.90 317.98 130.18 318.50 128.00 C 319.02 125.83 319.48 122.67 320.00 120.50 C 320.52 118.33 321.40 115.60 322.00 113.50 C 323.05 114.25 324.45 115.25 325.50 116.00 C 326.10 118.10 326.92 120.88 327.50 123.00 C 328.08 125.12 328.80 128.00 329.34 130.16 C 329.89 132.31 330.62 135.20 331.12 137.38 C 331.63 139.55 332.33 142.46 332.69 144.69 C 333.05 146.91 333.41 149.92 333.53 152.22 C 333.65 154.52 333.50 157.48 333.50 160.00 C 333.50 162.52 333.50 166.30 333.50 169.00 C 333.80 171.40 334.20 174.60 334.50 177.00 C 336.75 177.45 339.75 178.05 342.00 178.50 C 344.25 178.05 347.21 177.14 349.50 177.00 C 351.79 176.86 354.99 177.33 357.28 177.59 C 359.57 177.86 362.58 178.34 364.78 178.78 C 366.98 179.22 369.84 179.97 371.97 180.53 C 374.10 181.09 376.90 181.90 379.00 182.50 C 381.10 183.10 383.90 183.90 386.00 184.50 C 388.10 185.10 390.90 185.90 392.97 186.53 C 395.04 187.16 397.79 188.01 399.81 188.69 C 401.83 189.37 404.49 190.31 406.44 191.06 C 408.39 191.81 410.93 192.87 412.81 193.69 C 414.70 194.50 417.15 195.65 419.00 196.50 C 420.85 197.35 423.30 198.50 425.16 199.34 C 427.01 200.19 429.47 201.33 431.34 202.16 C 433.22 202.98 435.66 204.14 437.66 204.84 C 439.65 205.55 442.37 206.43 444.62 206.88 C 446.88 207.32 450.16 207.64 452.69 207.81 C 455.21 207.99 458.82 207.98 461.47 208.03 C 464.12 208.08 467.70 208.10 470.34 208.16 C 472.99 208.21 476.50 208.30 479.12 208.38 C 481.75 208.45 485.25 208.55 487.84 208.66 C 490.44 208.76 493.89 208.91 496.44 209.06 C 498.99 209.21 502.34 209.46 504.84 209.66 C 507.35 209.85 510.65 210.15 513.12 210.38 C 515.60 210.60 518.89 210.91 521.34 211.16 C 523.80 211.40 527.04 211.76 529.47 212.03 C 531.90 212.30 535.11 212.69 537.53 212.97 C 539.95 213.25 543.21 213.59 545.62 213.88 C 548.04 214.16 551.28 214.52 553.66 214.84 C 556.03 215.17 559.14 215.66 561.44 216.06 C 563.74 216.46 566.74 217.06 569.00 217.50 C 571.26 217.94 574.25 218.55 576.50 219.00 C 578.75 219.45 581.75 220.05 583.97 220.53 C 586.19 221.01 589.14 221.66 591.28 222.22 C 593.42 222.78 596.23 223.57 598.25 224.25 C 600.27 224.93 602.87 225.93 604.75 226.75 C 606.63 227.57 609.02 228.78 610.78 229.72 C 612.54 230.66 614.97 231.83 616.50 233.00 C 618.03 234.17 619.65 236.15 621.00 237.50 C 623.55 237.65 627.17 238.22 629.50 238.00 C 631.83 237.78 634.40 236.60 636.53 236.03 C 638.66 235.46 641.50 234.70 643.69 234.19 C 645.87 233.67 648.82 233.02 651.09 232.59 C 653.37 232.17 656.48 231.68 658.88 231.38 C 661.27 231.07 664.58 230.77 667.09 230.59 C 669.61 230.42 673.07 230.28 675.66 230.22 C 678.24 230.16 681.75 230.17 684.34 230.22 C 686.94 230.27 690.39 230.42 692.97 230.53 C 695.55 230.64 698.95 230.85 701.53 230.97 C 704.11 231.09 707.56 231.24 710.19 231.31 C 712.81 231.39 716.37 231.45 719.03 231.47 C 721.69 231.49 725.30 231.49 727.94 231.44 C 730.58 231.39 734.08 231.28 736.62 231.12 C 739.17 230.97 742.48 230.68 744.91 230.41 C 747.33 230.13 750.48 229.68 752.78 229.28 C 755.09 228.89 758.09 228.29 760.28 227.78 C 762.48 227.28 765.33 226.53 767.41 225.91 C 769.48 225.28 772.18 224.38 774.12 223.62 C 776.07 222.87 778.58 221.78 780.38 220.88 C 782.17 219.97 784.46 218.66 786.06 217.56 C 787.67 216.47 789.65 214.85 791.06 213.56 C 792.48 212.28 794.16 210.36 795.50 209.00 C 796.84 207.64 798.65 205.85 800.00 204.50 C 801.05 205.55 802.45 206.95 803.50 208.00 C 802.15 209.35 800.25 211.05 799.00 212.50 C 797.75 213.95 796.31 216.11 795.19 217.69 C 794.07 219.27 792.60 221.40 791.53 223.03 C 790.46 224.66 789.06 226.86 788.03 228.53 C 787.00 230.20 785.66 232.46 784.69 234.19 C 783.71 235.91 782.46 238.26 781.53 240.03 C 780.60 241.80 779.40 244.20 778.47 245.97 C 777.54 247.74 776.29 250.09 775.31 251.81 C 774.34 253.54 773.00 255.80 771.97 257.47 C 770.94 259.14 769.54 261.34 768.47 262.97 C 767.40 264.60 765.93 266.73 764.81 268.31 C 763.69 269.89 762.15 271.95 761.00 273.50 C 759.85 275.05 758.30 277.10 757.16 278.66 C 756.01 280.21 754.51 282.31 753.34 283.84 C 752.18 285.38 750.63 287.43 749.41 288.91 C 748.18 290.38 746.48 292.28 745.16 293.66 C 743.83 295.03 741.99 296.79 740.59 298.09 C 739.20 299.40 737.29 301.09 735.84 302.34 C 734.40 303.60 732.45 305.25 730.97 306.47 C 729.49 307.69 727.49 309.29 725.97 310.47 C 724.45 311.65 722.39 313.19 720.81 314.31 C 719.23 315.43 717.09 316.89 715.44 317.94 C 713.79 318.99 711.54 320.34 709.81 321.31 C 708.09 322.29 705.74 323.54 703.94 324.44 C 702.14 325.34 699.69 326.49 697.81 327.31 C 695.94 328.14 693.39 329.19 691.44 329.94 C 689.48 330.68 686.83 331.63 684.78 332.28 C 682.73 332.93 679.93 333.73 677.75 334.25 C 675.57 334.77 672.58 335.38 670.25 335.75 C 667.92 336.12 664.72 336.52 662.25 336.75 C 659.78 336.98 656.37 337.18 653.81 337.25 C 651.25 337.32 647.75 337.32 645.19 337.25 C 642.63 337.18 639.22 336.97 636.75 336.75 C 634.28 336.53 631.08 336.12 628.72 335.78 C 626.36 335.44 623.43 334.77 621.00 334.50 C 618.57 334.23 615.05 334.15 612.50 334.00 C 610.85 335.05 608.46 336.26 607.00 337.50 C 605.54 338.74 604.09 340.89 602.78 342.28 C 601.47 343.67 599.65 345.45 598.28 346.78 C 596.91 348.11 594.95 349.75 593.62 351.12 C 592.30 352.50 590.56 354.36 589.44 355.94 C 588.31 357.51 587.04 359.84 586.12 361.62 C 585.21 363.41 584.16 365.96 583.31 367.81 C 582.46 369.66 581.34 372.14 580.47 373.97 C 579.60 375.80 578.40 378.20 577.50 380.00 C 576.60 381.80 575.40 384.20 574.50 386.00 C 573.60 387.80 572.39 390.19 571.47 391.97 C 570.55 393.75 569.30 396.10 568.34 397.84 C 567.39 399.59 566.10 401.90 565.12 403.62 C 564.15 405.35 562.84 407.64 561.84 409.34 C 560.85 411.05 559.49 413.29 558.47 414.97 C 557.45 416.65 556.05 418.85 555.03 420.53 C 554.01 422.21 552.63 424.43 551.66 426.16 C 550.68 427.88 549.37 430.17 548.53 432.03 C 547.70 433.90 546.70 436.50 546.09 438.59 C 545.49 440.69 544.96 443.76 544.50 446.00 C 544.04 448.24 543.45 451.25 543.00 453.50 C 541.35 454.55 539.15 455.95 537.50 457.00 C 535.55 457.75 533.23 459.13 531.00 459.50 C 528.77 459.87 525.15 459.52 522.66 459.47 C 520.16 459.42 516.85 459.24 514.34 459.16 C 511.84 459.07 508.50 458.93 505.97 458.91 C 503.44 458.88 499.90 459.21 497.50 459.00 C 495.10 458.79 492.25 457.95 490.00 457.50 C 488.20 456.60 485.80 455.40 484.00 454.50 C 483.55 452.55 482.95 449.95 482.50 448.00 C 483.85 446.65 485.65 444.85 487.00 443.50 C 489.10 442.90 492.27 442.47 494.00 441.50 C 495.73 440.53 497.31 438.51 498.56 437.06 C 499.81 435.61 501.30 433.50 502.34 431.84 C 503.39 430.19 504.58 427.78 505.53 426.03 C 506.48 424.28 507.71 421.91 508.66 420.16 C 509.60 418.40 510.90 416.10 511.84 414.34 C 512.79 412.59 514.05 410.25 514.97 408.47 C 515.89 406.69 517.10 404.30 518.00 402.50 C 518.90 400.70 520.11 398.31 520.97 396.47 C 521.83 394.63 522.98 392.18 523.75 390.25 C 524.52 388.32 525.47 385.67 526.09 383.59 C 526.72 381.52 527.43 378.63 527.91 376.41 C 528.38 374.18 528.92 371.12 529.28 368.78 C 529.64 366.44 530.03 363.23 530.31 360.81 C 530.59 358.39 530.92 355.09 531.16 352.66 C 531.39 350.22 531.74 346.95 531.88 344.56 C 532.01 342.17 532.14 339.02 532.03 336.72 C 531.92 334.42 531.54 331.43 531.16 329.22 C 530.78 327.01 530.05 324.13 529.50 322.00 C 528.95 319.87 528.10 317.10 527.50 315.00 C 525.10 314.70 521.95 314.05 519.50 314.00 C 517.05 313.95 513.66 314.46 511.19 314.69 C 508.72 314.92 505.46 315.26 503.03 315.53 C 500.60 315.80 497.40 316.20 495.00 316.50 C 492.60 316.80 489.40 317.20 487.00 317.50 C 484.60 317.80 481.40 318.20 479.00 318.50 C 476.60 318.80 473.40 319.20 471.00 319.50 C 468.60 319.80 465.40 320.20 463.00 320.50 C 460.60 320.80 457.40 321.20 455.00 321.50 C 453.95 323.15 452.65 325.45 451.50 327.00 C 450.35 328.55 448.47 330.27 447.34 331.84 C 446.21 333.41 444.82 335.62 443.97 337.47 C 443.12 339.32 442.25 342.05 441.66 344.16 C 441.07 346.27 440.48 349.28 440.03 351.53 C 439.58 353.78 439.05 356.85 438.66 359.16 C 438.26 361.46 437.75 364.55 437.38 366.88 C 437.00 369.20 436.51 372.31 436.16 374.66 C 435.80 377.00 435.35 380.15 435.00 382.50 C 434.65 384.85 434.20 388.00 433.84 390.34 C 433.49 392.69 433.00 395.80 432.66 398.16 C 432.31 400.51 431.85 403.65 431.53 406.03 C 431.21 408.41 430.80 411.60 430.50 414.00 C 430.20 416.40 429.78 419.60 429.50 422.00 C 429.22 424.40 428.81 427.60 428.62 430.00 C 428.44 432.40 428.27 435.60 428.25 438.00 C 428.23 440.40 428.39 443.82 428.50 446.00 C 428.61 448.18 428.85 450.55 429.00 452.50 C 427.65 453.85 425.85 455.65 424.50 457.00 C 422.55 457.75 420.22 459.13 418.00 459.50 C 415.78 459.87 412.16 459.51 409.69 459.44 C 407.21 459.36 403.96 459.13 401.50 459.00 C 399.04 458.87 395.79 458.62 393.31 458.56 C 390.83 458.50 387.49 458.53 384.97 458.59 C 382.45 458.66 378.82 459.24 376.50 459.00 C 374.18 458.76 371.60 457.60 369.50 457.00 C 367.85 455.95 365.65 454.55 364.00 453.50 C 364.00 451.40 364.00 448.60 364.00 446.50 C 365.65 445.45 367.62 443.82 369.50 443.00 C 371.38 442.18 374.40 441.60 376.50 441.00 C 376.95 438.75 377.70 435.90 378.00 433.50 C 378.30 431.10 378.35 427.55 378.50 425.00 C 378.65 422.45 378.85 419.05 378.97 416.47 C 379.09 413.89 379.23 410.43 379.31 407.81 C 379.39 405.19 379.45 401.65 379.50 399.00 C 379.55 396.35 379.60 392.80 379.66 390.16 C 379.71 387.51 379.79 383.99 379.84 381.34 C 379.90 378.70 379.95 375.15 380.00 372.50 C 380.05 369.85 380.10 366.30 380.16 363.66 C 380.21 361.01 380.30 357.50 380.34 354.84 C 380.39 352.19 380.47 348.62 380.47 345.97 C 380.47 343.32 380.49 339.70 380.34 337.16 C 380.19 334.62 379.93 331.27 379.47 329.03 C 379.00 326.80 378.12 324.08 377.25 322.25 C 376.38 320.42 374.88 318.32 373.69 316.81 C 372.49 315.31 370.65 313.55 369.28 312.22 C 367.91 310.89 365.93 309.27 364.53 307.97 C 363.13 306.67 361.23 304.97 359.97 303.53 C 358.71 302.09 357.15 300.05 356.12 298.38 C 355.10 296.70 353.94 294.26 353.12 292.38 C 352.31 290.49 351.35 287.83 350.69 285.81 C 350.03 283.79 349.17 281.03 348.72 278.91 C 348.26 276.78 347.79 273.88 347.66 271.66 C 347.52 269.43 347.67 266.39 347.84 264.09 C 348.02 261.80 348.52 258.68 348.84 256.34 C 349.17 254.00 349.83 251.03 350.00 248.50 C 350.17 245.97 350.00 242.20 350.00 239.50 C 348.95 237.85 347.75 235.45 346.50 234.00 C 345.25 232.55 343.10 231.10 341.69 229.81 C 340.28 228.52 338.40 226.80 337.09 225.41 C 335.79 224.01 334.09 222.11 332.97 220.53 C 331.85 218.95 330.52 216.68 329.62 214.88 C 328.73 213.07 327.54 210.66 327.00 208.50 C 326.46 206.34 326.30 202.90 326.00 200.50 C 323.90 199.90 321.10 199.10 319.00 198.50 C 316.90 199.10 314.27 200.09 312.00 200.50 C 309.73 200.91 306.30 201.08 303.84 201.22 C 301.39 201.35 298.10 201.46 295.66 201.41 C 293.21 201.35 289.96 201.11 287.56 200.88 C 285.17 200.64 282.01 200.18 279.69 199.81 C 277.36 199.45 274.31 198.89 272.06 198.44 C 269.81 197.99 266.87 197.33 264.69 196.81 C 262.51 196.29 259.65 195.55 257.53 194.97 C 255.41 194.39 252.61 193.59 250.53 192.97 C 248.45 192.35 245.72 191.48 243.69 190.81 C 241.66 190.14 238.98 189.22 237.00 188.50 C 235.02 187.78 232.45 186.75 230.50 186.00 C 229.30 184.50 227.70 182.50 226.50 181.00 C 227.85 179.65 229.65 177.85 231.00 176.50 C 232.80 175.60 235.12 174.32 237.00 173.50 C 238.88 172.68 241.55 171.75 243.50 171.00 C 245.45 170.25 248.06 169.26 249.97 168.47 C 251.88 167.68 254.45 166.65 256.25 165.75 C 258.05 164.85 260.41 163.61 261.97 162.47 C 263.52 161.32 265.42 159.62 266.62 158.12 C 267.83 156.63 269.13 154.33 270.03 152.53 C 270.93 150.73 271.88 148.07 272.62 146.12 C 273.38 144.18 274.30 141.50 275.03 139.53 C 275.76 137.56 276.75 134.95 277.47 132.97 C 278.19 130.99 279.13 128.33 279.81 126.31 C 280.49 124.29 281.30 121.50 282.00 119.50 C 282.70 117.50 283.75 114.95 284.50 113.00 C 285.55 110.45 286.95 107.05 288.00 104.50 Z" fill="url(#bs2)"/>
<g clip-path="url(#cs2)" fill="none" stroke-width="7.5" stroke-linecap="round" stroke-linejoin="round">
<path d="M 288 104.5 L 288.9 105.4 L 289.8 106.3 L 290.7 107.2 L 291.6 108.1 L 292.5 109 L 293.1 110.1 L 293.7 111.4" stroke="#E6D6CE" stroke-opacity="0.171"/>
<path d="M 293.7 111.4 L 294.3 112.6 L 294.9 113.8 L 295.5 115 L 296 116.2 L 296.6 117.5 L 297.1 118.8 L 297.7 120.1" stroke="#E6D5CE" stroke-opacity="0.174"/>
<path d="M 297.7 120.1 L 298.2 121.3 L 298.7 122.5 L 299.3 123.8 L 299.9 125.1 L 300.5 126.3 L 301 127.5 L 301.6 128.7" stroke="#E5D4CD" stroke-opacity="0.166"/>
<path d="M 301.6 128.7 L 302.2 129.9 L 302.8 131.1 L 303.4 132.4 L 304 133.5 L 305 134.2 L 306.2 134.9 L 307.3 135.6" stroke="#E5D4CD" stroke-opacity="0.177"/>
<path d="M 307.3 135.6 L 308.5 136.3 L 309.5 137 L 310.8 136.6 L 312.3 136.2 L 313.7 135.8 L 315.2 135.4 L 316.5 135" stroke="#E5D4CD" stroke-opacity="0.103"/>
<path d="M 321.6 114.8 L 322 113.5 L 322.7 114 L 323.4 114.5 L 324.1 115 L 324.8 115.5 L 325.5 116 L 325.9 117.3" stroke="#E7D7CF" stroke-opacity="0.157"/>
<path d="M 325.9 117.3 L 326.3 118.8 L 326.7 120.2 L 327.1 121.7 L 327.5 123 L 327.9 124.4 L 328.2 125.8 L 328.6 127.3" stroke="#E7D7CF" stroke-opacity="0.161"/>
<path d="M 328.6 127.3 L 329 128.8 L 329.3 130.2 L 329.7 131.5 L 330.1 133 L 330.4 134.5 L 330.8 136 L 331.1 137.4" stroke="#E6D6CE" stroke-opacity="0.143"/>
<path d="M 331.1 137.4 L 331.4 138.8 L 331.8 140.2 L 332.1 141.8 L 332.4 143.3 L 332.7 144.7 L 332.9 146.1 L 333.1 147.6" stroke="#E6D5CD" stroke-opacity="0.125"/>
<path d="M 333.1 147.6 L 333.3 149.2 L 333.4 150.8 L 333.5 152.2 L 333.6 153.7 L 333.6 155.2 L 333.5 156.8 L 333.5 158.4" stroke="#E5D3CC" stroke-opacity="0.092"/>
<path d="M 333.5 158.4 L 333.5 160 L 333.5 161.6 L 333.5 163.5 L 333.5 165.4 L 333.5 167.3 L 333.5 169 L 333.7 170.5" stroke="#E4D2CC" stroke-opacity="0.083"/>
<path d="M 333.7 170.5 L 333.9 172.2 L 334.1 173.8 L 334.3 175.5 L 334.5 177 L 335.9 177.3 L 337.5 177.6 L 339 177.9" stroke="#E4D1CB" stroke-opacity="0.117"/>
<path d="M 339 177.9 L 340.6 178.2 L 342 178.5 L 343.4 178.2 L 345 177.8 L 346.5 177.5 L 348.1 177.2 L 349.5 177" stroke="#E4D1CB" stroke-opacity="0.106"/>
<path d="M 349.5 177 L 351 177 L 352.6 177.1 L 354.2 177.2 L 355.8 177.4 L 357.3 177.6 L 358.7 177.8 L 360.3 178" stroke="#E4D2CC" stroke-opacity="0.129"/>
<path d="M 360.3 178 L 361.8 178.2 L 363.4 178.5 L 364.8 178.8 L 366.2 179.1 L 367.6 179.4 L 369.2 179.8 L 370.6 180.2" stroke="#E5D3CC" stroke-opacity="0.154"/>
<path d="M 370.6 180.2 L 372 180.5 L 373.3 180.9 L 374.8 181.3 L 376.2 181.7 L 377.7 182.1 L 379 182.5 L 380.3 182.9" stroke="#E5D3CC" stroke-opacity="0.166"/>
<path d="M 380.3 182.9 L 381.8 183.3 L 383.2 183.7 L 384.7 184.1 L 386 184.5 L 387.3 184.9 L 388.8 185.3 L 390.2 185.7" stroke="#E5D4CD" stroke-opacity="0.171"/>
<path d="M 390.2 185.7 L 391.6 186.1 L 393 186.5 L 394.3 186.9 L 395.7 187.4 L 397.1 187.8 L 398.5 188.3 L 399.8 188.7" stroke="#E5D4CD" stroke-opacity="0.177"/>
<path d="M 399.8 188.7 L 401.1 189.1 L 402.5 189.6 L 403.8 190.1 L 405.2 190.6 L 406.4 191.1 L 407.7 191.5 L 409 192.1" stroke="#E5D4CD" stroke-opacity="0.185"/>
<path d="M 409 192.1 L 410.3 192.6 L 411.6 193.2 L 412.8 193.7 L 414 194.2 L 415.3 194.8 L 416.6 195.4 L 417.8 196" stroke="#E5D4CD" stroke-opacity="0.193"/>
<path d="M 417.8 196 L 419 196.5 L 420.2 197 L 421.4 197.6 L 422.7 198.2 L 424 198.8 L 425.2 199.3 L 426.3 199.9" stroke="#E6D5CD" stroke-opacity="0.196"/>
<path d="M 426.3 199.9 L 427.6 200.5 L 428.9 201.1 L 430.2 201.6 L 431.3 202.2 L 432.5 202.7 L 433.8 203.3 L 435.1 203.8" stroke="#E6D5CD" stroke-opacity="0.196"/>
<path d="M 435.1 203.8 L 436.4 204.4 L 437.7 204.8 L 438.9 205.3 L 440.3 205.7 L 441.8 206.2 L 443.2 206.6 L 444.6 206.9" stroke="#E6D5CD" stroke-opacity="0.185"/>
<path d="M 444.6 206.9 L 446.1 207.1 L 447.7 207.3 L 449.4 207.5 L 451.1 207.7 L 452.7 207.8 L 454.3 207.9 L 456.1 207.9" stroke="#E6D6CE" stroke-opacity="0.159"/>
<path d="M 456.1 207.9 L 458 208 L 459.8 208 L 461.5 208 L 463.2 208.1 L 465 208.1 L 466.8 208.1 L 468.7 208.1" stroke="#E7D6CE" stroke-opacity="0.149"/>
<path d="M 468.7 208.1 L 470.3 208.2 L 472 208.2 L 473.8 208.2 L 475.7 208.3 L 477.5 208.3 L 479.1 208.4 L 480.8 208.4" stroke="#E7D7CF" stroke-opacity="0.156"/>
<path d="M 480.8 208.4 L 482.6 208.5 L 484.4 208.5 L 486.2 208.6 L 487.8 208.7 L 489.5 208.7 L 491.3 208.8 L 493.1 208.9" stroke="#E7D8CF" stroke-opacity="0.165"/>
<path d="M 493.1 208.9 L 494.8 209 L 496.4 209.1 L 498.1 209.2 L 499.8 209.3 L 501.5 209.4 L 503.3 209.5 L 504.8 209.7" stroke="#E8D9D0" stroke-opacity="0.177"/>
<path d="M 504.8 209.7 L 506.4 209.8 L 508.1 209.9 L 509.9 210.1 L 511.6 210.2 L 513.1 210.4 L 514.7 210.5 L 516.4 210.7" stroke="#E8DAD0" stroke-opacity="0.188"/>
<path d="M 516.4 210.7 L 518.1 210.8 L 519.8 211 L 521.3 211.2 L 522.9 211.3 L 524.6 211.5 L 526.3 211.7 L 527.9 211.9" stroke="#E9DBD1" stroke-opacity="0.198"/>
<path d="M 527.9 211.9 L 529.5 212 L 531 212.2 L 532.7 212.4 L 534.3 212.6 L 536 212.8 L 537.5 213 L 539.1 213.1" stroke="#E9DBD1" stroke-opacity="0.206"/>
<path d="M 539.1 213.1 L 540.7 213.3 L 542.4 213.5 L 544.1 213.7 L 545.6 213.9 L 547.2 214.1 L 548.8 214.2 L 550.5 214.4" stroke="#E9DCD2" stroke-opacity="0.213"/>
<path d="M 550.5 214.4 L 552.1 214.6 L 553.7 214.8 L 555.2 215.1 L 556.8 215.3 L 558.4 215.6 L 560 215.8 L 561.4 216.1" stroke="#EADDD2" stroke-opacity="0.227"/>
<path d="M 561.4 216.1 L 562.9 216.3 L 564.4 216.6 L 566 216.9 L 567.6 217.2 L 569 217.5 L 570.4 217.8 L 572 218.1" stroke="#EADDD3" stroke-opacity="0.241"/>
<path d="M 572 218.1 L 573.5 218.4 L 575.1 218.7 L 576.5 219 L 577.9 219.3 L 579.5 219.6 L 581 219.9 L 582.6 220.2" stroke="#EADED3" stroke-opacity="0.25"/>
<path d="M 582.6 220.2 L 584 220.5 L 585.4 220.8 L 586.9 221.2 L 588.4 221.5 L 589.9 221.9 L 591.3 222.2 L 592.6 222.6" stroke="#EBDED3" stroke-opacity="0.262"/>
<path d="M 592.6 222.6 L 594.1 223 L 595.5 223.4 L 597 223.8 L 598.2 224.2 L 599.5 224.7 L 600.9 225.2 L 602.2 225.7" stroke="#EBDFD3" stroke-opacity="0.284"/>
<path d="M 602.2 225.7 L 603.5 226.2 L 604.8 226.8 L 605.9 227.3 L 607.2 227.9 L 608.4 228.5 L 609.7 229.1 L 610.8 229.7" stroke="#EBDFD4" stroke-opacity="0.306"/>
<path d="M 610.8 229.7 L 611.9 230.3 L 613.1 230.9 L 614.3 231.6 L 615.5 232.3 L 616.5 233 L 617.4 233.8 L 618.4 234.7" stroke="#EBDFD4" stroke-opacity="0.317"/>
<path d="M 618.4 234.7 L 619.3 235.7 L 620.2 236.6 L 621 237.5 L 622.6 237.6 L 624.4 237.8 L 626.2 238 L 628 238" stroke="#EBDFD4" stroke-opacity="0.264"/>
<path d="M 628 238 L 629.5 238 L 630.9 237.8 L 632.4 237.4 L 633.8 236.9 L 635.2 236.4 L 636.5 236 L 637.9 235.7" stroke="#EBE0D4" stroke-opacity="0.15"/>
<path d="M 637.9 235.7 L 639.3 235.3 L 640.8 234.9 L 642.3 234.5 L 643.7 234.2 L 645.1 233.9 L 646.6 233.5 L 648.1 233.2" stroke="#ECE1D5" stroke-opacity="0.145"/>
<path d="M 648.1 233.2 L 649.7 232.9 L 651.1 232.6 L 652.5 232.3 L 654.1 232.1 L 655.8 231.8 L 657.4 231.6 L 658.9 231.4" stroke="#EDE2D6" stroke-opacity="0.176"/>
<path d="M 658.9 231.4 L 660.4 231.2 L 662.1 231 L 663.8 230.9 L 665.5 230.7 L 667.1 230.6 L 668.7 230.5 L 670.4 230.4" stroke="#EDE3D6" stroke-opacity="0.213"/>
<path d="M 670.4 230.4 L 672.2 230.3 L 674 230.3 L 675.7 230.2 L 677.3 230.2 L 679.1 230.2 L 680.9 230.2 L 682.7 230.2" stroke="#EEE4D7" stroke-opacity="0.246"/>
<path d="M 682.7 230.2 L 684.3 230.2 L 686 230.3 L 687.8 230.3 L 689.6 230.4 L 691.3 230.5 L 693 230.5 L 694.6 230.6" stroke="#EEE5D7" stroke-opacity="0.273"/>
<path d="M 694.6 230.6 L 696.4 230.7 L 698.1 230.8 L 699.9 230.9 L 701.5 231 L 703.2 231 L 704.9 231.1 L 706.8 231.2" stroke="#EEE6D8" stroke-opacity="0.287"/>
<path d="M 706.8 231.2 L 708.5 231.3 L 710.2 231.3 L 711.9 231.4 L 713.7 231.4 L 715.5 231.4 L 717.3 231.5 L 719 231.5" stroke="#EFE7D8" stroke-opacity="0.287"/>
<path d="M 719 231.5 L 720.7 231.5 L 722.6 231.5 L 724.4 231.5 L 726.3 231.5 L 727.9 231.4 L 729.6 231.4 L 731.4 231.3" stroke="#EFE7D9" stroke-opacity="0.283"/>
<path d="M 731.4 231.3 L 733.2 231.3 L 735 231.2 L 736.6 231.1 L 738.2 231 L 739.9 230.9 L 741.7 230.7 L 743.4 230.6" stroke="#F0E8DA" stroke-opacity="0.269"/>
<path d="M 743.4 230.6 L 744.9 230.4 L 746.4 230.2 L 748.1 230 L 749.7 229.8 L 751.3 229.5 L 752.8 229.3 L 754.2 229" stroke="#F0E9DA" stroke-opacity="0.244"/>
<path d="M 754.2 229 L 755.8 228.7 L 757.4 228.4 L 758.9 228.1 L 760.3 227.8 L 761.7 227.5 L 763.1 227.1 L 764.6 226.7" stroke="#F1EADB" stroke-opacity="0.215"/>
<path d="M 764.6 226.7 L 766.1 226.3 L 767.4 225.9 L 768.7 225.5 L 770.1 225.1 L 771.5 224.6 L 772.9 224.1 L 774.1 223.6" stroke="#F2ECDC" stroke-opacity="0.178"/>
<path d="M 774.1 223.6 L 775.4 223.1 L 776.6 222.6 L 778 222 L 779.2 221.4 L 780.4 220.9 L 781.5 220.3 L 782.7 219.6" stroke="#F2ECDC" stroke-opacity="0.126"/>
<path d="M 796.4 208.1 L 797.3 207.2 L 798.2 206.3 L 799.1 205.4 L 800 204.5 L 800.7 205.2 L 801.4 205.9 L 802.1 206.6" stroke="#F2ECDC" stroke-opacity="0.244"/>
<path d="M 802.1 206.6 L 802.8 207.3 L 803.5 208 L 802.6 208.8 L 801.7 209.7 L 800.7 210.7 L 799.8 211.6 L 799 212.5" stroke="#F2ECDC" stroke-opacity="0.173"/>
<path d="M 286.6 107.9 L 287.3 106.1 L 288 104.5 L 288.9 105.4 L 289.8 106.3 L 290.7 107.2 L 291.6 108.1 L 292.5 109" stroke="#E6D6CE" stroke-opacity="0.136"/>
</g>
</svg>
