<svg xmlns="http://www.w3.org/2000/svg" viewBox="0 0 340.54 134.63" width="34.054mm" height="13.463mm" role="img" aria-label="Lunard"><title>Lunard</title><g><path d="M1.26 67.34H11.83V2.19H1.26V0.86H31.93V2.19H21.36V67.34H38.31Q46.69 67.34 51.45 62.10Q56.22 56.86 58.41 47.82H59.46V68.68H1.26Z" fill="#2B2723"/><path d="M122.61 68.68H107.27V59.05H107.08Q106.22 60.96 105.03 62.91Q103.84 64.87 102.08 66.44Q100.32 68.01 97.98 69.01Q95.65 70.01 92.51 70.01Q88.70 70.01 86.32 69.15Q83.93 68.29 82.60 67.34Q81.93 66.87 81.12 66.15Q80.31 65.44 79.65 64.20Q78.98 62.96 78.51 61.01Q78.03 59.05 78.03 56.20V29.15H70.69V27.81H86.22V57.05Q86.22 59.53 86.55 61.63Q86.89 63.72 87.84 65.29Q88.79 66.87 90.32 67.77Q91.84 68.68 94.32 68.68Q96.41 68.68 98.65 67.44Q100.89 66.20 102.75 63.91Q104.60 61.63 105.84 58.44Q107.08 55.24 107.08 51.24V29.15H99.84V27.81H115.27V67.34H122.61Z" fill="#2B2723"/><path d="M132.04 67.34H139.37V29.15H132.04V27.81H147.37V38.00H147.56Q148.13 36.77 149.23 34.86Q150.32 32.96 152.23 31.15Q154.13 29.34 156.99 28.05Q159.85 26.77 163.94 26.77Q170.23 26.77 174.18 29.81Q178.14 32.86 178.14 39.53V67.34H185.47V68.68H162.61V67.34H169.95V36.58Q169.95 32.86 168.18 30.48Q166.42 28.10 162.71 28.10Q159.66 28.10 156.90 29.43Q154.13 30.77 152.04 33.15Q149.94 35.53 148.75 38.77Q147.56 42.01 147.56 45.82V67.34H154.90V68.68H132.04Z" fill="#2B2723"/><path d="M221.48 45.34H221.28Q221.09 46.58 218.14 47.82L211.00 50.67Q207.95 51.91 206.33 54.15Q204.71 56.39 204.71 59.72Q204.71 61.15 205.00 62.67Q205.28 64.20 206.04 65.39Q206.81 66.58 208.19 67.34Q209.57 68.10 211.76 68.10Q214.90 68.10 216.86 66.77Q218.81 65.44 219.81 63.44Q220.81 61.44 221.14 59.10Q221.48 56.77 221.48 54.86ZM238.14 67.63Q236.91 68.58 235.19 69.29Q233.48 70.01 231.00 70.01Q226.43 70.01 224.38 68.06Q222.33 66.10 221.57 62.58H221.38Q221.00 63.44 220.33 64.72Q219.67 66.01 218.28 67.20Q216.90 68.39 214.62 69.20Q212.33 70.01 208.81 70.01Q204.81 70.01 202.43 69.10Q200.04 68.20 198.71 66.87Q197.38 65.53 196.95 63.87Q196.52 62.20 196.52 60.77Q196.52 57.44 197.85 55.44Q199.19 53.44 201.33 52.24Q203.47 51.05 206.09 50.29Q208.71 49.53 211.38 48.67Q214.52 47.62 216.57 46.86Q218.62 46.10 219.76 45.01Q220.90 43.91 221.33 42.24Q221.76 40.58 221.76 37.72Q221.76 35.43 221.48 33.62Q221.19 31.81 220.43 30.53Q219.67 29.24 218.24 28.57Q216.81 27.91 214.43 27.91Q211.28 27.91 209.24 29.00Q207.19 30.10 207.19 32.58Q207.19 34.19 207.47 35.77Q207.76 37.34 207.76 38.10Q207.76 39.43 206.81 40.34Q205.85 41.24 204.04 41.24Q200.90 41.24 200.14 40.10Q199.38 38.96 199.38 37.15Q199.38 35.05 200.33 33.15Q201.28 31.24 203.14 29.77Q205.00 28.29 207.81 27.43Q210.62 26.57 214.24 26.57Q218.62 26.57 221.57 27.67Q224.52 28.77 226.33 30.62Q228.14 32.48 228.90 34.81Q229.67 37.15 229.67 39.72V63.44Q229.67 66.20 230.52 67.15Q231.38 68.10 233.00 68.10Q234.05 68.10 235.19 67.72Q236.33 67.34 237.38 66.58Z" fill="#2B2723"/><path d="M245.76 67.34H253.10V29.15H245.76V27.81H261.10V37.43H261.29Q261.67 36.00 262.53 34.19Q263.39 32.38 264.91 30.72Q266.43 29.05 268.58 27.91Q270.72 26.77 273.77 26.77Q275.96 26.77 277.58 27.48Q279.20 28.19 280.24 29.29Q281.29 30.38 281.77 31.81Q282.24 33.24 282.24 34.67Q282.24 37.81 280.82 38.86Q279.39 39.91 277.48 39.91Q273.29 39.91 273.29 37.24Q273.29 36.39 273.48 35.86Q273.67 35.34 273.91 34.81Q274.15 34.29 274.34 33.62Q274.53 32.96 274.53 31.72Q274.53 28.67 271.20 28.67Q269.67 28.67 267.96 29.81Q266.24 30.96 264.77 33.15Q263.29 35.34 262.29 38.43Q261.29 41.53 261.29 45.53V67.34H269.58V68.68H245.76Z" fill="#2B2723"/><path d="M301.20 46.86Q301.20 51.82 301.49 55.86Q301.77 59.91 302.91 62.77Q304.06 65.63 306.34 67.15Q308.63 68.68 312.53 68.68Q316.53 68.68 318.96 66.96Q321.39 65.25 322.73 62.53Q324.06 59.82 324.54 56.48Q325.01 53.15 325.01 50.01Q325.01 46.29 324.87 43.58Q324.73 40.86 324.35 38.77Q323.96 36.67 323.30 35.15Q322.63 33.62 321.68 32.29Q320.25 30.38 317.96 29.15Q315.68 27.91 312.15 27.91Q308.82 27.91 306.68 29.24Q304.53 30.58 303.34 33.05Q302.15 35.53 301.68 39.00Q301.20 42.48 301.20 46.86ZM317.68 0.00H333.20V67.34H340.54V68.68H325.20V60.39H325.01Q324.63 61.53 323.87 63.15Q323.11 64.77 321.63 66.29Q320.15 67.82 317.92 68.91Q315.68 70.01 312.44 70.01Q308.25 70.01 304.49 68.20Q300.72 66.39 297.87 63.34Q295.01 60.29 293.34 56.34Q291.67 52.39 291.67 48.01Q291.67 43.72 293.29 39.81Q294.91 35.91 297.68 33.00Q300.44 30.10 304.06 28.34Q307.68 26.57 311.77 26.57Q317.01 26.57 320.25 29.15Q323.49 31.72 324.82 35.43H325.01V1.33H317.68Z" fill="#2B2723"/><path d="M7.61,134.63 L9.16,134.54 L10.71,134.46 L12.25,134.38 L13.80,134.29 L15.35,134.20 L16.90,134.12 L18.45,134.03 L19.99,133.94 L21.54,133.85 L23.09,133.77 L24.63,133.68 L26.18,133.59 L27.73,133.50 L29.27,133.41 L30.82,133.31 L32.36,133.22 L33.91,133.13 L35.45,133.04 L37.00,132.95 L38.54,132.86 L40.09,132.77 L41.63,132.68 L43.18,132.58 L44.72,132.49 L46.26,132.40 L47.81,132.31 L49.35,132.22 L50.89,132.13 L52.44,132.04 L53.98,131.95 L55.52,131.86 L57.06,131.77 L58.60,131.69 L60.15,131.60 L61.69,131.51 L63.23,131.43 L64.77,131.34 L66.31,131.26 L67.85,131.18 L69.39,131.10 L70.93,131.01 L72.48,130.94 L74.02,130.86 L75.56,130.78 L77.10,130.70 L78.64,130.63 L80.18,130.55 L81.71,130.48 L83.25,130.41 L84.79,130.34 L86.33,130.27 L87.87,130.21 L89.41,130.14 L90.95,130.08 L92.49,130.02 L94.03,129.96 L95.56,129.90 L97.10,129.84 L98.64,129.79 L100.18,129.74 L101.72,129.69 L103.26,129.64 L104.79,129.59 L106.33,129.54 L107.87,129.50 L109.41,129.46 L110.94,129.42 L112.48,129.38 L114.02,129.35 L115.55,129.31 L117.09,129.28 L118.63,129.25 L120.16,129.22 L121.70,129.20 L123.23,129.18 L124.77,129.15 L126.31,129.14 L127.84,129.12 L129.38,129.10 L130.91,129.09 L132.45,129.08 L133.98,129.07 L135.52,129.06 L137.05,129.06 L138.59,129.06 L140.12,129.05 L141.65,129.06 L143.19,129.06 L144.72,129.06 L146.25,129.07 L147.78,129.08 L149.32,129.09 L150.85,129.10 L152.38,129.11 L153.91,129.13 L155.44,129.14 L156.97,129.16 L158.50,129.18 L160.03,129.20 L161.55,129.23 L163.08,129.25 L164.61,129.27 L166.14,129.30 L167.66,129.33 L169.19,129.36 L170.71,129.39 L172.23,129.42 L173.76,129.45 L175.28,129.48 L176.80,129.51 L178.32,129.55 L179.84,129.58 L181.36,129.62 L182.87,129.65 L184.39,129.69 L185.91,129.72 L187.42,129.76 L188.93,129.79 L190.44,129.83 L191.95,129.86 L193.46,129.90 L194.97,129.93 L196.47,129.97 L197.98,130.00 L199.48,130.03 L200.98,130.07 L202.48,130.10 L203.98,130.13 L205.47,130.16 L206.97,130.18 L208.46,130.21 L209.95,130.23 L211.44,130.26 L212.92,130.28 L214.40,130.30 L215.89,130.32 L217.36,130.33 L218.84,130.34 L220.31,130.36 L221.78,130.36 L223.25,130.37 L224.72,130.37 L226.18,130.37 L227.64,130.37 L229.09,130.36 L230.55,130.35 L231.99,130.34 L233.44,130.33 L234.88,130.31 L236.32,130.28 L237.76,130.25 L239.19,130.22 L240.62,130.19 L242.04,130.15 L243.46,130.10 L244.87,130.05 L246.28,130.00 L247.69,129.94 L249.09,129.88 L250.49,129.81 L251.88,129.74 L253.27,129.66 L254.65,129.57 L256.02,129.48 L257.40,129.39 L258.76,129.29 L260.12,129.18 L261.48,129.06 L262.82,128.94 L264.17,128.82 L265.50,128.68 L266.83,128.55 L268.15,128.40 L269.47,128.25 L270.78,128.09 L272.08,127.92 L273.38,127.75 L274.67,127.56 L275.95,127.38 L277.22,127.18 L278.48,126.98 L279.74,126.76 L280.99,126.54 L282.23,126.32 L283.46,126.08 L284.68,125.84 L285.90,125.59 L287.10,125.33 L288.30,125.06 L289.48,124.78 L290.66,124.50 L291.82,124.20 L292.98,123.90 L294.13,123.59 L295.26,123.27 L296.38,122.94 L297.50,122.60 L298.60,122.25 L299.69,121.89 L300.77,121.53 L301.83,121.15 L302.89,120.76 L303.93,120.37 L304.96,119.96 L305.98,119.55 L306.98,119.12 L307.97,118.69 L308.95,118.24 L309.91,117.79 L310.86,117.32 L311.79,116.85 L312.71,116.36 L313.61,115.86 L314.50,115.36 L315.38,114.84 L316.23,114.31 L317.08,113.78 L317.90,113.23 L318.71,112.67 L319.49,112.11 L319.77,111.85 L319.99,111.54 L320.14,111.19 L320.20,110.82 L320.17,110.44 L320.07,110.07 L319.88,109.74 L319.63,109.45 L319.32,109.24 L318.96,109.09 L318.59,109.03 L318.21,109.05 L317.84,109.16 L317.51,109.34 L316.76,109.88 L316.00,110.40 L315.22,110.90 L314.43,111.40 L313.62,111.89 L312.79,112.36 L311.94,112.83 L311.08,113.29 L310.20,113.73 L309.31,114.17 L308.40,114.60 L307.48,115.01 L306.54,115.42 L305.59,115.82 L304.62,116.21 L303.64,116.59 L302.65,116.95 L301.64,117.31 L300.62,117.66 L299.59,118.00 L298.54,118.34 L297.48,118.66 L296.41,118.97 L295.33,119.27 L294.24,119.57 L293.13,119.85 L292.02,120.13 L290.89,120.40 L289.75,120.66 L288.61,120.91 L287.45,121.15 L286.28,121.38 L285.10,121.60 L283.92,121.82 L282.72,122.03 L281.52,122.22 L280.30,122.42 L279.08,122.60 L277.85,122.77 L276.61,122.94 L275.36,123.10 L274.10,123.25 L272.84,123.39 L271.57,123.53 L270.29,123.66 L269.00,123.78 L267.71,123.90 L266.41,124.00 L265.10,124.10 L263.78,124.20 L262.46,124.29 L261.14,124.37 L259.80,124.44 L258.46,124.51 L257.12,124.57 L255.77,124.63 L254.41,124.68 L253.05,124.72 L251.68,124.76 L250.30,124.79 L248.93,124.82 L247.54,124.84 L246.15,124.86 L244.76,124.87 L243.36,124.87 L241.96,124.87 L240.55,124.87 L239.14,124.86 L237.73,124.85 L236.31,124.84 L234.88,124.82 L233.46,124.79 L232.03,124.76 L230.59,124.73 L229.15,124.69 L227.71,124.66 L226.26,124.61 L224.81,124.57 L223.36,124.52 L221.91,124.47 L220.45,124.41 L218.98,124.35 L217.52,124.29 L216.05,124.23 L214.58,124.16 L213.11,124.10 L211.63,124.03 L210.15,123.95 L208.67,123.88 L207.19,123.80 L205.70,123.73 L204.22,123.65 L202.72,123.57 L201.23,123.49 L199.74,123.40 L198.24,123.32 L196.74,123.24 L195.24,123.15 L193.74,123.06 L192.23,122.98 L190.73,122.89 L189.22,122.80 L187.71,122.71 L186.20,122.62 L184.68,122.53 L183.17,122.44 L181.65,122.36 L180.14,122.27 L178.62,122.18 L177.10,122.09 L175.58,122.00 L174.05,121.91 L172.53,121.83 L171.00,121.74 L169.48,121.65 L167.95,121.57 L166.42,121.49 L164.89,121.40 L163.36,121.32 L161.83,121.24 L160.29,121.16 L158.76,121.08 L157.22,121.00 L155.69,120.92 L154.15,120.85 L152.62,120.77 L151.08,120.70 L149.54,120.63 L148.00,120.56 L146.46,120.49 L144.92,120.43 L143.38,120.36 L141.84,120.30 L140.29,120.24 L138.75,120.18 L137.21,120.12 L135.66,120.06 L134.12,120.01 L132.57,119.96 L131.03,119.90 L129.48,119.85 L127.93,119.81 L126.39,119.76 L124.84,119.72 L123.29,119.68 L121.74,119.64 L120.20,119.60 L118.65,119.56 L117.10,119.53 L115.55,119.49 L114.00,119.46 L112.45,119.43 L110.90,119.41 L109.35,119.38 L107.80,119.36 L106.25,119.34 L104.70,119.32 L103.15,119.30 L101.60,119.28 L100.05,119.27 L98.50,119.25 L96.95,119.24 L95.40,119.23 L93.85,119.22 L92.30,119.22 L90.75,119.21 L89.20,119.21 L87.65,119.20 L86.09,119.20 L84.54,119.20 L82.99,119.20 L81.44,119.21 L79.89,119.21 L78.34,119.21 L76.79,119.22 L75.24,119.23 L73.69,119.23 L72.14,119.24 L70.59,119.25 L69.04,119.26 L67.49,119.28 L65.94,119.29 L64.39,119.30 L62.84,119.32 L61.29,119.33 L59.74,119.34 L58.19,119.36 L56.65,119.38 L55.10,119.39 L53.55,119.41 L52.00,119.43 L50.45,119.44 L48.90,119.46 L47.36,119.48 L45.81,119.50 L44.26,119.51 L42.72,119.53 L41.17,119.55 L39.62,119.57 L38.08,119.59 L36.53,119.60 L34.98,119.62 L33.44,119.64 L31.89,119.65 L30.35,119.67 L28.80,119.68 L27.26,119.70 L25.71,119.71 L24.17,119.73 L22.62,119.74 L21.08,119.75 L19.53,119.77 L17.99,119.78 L16.45,119.79 L14.90,119.80 L13.36,119.81 L11.82,119.81 L10.28,119.82 L8.73,119.83 L7.19,119.83 L5.55,120.07 L4.00,120.66 L2.62,121.58 L1.49,122.78 L0.64,124.21 L0.14,125.79 L0.00,127.44 L0.24,129.08 L0.83,130.63 L1.75,132.01 L2.95,133.14 L4.38,133.99 L5.96,134.49 Z" fill="#6B2D35"/></g></svg>