<svg xmlns="http://www.w3.org/2000/svg" viewBox="0 0 117.88 117.88" width="1024" height="1024" role="img" aria-label="Lunard mark"><title>Lunard mark</title><path d="M30.53,36.34 L30.73,36.04 L30.91,35.78 L31.09,35.51 L31.28,35.25 L31.47,34.99 L31.66,34.74 L31.85,34.48 L32.04,34.22 L32.24,33.97 L32.44,33.72 L32.65,33.47 L32.85,33.22 L33.06,32.97 L33.27,32.72 L33.48,32.48 L33.70,32.24 L33.92,32.00 L34.14,31.76 L34.36,31.52 L34.59,31.29 L34.82,31.06 L35.05,30.83 L35.28,30.60 L35.52,30.37 L35.75,30.14 L35.99,29.92 L36.24,29.70 L36.48,29.48 L36.73,29.27 L36.98,29.05 L37.23,28.84 L37.49,28.63 L37.74,28.42 L38.00,28.22 L38.26,28.01 L38.53,27.81 L38.79,27.61 L39.06,27.42 L39.33,27.22 L39.60,27.03 L39.88,26.84 L40.16,26.66 L40.43,26.47 L40.72,26.29 L41.00,26.11 L41.28,25.94 L41.57,25.76 L41.86,25.59 L42.15,25.42 L42.44,25.26 L42.74,25.10 L43.04,24.94 L43.34,24.78 L43.64,24.62 L43.94,24.47 L44.24,24.32 L44.55,24.18 L44.86,24.04 L45.17,23.90 L45.48,23.76 L45.79,23.62 L46.11,23.49 L46.42,23.36 L46.74,23.24 L47.06,23.12 L47.38,23.00 L47.70,22.88 L48.03,22.77 L48.35,22.66 L48.68,22.55 L49.01,22.45 L49.34,22.35 L49.67,22.25 L50.00,22.16 L50.34,22.07 L50.67,21.98 L51.01,21.90 L51.34,21.82 L51.68,21.74 L52.02,21.67 L52.36,21.60 L52.70,21.53 L53.05,21.47 L53.39,21.41 L53.74,21.36 L54.08,21.30 L54.43,21.25 L54.77,21.21 L55.12,21.17 L55.47,21.13 L55.82,21.09 L56.17,21.06 L56.52,21.03 L56.87,21.01 L57.22,20.99 L57.58,20.97 L57.93,20.96 L58.28,20.95 L58.64,20.94 L58.99,20.94 L59.34,20.94 L59.70,20.95 L60.05,20.96 L60.41,20.97 L60.76,20.98 L61.12,21.00 L61.47,21.03 L61.83,21.06 L62.19,21.09 L62.54,21.12 L62.90,21.16 L63.25,21.20 L63.61,21.25 L63.96,21.30 L64.32,21.35 L64.67,21.41 L65.02,21.47 L65.38,21.54 L65.73,21.61 L66.08,21.68 L66.43,21.76 L66.79,21.84 L67.14,21.92 L67.49,22.01 L67.84,22.10 L68.18,22.20 L68.53,22.30 L68.88,22.40 L69.22,22.51 L69.57,22.62 L69.91,22.73 L70.26,22.85 L70.60,22.97 L70.94,23.10 L71.28,23.23 L71.62,23.36 L71.96,23.50 L72.29,23.64 L72.63,23.78 L72.96,23.93 L73.29,24.08 L73.62,24.24 L73.95,24.40 L74.28,24.56 L74.60,24.73 L74.93,24.90 L75.25,25.07 L75.57,25.25 L75.89,25.43 L76.21,25.61 L76.52,25.80 L76.84,25.99 L77.15,26.18 L77.46,26.38 L77.77,26.58 L78.07,26.79 L78.37,27.00 L78.68,27.21 L78.97,27.42 L79.27,27.64 L79.57,27.86 L79.86,28.09 L80.15,28.31 L80.44,28.55 L80.72,28.78 L81.00,29.02 L81.28,29.26 L81.56,29.50 L81.84,29.75 L82.11,30.00 L82.38,30.25 L82.65,30.51 L82.91,30.77 L83.17,31.03 L83.43,31.29 L83.69,31.56 L83.94,31.83 L84.19,32.10 L84.44,32.38 L84.68,32.66 L84.92,32.94 L85.16,33.22 L85.40,33.51 L85.63,33.80 L85.86,34.09 L86.08,34.38 L86.31,34.68 L86.53,34.98 L86.74,35.28 L86.96,35.58 L87.17,35.89 L87.37,36.20 L87.57,36.51 L87.77,36.82 L87.97,37.14 L88.16,37.45 L88.35,37.77 L88.54,38.09 L88.72,38.42 L88.90,38.74 L89.08,39.07 L89.25,39.40 L89.42,39.73 L89.58,40.06 L89.74,40.39 L89.90,40.73 L90.06,41.07 L90.21,41.41 L90.35,41.75 L90.50,42.09 L90.64,42.43 L90.77,42.78 L90.90,43.12 L91.03,43.47 L91.16,43.82 L91.28,44.17 L91.39,44.52 L91.51,44.88 L91.62,45.23 L91.72,45.58 L91.82,45.94 L91.92,46.30 L92.02,46.65 L92.11,47.01 L92.19,47.37 L92.28,47.73 L92.35,48.09 L92.43,48.45 L92.50,48.82 L92.57,49.18 L92.63,49.54 L92.69,49.91 L92.75,50.27 L92.80,50.64 L92.85,51.00 L92.89,51.37 L92.93,51.73 L92.97,52.10 L93.00,52.47 L93.03,52.83 L93.06,53.20 L93.08,53.57 L93.10,53.93 L93.11,54.30 L93.12,54.67 L93.13,55.03 L93.13,55.40 L93.13,55.77 L93.12,56.13 L93.11,56.50 L93.10,56.86 L93.08,57.23 L93.06,57.59 L93.04,57.96 L93.01,58.32 L92.98,58.68 L92.95,59.05 L92.91,59.41 L92.87,59.77 L92.82,60.13 L92.77,60.49 L92.72,60.85 L92.66,61.21 L92.61,61.57 L92.54,61.93 L92.48,62.28 L92.41,62.64 L92.33,62.99 L92.25,63.34 L92.17,63.70 L92.09,64.05 L92.00,64.40 L91.91,64.75 L91.82,65.10 L91.72,65.44 L91.62,65.79 L91.52,66.13 L91.41,66.48 L91.30,66.82 L91.19,67.16 L91.07,67.50 L90.95,67.83 L90.83,68.17 L90.71,68.51 L90.58,68.84 L90.45,69.17 L90.31,69.50 L90.17,69.83 L90.03,70.16 L89.89,70.48 L89.74,70.81 L89.60,71.13 L89.44,71.45 L89.29,71.77 L89.13,72.09 L88.97,72.40 L88.81,72.72 L88.64,73.03 L88.48,73.34 L88.30,73.65 L88.13,73.96 L87.96,74.26 L87.78,74.57 L87.60,74.87 L87.41,75.17 L87.23,75.46 L87.04,75.76 L86.85,76.05 L86.66,76.35 L86.46,76.64 L86.26,76.93 L86.06,77.21 L85.86,77.50 L85.66,77.78 L85.45,78.06 L85.24,78.34 L85.03,78.62 L84.82,78.89 L84.61,79.16 L84.39,79.43 L84.17,79.70 L83.95,79.97 L83.73,80.24 L83.50,80.50 L83.28,80.76 L83.05,81.02 L82.82,81.27 L82.59,81.53 L82.35,81.78 L82.12,82.03 L81.88,82.28 L81.64,82.53 L81.40,82.77 L81.16,83.02 L80.92,83.26 L80.67,83.50 L80.42,83.73 L80.17,83.97 L79.92,84.20 L79.67,84.43 L79.42,84.66 L79.17,84.89 L78.91,85.11 L78.65,85.34 L78.40,85.56 L78.14,85.78 L77.87,86.00 L77.61,86.21 L77.35,86.42 L77.08,86.64 L76.82,86.85 L76.55,87.05 L76.28,87.26 L76.01,87.46 L75.74,87.67 L75.47,87.87 L75.19,88.06 L74.92,88.26 L74.64,88.46 L74.37,88.65 L74.09,88.84 L73.81,89.03 L73.53,89.22 L73.25,89.40 L72.97,89.59 L72.69,89.77 L72.40,89.95 L72.12,90.13 L71.83,90.31 L71.54,90.49 L71.26,90.66 L70.97,90.83 L70.68,91.00 L70.39,91.17 L70.10,91.34 L69.81,91.51 L69.51,91.67 L69.22,91.83 L68.93,92.00 L68.63,92.16 L68.33,92.31 L68.04,92.47 L67.74,92.63 L67.44,92.78 L67.14,92.93 L66.84,93.08 L66.54,93.23 L66.24,93.38 L65.94,93.53 L65.63,93.67 L65.33,93.82 L65.02,93.96 L64.72,94.10 L64.41,94.24 L64.11,94.38 L63.80,94.52 L63.49,94.66 L63.18,94.79 L62.87,94.93 L62.56,95.06 L62.25,95.19 L61.94,95.32 L61.62,95.45 L61.31,95.58 L60.99,95.70 L60.68,95.83 L60.36,95.95 L60.05,96.08 L59.73,96.20 L59.41,96.32 L59.09,96.44 L58.77,96.56 L58.45,96.68 L58.13,96.79 L57.81,96.91 L57.49,97.03 L57.16,97.14 L56.84,97.25 L56.52,97.36 L56.19,97.48 L55.86,97.59 L55.54,97.70 L55.21,97.80 L54.88,97.91 L54.55,98.02 L54.22,98.12 L53.89,98.23 L53.56,98.33 L53.23,98.44 L52.89,98.54 L52.56,98.64 L52.22,98.74 L51.89,98.84 L51.55,98.94 L51.21,99.04 L50.87,99.13 L50.53,99.23 L50.19,99.33 L49.85,99.42 L49.51,99.52 L49.17,99.61 L48.83,99.70 L48.48,99.80 L48.14,99.89 L47.79,99.98 L47.44,100.07 L47.09,100.16 L46.75,100.25 L46.40,100.34 L46.04,100.42 L45.69,100.51 L45.34,100.60 L44.99,100.68 L44.63,100.77 L44.28,100.85 L43.92,100.94 L43.56,101.02 L43.20,101.11 L42.84,101.19 L42.48,101.27 L42.12,101.35 L41.76,101.43 L41.40,101.51 L41.03,101.59 L40.67,101.67 L40.30,101.75 L39.94,101.83 L39.57,101.91 L39.20,101.99 L38.83,102.06 L38.46,102.14 L38.08,102.22 L37.71,102.29 L37.34,102.37 L36.96,102.45 L36.59,102.52 L36.21,102.60 L35.83,102.67 L35.45,102.75 L35.07,102.82 L34.69,102.89 L34.31,102.97 L33.92,103.04 L33.54,103.11 L33.15,103.19 L32.77,103.26 L32.38,103.33 L31.99,103.40 L31.60,103.48 L31.21,103.55 L30.82,103.62 L30.43,103.69 L30.04,103.76 L29.64,103.84 L29.25,103.91 L28.85,103.98 L28.45,104.05 L28.05,104.12 L27.65,104.20 L27.25,104.27 L26.85,104.34 L26.45,104.41 L26.05,104.49 L25.64,104.56 L25.24,104.63 L24.83,104.70 L24.43,104.78 L24.02,104.85 L23.61,104.93 L23.20,105.00 L22.79,105.07 L22.38,105.15 L21.97,105.23 L21.56,105.30 L21.14,105.38 L20.73,105.46 L20.31,105.53 L19.90,105.61 L19.48,105.69 L19.06,105.77 L18.79,105.84 L18.54,105.96 L18.30,106.11 L18.10,106.30 L17.92,106.52 L17.78,106.76 L17.68,107.02 L17.62,107.30 L17.61,107.58 L17.64,107.85 L17.71,108.12 L17.83,108.38 L17.98,108.61 L18.17,108.82 L18.39,109.00 L18.63,109.14 L18.89,109.24 L19.17,109.29 L19.45,109.31 L19.73,109.28 L20.14,109.20 L20.55,109.12 L20.96,109.05 L21.37,108.98 L21.78,108.90 L22.19,108.83 L22.60,108.76 L23.01,108.69 L23.42,108.62 L23.83,108.55 L24.23,108.48 L24.64,108.41 L25.05,108.34 L25.45,108.27 L25.86,108.21 L26.26,108.14 L26.67,108.07 L27.07,108.01 L27.47,107.94 L27.87,107.88 L28.27,107.81 L28.68,107.75 L29.07,107.68 L29.47,107.62 L29.87,107.55 L30.27,107.49 L30.67,107.42 L31.06,107.36 L31.46,107.29 L31.85,107.23 L32.25,107.16 L32.64,107.10 L33.03,107.04 L33.42,106.97 L33.81,106.91 L34.20,106.84 L34.59,106.78 L34.98,106.71 L35.37,106.65 L35.75,106.58 L36.14,106.52 L36.52,106.45 L36.91,106.39 L37.29,106.32 L37.67,106.26 L38.06,106.19 L38.44,106.12 L38.82,106.05 L39.20,105.99 L39.57,105.92 L39.95,105.85 L40.33,105.78 L40.71,105.71 L41.08,105.65 L41.46,105.58 L41.83,105.51 L42.20,105.44 L42.57,105.37 L42.95,105.29 L43.32,105.22 L43.69,105.15 L44.05,105.08 L44.42,105.00 L44.79,104.93 L45.16,104.86 L45.52,104.78 L45.89,104.71 L46.25,104.63 L46.62,104.56 L46.98,104.48 L47.34,104.40 L47.70,104.32 L48.06,104.24 L48.42,104.17 L48.78,104.09 L49.14,104.00 L49.50,103.92 L49.86,103.84 L50.22,103.76 L50.57,103.68 L50.93,103.59 L51.28,103.51 L51.64,103.42 L51.99,103.34 L52.34,103.25 L52.69,103.16 L53.05,103.07 L53.40,102.98 L53.75,102.89 L54.10,102.80 L54.45,102.71 L54.80,102.62 L55.14,102.52 L55.49,102.43 L55.84,102.33 L56.19,102.24 L56.53,102.14 L56.88,102.04 L57.22,101.94 L57.57,101.84 L57.91,101.74 L58.25,101.64 L58.60,101.54 L58.94,101.43 L59.28,101.33 L59.62,101.22 L59.97,101.11 L60.31,101.01 L60.65,100.90 L60.99,100.79 L61.33,100.67 L61.66,100.56 L62.00,100.45 L62.34,100.33 L62.68,100.21 L63.02,100.10 L63.35,99.98 L63.69,99.86 L64.03,99.73 L64.36,99.61 L64.70,99.49 L65.03,99.36 L65.37,99.23 L65.70,99.10 L66.03,98.97 L66.37,98.84 L66.70,98.71 L67.03,98.58 L67.36,98.44 L67.70,98.30 L68.03,98.16 L68.36,98.02 L68.69,97.88 L69.02,97.74 L69.35,97.59 L69.68,97.44 L70.01,97.29 L70.34,97.14 L70.66,96.99 L70.99,96.84 L71.32,96.68 L71.64,96.52 L71.97,96.36 L72.30,96.20 L72.62,96.04 L72.95,95.87 L73.27,95.71 L73.59,95.54 L73.92,95.37 L74.24,95.19 L74.56,95.02 L74.88,94.84 L75.20,94.66 L75.53,94.48 L75.85,94.30 L76.16,94.11 L76.48,93.93 L76.80,93.74 L77.12,93.54 L77.43,93.35 L77.75,93.15 L78.07,92.96 L78.38,92.76 L78.69,92.55 L79.01,92.35 L79.32,92.14 L79.63,91.93 L79.94,91.72 L80.25,91.51 L80.56,91.29 L80.87,91.07 L81.17,90.85 L81.48,90.63 L81.78,90.40 L82.09,90.17 L82.39,89.94 L82.69,89.71 L82.99,89.47 L83.29,89.23 L83.59,88.99 L83.89,88.75 L84.18,88.50 L84.48,88.25 L84.77,88.00 L85.06,87.75 L85.35,87.49 L85.64,87.23 L85.93,86.97 L86.22,86.70 L86.50,86.44 L86.79,86.17 L87.07,85.90 L87.35,85.62 L87.63,85.34 L87.90,85.06 L88.18,84.78 L88.45,84.49 L88.72,84.21 L88.99,83.91 L89.26,83.62 L89.53,83.32 L89.79,83.03 L90.06,82.72 L90.32,82.42 L90.58,82.11 L90.83,81.80 L91.09,81.49 L91.34,81.17 L91.59,80.86 L91.84,80.54 L92.08,80.21 L92.33,79.89 L92.57,79.56 L92.81,79.23 L93.04,78.89 L93.28,78.56 L93.51,78.22 L93.74,77.88 L93.96,77.53 L94.19,77.18 L94.41,76.83 L94.63,76.48 L94.84,76.13 L95.06,75.77 L95.27,75.41 L95.47,75.05 L95.68,74.68 L95.88,74.32 L96.08,73.95 L96.27,73.57 L96.46,73.20 L96.65,72.82 L96.84,72.44 L97.02,72.06 L97.20,71.68 L97.38,71.29 L97.55,70.90 L97.72,70.51 L97.89,70.12 L98.05,69.72 L98.21,69.33 L98.36,68.93 L98.51,68.53 L98.66,68.12 L98.81,67.72 L98.95,67.31 L99.09,66.90 L99.22,66.49 L99.35,66.07 L99.48,65.66 L99.60,65.24 L99.72,64.82 L99.83,64.40 L99.94,63.98 L100.05,63.55 L100.15,63.12 L100.25,62.70 L100.34,62.27 L100.43,61.84 L100.52,61.40 L100.60,60.97 L100.68,60.53 L100.75,60.10 L100.82,59.66 L100.89,59.22 L100.95,58.78 L101.00,58.34 L101.05,57.89 L101.10,57.45 L101.15,57.00 L101.18,56.56 L101.22,56.11 L101.25,55.66 L101.27,55.21 L101.29,54.76 L101.31,54.31 L101.32,53.86 L101.33,53.41 L101.33,52.96 L101.32,52.51 L101.32,52.05 L101.30,51.60 L101.29,51.14 L101.27,50.69 L101.24,50.23 L101.21,49.78 L101.17,49.32 L101.13,48.87 L101.09,48.41 L101.04,47.96 L100.98,47.50 L100.92,47.05 L100.86,46.59 L100.79,46.14 L100.71,45.68 L100.63,45.23 L100.55,44.77 L100.46,44.32 L100.37,43.87 L100.27,43.41 L100.16,42.96 L100.05,42.51 L99.94,42.06 L99.82,41.61 L99.70,41.16 L99.57,40.71 L99.44,40.27 L99.30,39.82 L99.16,39.38 L99.01,38.93 L98.86,38.49 L98.70,38.05 L98.54,37.61 L98.37,37.17 L98.20,36.74 L98.02,36.30 L97.84,35.87 L97.66,35.43 L97.47,35.00 L97.27,34.58 L97.07,34.15 L96.87,33.72 L96.66,33.30 L96.44,32.88 L96.22,32.46 L96.00,32.04 L95.77,31.63 L95.54,31.22 L95.30,30.80 L95.06,30.40 L94.81,29.99 L94.56,29.59 L94.31,29.19 L94.05,28.79 L93.78,28.39 L93.51,28.00 L93.24,27.61 L92.96,27.22 L92.68,26.84 L92.40,26.45 L92.11,26.08 L91.81,25.70 L91.51,25.33 L91.21,24.96 L90.90,24.59 L90.59,24.23 L90.28,23.87 L89.96,23.51 L89.64,23.15 L89.31,22.80 L88.98,22.46 L88.65,22.11 L88.31,21.77 L87.97,21.44 L87.62,21.10 L87.27,20.77 L86.92,20.45 L86.56,20.12 L86.20,19.81 L85.84,19.49 L85.47,19.18 L85.10,18.87 L84.73,18.57 L84.35,18.27 L83.97,17.98 L83.58,17.68 L83.20,17.40 L82.81,17.11 L82.41,16.84 L82.02,16.56 L81.62,16.29 L81.22,16.02 L80.81,15.76 L80.40,15.50 L79.99,15.25 L79.58,15.00 L79.16,14.76 L78.75,14.52 L78.32,14.28 L77.90,14.05 L77.47,13.82 L77.05,13.60 L76.61,13.38 L76.18,13.17 L75.75,12.96 L75.31,12.76 L74.87,12.56 L74.43,12.37 L73.98,12.18 L73.54,11.99 L73.09,11.81 L72.64,11.63 L72.19,11.46 L71.73,11.30 L71.28,11.14 L70.82,10.98 L70.36,10.83 L69.90,10.68 L69.44,10.54 L68.98,10.40 L68.52,10.27 L68.05,10.14 L67.58,10.02 L67.12,9.90 L66.65,9.79 L66.18,9.68 L65.71,9.58 L65.23,9.48 L64.76,9.39 L64.29,9.30 L63.81,9.22 L63.34,9.14 L62.86,9.07 L62.38,9.00 L61.91,8.93 L61.43,8.88 L60.95,8.82 L60.47,8.77 L59.99,8.73 L59.51,8.69 L59.03,8.66 L58.55,8.63 L58.07,8.61 L57.59,8.59 L57.11,8.57 L56.63,8.57 L56.15,8.56 L55.67,8.56 L55.19,8.57 L54.71,8.58 L54.23,8.59 L53.76,8.61 L53.28,8.64 L52.80,8.67 L52.32,8.71 L51.84,8.75 L51.37,8.79 L50.89,8.84 L50.42,8.89 L49.94,8.95 L49.47,9.02 L49.00,9.08 L48.53,9.16 L48.05,9.24 L47.58,9.32 L47.12,9.41 L46.65,9.50 L46.18,9.59 L45.72,9.70 L45.25,9.80 L44.79,9.91 L44.33,10.03 L43.87,10.15 L43.41,10.27 L42.95,10.40 L42.49,10.53 L42.04,10.67 L41.59,10.81 L41.14,10.96 L40.69,11.11 L40.24,11.26 L39.79,11.42 L39.35,11.58 L38.90,11.75 L38.46,11.92 L38.02,12.10 L37.59,12.28 L37.15,12.46 L36.72,12.65 L36.29,12.85 L35.86,13.04 L35.43,13.24 L35.01,13.45 L34.59,13.66 L34.17,13.87 L33.75,14.09 L33.33,14.31 L32.92,14.53 L32.51,14.76 L32.10,14.99 L31.70,15.23 L31.29,15.47 L30.89,15.71 L30.49,15.96 L30.10,16.21 L29.70,16.47 L29.31,16.72 L28.92,16.99 L28.54,17.25 L28.16,17.52 L27.78,17.79 L27.40,18.07 L27.02,18.35 L26.65,18.63 L26.28,18.92 L25.92,19.21 L25.56,19.50 L25.20,19.80 L24.84,20.09 L24.48,20.40 L24.13,20.70 L23.78,21.01 L23.44,21.32 L23.10,21.64 L22.76,21.96 L22.42,22.28 L22.09,22.60 L21.76,22.93 L21.43,23.26 L21.11,23.59 L20.79,23.93 L20.47,24.26 L20.16,24.61 L19.85,24.95 L19.54,25.30 L19.24,25.65 L18.94,26.00 L18.64,26.35 L18.35,26.71 L18.08,27.04 L17.43,28.07 L16.95,29.19 L16.65,30.37 L16.54,31.59 L16.62,32.80 L16.89,33.99 L17.34,35.13 L17.96,36.17 L18.74,37.11 L19.66,37.91 L20.69,38.57 L21.81,39.05 L22.99,39.35 L24.21,39.46 L25.42,39.38 L26.61,39.11 L27.75,38.66 L28.79,38.03 L29.73,37.25 Z" fill="#6B2D35"/></svg>